<svg xmlns="http://www.w3.org/2000/svg" xmlns:xlink="http://www.w3.org/1999/xlink" width="200" zoomAndPan="magnify" viewBox="0 0 150 149.999998" height="200" preserveAspectRatio="xMidYMid meet" version="1.0"><defs><clipPath id="1fa138d8f5"><path d="M 0 59.046875 L 150 59.046875 L 150 91.296875 L 0 91.296875 Z M 0 59.046875 " clip-rule="nonzero"/></clipPath></defs><g clip-path="url(#1fa138d8f5)"><path fill="#14234c" d="M 44.117188 71.636719 C 47.199219 71.636719 49.191406 73.257812 50.128906 75.980469 L 54.738281 75.980469 C 53.605469 70.808594 49.542969 67.570312 44.117188 67.570312 C 37.636719 67.570312 32.753906 72.664062 32.753906 79.335938 C 32.753906 86.007812 37.636719 90.941406 44.117188 90.941406 C 49.542969 90.941406 53.488281 87.546875 54.738281 82.53125 L 50.128906 82.53125 C 49.191406 85.097656 47.160156 86.875 44.117188 86.875 C 39.859375 86.875 37.207031 83.796875 37.207031 79.375 C 37.246094 74.914062 39.859375 71.636719 44.117188 71.636719 Z M 63.128906 70.097656 L 62.9375 70.097656 L 62.703125 67.886719 L 58.835938 67.886719 L 58.835938 91.019531 L 63.128906 91.019531 L 63.128906 76.375 C 63.128906 73.296875 65.472656 71.597656 68.558594 71.597656 C 69.222656 71.597656 69.378906 71.636719 69.378906 71.636719 L 69.378906 67.414062 C 69.378906 67.414062 69.105469 67.335938 68.558594 67.335938 C 67.230469 67.335938 64.808594 67.886719 63.128906 70.097656 Z M 109.242188 67.335938 C 105.414062 67.335938 103.070312 68.992188 102.058594 70.097656 L 101.863281 70.097656 L 101.628906 67.886719 L 97.761719 67.886719 L 97.761719 91.019531 L 102.058594 91.019531 L 102.058594 76.453125 C 102.058594 73.214844 104.945312 71.519531 108.5 71.519531 C 111.542969 71.519531 113.730469 73.058594 113.730469 76.257812 L 113.730469 91.019531 L 118.027344 91.019531 L 118.027344 75.980469 C 117.988281 69.585938 113.535156 67.335938 109.242188 67.335938 Z M 123.53125 67.886719 L 127.824219 67.886719 L 127.824219 91.019531 L 123.53125 91.019531 Z M 82.027344 67.570312 C 75.507812 67.570312 70.550781 72.585938 70.550781 79.257812 C 70.550781 85.925781 75.46875 90.941406 82.027344 90.941406 C 88.546875 90.941406 93.507812 85.925781 93.507812 79.257812 C 93.507812 72.585938 88.546875 67.570312 82.027344 67.570312 Z M 82.027344 86.757812 C 77.773438 86.757812 75.039062 83.597656 75.039062 79.257812 C 75.039062 74.914062 77.773438 71.675781 82.027344 71.675781 C 86.285156 71.675781 89.015625 74.914062 89.015625 79.257812 C 89.015625 83.597656 86.285156 86.757812 82.027344 86.757812 Z M 141.6875 76.964844 C 137.429688 76.019531 137.625 74.953125 137.625 74.007812 C 137.625 72.859375 138.875 71.441406 140.945312 71.441406 C 142.664062 71.441406 144.496094 72.308594 144.496094 75.230469 L 148.636719 75.230469 C 148.792969 70.492188 145.707031 67.609375 140.945312 67.609375 C 136.726562 67.609375 133.332031 70.570312 133.332031 74.203125 C 133.332031 78.78125 136.921875 80.203125 140.828125 81.070312 C 144.964844 81.980469 145.316406 83.28125 145.316406 84.191406 C 145.316406 85.925781 143.558594 87.425781 141.101562 87.425781 C 139.34375 87.425781 136.648438 86.320312 136.648438 82.964844 L 132.511719 82.964844 C 132.238281 88.257812 136.023438 91.296875 141.101562 91.296875 C 145.902344 91.296875 149.691406 88.175781 149.691406 84.03125 C 149.652344 79.296875 145.550781 77.796875 141.6875 76.964844 Z M 14.5625 59.046875 L 0.308594 91.019531 L 4.878906 91.019531 L 7.648438 84.585938 L 25.375 84.585938 L 28.148438 91.019531 L 32.675781 91.019531 L 18.503906 59.046875 Z M 16.433594 64.492188 L 16.628906 64.492188 L 16.863281 65.085938 L 20.886719 74.402344 L 12.179688 74.402344 L 16.199219 65.085938 Z M 9.25 80.953125 L 10.578125 77.953125 L 22.449219 77.953125 L 23.773438 80.953125 Z M 9.25 80.953125 " fill-opacity="1" fill-rule="nonzero"/></g></svg>