<svg xmlns="http://www.w3.org/2000/svg" xmlns:xlink="http://www.w3.org/1999/xlink" width="200" zoomAndPan="magnify" viewBox="0 0 150 149.999998" height="200" preserveAspectRatio="xMidYMid meet" version="1.0"><defs><clipPath id="8015417a0d"><path d="M 56 37.15625 L 94 37.15625 L 94 77 L 56 77 Z M 56 37.15625 " clip-rule="nonzero"/></clipPath><clipPath id="c385fa30c0"><path d="M 104 88 L 112.46875 88 L 112.46875 112.90625 L 104 112.90625 Z M 104 88 " clip-rule="nonzero"/></clipPath><clipPath id="719c1070a9"><path d="M 77 88 L 85 88 L 85 112.90625 L 77 112.90625 Z M 77 88 " clip-rule="nonzero"/></clipPath><clipPath id="2edf8c3e76"><path d="M 37.46875 93 L 53 93 L 53 112.90625 L 37.46875 112.90625 Z M 37.46875 93 " clip-rule="nonzero"/></clipPath><clipPath id="3d8ee39ba2"><path d="M 64 93 L 76 93 L 76 112.90625 L 64 112.90625 Z M 64 93 " clip-rule="nonzero"/></clipPath><clipPath id="9f55199efd"><path d="M 86 93 L 102 93 L 102 112.90625 L 86 112.90625 Z M 86 93 " clip-rule="nonzero"/></clipPath><clipPath id="2d23c76dca"><path d="M 56 93 L 61 93 L 61 112.90625 L 56 112.90625 Z M 56 93 " clip-rule="nonzero"/></clipPath></defs><g clip-path="url(#8015417a0d)"><path fill="#ff0000" d="M 79.027344 37.253906 C 78.882812 37.296875 78.539062 37.335938 78.269531 37.347656 C 77.195312 37.367188 73.714844 38.25 72.453125 38.808594 C 72.335938 38.863281 72.015625 38.996094 71.726562 39.109375 C 70.972656 39.402344 68.972656 40.355469 68.660156 40.585938 C 68.515625 40.675781 68.277344 40.800781 68.125 40.832031 C 67.96875 40.875 67.84375 40.949219 67.84375 40.988281 C 67.84375 41.03125 67.761719 41.09375 67.667969 41.132812 C 67.5625 41.164062 67.347656 41.289062 67.171875 41.402344 C 67.003906 41.519531 66.757812 41.652344 66.621094 41.714844 C 66.488281 41.765625 66.226562 41.933594 66.042969 42.078125 C 65.855469 42.222656 65.667969 42.335938 65.636719 42.335938 C 65.398438 42.335938 62.066406 44.765625 61.121094 45.613281 C 60.355469 46.308594 58.9375 47.824219 58.9375 47.949219 C 58.9375 47.980469 58.84375 48.125 58.71875 48.261719 C 58.410156 48.613281 57.476562 50.085938 57.207031 50.636719 C 57.09375 50.894531 56.867188 51.351562 56.722656 51.664062 C 56.214844 52.699219 56.007812 53.832031 56.058594 55.148438 C 56.121094 56.445312 56.410156 57.117188 57.292969 58.011719 C 58.214844 58.933594 59.195312 59.339844 60.75 59.421875 C 61.816406 59.472656 62.582031 59.390625 63.648438 59.089844 C 63.992188 58.996094 64.445312 58.882812 64.664062 58.820312 C 64.882812 58.769531 65.128906 58.683594 65.234375 58.621094 C 65.472656 58.5 66.808594 57.898438 66.871094 57.898438 C 67.054688 57.898438 69.242188 56.558594 71.261719 55.210938 C 72.597656 54.316406 73.765625 53.539062 73.871094 53.488281 C 73.964844 53.425781 74.59375 53.050781 75.269531 52.648438 C 75.941406 52.253906 76.769531 51.777344 77.113281 51.601562 C 77.453125 51.425781 77.941406 51.164062 78.199219 51.03125 C 78.457031 50.90625 78.945312 50.675781 79.285156 50.554688 C 79.628906 50.417969 80.050781 50.242188 80.21875 50.167969 C 80.394531 50.097656 80.644531 49.980469 80.789062 49.921875 C 81.191406 49.753906 82.101562 49.589844 82.992188 49.527344 C 84.917969 49.402344 86.265625 50.25 86.960938 52.035156 C 87.125 52.460938 87.15625 52.8125 87.15625 54.058594 C 87.15625 55.574219 87.023438 56.402344 86.617188 57.378906 C 86.535156 57.574219 86.421875 57.855469 86.359375 58 C 85.839844 59.246094 84.773438 61.03125 83.550781 62.648438 C 82.394531 64.203125 79.898438 66.785156 78.25 68.144531 C 77.679688 68.621094 77.050781 69.140625 76.851562 69.308594 C 76.417969 69.671875 75.910156 70.035156 75.351562 70.40625 C 75.125 70.550781 74.75 70.800781 74.523438 70.96875 C 73.878906 71.402344 72.171875 72.316406 71.207031 72.730469 C 70.929688 72.855469 70.546875 73.019531 70.359375 73.105469 C 70.183594 73.1875 69.945312 73.25 69.832031 73.25 C 69.726562 73.25 69.488281 73.300781 69.304688 73.363281 C 68.628906 73.601562 67.945312 73.144531 67.945312 72.449219 C 67.945312 71.601562 68.351562 71.058594 70.898438 68.527344 C 73.652344 65.789062 73.953125 65.386719 73.953125 64.347656 C 73.953125 63.28125 73.445312 62.554688 72.304688 61.972656 C 71.808594 61.714844 71.625 61.683594 70.753906 61.683594 C 69.738281 61.683594 69.148438 61.828125 68.414062 62.273438 C 68.246094 62.378906 67.988281 62.511719 67.84375 62.585938 C 67.699219 62.65625 67.5625 62.742188 67.53125 62.773438 C 67.5 62.804688 67.292969 62.957031 67.066406 63.136719 C 66.519531 63.550781 65.554688 64.535156 65.007812 65.25 C 64.621094 65.75 64.34375 66.214844 63.691406 67.441406 C 63.152344 68.457031 62.664062 70.34375 62.664062 71.445312 C 62.664062 73.675781 63.824219 75.457031 65.617188 75.964844 C 66.15625 76.121094 68.351562 76.121094 69.105469 75.976562 C 69.851562 75.820312 71.800781 75.21875 71.921875 75.105469 C 71.984375 75.054688 72.089844 75.011719 72.171875 75.011719 C 72.441406 75.011719 75.515625 73.445312 76.574219 72.761719 C 76.8125 72.605469 77.082031 72.429688 77.183594 72.367188 C 77.277344 72.316406 77.765625 72.015625 78.269531 71.703125 C 78.769531 71.390625 79.203125 71.101562 79.234375 71.070312 C 79.265625 71.027344 79.617188 70.769531 80.011719 70.5 C 80.414062 70.21875 80.878906 69.898438 81.046875 69.785156 C 81.222656 69.660156 81.710938 69.285156 82.132812 68.945312 C 84.828125 66.796875 87.207031 64.503906 88.59375 62.71875 C 88.824219 62.441406 89.03125 62.179688 89.0625 62.148438 C 89.144531 62.085938 89.847656 61.070312 90.335938 60.304688 C 90.550781 59.980469 90.882812 59.410156 91.070312 59.039062 C 91.265625 58.664062 91.535156 58.15625 91.671875 57.898438 C 91.804688 57.636719 92.09375 56.964844 92.324219 56.394531 C 92.539062 55.820312 92.757812 55.261719 92.800781 55.148438 C 93.089844 54.410156 93.535156 52.511719 93.730469 51.15625 C 93.949219 49.621094 93.785156 47.097656 93.359375 45.707031 C 93.183594 45.136719 93.140625 45.035156 92.757812 44.203125 C 91.929688 42.421875 90.605469 40.800781 89.082031 39.742188 C 88.875 39.597656 88.617188 39.402344 88.503906 39.289062 C 88.128906 38.957031 86.234375 38.105469 85.125 37.785156 C 84.535156 37.605469 83.65625 37.421875 83.167969 37.347656 C 82.050781 37.203125 79.367188 37.128906 79.027344 37.253906 Z M 79.027344 37.253906 " fill-opacity="1" fill-rule="nonzero"/></g><g clip-path="url(#c385fa30c0)"><path fill="#ff0000" d="M 109.046875 88.550781 C 109.015625 88.570312 108.539062 88.664062 107.96875 88.757812 C 107.402344 88.839844 106.46875 88.996094 105.898438 89.097656 L 104.863281 89.273438 L 104.863281 98.820312 C 104.863281 109.179688 104.84375 108.746094 105.453125 110.042969 C 105.660156 110.488281 105.949219 110.871094 106.394531 111.277344 C 107.492188 112.28125 108.519531 112.59375 110.703125 112.605469 C 112.566406 112.605469 112.496094 112.675781 112.453125 110.953125 L 112.421875 109.710938 L 111.625 109.636719 C 110.207031 109.511719 109.523438 108.941406 109.367188 107.761719 C 109.328125 107.40625 109.296875 102.96875 109.304688 97.90625 C 109.316406 89.140625 109.296875 88.300781 109.046875 88.550781 Z M 109.046875 88.550781 " fill-opacity="1" fill-rule="nonzero"/></g><g clip-path="url(#719c1070a9)"><path fill="#ff0000" d="M 80.375 88.757812 C 78.074219 89.097656 77.308594 89.246094 77.214844 89.359375 C 77.140625 89.441406 77.132812 92.75 77.164062 99.078125 C 77.214844 107.914062 77.234375 108.714844 77.402344 109.140625 C 77.796875 110.144531 78.003906 110.5 78.53125 111.027344 C 79.617188 112.117188 81.003906 112.5625 83.285156 112.5625 C 84.546875 112.5625 84.722656 112.542969 84.804688 112.375 C 84.910156 112.179688 84.960938 110.375 84.878906 109.960938 C 84.816406 109.699219 84.773438 109.691406 83.996094 109.628906 C 83.015625 109.566406 82.433594 109.234375 82.03125 108.515625 L 81.769531 108.050781 L 81.742188 102.675781 C 81.71875 98.671875 81.742188 97.261719 81.832031 97.148438 C 81.925781 97.035156 82.277344 97.003906 83.386719 97.003906 C 85.09375 97.003906 84.949219 97.167969 84.910156 95.1875 L 84.878906 93.839844 L 83.429688 93.789062 C 82.632812 93.757812 81.917969 93.695312 81.855469 93.652344 C 81.75 93.589844 81.71875 92.957031 81.71875 91.082031 L 81.71875 88.601562 L 81.492188 88.613281 C 81.355469 88.621094 80.859375 88.683594 80.375 88.757812 Z M 80.375 88.757812 " fill-opacity="1" fill-rule="nonzero"/></g><g clip-path="url(#2edf8c3e76)"><path fill="#ff0000" d="M 44.492188 93.433594 C 43.714844 93.507812 41.851562 93.953125 41.28125 94.203125 C 41.167969 94.253906 40.960938 94.328125 40.816406 94.367188 C 40.359375 94.492188 38.847656 95.25 38.847656 95.355469 C 38.847656 95.40625 38.941406 95.644531 39.046875 95.894531 C 39.730469 97.398438 39.988281 97.9375 40.039062 97.9375 C 40.070312 97.9375 40.175781 97.894531 40.277344 97.84375 C 40.804688 97.574219 41.449219 97.3125 41.957031 97.160156 C 42.265625 97.066406 42.636719 96.941406 42.785156 96.890625 C 43.363281 96.683594 44.90625 96.578125 45.621094 96.691406 C 47.027344 96.921875 47.546875 97.574219 47.628906 99.242188 C 47.671875 100.167969 47.671875 100.1875 47.433594 100.25 C 47.296875 100.292969 46.347656 100.324219 45.320312 100.324219 C 42.855469 100.324219 42.101562 100.46875 40.503906 101.246094 C 39.136719 101.910156 38.125 103.164062 37.636719 104.78125 C 37.386719 105.644531 37.417969 107.25 37.699219 108.101562 C 38.632812 110.925781 40.847656 112.574219 43.933594 112.738281 C 46.738281 112.894531 49.628906 112.054688 51.480469 110.5625 L 52.15625 110.011719 L 52.1875 104.523438 C 52.21875 98.164062 52.207031 97.945312 51.441406 96.390625 C 51.097656 95.6875 49.949219 94.566406 49.234375 94.253906 C 48.902344 94.097656 48.542969 93.941406 48.425781 93.890625 C 47.652344 93.550781 45.683594 93.320312 44.492188 93.433594 Z M 47.546875 103.433594 C 47.609375 103.515625 47.652344 104.75 47.652344 106.246094 C 47.652344 109.191406 47.691406 109.003906 46.925781 109.410156 C 46.636719 109.566406 46.316406 109.597656 45.308594 109.605469 L 44.058594 109.605469 L 43.539062 109.253906 C 43.261719 109.066406 42.929688 108.757812 42.816406 108.578125 C 42.046875 107.460938 42.101562 105.457031 42.90625 104.472656 C 43.144531 104.171875 44.058594 103.539062 44.222656 103.539062 C 44.328125 103.539062 44.441406 103.496094 44.503906 103.445312 C 44.648438 103.289062 45.125 103.246094 46.335938 103.269531 C 47.207031 103.277344 47.472656 103.308594 47.546875 103.433594 Z M 47.546875 103.433594 " fill-opacity="1" fill-rule="nonzero"/></g><g clip-path="url(#3d8ee39ba2)"><path fill="#ff0000" d="M 70.328125 93.683594 C 68.269531 94.171875 66.621094 95.054688 64.964844 96.566406 L 64.53125 96.960938 L 64.53125 104.535156 C 64.53125 108.695312 64.53125 112.179688 64.53125 112.28125 C 64.53125 112.449219 64.683594 112.460938 66.789062 112.4375 L 69.035156 112.40625 L 69.066406 105.175781 L 69.085938 97.957031 L 69.480469 97.644531 C 69.945312 97.273438 70.171875 97.160156 70.773438 96.953125 C 71.488281 96.710938 72.605469 96.597656 73.445312 96.691406 C 73.859375 96.734375 74.253906 96.753906 74.316406 96.722656 C 74.386719 96.703125 74.574219 96.351562 74.738281 95.933594 C 74.894531 95.519531 75.144531 94.980469 75.269531 94.730469 C 75.609375 94.078125 75.578125 93.910156 75.125 93.808594 C 74.90625 93.757812 74.511719 93.664062 74.234375 93.601562 C 73.496094 93.414062 71.25 93.464844 70.328125 93.683594 Z M 70.328125 93.683594 " fill-opacity="1" fill-rule="nonzero"/></g><g clip-path="url(#9f55199efd)"><path fill="#ff0000" d="M 92.851562 93.703125 C 92.511719 93.757812 92.1875 93.851562 92.136719 93.902344 C 92.074219 93.953125 91.972656 93.996094 91.886719 93.996094 C 91.804688 93.996094 91.433594 94.140625 91.070312 94.328125 C 90.273438 94.722656 89.050781 95.851562 88.535156 96.691406 C 88.078125 97.429688 87.550781 98.527344 87.46875 98.921875 C 87.425781 99.089844 87.363281 99.328125 87.3125 99.441406 C 87.269531 99.554688 87.144531 100 87.042969 100.425781 C 86.761719 101.546875 86.761719 105.136719 87.03125 106.183594 C 87.28125 107.148438 87.839844 108.621094 87.941406 108.621094 C 87.996094 108.621094 88.035156 108.671875 88.035156 108.734375 C 88.035156 109.128906 89.269531 110.695312 90.136719 111.402344 C 90.523438 111.710938 91.382812 112.160156 92.023438 112.375 C 92.71875 112.613281 94.25 112.875 94.933594 112.875 C 96.402344 112.875 99.054688 112.242188 99.933594 111.679688 C 100.140625 111.554688 100.421875 111.410156 100.566406 111.371094 C 100.878906 111.277344 101.558594 110.851562 101.644531 110.707031 C 101.738281 110.5625 100.578125 108.207031 100.421875 108.207031 C 100.347656 108.207031 100.164062 108.300781 100.015625 108.414062 C 99.871094 108.527344 99.695312 108.621094 99.613281 108.621094 C 99.542969 108.621094 99.386719 108.683594 99.273438 108.765625 C 99.15625 108.839844 98.621094 109.058594 98.082031 109.242188 C 97.160156 109.566406 97.003906 109.585938 95.648438 109.597656 C 94.363281 109.597656 94.144531 109.574219 93.730469 109.378906 C 92.28125 108.683594 91.453125 106.929688 91.453125 104.566406 C 91.453125 104.058594 91.464844 103.632812 91.484375 103.621094 C 91.496094 103.601562 93.792969 103.570312 96.578125 103.539062 L 101.652344 103.488281 L 101.621094 102.449219 C 101.558594 100.414062 101.023438 97.675781 100.554688 97.054688 C 100.515625 96.992188 100.371094 96.734375 100.234375 96.472656 C 99.675781 95.363281 98.496094 94.410156 97.097656 93.941406 C 96.070312 93.589844 94.199219 93.488281 92.851562 93.703125 Z M 95.078125 97.003906 C 95.511719 97.117188 96.425781 97.855469 96.425781 98.082031 C 96.425781 98.144531 96.496094 98.332031 96.578125 98.488281 C 96.816406 98.953125 97.003906 100.488281 96.839844 100.6875 C 96.734375 100.820312 96.332031 100.839844 94.238281 100.839844 L 91.765625 100.839844 L 91.703125 100.582031 C 91.566406 100.054688 91.929688 98.632812 92.34375 98.082031 C 92.800781 97.46875 93.203125 97.160156 93.804688 96.984375 C 94.136719 96.890625 94.457031 96.828125 94.527344 96.847656 C 94.589844 96.867188 94.839844 96.941406 95.078125 97.003906 Z M 95.078125 97.003906 " fill-opacity="1" fill-rule="nonzero"/></g><path fill="#ff0000" d="M 57.175781 86.402344 C 56.390625 86.804688 56.152344 87.003906 55.8125 87.511719 C 55.480469 88.019531 55.46875 88.0625 55.46875 89.121094 L 55.46875 90.21875 L 55.863281 90.757812 C 56.328125 91.390625 56.640625 91.621094 57.324219 91.859375 C 58.242188 92.160156 59.042969 92.046875 59.964844 91.464844 C 61.070312 90.757812 61.453125 88.953125 60.78125 87.625 C 60.542969 87.160156 60.335938 86.941406 59.714844 86.546875 C 59.15625 86.183594 57.738281 86.101562 57.175781 86.402344 Z M 57.175781 86.402344 " fill-opacity="1" fill-rule="nonzero"/><g clip-path="url(#2d23c76dca)"><path fill="#ff0000" d="M 59.714844 93.890625 C 59.550781 93.941406 59.082031 94.035156 58.679688 94.089844 C 58.285156 94.140625 57.5625 94.242188 57.074219 94.316406 C 56.585938 94.378906 56.164062 94.472656 56.109375 94.503906 C 56.019531 94.585938 56.007812 112.210938 56.089844 112.367188 C 56.132812 112.417969 57.054688 112.460938 58.265625 112.460938 C 60.378906 112.460938 60.386719 112.460938 60.4375 112.21875 C 60.46875 112.097656 60.480469 107.90625 60.46875 102.914062 C 60.4375 93.921875 60.4375 93.839844 60.230469 93.820312 C 60.117188 93.808594 59.890625 93.839844 59.714844 93.890625 Z M 59.714844 93.890625 " fill-opacity="1" fill-rule="nonzero"/></g></svg>