<svg xmlns="http://www.w3.org/2000/svg" xmlns:xlink="http://www.w3.org/1999/xlink" width="200" zoomAndPan="magnify" viewBox="0 0 150 149.999998" height="200" preserveAspectRatio="xMidYMid meet" version="1.0"><defs><clipPath id="dea4484969"><path d="M 33 69 L 142.210938 69 L 142.210938 92 L 33 92 Z M 33 69 " clip-rule="nonzero"/></clipPath><clipPath id="37ec09c994"><path d="M 8 43.539062 L 59 43.539062 L 59 98.289062 L 8 98.289062 Z M 8 43.539062 " clip-rule="nonzero"/></clipPath></defs><g clip-path="url(#dea4484969)"><path fill="#f79838" d="M 48.90625 83.574219 L 43.4375 83.574219 L 48.175781 74.007812 L 48.234375 74.007812 Z M 49.140625 87.917969 L 49.464844 91.710938 L 55.488281 91.710938 L 53.46875 69.636719 L 44.492188 69.636719 L 33.171875 91.710938 L 39.3125 91.710938 L 41.214844 87.917969 Z M 63.914062 82.027344 L 64.820312 82.027344 L 69.148438 76.226562 L 74.675781 76.226562 L 68.710938 83.632812 L 72.394531 91.652344 L 66.484375 91.652344 L 64.085938 85.410156 L 63.238281 85.410156 L 61.894531 91.652344 L 56.777344 91.652344 L 61.457031 69.664062 L 66.542969 69.664062 Z M 81.199219 85.292969 C 82.863281 85.292969 83.976562 85.410156 83.65625 86.695312 C 83.273438 88.355469 82.601562 88.589844 80.46875 88.589844 C 79.675781 88.589844 78.242188 88.589844 78.625 86.925781 C 78.917969 85.527344 79.96875 85.292969 81.199219 85.292969 Z M 82.601562 91.652344 L 87.632812 91.652344 L 89.652344 82.027344 C 90.820312 76.691406 88.714844 76.078125 83.566406 76.078125 C 79.941406 76.078125 76.429688 76.019531 75.378906 80.863281 L 80.410156 80.863281 C 80.730469 79.460938 81.578125 79.199219 82.808594 79.199219 C 85.03125 79.199219 84.972656 80.132812 84.589844 81.53125 L 84.09375 83.980469 L 83.859375 83.980469 C 83.683594 82.203125 81.460938 82.261719 80 82.261719 C 76.3125 82.261719 74.148438 83.429688 73.359375 87.101562 C 72.511719 91.039062 74.414062 91.882812 77.921875 91.882812 C 79.707031 91.882812 82.046875 91.503906 82.894531 89.433594 L 83.070312 89.433594 Z M 97.929688 76.226562 L 97.488281 78.441406 L 97.664062 78.441406 C 98.660156 76.605469 100.675781 76.109375 102.402344 76.109375 C 104.625 76.109375 106.761719 76.488281 106.46875 79.113281 L 106.703125 79.113281 C 107.433594 76.894531 109.714844 76.109375 111.675781 76.109375 C 115.242188 76.109375 116.765625 77.566406 115.972656 81.125 L 113.691406 91.679688 L 108.664062 91.679688 L 110.5625 82.726562 C 110.796875 81.066406 111.0625 79.898438 109.160156 79.898438 C 107.257812 79.898438 106.527344 81.183594 106.207031 82.84375 L 104.363281 91.621094 L 99.332031 91.621094 L 101.292969 82.289062 C 101.527344 80.890625 101.671875 79.898438 99.886719 79.898438 C 97.8125 79.898438 97.167969 81.007812 96.816406 82.84375 L 94.972656 91.621094 L 89.945312 91.621094 L 93.277344 76.167969 L 97.957031 76.167969 L 97.957031 76.226562 Z M 123.929688 85.292969 C 125.597656 85.292969 126.707031 85.410156 126.386719 86.695312 C 126.066406 88.355469 125.332031 88.589844 123.199219 88.589844 C 122.46875 88.589844 120.976562 88.589844 121.355469 86.925781 C 121.648438 85.527344 122.644531 85.292969 123.929688 85.292969 Z M 125.273438 91.652344 L 130.304688 91.652344 L 132.324219 82.027344 C 133.496094 76.691406 131.386719 76.078125 126.242188 76.078125 C 122.613281 76.078125 119.105469 76.019531 118.050781 80.863281 L 123.082031 80.863281 C 123.402344 79.460938 124.25 79.199219 125.480469 79.199219 C 127.703125 79.199219 127.644531 80.132812 127.265625 81.53125 L 126.765625 83.980469 L 126.53125 83.980469 C 126.359375 82.203125 124.132812 82.261719 122.671875 82.261719 C 118.988281 82.261719 116.824219 83.429688 116.03125 87.101562 C 115.183594 91.039062 117.085938 91.882812 120.59375 91.882812 C 122.378906 91.882812 124.71875 91.503906 125.566406 89.433594 L 125.742188 89.433594 Z M 137.707031 91.652344 L 132.675781 91.652344 L 135.921875 76.195312 L 140.953125 76.195312 Z M 142.121094 71.996094 C 142.121094 73.542969 140.835938 74.824219 139.285156 74.824219 C 137.734375 74.824219 136.449219 73.542969 136.449219 71.996094 C 136.449219 70.394531 137.734375 69.167969 139.285156 69.167969 C 140.835938 69.167969 142.121094 70.394531 142.121094 71.996094 Z M 142.121094 71.996094 " fill-opacity="1" fill-rule="nonzero"/></g><g clip-path="url(#37ec09c994)"><path fill="#0098cc" d="M 35.804688 96.988281 C 24.542969 93.546875 16.382812 83.195312 16.382812 71.003906 C 16.382812 58.613281 24.75 48.203125 36.183594 44.820312 C 37.355469 44.5 37.03125 43.710938 35.628906 43.710938 C 20.449219 43.710938 8.078125 55.902344 8.078125 70.917969 C 8.078125 85.9375 20.363281 98.125 35.628906 98.125 C 37.035156 98.210938 37.089844 97.425781 35.804688 96.988281 Z M 21.621094 77.304688 C 21.5625 76.574219 21.503906 75.847656 21.503906 75.089844 C 21.503906 63.132812 31.210938 53.453125 43.203125 53.453125 C 54.523438 53.453125 57.976562 58.464844 58.324219 58.175781 C 58.765625 57.796875 54.203125 47.824219 40.921875 47.824219 C 28.929688 47.824219 19.222656 57.503906 19.222656 69.460938 C 19.222656 72.230469 19.777344 74.855469 20.683594 77.304688 C 21.0625 78.355469 21.675781 78.355469 21.621094 77.304688 Z M 30.65625 61.734375 C 36.242188 59.28125 43.378906 59.226562 50.339844 61.617188 C 55.019531 63.277344 57.710938 65.550781 57.976562 65.464844 C 58.355469 65.289062 55.253906 60.449219 49.667969 58.351562 C 42.910156 55.84375 35.660156 57.125 30.363281 61.296875 C 29.78125 61.734375 29.953125 62.054688 30.65625 61.734375 Z M 30.65625 61.734375 " fill-opacity="1" fill-rule="nonzero"/></g></svg>