<svg xmlns="http://www.w3.org/2000/svg" xmlns:xlink="http://www.w3.org/1999/xlink" width="200" zoomAndPan="magnify" viewBox="0 0 150 149.999998" height="200" preserveAspectRatio="xMidYMid meet" version="1.0"><defs><clipPath id="3b2951d527"><path d="M 0 0 L 150 0 L 150 139.808594 L 0 139.808594 Z M 0 0 " clip-rule="nonzero"/></clipPath></defs><g clip-path="url(#3b2951d527)"><path fill="#ffffff" d="M 0 -10.191406 L 150 -10.191406 L 150 139.808594 L 0 139.808594 Z M 0 -10.191406 " fill-opacity="1" fill-rule="evenodd"/></g><path fill="#cf4044" d="M 2.207031 69.394531 C 2.328125 68.183594 2.882812 64.867188 2.800781 64.90625 C 14.167969 59.378906 22.757812 55.460938 32.640625 51.101562 C 32.640625 52.347656 31.992188 54.976562 32.410156 54.839844 C 41.917969 51.691406 51.441406 48.574219 60.976562 45.5 C 60.820312 47.132812 60.585938 49 60.511719 50.558594 C 66.738281 48.300781 72.808594 46.121094 79.035156 44.253906 C 79.019531 44.332031 78.523438 48.246094 78.570312 48.222656 C 68.136719 53.4375 58.71875 58.34375 48.832031 63.636719 C 48.910156 62.078125 49.144531 60.832031 49.144531 59.511719 C 39.414062 64.179688 30.460938 68.542969 20.421875 73.910156 C 21.121094 70.410156 21.5625 66.414062 22.054688 62.9375 C 15.285156 65.039062 6.175781 67.996094 2.207031 69.394531 Z M 2.207031 69.394531 " fill-opacity="1" fill-rule="evenodd"/><path fill="#000000" d="M 51.636719 68.382812 L 57.785156 68.382812 L 60.820312 75.625 L 62.300781 68.304688 L 68.449219 68.304688 L 65.257812 85.042969 L 59.421875 85.042969 L 56.382812 77.570312 L 54.984375 85.042969 L 48.753906 85.042969 Z M 118.816406 67.996094 L 117.957031 72.589844 L 112.742188 72.589844 L 112.664062 74.066406 L 117.414062 74.066406 L 116.636719 78.503906 L 111.964844 78.503906 L 111.730469 80.140625 L 117.257812 80.140625 L 116.496094 85.042969 L 104.300781 85.042969 L 107.371094 67.996094 Z M 120.679688 67.917969 L 126.597656 67.917969 L 126.988281 75.78125 L 130.179688 67.996094 L 135.003906 67.996094 L 135.707031 75.703125 L 138.585938 67.917969 L 145.332031 67.917969 L 138.371094 85.042969 L 132.144531 85.042969 L 131.371094 77.441406 L 128.175781 85.042969 L 121.972656 85.042969 Z M 37.9375 68.230469 L 44.707031 68.230469 L 46.90625 85.042969 L 40.941406 85.042969 L 40.632812 82.757812 L 37.003906 82.785156 L 35.988281 85.039062 L 29.527344 85.039062 Z M 38.375 78.765625 L 40.480469 78.785156 L 40.125 74.089844 Z M 78.75 68.28125 C 82.070312 68.28125 87.015625 70.671875 86.199219 76.324219 C 86.199219 76.324219 86.167969 83.183594 78.492188 84.886719 C 78.230469 84.886719 77.402344 85.015625 77.117188 85.015625 L 68.886719 85.015625 L 71.640625 68.304688 Z M 76.910156 73.269531 L 75.875 79.722656 C 75.875 79.722656 79.972656 80.292969 80.050781 75.703125 L 80.015625 75.46875 L 79.964844 75.253906 C 79.964844 75.253906 79.332031 73.207031 76.910156 73.269531 Z M 89.933594 67.917969 L 98.339844 67.917969 C 98.339844 67.917969 104.386719 67.957031 103.945312 73.832031 C 103.945312 73.832031 103.867188 77.492188 99.820312 78.582031 L 102.539062 85.042969 L 95.816406 85.042969 L 94.136719 79.441406 L 93.429688 85.042969 L 86.582031 85.042969 Z M 97.640625 73.679688 C 97.640625 73.679688 97.226562 72.226562 95.222656 72.578125 L 94.839844 75.546875 C 94.839844 75.546875 97.433594 75.648438 97.589844 74.28125 Z M 142.128906 82.523438 C 142.128906 80.972656 143.398438 79.699219 144.96875 79.699219 C 145.34375 79.699219 145.703125 79.773438 146.050781 79.914062 C 146.394531 80.058594 146.699219 80.261719 146.964844 80.527344 C 147.230469 80.792969 147.433594 81.097656 147.578125 81.445312 C 147.722656 81.789062 147.792969 82.148438 147.792969 82.523438 C 147.796875 82.898438 147.726562 83.261719 147.582031 83.609375 C 147.441406 83.957031 147.234375 84.265625 146.972656 84.53125 C 146.707031 84.796875 146.398438 85.003906 146.054688 85.148438 C 145.707031 85.292969 145.34375 85.363281 144.96875 85.363281 C 144.59375 85.363281 144.230469 85.292969 143.882812 85.148438 C 143.535156 85.003906 143.226562 84.800781 142.960938 84.53125 C 142.695312 84.265625 142.488281 83.960938 142.34375 83.613281 C 142.203125 83.261719 142.128906 82.902344 142.128906 82.523438 Z M 147.34375 82.523438 C 147.34375 81.148438 146.34375 80.074219 144.96875 80.074219 C 143.585938 80.074219 142.578125 81.152344 142.578125 82.523438 C 142.578125 83.914062 143.585938 84.992188 144.96875 84.992188 C 146.34375 84.992188 147.34375 83.914062 147.34375 82.523438 Z M 146.378906 84.109375 L 145.917969 84.109375 L 145.015625 82.652344 L 144.304688 82.652344 L 144.304688 84.109375 L 143.914062 84.109375 L 143.914062 80.949219 L 145.296875 80.949219 C 146.132812 80.949219 146.417969 81.261719 146.417969 81.785156 C 146.417969 82.40625 145.984375 82.640625 145.425781 82.652344 Z M 144.894531 82.34375 C 145.34375 82.34375 146 82.421875 146 81.777344 C 146 81.285156 145.597656 81.222656 145.207031 81.222656 L 144.304688 81.222656 L 144.304688 82.34375 Z M 144.894531 82.34375 " fill-opacity="1" fill-rule="evenodd"/></svg>