<svg xmlns="http://www.w3.org/2000/svg" xmlns:xlink="http://www.w3.org/1999/xlink" width="200" viewBox="0 0 150 149.999998" height="200" preserveAspectRatio="xMidYMid meet"><defs><clipPath id="c0eb992a95"><path d="M 45.179688 29.429688 L 105 29.429688 L 105 89 L 45.179688 89 Z M 45.179688 29.429688 " clip-rule="nonzero"></path></clipPath><clipPath id="cf196e2ffe"><path d="M 104.390625 59.425781 C 104.390625 75.742188 91.136719 88.972656 74.785156 88.972656 C 58.433594 88.972656 45.183594 75.742188 45.183594 59.425781 C 45.183594 43.101562 58.433594 29.875 74.785156 29.875 C 91.136719 29.875 104.390625 43.101562 104.390625 59.425781 Z M 104.390625 59.425781 " clip-rule="nonzero"></path></clipPath><clipPath id="a7cd446bc1"><path d="M 46 29.429688 L 105 29.429688 L 105 89 L 46 89 Z M 46 29.429688 " clip-rule="nonzero"></path></clipPath><clipPath id="7d6c87bace"><path d="M 104.390625 59.425781 C 104.390625 75.742188 91.136719 88.972656 74.785156 88.972656 C 58.433594 88.972656 45.183594 75.742188 45.183594 59.425781 C 45.183594 43.101562 58.433594 29.875 74.785156 29.875 C 91.136719 29.875 104.390625 43.101562 104.390625 59.425781 Z M 104.390625 59.425781 " clip-rule="nonzero"></path></clipPath><clipPath id="09673efaef"><path d="M 46 30 L 105 30 L 105 89 L 46 89 Z M 46 30 " clip-rule="nonzero"></path></clipPath><clipPath id="d6b2d8a3fe"><path d="M 104.390625 59.425781 C 104.390625 75.742188 91.136719 88.972656 74.785156 88.972656 C 58.433594 88.972656 45.183594 75.742188 45.183594 59.425781 C 45.183594 43.101562 58.433594 29.875 74.785156 29.875 C 91.136719 29.875 104.390625 43.101562 104.390625 59.425781 Z M 104.390625 59.425781 " clip-rule="nonzero"></path></clipPath><clipPath id="bd3e88b429"><path d="M 46 30 L 105 30 L 105 88 L 46 88 Z M 46 30 " clip-rule="nonzero"></path></clipPath><clipPath id="92452e8dd9"><path d="M 104.390625 59.425781 C 104.390625 75.742188 91.136719 88.972656 74.785156 88.972656 C 58.433594 88.972656 45.183594 75.742188 45.183594 59.425781 C 45.183594 43.101562 58.433594 29.875 74.785156 29.875 C 91.136719 29.875 104.390625 43.101562 104.390625 59.425781 Z M 104.390625 59.425781 " clip-rule="nonzero"></path></clipPath><clipPath id="c777334d1e"><path d="M 47 30 L 105 30 L 105 88 L 47 88 Z M 47 30 " clip-rule="nonzero"></path></clipPath><clipPath id="129106c3b4"><path d="M 104.390625 59.425781 C 104.390625 75.742188 91.136719 88.972656 74.785156 88.972656 C 58.433594 88.972656 45.183594 75.742188 45.183594 59.425781 C 45.183594 43.101562 58.433594 29.875 74.785156 29.875 C 91.136719 29.875 104.390625 43.101562 104.390625 59.425781 Z M 104.390625 59.425781 " clip-rule="nonzero"></path></clipPath><clipPath id="83f7f5a972"><path d="M 48 30 L 105 30 L 105 88 L 48 88 Z M 48 30 " clip-rule="nonzero"></path></clipPath><clipPath id="f1767ea63e"><path d="M 104.390625 59.425781 C 104.390625 75.742188 91.136719 88.972656 74.785156 88.972656 C 58.433594 88.972656 45.183594 75.742188 45.183594 59.425781 C 45.183594 43.101562 58.433594 29.875 74.785156 29.875 C 91.136719 29.875 104.390625 43.101562 104.390625 59.425781 Z M 104.390625 59.425781 " clip-rule="nonzero"></path></clipPath><clipPath id="8a2d55940a"><path d="M 48 30 L 105 30 L 105 87 L 48 87 Z M 48 30 " clip-rule="nonzero"></path></clipPath><clipPath id="c7f3180a74"><path d="M 104.390625 59.425781 C 104.390625 75.742188 91.136719 88.972656 74.785156 88.972656 C 58.433594 88.972656 45.183594 75.742188 45.183594 59.425781 C 45.183594 43.101562 58.433594 29.875 74.785156 29.875 C 91.136719 29.875 104.390625 43.101562 104.390625 59.425781 Z M 104.390625 59.425781 " clip-rule="nonzero"></path></clipPath><clipPath id="aff6f0a0a0"><path d="M 48 31 L 105 31 L 105 87 L 48 87 Z M 48 31 " clip-rule="nonzero"></path></clipPath><clipPath id="5d877d5ae4"><path d="M 104.390625 59.425781 C 104.390625 75.742188 91.136719 88.972656 74.785156 88.972656 C 58.433594 88.972656 45.183594 75.742188 45.183594 59.425781 C 45.183594 43.101562 58.433594 29.875 74.785156 29.875 C 91.136719 29.875 104.390625 43.101562 104.390625 59.425781 Z M 104.390625 59.425781 " clip-rule="nonzero"></path></clipPath><clipPath id="4e38740e26"><path d="M 49 31 L 105 31 L 105 87 L 49 87 Z M 49 31 " clip-rule="nonzero"></path></clipPath><clipPath id="3bc5e7d623"><path d="M 104.390625 59.425781 C 104.390625 75.742188 91.136719 88.972656 74.785156 88.972656 C 58.433594 88.972656 45.183594 75.742188 45.183594 59.425781 C 45.183594 43.101562 58.433594 29.875 74.785156 29.875 C 91.136719 29.875 104.390625 43.101562 104.390625 59.425781 Z M 104.390625 59.425781 " clip-rule="nonzero"></path></clipPath><clipPath id="db58e0c26e"><path d="M 49 31 L 105 31 L 105 86 L 49 86 Z M 49 31 " clip-rule="nonzero"></path></clipPath><clipPath id="ca9f6526f3"><path d="M 104.390625 59.425781 C 104.390625 75.742188 91.136719 88.972656 74.785156 88.972656 C 58.433594 88.972656 45.183594 75.742188 45.183594 59.425781 C 45.183594 43.101562 58.433594 29.875 74.785156 29.875 C 91.136719 29.875 104.390625 43.101562 104.390625 59.425781 Z M 104.390625 59.425781 " clip-rule="nonzero"></path></clipPath><clipPath id="cdebabd5d1"><path d="M 49 31 L 104 31 L 104 86 L 49 86 Z M 49 31 " clip-rule="nonzero"></path></clipPath><clipPath id="f7b9589255"><path d="M 104.390625 59.425781 C 104.390625 75.742188 91.136719 88.972656 74.785156 88.972656 C 58.433594 88.972656 45.183594 75.742188 45.183594 59.425781 C 45.183594 43.101562 58.433594 29.875 74.785156 29.875 C 91.136719 29.875 104.390625 43.101562 104.390625 59.425781 Z M 104.390625 59.425781 " clip-rule="nonzero"></path></clipPath><clipPath id="c7e4f506df"><path d="M 50 31 L 104 31 L 104 86 L 50 86 Z M 50 31 " clip-rule="nonzero"></path></clipPath><clipPath id="d540544030"><path d="M 104.390625 59.425781 C 104.390625 75.742188 91.136719 88.972656 74.785156 88.972656 C 58.433594 88.972656 45.183594 75.742188 45.183594 59.425781 C 45.183594 43.101562 58.433594 29.875 74.785156 29.875 C 91.136719 29.875 104.390625 43.101562 104.390625 59.425781 Z M 104.390625 59.425781 " clip-rule="nonzero"></path></clipPath><clipPath id="ab55b97105"><path d="M 50 32 L 104 32 L 104 86 L 50 86 Z M 50 32 " clip-rule="nonzero"></path></clipPath><clipPath id="587404884b"><path d="M 104.390625 59.425781 C 104.390625 75.742188 91.136719 88.972656 74.785156 88.972656 C 58.433594 88.972656 45.183594 75.742188 45.183594 59.425781 C 45.183594 43.101562 58.433594 29.875 74.785156 29.875 C 91.136719 29.875 104.390625 43.101562 104.390625 59.425781 Z M 104.390625 59.425781 " clip-rule="nonzero"></path></clipPath><clipPath id="9b7bce2a2e"><path d="M 50 32 L 104 32 L 104 85 L 50 85 Z M 50 32 " clip-rule="nonzero"></path></clipPath><clipPath id="5d45cd57ba"><path d="M 104.390625 59.425781 C 104.390625 75.742188 91.136719 88.972656 74.785156 88.972656 C 58.433594 88.972656 45.183594 75.742188 45.183594 59.425781 C 45.183594 43.101562 58.433594 29.875 74.785156 29.875 C 91.136719 29.875 104.390625 43.101562 104.390625 59.425781 Z M 104.390625 59.425781 " clip-rule="nonzero"></path></clipPath><clipPath id="6a51c00588"><path d="M 51 32 L 104 32 L 104 85 L 51 85 Z M 51 32 " clip-rule="nonzero"></path></clipPath><clipPath id="4366dbb6ab"><path d="M 104.390625 59.425781 C 104.390625 75.742188 91.136719 88.972656 74.785156 88.972656 C 58.433594 88.972656 45.183594 75.742188 45.183594 59.425781 C 45.183594 43.101562 58.433594 29.875 74.785156 29.875 C 91.136719 29.875 104.390625 43.101562 104.390625 59.425781 Z M 104.390625 59.425781 " clip-rule="nonzero"></path></clipPath><clipPath id="4e30ad9800"><path d="M 51 32 L 104 32 L 104 84 L 51 84 Z M 51 32 " clip-rule="nonzero"></path></clipPath><clipPath id="f4dba90208"><path d="M 104.390625 59.425781 C 104.390625 75.742188 91.136719 88.972656 74.785156 88.972656 C 58.433594 88.972656 45.183594 75.742188 45.183594 59.425781 C 45.183594 43.101562 58.433594 29.875 74.785156 29.875 C 91.136719 29.875 104.390625 43.101562 104.390625 59.425781 Z M 104.390625 59.425781 " clip-rule="nonzero"></path></clipPath><clipPath id="78ef708a81"><path d="M 52 32 L 104 32 L 104 84 L 52 84 Z M 52 32 " clip-rule="nonzero"></path></clipPath><clipPath id="f806b15277"><path d="M 104.390625 59.425781 C 104.390625 75.742188 91.136719 88.972656 74.785156 88.972656 C 58.433594 88.972656 45.183594 75.742188 45.183594 59.425781 C 45.183594 43.101562 58.433594 29.875 74.785156 29.875 C 91.136719 29.875 104.390625 43.101562 104.390625 59.425781 Z M 104.390625 59.425781 " clip-rule="nonzero"></path></clipPath><clipPath id="ac43acf28f"><path d="M 52 33 L 104 33 L 104 84 L 52 84 Z M 52 33 " clip-rule="nonzero"></path></clipPath><clipPath id="abd2598357"><path d="M 104.390625 59.425781 C 104.390625 75.742188 91.136719 88.972656 74.785156 88.972656 C 58.433594 88.972656 45.183594 75.742188 45.183594 59.425781 C 45.183594 43.101562 58.433594 29.875 74.785156 29.875 C 91.136719 29.875 104.390625 43.101562 104.390625 59.425781 Z M 104.390625 59.425781 " clip-rule="nonzero"></path></clipPath><clipPath id="31a2520c09"><path d="M 53 33 L 103 33 L 103 83 L 53 83 Z M 53 33 " clip-rule="nonzero"></path></clipPath><clipPath id="f994531c01"><path d="M 104.390625 59.425781 C 104.390625 75.742188 91.136719 88.972656 74.785156 88.972656 C 58.433594 88.972656 45.183594 75.742188 45.183594 59.425781 C 45.183594 43.101562 58.433594 29.875 74.785156 29.875 C 91.136719 29.875 104.390625 43.101562 104.390625 59.425781 Z M 104.390625 59.425781 " clip-rule="nonzero"></path></clipPath><clipPath id="3ae88f449c"><path d="M 54 33 L 103 33 L 103 83 L 54 83 Z M 54 33 " clip-rule="nonzero"></path></clipPath><clipPath id="5674af972c"><path d="M 104.390625 59.425781 C 104.390625 75.742188 91.136719 88.972656 74.785156 88.972656 C 58.433594 88.972656 45.183594 75.742188 45.183594 59.425781 C 45.183594 43.101562 58.433594 29.875 74.785156 29.875 C 91.136719 29.875 104.390625 43.101562 104.390625 59.425781 Z M 104.390625 59.425781 " clip-rule="nonzero"></path></clipPath><clipPath id="0c16fb0c0b"><path d="M 54 33 L 103 33 L 103 82 L 54 82 Z M 54 33 " clip-rule="nonzero"></path></clipPath><clipPath id="b5dd0c3a4d"><path d="M 104.390625 59.425781 C 104.390625 75.742188 91.136719 88.972656 74.785156 88.972656 C 58.433594 88.972656 45.183594 75.742188 45.183594 59.425781 C 45.183594 43.101562 58.433594 29.875 74.785156 29.875 C 91.136719 29.875 104.390625 43.101562 104.390625 59.425781 Z M 104.390625 59.425781 " clip-rule="nonzero"></path></clipPath><clipPath id="5879036bf6"><path d="M 54 34 L 103 34 L 103 82 L 54 82 Z M 54 34 " clip-rule="nonzero"></path></clipPath><clipPath id="9182b36449"><path d="M 104.390625 59.425781 C 104.390625 75.742188 91.136719 88.972656 74.785156 88.972656 C 58.433594 88.972656 45.183594 75.742188 45.183594 59.425781 C 45.183594 43.101562 58.433594 29.875 74.785156 29.875 C 91.136719 29.875 104.390625 43.101562 104.390625 59.425781 Z M 104.390625 59.425781 " clip-rule="nonzero"></path></clipPath><clipPath id="94776ad9f8"><path d="M 55 34 L 103 34 L 103 82 L 55 82 Z M 55 34 " clip-rule="nonzero"></path></clipPath><clipPath id="9580baee58"><path d="M 104.390625 59.425781 C 104.390625 75.742188 91.136719 88.972656 74.785156 88.972656 C 58.433594 88.972656 45.183594 75.742188 45.183594 59.425781 C 45.183594 43.101562 58.433594 29.875 74.785156 29.875 C 91.136719 29.875 104.390625 43.101562 104.390625 59.425781 Z M 104.390625 59.425781 " clip-rule="nonzero"></path></clipPath><clipPath id="585bdc9c5c"><path d="M 56 34 L 103 34 L 103 81 L 56 81 Z M 56 34 " clip-rule="nonzero"></path></clipPath><clipPath id="6d67ce0431"><path d="M 104.390625 59.425781 C 104.390625 75.742188 91.136719 88.972656 74.785156 88.972656 C 58.433594 88.972656 45.183594 75.742188 45.183594 59.425781 C 45.183594 43.101562 58.433594 29.875 74.785156 29.875 C 91.136719 29.875 104.390625 43.101562 104.390625 59.425781 Z M 104.390625 59.425781 " clip-rule="nonzero"></path></clipPath><clipPath id="f61237848b"><path d="M 56 35 L 102 35 L 102 81 L 56 81 Z M 56 35 " clip-rule="nonzero"></path></clipPath><clipPath id="131c45e5ff"><path d="M 104.390625 59.425781 C 104.390625 75.742188 91.136719 88.972656 74.785156 88.972656 C 58.433594 88.972656 45.183594 75.742188 45.183594 59.425781 C 45.183594 43.101562 58.433594 29.875 74.785156 29.875 C 91.136719 29.875 104.390625 43.101562 104.390625 59.425781 Z M 104.390625 59.425781 " clip-rule="nonzero"></path></clipPath><clipPath id="c1b9701924"><path d="M 57 35 L 102 35 L 102 80 L 57 80 Z M 57 35 " clip-rule="nonzero"></path></clipPath><clipPath id="6aaba906e7"><path d="M 104.390625 59.425781 C 104.390625 75.742188 91.136719 88.972656 74.785156 88.972656 C 58.433594 88.972656 45.183594 75.742188 45.183594 59.425781 C 45.183594 43.101562 58.433594 29.875 74.785156 29.875 C 91.136719 29.875 104.390625 43.101562 104.390625 59.425781 Z M 104.390625 59.425781 " clip-rule="nonzero"></path></clipPath><clipPath id="0160f2aa00"><path d="M 58 35 L 102 35 L 102 80 L 58 80 Z M 58 35 " clip-rule="nonzero"></path></clipPath><clipPath id="11c040cdfe"><path d="M 104.390625 59.425781 C 104.390625 75.742188 91.136719 88.972656 74.785156 88.972656 C 58.433594 88.972656 45.183594 75.742188 45.183594 59.425781 C 45.183594 43.101562 58.433594 29.875 74.785156 29.875 C 91.136719 29.875 104.390625 43.101562 104.390625 59.425781 Z M 104.390625 59.425781 " clip-rule="nonzero"></path></clipPath><clipPath id="3f74850c3f"><path d="M 58 36 L 102 36 L 102 79 L 58 79 Z M 58 36 " clip-rule="nonzero"></path></clipPath><clipPath id="663d2b9b32"><path d="M 104.390625 59.425781 C 104.390625 75.742188 91.136719 88.972656 74.785156 88.972656 C 58.433594 88.972656 45.183594 75.742188 45.183594 59.425781 C 45.183594 43.101562 58.433594 29.875 74.785156 29.875 C 91.136719 29.875 104.390625 43.101562 104.390625 59.425781 Z M 104.390625 59.425781 " clip-rule="nonzero"></path></clipPath><clipPath id="d12279a5c6"><path d="M 59 36 L 101 36 L 101 79 L 59 79 Z M 59 36 " clip-rule="nonzero"></path></clipPath><clipPath id="e35f98fc79"><path d="M 104.390625 59.425781 C 104.390625 75.742188 91.136719 88.972656 74.785156 88.972656 C 58.433594 88.972656 45.183594 75.742188 45.183594 59.425781 C 45.183594 43.101562 58.433594 29.875 74.785156 29.875 C 91.136719 29.875 104.390625 43.101562 104.390625 59.425781 Z M 104.390625 59.425781 " clip-rule="nonzero"></path></clipPath><clipPath id="3db289d784"><path d="M 59 36 L 101 36 L 101 78 L 59 78 Z M 59 36 " clip-rule="nonzero"></path></clipPath><clipPath id="91f334bba0"><path d="M 104.390625 59.425781 C 104.390625 75.742188 91.136719 88.972656 74.785156 88.972656 C 58.433594 88.972656 45.183594 75.742188 45.183594 59.425781 C 45.183594 43.101562 58.433594 29.875 74.785156 29.875 C 91.136719 29.875 104.390625 43.101562 104.390625 59.425781 Z M 104.390625 59.425781 " clip-rule="nonzero"></path></clipPath><clipPath id="3da3ebafd9"><path d="M 60 36 L 101 36 L 101 78 L 60 78 Z M 60 36 " clip-rule="nonzero"></path></clipPath><clipPath id="7cdd082eb2"><path d="M 104.390625 59.425781 C 104.390625 75.742188 91.136719 88.972656 74.785156 88.972656 C 58.433594 88.972656 45.183594 75.742188 45.183594 59.425781 C 45.183594 43.101562 58.433594 29.875 74.785156 29.875 C 91.136719 29.875 104.390625 43.101562 104.390625 59.425781 Z M 104.390625 59.425781 " clip-rule="nonzero"></path></clipPath><clipPath id="e29cfaea35"><path d="M 60 37 L 101 37 L 101 77 L 60 77 Z M 60 37 " clip-rule="nonzero"></path></clipPath><clipPath id="847d4a994e"><path d="M 104.390625 59.425781 C 104.390625 75.742188 91.136719 88.972656 74.785156 88.972656 C 58.433594 88.972656 45.183594 75.742188 45.183594 59.425781 C 45.183594 43.101562 58.433594 29.875 74.785156 29.875 C 91.136719 29.875 104.390625 43.101562 104.390625 59.425781 Z M 104.390625 59.425781 " clip-rule="nonzero"></path></clipPath><clipPath id="6e048520a4"><path d="M 61 37 L 101 37 L 101 77 L 61 77 Z M 61 37 " clip-rule="nonzero"></path></clipPath><clipPath id="4b0fb6fcbb"><path d="M 104.390625 59.425781 C 104.390625 75.742188 91.136719 88.972656 74.785156 88.972656 C 58.433594 88.972656 45.183594 75.742188 45.183594 59.425781 C 45.183594 43.101562 58.433594 29.875 74.785156 29.875 C 91.136719 29.875 104.390625 43.101562 104.390625 59.425781 Z M 104.390625 59.425781 " clip-rule="nonzero"></path></clipPath><clipPath id="b31a22059f"><path d="M 62 38 L 100 38 L 100 76 L 62 76 Z M 62 38 " clip-rule="nonzero"></path></clipPath><clipPath id="157fc4de75"><path d="M 104.390625 59.425781 C 104.390625 75.742188 91.136719 88.972656 74.785156 88.972656 C 58.433594 88.972656 45.183594 75.742188 45.183594 59.425781 C 45.183594 43.101562 58.433594 29.875 74.785156 29.875 C 91.136719 29.875 104.390625 43.101562 104.390625 59.425781 Z M 104.390625 59.425781 " clip-rule="nonzero"></path></clipPath><clipPath id="f3c949a64c"><path d="M 63 38 L 100 38 L 100 76 L 63 76 Z M 63 38 " clip-rule="nonzero"></path></clipPath><clipPath id="3956fe4287"><path d="M 104.390625 59.425781 C 104.390625 75.742188 91.136719 88.972656 74.785156 88.972656 C 58.433594 88.972656 45.183594 75.742188 45.183594 59.425781 C 45.183594 43.101562 58.433594 29.875 74.785156 29.875 C 91.136719 29.875 104.390625 43.101562 104.390625 59.425781 Z M 104.390625 59.425781 " clip-rule="nonzero"></path></clipPath><clipPath id="ca276a10e7"><path d="M 63 38 L 100 38 L 100 75 L 63 75 Z M 63 38 " clip-rule="nonzero"></path></clipPath><clipPath id="fc31e440b9"><path d="M 104.390625 59.425781 C 104.390625 75.742188 91.136719 88.972656 74.785156 88.972656 C 58.433594 88.972656 45.183594 75.742188 45.183594 59.425781 C 45.183594 43.101562 58.433594 29.875 74.785156 29.875 C 91.136719 29.875 104.390625 43.101562 104.390625 59.425781 Z M 104.390625 59.425781 " clip-rule="nonzero"></path></clipPath><clipPath id="e0a9b4ab63"><path d="M 64 39 L 100 39 L 100 75 L 64 75 Z M 64 39 " clip-rule="nonzero"></path></clipPath><clipPath id="d46366d175"><path d="M 104.390625 59.425781 C 104.390625 75.742188 91.136719 88.972656 74.785156 88.972656 C 58.433594 88.972656 45.183594 75.742188 45.183594 59.425781 C 45.183594 43.101562 58.433594 29.875 74.785156 29.875 C 91.136719 29.875 104.390625 43.101562 104.390625 59.425781 Z M 104.390625 59.425781 " clip-rule="nonzero"></path></clipPath><clipPath id="fd6e8211da"><path d="M 64 39 L 99 39 L 99 74 L 64 74 Z M 64 39 " clip-rule="nonzero"></path></clipPath><clipPath id="e2569fcb10"><path d="M 104.390625 59.425781 C 104.390625 75.742188 91.136719 88.972656 74.785156 88.972656 C 58.433594 88.972656 45.183594 75.742188 45.183594 59.425781 C 45.183594 43.101562 58.433594 29.875 74.785156 29.875 C 91.136719 29.875 104.390625 43.101562 104.390625 59.425781 Z M 104.390625 59.425781 " clip-rule="nonzero"></path></clipPath><clipPath id="9344cb4463"><path d="M 65 39 L 99 39 L 99 74 L 65 74 Z M 65 39 " clip-rule="nonzero"></path></clipPath><clipPath id="14398c7b00"><path d="M 104.390625 59.425781 C 104.390625 75.742188 91.136719 88.972656 74.785156 88.972656 C 58.433594 88.972656 45.183594 75.742188 45.183594 59.425781 C 45.183594 43.101562 58.433594 29.875 74.785156 29.875 C 91.136719 29.875 104.390625 43.101562 104.390625 59.425781 Z M 104.390625 59.425781 " clip-rule="nonzero"></path></clipPath><clipPath id="6426f85066"><path d="M 65 40 L 99 40 L 99 73 L 65 73 Z M 65 40 " clip-rule="nonzero"></path></clipPath><clipPath id="5cb08d4de1"><path d="M 104.390625 59.425781 C 104.390625 75.742188 91.136719 88.972656 74.785156 88.972656 C 58.433594 88.972656 45.183594 75.742188 45.183594 59.425781 C 45.183594 43.101562 58.433594 29.875 74.785156 29.875 C 91.136719 29.875 104.390625 43.101562 104.390625 59.425781 Z M 104.390625 59.425781 " clip-rule="nonzero"></path></clipPath><clipPath id="1ba3bd4d9d"><path d="M 45.171875 96 L 105 96 L 105 120.929688 L 45.171875 120.929688 Z M 45.171875 96 " clip-rule="nonzero"></path></clipPath><clipPath id="84fb03bd1a"><path d="M 45.171875 33 L 105 33 L 105 86 L 45.171875 86 Z M 45.171875 33 " clip-rule="nonzero"></path></clipPath><clipPath id="91286ec373"><path d="M 45.171875 34 L 104 34 L 104 86 L 45.171875 86 Z M 45.171875 34 " clip-rule="nonzero"></path></clipPath></defs><g clip-path="url(#c0eb992a95)"><g clip-path="url(#cf196e2ffe)"><path fill="#b2b4b6" d="M 105.164062 59.371094 C 105.164062 75.902344 91.738281 89.308594 75.171875 89.308594 C 58.609375 89.304688 45.179688 75.902344 45.179688 59.371094 C 45.179688 42.832031 58.609375 29.429688 75.171875 29.429688 C 91.738281 29.429688 105.164062 42.832031 105.164062 59.371094 Z M 105.164062 59.371094 " fill-opacity="1" fill-rule="nonzero"></path><path fill="#b2b4b7" d="M 105.105469 59.351562 C 105.105469 75.835938 91.71875 89.199219 75.203125 89.199219 C 58.6875 89.199219 45.300781 75.835938 45.300781 59.351562 C 45.300781 42.863281 58.6875 29.5 75.203125 29.5 C 91.71875 29.5 105.105469 42.863281 105.105469 59.351562 Z M 105.105469 59.351562 " fill-opacity="1" fill-rule="nonzero"></path><path fill="#b2b4b7" d="M 105.050781 59.335938 C 105.050781 75.769531 91.703125 89.09375 75.234375 89.09375 C 58.769531 89.09375 45.417969 75.769531 45.417969 59.335938 C 45.417969 42.894531 58.769531 29.570312 75.234375 29.570312 C 91.703125 29.570312 105.050781 42.894531 105.050781 59.335938 Z M 105.050781 59.335938 " fill-opacity="1" fill-rule="nonzero"></path><path fill="#b3b5b8" d="M 104.996094 59.316406 C 104.996094 75.703125 91.683594 88.988281 75.265625 88.988281 C 58.847656 88.988281 45.539062 75.703125 45.539062 59.316406 C 45.539062 42.925781 58.847656 29.640625 75.265625 29.640625 C 91.683594 29.640625 104.996094 42.925781 104.996094 59.316406 Z M 104.996094 59.316406 " fill-opacity="1" fill-rule="nonzero"></path><path fill="#b4b6b8" d="M 104.9375 59.296875 C 104.9375 75.636719 91.667969 88.878906 75.296875 88.878906 C 58.929688 88.878906 45.660156 75.636719 45.660156 59.296875 C 45.660156 42.957031 58.929688 29.710938 75.296875 29.710938 C 91.667969 29.710938 104.9375 42.957031 104.9375 59.296875 Z M 104.9375 59.296875 " fill-opacity="1" fill-rule="nonzero"></path><path fill="#b5b7b9" d="M 104.882812 59.28125 C 104.882812 75.570312 91.652344 88.777344 75.332031 88.777344 C 59.007812 88.777344 45.777344 75.570312 45.777344 59.28125 C 45.777344 42.988281 59.007812 29.78125 75.332031 29.78125 C 91.652344 29.78125 104.882812 42.988281 104.882812 59.28125 Z M 104.882812 59.28125 " fill-opacity="1" fill-rule="nonzero"></path><path fill="#b6b8ba" d="M 104.824219 59.261719 C 104.824219 75.503906 91.632812 88.667969 75.359375 88.667969 C 59.089844 88.667969 45.898438 75.503906 45.898438 59.261719 C 45.898438 43.019531 59.089844 29.851562 75.359375 29.851562 C 91.632812 29.851562 104.824219 43.019531 104.824219 59.261719 Z M 104.824219 59.261719 " fill-opacity="1" fill-rule="nonzero"></path></g></g><g clip-path="url(#a7cd446bc1)"><g clip-path="url(#7d6c87bace)"><path fill="#b7b9bb" d="M 104.765625 59.246094 C 104.765625 75.4375 91.617188 88.5625 75.394531 88.5625 C 59.167969 88.5625 46.019531 75.4375 46.019531 59.246094 C 46.019531 43.050781 59.167969 29.921875 75.394531 29.921875 C 91.617188 29.921875 104.765625 43.050781 104.765625 59.246094 Z M 104.765625 59.246094 " fill-opacity="1" fill-rule="nonzero"></path><path fill="#b7b9bc" d="M 104.710938 59.226562 C 104.710938 75.371094 91.601562 88.457031 75.425781 88.457031 C 59.25 88.457031 46.140625 75.371094 46.140625 59.226562 C 46.140625 43.078125 59.25 29.992188 75.425781 29.992188 C 91.601562 29.992188 104.710938 43.078125 104.710938 59.226562 Z M 104.710938 59.226562 " fill-opacity="1" fill-rule="nonzero"></path></g></g><g clip-path="url(#09673efaef)"><g clip-path="url(#d6b2d8a3fe)"><path fill="#b7b9bc" d="M 104.65625 59.207031 C 104.65625 75.304688 91.582031 88.347656 75.457031 88.347656 C 59.328125 88.347656 46.257812 75.304688 46.257812 59.207031 C 46.257812 43.109375 59.328125 30.0625 75.457031 30.0625 C 91.582031 30.0625 104.65625 43.109375 104.65625 59.207031 Z M 104.65625 59.207031 " fill-opacity="1" fill-rule="nonzero"></path><path fill="#b8babc" d="M 104.632812 59.191406 C 104.632812 75.253906 91.589844 88.273438 75.5 88.273438 C 59.40625 88.273438 46.363281 75.253906 46.363281 59.191406 C 46.363281 43.128906 59.40625 30.109375 75.5 30.109375 C 91.589844 30.109375 104.632812 43.128906 104.632812 59.191406 Z M 104.632812 59.191406 " fill-opacity="1" fill-rule="nonzero"></path><path fill="#b9bbbd" d="M 104.613281 59.175781 C 104.613281 75.203125 91.597656 88.191406 75.539062 88.191406 C 59.484375 88.191406 46.46875 75.203125 46.46875 59.175781 C 46.46875 43.148438 59.484375 30.15625 75.539062 30.15625 C 91.597656 30.15625 104.613281 43.148438 104.613281 59.175781 Z M 104.613281 59.175781 " fill-opacity="1" fill-rule="nonzero"></path><path fill="#babcbe" d="M 104.59375 59.160156 C 104.59375 75.152344 91.605469 88.117188 75.582031 88.117188 C 59.558594 88.117188 46.574219 75.152344 46.574219 59.160156 C 46.574219 43.167969 59.5625 30.203125 75.582031 30.203125 C 91.605469 30.203125 104.59375 43.167969 104.59375 59.160156 Z M 104.59375 59.160156 " fill-opacity="1" fill-rule="nonzero"></path><path fill="#bbbdbf" d="M 104.574219 59.148438 C 104.574219 75.101562 91.613281 88.039062 75.625 88.039062 C 59.636719 88.039062 46.679688 75.101562 46.679688 59.148438 C 46.679688 43.1875 59.636719 30.25 75.625 30.25 C 91.613281 30.25 104.574219 43.1875 104.574219 59.148438 Z M 104.574219 59.148438 " fill-opacity="1" fill-rule="nonzero"></path></g></g><g clip-path="url(#bd3e88b429)"><g clip-path="url(#92452e8dd9)"><path fill="#bcbdc0" d="M 104.554688 59.132812 C 104.554688 75.050781 91.621094 87.960938 75.667969 87.960938 C 59.714844 87.960938 46.785156 75.050781 46.785156 59.132812 C 46.785156 43.203125 59.714844 30.296875 75.667969 30.296875 C 91.621094 30.296875 104.554688 43.207031 104.554688 59.132812 Z M 104.554688 59.132812 " fill-opacity="1" fill-rule="nonzero"></path><path fill="#bcbec0" d="M 104.535156 59.117188 C 104.535156 75.003906 91.628906 87.882812 75.710938 87.882812 C 59.792969 87.882812 46.886719 75.003906 46.886719 59.117188 C 46.886719 43.222656 59.792969 30.34375 75.710938 30.34375 C 91.628906 30.34375 104.535156 43.222656 104.535156 59.117188 Z M 104.535156 59.117188 " fill-opacity="1" fill-rule="nonzero"></path><path fill="#bdbfc1" d="M 104.511719 59.101562 C 104.511719 74.953125 91.636719 87.804688 75.753906 87.804688 C 59.867188 87.804688 46.992188 74.953125 46.992188 59.101562 C 46.992188 43.242188 59.871094 30.390625 75.753906 30.390625 C 91.636719 30.390625 104.511719 43.242188 104.511719 59.101562 Z M 104.511719 59.101562 " fill-opacity="1" fill-rule="nonzero"></path></g></g><g clip-path="url(#c777334d1e)"><g clip-path="url(#129106c3b4)"><path fill="#bec0c2" d="M 104.496094 59.085938 C 104.496094 74.902344 91.644531 87.726562 75.796875 87.726562 C 59.945312 87.726562 47.101562 74.902344 47.101562 59.085938 C 47.101562 43.261719 59.945312 30.4375 75.796875 30.4375 C 91.644531 30.4375 104.496094 43.261719 104.496094 59.085938 Z M 104.496094 59.085938 " fill-opacity="1" fill-rule="nonzero"></path><path fill="#bfc1c3" d="M 104.472656 59.070312 C 104.472656 74.851562 91.652344 87.648438 75.839844 87.648438 C 60.023438 87.648438 47.203125 74.851562 47.203125 59.070312 C 47.203125 43.28125 60.023438 30.484375 75.839844 30.484375 C 91.652344 30.484375 104.472656 43.28125 104.472656 59.070312 Z M 104.472656 59.070312 " fill-opacity="1" fill-rule="nonzero"></path><path fill="#c0c2c4" d="M 104.453125 59.054688 C 104.453125 74.800781 91.660156 87.570312 75.882812 87.570312 C 60.101562 87.570312 47.308594 74.800781 47.308594 59.054688 C 47.308594 43.300781 60.101562 30.53125 75.882812 30.53125 C 91.660156 30.53125 104.453125 43.300781 104.453125 59.054688 Z M 104.453125 59.054688 " fill-opacity="1" fill-rule="nonzero"></path><path fill="#c1c2c4" d="M 104.433594 59.039062 C 104.433594 74.753906 91.667969 87.492188 75.925781 87.492188 C 60.175781 87.492188 47.414062 74.753906 47.414062 59.039062 C 47.414062 43.316406 60.175781 30.578125 75.925781 30.578125 C 91.667969 30.578125 104.433594 43.316406 104.433594 59.039062 Z M 104.433594 59.039062 " fill-opacity="1" fill-rule="nonzero"></path><path fill="#c1c3c5" d="M 104.414062 59.023438 C 104.414062 74.703125 91.675781 87.414062 75.96875 87.414062 C 60.253906 87.414062 47.519531 74.703125 47.519531 59.023438 C 47.519531 43.335938 60.253906 30.625 75.96875 30.625 C 91.675781 30.625 104.414062 43.335938 104.414062 59.023438 Z M 104.414062 59.023438 " fill-opacity="1" fill-rule="nonzero"></path><path fill="#c2c4c6" d="M 104.394531 59.007812 C 104.394531 74.652344 91.683594 87.335938 76.007812 87.335938 C 60.332031 87.335938 47.625 74.652344 47.625 59.007812 C 47.625 43.355469 60.332031 30.671875 76.007812 30.671875 C 91.683594 30.671875 104.394531 43.355469 104.394531 59.007812 Z M 104.394531 59.007812 " fill-opacity="1" fill-rule="nonzero"></path><path fill="#c3c5c7" d="M 104.375 58.992188 C 104.375 74.601562 91.691406 87.257812 76.050781 87.257812 C 60.410156 87.257812 47.726562 74.601562 47.726562 58.992188 C 47.726562 43.375 60.410156 30.71875 76.050781 30.71875 C 91.691406 30.71875 104.375 43.375 104.375 58.992188 Z M 104.375 58.992188 " fill-opacity="1" fill-rule="nonzero"></path><path fill="#c4c6c8" d="M 104.351562 58.976562 C 104.351562 74.550781 91.703125 87.179688 76.09375 87.179688 C 60.488281 87.179688 47.835938 74.550781 47.835938 58.976562 C 47.835938 43.394531 60.484375 30.765625 76.09375 30.765625 C 91.699219 30.765625 104.351562 43.394531 104.351562 58.976562 Z M 104.351562 58.976562 " fill-opacity="1" fill-rule="nonzero"></path><path fill="#c5c6c8" d="M 104.332031 58.960938 C 104.332031 74.503906 91.710938 87.101562 76.136719 87.101562 C 60.5625 87.101562 47.941406 74.503906 47.941406 58.960938 C 47.941406 43.414062 60.5625 30.8125 76.136719 30.8125 C 91.710938 30.8125 104.332031 43.414062 104.332031 58.960938 Z M 104.332031 58.960938 " fill-opacity="1" fill-rule="nonzero"></path></g></g><g clip-path="url(#83f7f5a972)"><g clip-path="url(#f1767ea63e)"><path fill="#c5c7c9" d="M 104.3125 58.945312 C 104.3125 74.453125 91.71875 87.023438 76.179688 87.023438 C 60.640625 87.023438 48.042969 74.453125 48.042969 58.945312 C 48.042969 43.433594 60.640625 30.859375 76.179688 30.859375 C 91.71875 30.859375 104.3125 43.429688 104.3125 58.945312 Z M 104.3125 58.945312 " fill-opacity="1" fill-rule="nonzero"></path></g></g><g clip-path="url(#8a2d55940a)"><g clip-path="url(#c7f3180a74)"><path fill="#c6c8ca" d="M 104.292969 58.929688 C 104.292969 74.402344 91.726562 86.945312 76.222656 86.945312 C 60.714844 86.945312 48.148438 74.402344 48.148438 58.929688 C 48.148438 43.449219 60.714844 30.90625 76.222656 30.90625 C 91.726562 30.90625 104.292969 43.449219 104.292969 58.929688 Z M 104.292969 58.929688 " fill-opacity="1" fill-rule="nonzero"></path><path fill="#c7c9cb" d="M 104.273438 58.914062 C 104.273438 74.351562 91.734375 86.867188 76.265625 86.867188 C 60.792969 86.867188 48.253906 74.351562 48.253906 58.914062 C 48.253906 43.46875 60.792969 30.953125 76.265625 30.953125 C 91.734375 30.953125 104.273438 43.46875 104.273438 58.914062 Z M 104.273438 58.914062 " fill-opacity="1" fill-rule="nonzero"></path></g></g><g clip-path="url(#aff6f0a0a0)"><g clip-path="url(#5d877d5ae4)"><path fill="#c8cacc" d="M 104.253906 58.898438 C 104.253906 74.300781 91.738281 86.789062 76.304688 86.789062 C 60.871094 86.789062 48.359375 74.300781 48.359375 58.898438 C 48.359375 43.488281 60.871094 31 76.308594 31 C 91.738281 31 104.253906 43.488281 104.253906 58.898438 Z M 104.253906 58.898438 " fill-opacity="1" fill-rule="nonzero"></path><path fill="#c9cbcc" d="M 104.234375 58.882812 C 104.234375 74.253906 91.746094 86.710938 76.347656 86.710938 C 60.949219 86.710938 48.464844 74.253906 48.464844 58.882812 C 48.464844 43.507812 60.949219 31.046875 76.347656 31.046875 C 91.746094 31.046875 104.234375 43.507812 104.234375 58.882812 Z M 104.234375 58.882812 " fill-opacity="1" fill-rule="nonzero"></path><path fill="#cacbcd" d="M 104.214844 58.867188 C 104.214844 74.203125 91.757812 86.632812 76.390625 86.632812 C 61.023438 86.632812 48.570312 74.203125 48.570312 58.867188 C 48.570312 43.527344 61.023438 31.09375 76.390625 31.09375 C 91.757812 31.09375 104.214844 43.527344 104.214844 58.867188 Z M 104.214844 58.867188 " fill-opacity="1" fill-rule="nonzero"></path><path fill="#cbccce" d="M 104.195312 58.851562 C 104.195312 74.152344 91.761719 86.554688 76.433594 86.554688 C 61.101562 86.554688 48.675781 74.152344 48.675781 58.851562 C 48.675781 43.542969 61.101562 31.140625 76.433594 31.140625 C 91.761719 31.140625 104.195312 43.542969 104.195312 58.851562 Z M 104.195312 58.851562 " fill-opacity="1" fill-rule="nonzero"></path><path fill="#cbcdcf" d="M 104.171875 58.835938 C 104.171875 74.101562 91.773438 86.476562 76.476562 86.476562 C 61.179688 86.476562 48.78125 74.101562 48.78125 58.835938 C 48.78125 43.5625 61.179688 31.1875 76.476562 31.1875 C 91.773438 31.1875 104.171875 43.5625 104.171875 58.835938 Z M 104.171875 58.835938 " fill-opacity="1" fill-rule="nonzero"></path><path fill="#ccced0" d="M 104.152344 58.820312 C 104.152344 74.050781 91.78125 86.398438 76.519531 86.398438 C 61.253906 86.398438 48.882812 74.050781 48.882812 58.820312 C 48.882812 43.582031 61.253906 31.234375 76.519531 31.234375 C 91.78125 31.234375 104.152344 43.582031 104.152344 58.820312 Z M 104.152344 58.820312 " fill-opacity="1" fill-rule="nonzero"></path><path fill="#cdcfd0" d="M 104.132812 58.804688 C 104.132812 74 91.789062 86.320312 76.5625 86.320312 C 61.332031 86.320312 48.988281 74 48.988281 58.804688 C 48.988281 43.601562 61.332031 31.28125 76.5625 31.28125 C 91.789062 31.28125 104.132812 43.601562 104.132812 58.804688 Z M 104.132812 58.804688 " fill-opacity="1" fill-rule="nonzero"></path></g></g><g clip-path="url(#4e38740e26)"><g clip-path="url(#3bc5e7d623)"><path fill="#cecfd1" d="M 104.113281 58.789062 C 104.113281 73.953125 91.796875 86.242188 76.605469 86.242188 C 61.410156 86.242188 49.09375 73.953125 49.09375 58.789062 C 49.09375 43.621094 61.410156 31.328125 76.605469 31.328125 C 91.796875 31.328125 104.113281 43.621094 104.113281 58.789062 Z M 104.113281 58.789062 " fill-opacity="1" fill-rule="nonzero"></path><path fill="#cfd0d2" d="M 104.09375 58.773438 C 104.09375 73.902344 91.804688 86.164062 76.648438 86.164062 C 61.488281 86.164062 49.199219 73.902344 49.199219 58.773438 C 49.199219 43.640625 61.488281 31.375 76.648438 31.375 C 91.804688 31.375 104.09375 43.640625 104.09375 58.773438 Z M 104.09375 58.773438 " fill-opacity="1" fill-rule="nonzero"></path><path fill="#d0d1d3" d="M 104.074219 58.757812 C 104.074219 73.851562 91.8125 86.089844 76.691406 86.089844 C 61.566406 86.089844 49.304688 73.851562 49.304688 58.757812 C 49.304688 43.65625 61.566406 31.421875 76.691406 31.421875 C 91.8125 31.421875 104.074219 43.65625 104.074219 58.757812 Z M 104.074219 58.757812 " fill-opacity="1" fill-rule="nonzero"></path><path fill="#d0d2d3" d="M 104.050781 58.742188 C 104.050781 73.800781 91.820312 86.011719 76.730469 86.011719 C 61.640625 86.011719 49.410156 73.800781 49.410156 58.742188 C 49.410156 43.675781 61.640625 31.46875 76.730469 31.46875 C 91.820312 31.46875 104.050781 43.675781 104.050781 58.742188 Z M 104.050781 58.742188 " fill-opacity="1" fill-rule="nonzero"></path></g></g><g clip-path="url(#db58e0c26e)"><g clip-path="url(#ca9f6526f3)"><path fill="#d1d3d4" d="M 104.035156 58.726562 C 104.035156 73.75 91.828125 85.933594 76.777344 85.933594 C 61.71875 85.933594 49.515625 73.75 49.515625 58.726562 C 49.515625 43.695312 61.71875 31.515625 76.777344 31.515625 C 91.828125 31.515625 104.035156 43.695312 104.035156 58.726562 Z M 104.035156 58.726562 " fill-opacity="1" fill-rule="nonzero"></path></g></g><g clip-path="url(#cdebabd5d1)"><g clip-path="url(#f7b9589255)"><path fill="#d2d3d5" d="M 103.992188 58.703125 C 103.992188 73.679688 91.824219 85.820312 76.820312 85.820312 C 61.8125 85.820312 49.648438 73.679688 49.648438 58.703125 C 49.648438 43.722656 61.8125 31.582031 76.820312 31.582031 C 91.824219 31.582031 103.992188 43.722656 103.992188 58.703125 Z M 103.992188 58.703125 " fill-opacity="1" fill-rule="nonzero"></path><path fill="#d3d4d6" d="M 103.949219 58.683594 C 103.949219 73.609375 91.824219 85.714844 76.867188 85.714844 C 61.910156 85.714844 49.785156 73.609375 49.785156 58.683594 C 49.785156 43.75 61.910156 31.648438 76.867188 31.648438 C 91.824219 31.648438 103.949219 43.75 103.949219 58.683594 Z M 103.949219 58.683594 " fill-opacity="1" fill-rule="nonzero"></path><path fill="#d4d5d7" d="M 103.90625 58.660156 C 103.90625 73.542969 91.820312 85.605469 76.914062 85.605469 C 62.003906 85.605469 49.917969 73.542969 49.917969 58.660156 C 49.917969 43.777344 62.003906 31.714844 76.914062 31.714844 C 91.820312 31.714844 103.90625 43.777344 103.90625 58.660156 Z M 103.90625 58.660156 " fill-opacity="1" fill-rule="nonzero"></path></g></g><g clip-path="url(#c7e4f506df)"><g clip-path="url(#d540544030)"><path fill="#d5d6d7" d="M 103.867188 58.636719 C 103.867188 73.46875 91.816406 85.492188 76.960938 85.492188 C 62.097656 85.492188 50.050781 73.46875 50.050781 58.636719 C 50.050781 43.804688 62.097656 31.777344 76.960938 31.777344 C 91.820312 31.78125 103.867188 43.804688 103.867188 58.636719 Z M 103.867188 58.636719 " fill-opacity="1" fill-rule="nonzero"></path><path fill="#d5d7d8" d="M 103.824219 58.617188 C 103.824219 73.398438 91.816406 85.386719 77.003906 85.386719 C 62.191406 85.386719 50.183594 73.402344 50.183594 58.617188 C 50.183594 43.828125 62.191406 31.84375 77.003906 31.84375 C 91.816406 31.84375 103.824219 43.828125 103.824219 58.617188 Z M 103.824219 58.617188 " fill-opacity="1" fill-rule="nonzero"></path><path fill="#d6d7d9" d="M 103.78125 58.59375 C 103.78125 73.332031 91.8125 85.273438 77.050781 85.273438 C 62.289062 85.273438 50.320312 73.332031 50.320312 58.59375 C 50.320312 43.855469 62.289062 31.910156 77.050781 31.910156 C 91.8125 31.910156 103.78125 43.855469 103.78125 58.59375 Z M 103.78125 58.59375 " fill-opacity="1" fill-rule="nonzero"></path><path fill="#d7d8da" d="M 103.742188 58.574219 C 103.742188 73.261719 91.8125 85.167969 77.097656 85.167969 C 62.382812 85.167969 50.453125 73.261719 50.453125 58.574219 C 50.453125 43.882812 62.382812 31.976562 77.097656 31.976562 C 91.8125 31.976562 103.742188 43.882812 103.742188 58.574219 Z M 103.742188 58.574219 " fill-opacity="1" fill-rule="nonzero"></path></g></g><g clip-path="url(#ab55b97105)"><g clip-path="url(#587404884b)"><path fill="#d8d9db" d="M 103.699219 58.550781 C 103.699219 73.191406 91.808594 85.054688 77.144531 85.054688 C 62.476562 85.054688 50.589844 73.191406 50.589844 58.550781 C 50.589844 43.910156 62.476562 32.042969 77.144531 32.042969 C 91.808594 32.042969 103.699219 43.910156 103.699219 58.550781 Z M 103.699219 58.550781 " fill-opacity="1" fill-rule="nonzero"></path></g></g><g clip-path="url(#9b7bce2a2e)"><g clip-path="url(#5d45cd57ba)"><path fill="#d8d9db" d="M 103.65625 58.53125 C 103.65625 73.121094 91.808594 84.945312 77.1875 84.945312 C 62.570312 84.945312 50.722656 73.121094 50.722656 58.53125 C 50.722656 43.9375 62.570312 32.109375 77.1875 32.109375 C 91.808594 32.109375 103.65625 43.9375 103.65625 58.53125 Z M 103.65625 58.53125 " fill-opacity="1" fill-rule="nonzero"></path><path fill="#d9dadb" d="M 103.617188 58.507812 C 103.617188 73.050781 91.804688 84.839844 77.234375 84.839844 C 62.667969 84.839844 50.855469 73.050781 50.855469 58.507812 C 50.855469 43.964844 62.667969 32.175781 77.234375 32.175781 C 91.804688 32.175781 103.617188 43.964844 103.617188 58.507812 Z M 103.617188 58.507812 " fill-opacity="1" fill-rule="nonzero"></path><path fill="#d9dbdc" d="M 103.574219 58.484375 C 103.574219 72.980469 91.804688 84.726562 77.28125 84.726562 C 62.761719 84.726562 50.992188 72.980469 50.992188 58.484375 C 50.992188 43.988281 62.761719 32.242188 77.28125 32.242188 C 91.800781 32.242188 103.574219 43.988281 103.574219 58.484375 Z M 103.574219 58.484375 " fill-opacity="1" fill-rule="nonzero"></path></g></g><g clip-path="url(#6a51c00588)"><g clip-path="url(#4366dbb6ab)"><path fill="#dadcdd" d="M 103.53125 58.464844 C 103.53125 72.910156 91.800781 84.617188 77.328125 84.617188 C 62.855469 84.617188 51.125 72.910156 51.125 58.464844 C 51.125 44.015625 62.855469 32.308594 77.328125 32.308594 C 91.800781 32.308594 103.53125 44.015625 103.53125 58.464844 Z M 103.53125 58.464844 " fill-opacity="1" fill-rule="nonzero"></path><path fill="#dbdcde" d="M 103.488281 58.441406 C 103.488281 72.839844 91.796875 84.507812 77.375 84.507812 C 62.949219 84.507812 51.257812 72.839844 51.257812 58.441406 C 51.257812 44.042969 62.949219 32.375 77.375 32.375 C 91.796875 32.375 103.488281 44.042969 103.488281 58.441406 Z M 103.488281 58.441406 " fill-opacity="1" fill-rule="nonzero"></path><path fill="#dcddde" d="M 103.449219 58.421875 C 103.449219 72.769531 91.796875 84.398438 77.421875 84.398438 C 63.046875 84.398438 51.394531 72.769531 51.394531 58.421875 C 51.394531 44.070312 63.046875 32.4375 77.421875 32.4375 C 91.796875 32.4375 103.449219 44.070312 103.449219 58.421875 Z M 103.449219 58.421875 " fill-opacity="1" fill-rule="nonzero"></path><path fill="#dddedf" d="M 103.40625 58.398438 C 103.40625 72.699219 91.792969 84.289062 77.46875 84.289062 C 63.140625 84.289062 51.527344 72.699219 51.527344 58.398438 C 51.527344 44.097656 63.140625 32.503906 77.46875 32.503906 C 91.792969 32.503906 103.40625 44.097656 103.40625 58.398438 Z M 103.40625 58.398438 " fill-opacity="1" fill-rule="nonzero"></path><path fill="#dedfe0" d="M 103.367188 58.378906 C 103.367188 72.628906 91.792969 84.179688 77.515625 84.179688 C 63.234375 84.179688 51.660156 72.628906 51.660156 58.378906 C 51.660156 44.121094 63.234375 32.570312 77.515625 32.570312 C 91.792969 32.570312 103.367188 44.121094 103.367188 58.378906 Z M 103.367188 58.378906 " fill-opacity="1" fill-rule="nonzero"></path><path fill="#dee0e1" d="M 103.324219 58.355469 C 103.324219 72.558594 91.789062 84.070312 77.558594 84.070312 C 63.328125 84.070312 51.796875 72.558594 51.796875 58.355469 C 51.796875 44.148438 63.328125 32.636719 77.558594 32.636719 C 91.789062 32.636719 103.324219 44.148438 103.324219 58.355469 Z M 103.324219 58.355469 " fill-opacity="1" fill-rule="nonzero"></path></g></g><g clip-path="url(#4e30ad9800)"><g clip-path="url(#f4dba90208)"><path fill="#dfe0e2" d="M 103.28125 58.332031 C 103.28125 72.488281 91.785156 83.960938 77.605469 83.960938 C 63.425781 83.960938 51.929688 72.488281 51.929688 58.332031 C 51.929688 44.175781 63.425781 32.703125 77.605469 32.703125 C 91.785156 32.703125 103.28125 44.175781 103.28125 58.332031 Z M 103.28125 58.332031 " fill-opacity="1" fill-rule="nonzero"></path></g></g><g clip-path="url(#78ef708a81)"><g clip-path="url(#f806b15277)"><path fill="#e0e1e2" d="M 103.242188 58.3125 C 103.242188 72.417969 91.785156 83.851562 77.652344 83.851562 C 63.519531 83.851562 52.0625 72.417969 52.0625 58.3125 C 52.0625 44.203125 63.519531 32.769531 77.652344 32.769531 C 91.785156 32.769531 103.242188 44.203125 103.242188 58.3125 Z M 103.242188 58.3125 " fill-opacity="1" fill-rule="nonzero"></path><path fill="#e1e2e3" d="M 103.1875 58.28125 C 103.1875 72.304688 91.792969 83.675781 77.742188 83.675781 C 63.6875 83.675781 52.296875 72.304688 52.296875 58.28125 C 52.296875 44.25 63.6875 32.878906 77.742188 32.878906 C 91.792969 32.878906 103.1875 44.25 103.1875 58.28125 Z M 103.1875 58.28125 " fill-opacity="1" fill-rule="nonzero"></path><path fill="#e2e3e4" d="M 103.132812 58.246094 C 103.132812 72.195312 91.804688 83.5 77.828125 83.5 C 63.851562 83.5 52.523438 72.195312 52.523438 58.246094 C 52.523438 44.296875 63.851562 32.988281 77.828125 32.988281 C 91.804688 32.988281 103.132812 44.296875 103.132812 58.246094 Z M 103.132812 58.246094 " fill-opacity="1" fill-rule="nonzero"></path></g></g><g clip-path="url(#ac43acf28f)"><g clip-path="url(#abd2598357)"><path fill="#e3e4e5" d="M 103.078125 58.214844 C 103.078125 72.082031 91.8125 83.328125 77.914062 83.328125 C 64.019531 83.328125 52.757812 72.085938 52.757812 58.214844 C 52.753906 44.339844 64.019531 33.097656 77.914062 33.097656 C 91.8125 33.097656 103.078125 44.339844 103.078125 58.214844 Z M 103.078125 58.214844 " fill-opacity="1" fill-rule="nonzero"></path><path fill="#e3e4e5" d="M 103.023438 58.183594 C 103.023438 71.972656 91.820312 83.152344 78.003906 83.152344 C 64.1875 83.152344 52.984375 71.972656 52.984375 58.183594 C 52.984375 44.386719 64.1875 33.207031 78.003906 33.207031 C 91.820312 33.207031 103.023438 44.386719 103.023438 58.183594 Z M 103.023438 58.183594 " fill-opacity="1" fill-rule="nonzero"></path></g></g><g clip-path="url(#31a2520c09)"><g clip-path="url(#f994531c01)"><path fill="#e4e5e6" d="M 102.96875 58.148438 C 102.96875 71.863281 91.832031 82.976562 78.09375 82.976562 C 64.355469 82.976562 53.21875 71.863281 53.21875 58.148438 C 53.21875 44.433594 64.355469 33.316406 78.09375 33.316406 C 91.832031 33.316406 102.96875 44.433594 102.96875 58.148438 Z M 102.96875 58.148438 " fill-opacity="1" fill-rule="nonzero"></path><path fill="#e5e6e7" d="M 102.914062 58.117188 C 102.914062 71.75 91.839844 82.804688 78.179688 82.804688 C 64.519531 82.804688 53.449219 71.75 53.449219 58.117188 C 53.449219 44.480469 64.519531 33.425781 78.179688 33.425781 C 91.839844 33.425781 102.914062 44.480469 102.914062 58.117188 Z M 102.914062 58.117188 " fill-opacity="1" fill-rule="nonzero"></path><path fill="#e6e7e8" d="M 102.859375 58.085938 C 102.859375 71.640625 91.851562 82.628906 78.269531 82.628906 C 64.6875 82.628906 53.675781 71.640625 53.675781 58.085938 C 53.675781 44.527344 64.6875 33.535156 78.269531 33.535156 C 91.851562 33.535156 102.859375 44.523438 102.859375 58.085938 Z M 102.859375 58.085938 " fill-opacity="1" fill-rule="nonzero"></path><path fill="#e7e8e9" d="M 102.804688 58.050781 C 102.804688 71.527344 91.859375 82.453125 78.355469 82.453125 C 64.855469 82.453125 53.910156 71.527344 53.910156 58.050781 C 53.910156 44.570312 64.855469 33.644531 78.355469 33.644531 C 91.859375 33.644531 102.804688 44.570312 102.804688 58.050781 Z M 102.804688 58.050781 " fill-opacity="1" fill-rule="nonzero"></path></g></g><g clip-path="url(#3ae88f449c)"><g clip-path="url(#5674af972c)"><path fill="#e7e8e9" d="M 102.75 58.019531 C 102.75 71.417969 91.871094 82.277344 78.445312 82.277344 C 65.023438 82.277344 54.140625 71.417969 54.140625 58.019531 C 54.140625 44.617188 65.023438 33.753906 78.445312 33.753906 C 91.871094 33.753906 102.75 44.617188 102.75 58.019531 Z M 102.75 58.019531 " fill-opacity="1" fill-rule="nonzero"></path><path fill="#e8e8e9" d="M 102.699219 57.984375 C 102.699219 71.304688 91.878906 82.105469 78.535156 82.105469 C 65.1875 82.105469 54.371094 71.304688 54.371094 57.984375 C 54.371094 44.664062 65.1875 33.863281 78.535156 33.863281 C 91.878906 33.863281 102.699219 44.664062 102.699219 57.984375 Z M 102.699219 57.984375 " fill-opacity="1" fill-rule="nonzero"></path></g></g><g clip-path="url(#0c16fb0c0b)"><g clip-path="url(#b5dd0c3a4d)"><path fill="#e9e9ea" d="M 102.644531 57.953125 C 102.644531 71.195312 91.890625 81.929688 78.621094 81.929688 C 65.355469 81.929688 54.601562 71.195312 54.601562 57.953125 C 54.601562 44.710938 65.355469 33.976562 78.621094 33.976562 C 91.890625 33.976562 102.644531 44.710938 102.644531 57.953125 Z M 102.644531 57.953125 " fill-opacity="1" fill-rule="nonzero"></path></g></g><g clip-path="url(#5879036bf6)"><g clip-path="url(#9182b36449)"><path fill="#e9eaeb" d="M 102.589844 57.921875 C 102.589844 71.082031 91.898438 81.753906 78.707031 81.753906 C 65.523438 81.753906 54.832031 71.082031 54.832031 57.921875 C 54.832031 44.753906 65.523438 34.085938 78.707031 34.085938 C 91.898438 34.085938 102.589844 44.753906 102.589844 57.921875 Z M 102.589844 57.921875 " fill-opacity="1" fill-rule="nonzero"></path></g></g><g clip-path="url(#94776ad9f8)"><g clip-path="url(#9580baee58)"><path fill="#eaebec" d="M 102.535156 57.890625 C 102.535156 70.972656 91.90625 81.582031 78.796875 81.582031 C 65.6875 81.582031 55.0625 70.972656 55.0625 57.890625 C 55.0625 44.800781 65.691406 34.195312 78.796875 34.195312 C 91.90625 34.195312 102.535156 44.800781 102.535156 57.890625 Z M 102.535156 57.890625 " fill-opacity="1" fill-rule="nonzero"></path><path fill="#ebeced" d="M 102.480469 57.855469 C 102.480469 70.863281 91.917969 81.40625 78.886719 81.40625 C 65.855469 81.40625 55.292969 70.863281 55.292969 57.855469 C 55.292969 44.847656 65.855469 34.304688 78.886719 34.304688 C 91.917969 34.304688 102.480469 44.847656 102.480469 57.855469 Z M 102.480469 57.855469 " fill-opacity="1" fill-rule="nonzero"></path><path fill="#eceded" d="M 102.425781 57.824219 C 102.425781 70.75 91.925781 81.230469 78.972656 81.230469 C 66.023438 81.230469 55.523438 70.75 55.523438 57.824219 C 55.523438 44.894531 66.023438 34.414062 78.972656 34.414062 C 91.925781 34.414062 102.425781 44.894531 102.425781 57.824219 Z M 102.425781 57.824219 " fill-opacity="1" fill-rule="nonzero"></path><path fill="#ededee" d="M 102.371094 57.789062 C 102.371094 70.640625 91.9375 81.058594 79.0625 81.058594 C 66.191406 81.058594 55.753906 70.640625 55.753906 57.789062 C 55.753906 44.9375 66.191406 34.523438 79.0625 34.523438 C 91.9375 34.523438 102.371094 44.9375 102.371094 57.789062 Z M 102.371094 57.789062 " fill-opacity="1" fill-rule="nonzero"></path></g></g><g clip-path="url(#585bdc9c5c)"><g clip-path="url(#6d67ce0431)"><path fill="#eeeeef" d="M 102.214844 57.738281 C 102.214844 70.433594 91.90625 80.726562 79.183594 80.726562 C 66.460938 80.726562 56.148438 70.433594 56.148438 57.738281 C 56.148438 45.035156 66.460938 34.742188 79.183594 34.742188 C 91.90625 34.742188 102.214844 45.035156 102.214844 57.738281 Z M 102.214844 57.738281 " fill-opacity="1" fill-rule="nonzero"></path><path fill="#eeeff0" d="M 102.058594 57.683594 C 102.058594 70.226562 91.871094 80.398438 79.304688 80.398438 C 66.734375 80.398438 56.542969 70.226562 56.542969 57.683594 C 56.542969 45.136719 66.734375 34.964844 79.304688 34.964844 C 91.871094 34.964844 102.058594 45.136719 102.058594 57.683594 Z M 102.058594 57.683594 " fill-opacity="1" fill-rule="nonzero"></path></g></g><g clip-path="url(#f61237848b)"><g clip-path="url(#131c45e5ff)"><path fill="#eff0f0" d="M 101.90625 57.628906 C 101.90625 70.023438 91.839844 80.070312 79.425781 80.070312 C 67.007812 80.070312 56.941406 70.023438 56.941406 57.628906 C 56.941406 45.230469 67.007812 35.183594 79.425781 35.183594 C 91.839844 35.1875 101.90625 45.234375 101.90625 57.628906 Z M 101.90625 57.628906 " fill-opacity="1" fill-rule="nonzero"></path></g></g><g clip-path="url(#c1b9701924)"><g clip-path="url(#6aaba906e7)"><path fill="#f0f1f1" d="M 101.75 57.574219 C 101.75 69.816406 91.808594 79.742188 79.542969 79.742188 C 67.28125 79.742188 57.335938 69.816406 57.335938 57.574219 C 57.335938 45.332031 67.28125 35.40625 79.542969 35.40625 C 91.808594 35.40625 101.75 45.332031 101.75 57.574219 Z M 101.75 57.574219 " fill-opacity="1" fill-rule="nonzero"></path><path fill="#f1f1f2" d="M 101.597656 57.519531 C 101.597656 69.609375 91.777344 79.410156 79.664062 79.410156 C 67.554688 79.410156 57.734375 69.609375 57.734375 57.519531 C 57.734375 45.425781 67.554688 35.625 79.664062 35.625 C 91.777344 35.628906 101.597656 45.429688 101.597656 57.519531 Z M 101.597656 57.519531 " fill-opacity="1" fill-rule="nonzero"></path></g></g><g clip-path="url(#0160f2aa00)"><g clip-path="url(#11c040cdfe)"><path fill="#f2f2f3" d="M 101.441406 57.46875 C 101.441406 69.402344 91.746094 79.082031 79.785156 79.082031 C 67.824219 79.082031 58.128906 69.402344 58.128906 57.46875 C 58.128906 45.527344 67.824219 35.847656 79.785156 35.847656 C 91.746094 35.847656 101.441406 45.527344 101.441406 57.46875 Z M 101.441406 57.46875 " fill-opacity="1" fill-rule="nonzero"></path></g></g><g clip-path="url(#3f74850c3f)"><g clip-path="url(#663d2b9b32)"><path fill="#f3f3f3" d="M 101.285156 57.414062 C 101.285156 69.199219 91.714844 78.753906 79.90625 78.753906 C 68.097656 78.753906 58.523438 69.199219 58.523438 57.414062 C 58.523438 45.625 68.097656 36.070312 79.90625 36.070312 C 91.714844 36.070312 101.285156 45.625 101.285156 57.414062 Z M 101.285156 57.414062 " fill-opacity="1" fill-rule="nonzero"></path><path fill="#f3f4f4" d="M 101.132812 57.359375 C 101.132812 68.992188 91.683594 78.425781 80.027344 78.425781 C 68.371094 78.425781 58.921875 68.992188 58.921875 57.359375 C 58.921875 45.722656 68.371094 36.289062 80.027344 36.289062 C 91.683594 36.289062 101.132812 45.722656 101.132812 57.359375 Z M 101.132812 57.359375 " fill-opacity="1" fill-rule="nonzero"></path></g></g><g clip-path="url(#d12279a5c6)"><g clip-path="url(#e35f98fc79)"><path fill="#f3f4f4" d="M 100.976562 57.304688 C 100.976562 68.785156 91.648438 78.09375 80.148438 78.09375 C 68.644531 78.09375 59.316406 68.785156 59.316406 57.304688 C 59.316406 45.820312 68.644531 36.511719 80.148438 36.511719 C 91.648438 36.511719 100.976562 45.820312 100.976562 57.304688 Z M 100.976562 57.304688 " fill-opacity="1" fill-rule="nonzero"></path></g></g><g clip-path="url(#3db289d784)"><g clip-path="url(#91f334bba0)"><path fill="#f4f5f5" d="M 100.820312 57.25 C 100.820312 68.582031 91.617188 77.765625 80.265625 77.765625 C 68.914062 77.765625 59.710938 68.582031 59.710938 57.25 C 59.710938 45.917969 68.914062 36.730469 80.265625 36.730469 C 91.621094 36.730469 100.820312 45.917969 100.820312 57.25 Z M 100.820312 57.25 " fill-opacity="1" fill-rule="nonzero"></path></g></g><g clip-path="url(#3da3ebafd9)"><g clip-path="url(#7cdd082eb2)"><path fill="#f5f6f6" d="M 100.664062 57.195312 C 100.664062 68.375 91.585938 77.4375 80.386719 77.4375 C 69.1875 77.4375 60.109375 68.375 60.109375 57.195312 C 60.109375 46.015625 69.1875 36.953125 80.386719 36.953125 C 91.585938 36.953125 100.664062 46.015625 100.664062 57.195312 Z M 100.664062 57.195312 " fill-opacity="1" fill-rule="nonzero"></path></g></g><g clip-path="url(#e29cfaea35)"><g clip-path="url(#847d4a994e)"><path fill="#f6f6f7" d="M 100.472656 57.121094 C 100.472656 68.082031 91.566406 76.96875 80.582031 76.96875 C 69.601562 76.96875 60.695312 68.082031 60.695312 57.121094 C 60.695312 46.152344 69.601562 37.265625 80.582031 37.265625 C 91.566406 37.265625 100.472656 46.152344 100.472656 57.121094 Z M 100.472656 57.121094 " fill-opacity="1" fill-rule="nonzero"></path></g></g><g clip-path="url(#6e048520a4)"><g clip-path="url(#4b0fb6fcbb)"><path fill="#f7f7f8" d="M 100.277344 57.042969 C 100.277344 67.789062 91.550781 76.503906 80.78125 76.503906 C 70.011719 76.503906 61.28125 67.789062 61.28125 57.042969 C 61.28125 46.289062 70.011719 37.578125 80.78125 37.578125 C 91.546875 37.578125 100.277344 46.289062 100.277344 57.042969 Z M 100.277344 57.042969 " fill-opacity="1" fill-rule="nonzero"></path><path fill="#f8f8f9" d="M 100.085938 56.964844 C 100.085938 67.5 91.53125 76.039062 80.976562 76.039062 C 70.421875 76.039062 61.867188 67.5 61.867188 56.964844 C 61.867188 46.425781 70.421875 37.886719 80.976562 37.886719 C 91.53125 37.886719 100.085938 46.429688 100.085938 56.964844 Z M 100.085938 56.964844 " fill-opacity="1" fill-rule="nonzero"></path></g></g><g clip-path="url(#b31a22059f)"><g clip-path="url(#157fc4de75)"><path fill="#f9f9fa" d="M 99.894531 56.886719 C 99.894531 67.207031 91.511719 75.570312 81.171875 75.570312 C 70.835938 75.570312 62.453125 67.207031 62.453125 56.886719 C 62.453125 46.566406 70.835938 38.199219 81.171875 38.199219 C 91.511719 38.199219 99.894531 46.566406 99.894531 56.886719 Z M 99.894531 56.886719 " fill-opacity="1" fill-rule="nonzero"></path></g></g><g clip-path="url(#f3c949a64c)"><g clip-path="url(#3956fe4287)"><path fill="#fafbfb" d="M 99.699219 56.8125 C 99.699219 66.914062 91.492188 75.105469 81.367188 75.105469 C 71.246094 75.105469 63.042969 66.914062 63.042969 56.8125 C 63.042969 46.703125 71.246094 38.511719 81.367188 38.511719 C 91.492188 38.511719 99.699219 46.703125 99.699219 56.8125 Z M 99.699219 56.8125 " fill-opacity="1" fill-rule="nonzero"></path></g></g><g clip-path="url(#ca276a10e7)"><g clip-path="url(#fc31e440b9)"><path fill="#fafbfb" d="M 99.507812 56.734375 C 99.507812 66.621094 91.476562 74.636719 81.566406 74.636719 C 71.660156 74.636719 63.628906 66.621094 63.628906 56.734375 C 63.628906 46.839844 71.660156 38.824219 81.566406 38.824219 C 91.476562 38.824219 99.507812 46.839844 99.507812 56.734375 Z M 99.507812 56.734375 " fill-opacity="1" fill-rule="nonzero"></path></g></g><g clip-path="url(#e0a9b4ab63)"><g clip-path="url(#d46366d175)"><path fill="#fcfcfc" d="M 99.242188 56.671875 C 99.242188 66.363281 91.375 74.214844 81.667969 74.214844 C 71.964844 74.214844 64.09375 66.363281 64.09375 56.671875 C 64.09375 46.984375 71.964844 39.128906 81.667969 39.128906 C 91.375 39.128906 99.242188 46.984375 99.242188 56.671875 Z M 99.242188 56.671875 " fill-opacity="1" fill-rule="nonzero"></path></g></g><g clip-path="url(#fd6e8211da)"><g clip-path="url(#e2569fcb10)"><path fill="#fdfdfd" d="M 98.980469 56.617188 C 98.980469 66.101562 91.273438 73.792969 81.769531 73.792969 C 72.265625 73.792969 64.5625 66.101562 64.5625 56.617188 C 64.5625 47.125 72.265625 39.4375 81.769531 39.4375 C 91.273438 39.4375 98.980469 47.125 98.980469 56.617188 Z M 98.980469 56.617188 " fill-opacity="1" fill-rule="nonzero"></path></g></g><g clip-path="url(#9344cb4463)"><g clip-path="url(#14398c7b00)"><path fill="#fdfdfd" d="M 98.714844 56.558594 C 98.714844 65.839844 91.175781 73.367188 81.875 73.367188 C 72.570312 73.367188 65.03125 65.839844 65.03125 56.558594 C 65.03125 47.269531 72.570312 39.742188 81.875 39.742188 C 91.175781 39.742188 98.714844 47.269531 98.714844 56.558594 Z M 98.714844 56.558594 " fill-opacity="1" fill-rule="nonzero"></path></g></g><g clip-path="url(#6426f85066)"><g clip-path="url(#5cb08d4de1)"><path fill="#ffffff" d="M 98.453125 56.5 C 98.453125 65.582031 91.074219 72.945312 81.976562 72.945312 C 72.875 72.945312 65.496094 65.582031 65.496094 56.5 C 65.496094 47.410156 72.875 40.050781 81.976562 40.050781 C 91.078125 40.050781 98.453125 47.410156 98.453125 56.5 Z M 98.453125 56.5 " fill-opacity="1" fill-rule="nonzero"></path></g></g><g clip-path="url(#1ba3bd4d9d)"><path fill="#000000" d="M 92.886719 119.46875 L 89.335938 115.808594 C 89.199219 115.691406 89.179688 115.558594 89.285156 115.410156 C 89.292969 115.402344 91.992188 110.863281 91.992188 110.863281 C 92.035156 110.78125 92.058594 110.695312 92.058594 110.605469 C 92.058594 110.460938 92.007812 110.335938 91.90625 110.234375 C 91.804688 110.132812 91.679688 110.082031 91.535156 110.082031 L 89.554688 110.082031 C 89.347656 110.078125 89.1875 110.171875 89.082031 110.351562 L 87.367188 113.308594 C 87.324219 113.367188 87.265625 113.402344 87.191406 113.414062 C 87.121094 113.425781 87.054688 113.410156 86.992188 113.367188 C 86.992188 113.367188 84.222656 110.523438 84.222656 110.523438 C 84.113281 110.394531 84.121094 110.273438 84.246094 110.15625 L 84.285156 110.125 C 85.847656 109.214844 87.632812 107.878906 87.632812 105.523438 C 87.632812 102.820312 85.683594 101.003906 82.789062 101.003906 C 79.957031 101.003906 77.800781 102.898438 77.800781 105.726562 C 77.800781 106.96875 78.320312 108.210938 79.398438 109.519531 L 79.421875 109.546875 C 79.464844 109.597656 79.484375 109.667969 79.476562 109.738281 C 79.464844 109.8125 79.433594 109.875 79.375 109.921875 C 77.015625 111.261719 75.824219 113.03125 75.824219 115.199219 C 75.824219 118.878906 78.910156 120.804688 81.957031 120.804688 C 84.050781 120.804688 85.679688 120.003906 87.253906 118.203125 L 87.285156 118.164062 C 87.378906 118.070312 87.550781 118.070312 87.65625 118.179688 L 89.5625 120.148438 C 89.566406 120.152344 89.613281 120.199219 89.613281 120.199219 C 89.714844 120.296875 89.847656 120.351562 89.988281 120.351562 L 92.503906 120.351562 C 92.648438 120.355469 92.773438 120.304688 92.878906 120.199219 C 92.980469 120.097656 93.03125 119.976562 93.03125 119.828125 C 93.03125 119.691406 92.980469 119.570312 92.886719 119.46875 Z M 82.835938 103.734375 C 84.03125 103.734375 84.667969 104.554688 84.667969 105.554688 C 84.667969 106.722656 83.621094 107.402344 82.359375 108.105469 L 82.296875 108.132812 C 82.183594 108.195312 82.082031 108.179688 81.992188 108.082031 C 81.984375 108.074219 81.972656 108.0625 81.960938 108.054688 C 81.414062 107.453125 80.769531 106.503906 80.769531 105.8125 C 80.765625 104.644531 81.605469 103.734375 82.835938 103.734375 Z M 85.382812 116.222656 L 85.371094 116.238281 C 84.457031 117.324219 83.449219 118.050781 81.988281 118.050781 C 80.25 118.050781 78.894531 116.804688 78.894531 115.214844 C 78.894531 113.808594 79.496094 112.976562 81.28125 111.898438 C 81.40625 111.824219 81.542969 111.84375 81.632812 111.925781 L 85.355469 115.820312 C 85.421875 115.882812 85.453125 115.945312 85.453125 116.019531 L 85.453125 116.027344 C 85.453125 116.101562 85.429688 116.167969 85.382812 116.222656 Z M 73.476562 118.015625 L 73.363281 118.019531 C 70.511719 118.019531 69.070312 116.511719 69.070312 113.542969 L 69.070312 104.792969 C 69.070312 104.640625 69.195312 104.515625 69.347656 104.515625 L 73.8125 104.515625 C 73.960938 104.515625 74.085938 104.464844 74.1875 104.359375 C 74.292969 104.257812 74.34375 104.132812 74.34375 103.988281 L 74.34375 102.042969 C 74.34375 101.894531 74.292969 101.769531 74.1875 101.667969 C 74.085938 101.5625 73.960938 101.511719 73.8125 101.511719 L 69.363281 101.511719 C 69.28125 101.511719 69.214844 101.484375 69.15625 101.429688 C 69.097656 101.371094 69.070312 101.304688 69.070312 101.222656 L 69.070312 97.203125 C 69.074219 97.058594 69.027344 96.929688 68.929688 96.824219 C 68.828125 96.71875 68.707031 96.660156 68.5625 96.65625 L 68.5 96.65625 L 66.21875 96.835938 C 66.074219 96.835938 65.949219 96.886719 65.847656 96.992188 C 65.746094 97.09375 65.695312 97.21875 65.695312 97.363281 L 65.695312 101.238281 C 65.695312 101.3125 65.667969 101.378906 65.613281 101.429688 C 65.558594 101.484375 65.496094 101.511719 65.417969 101.511719 L 62.613281 101.511719 C 62.46875 101.511719 62.34375 101.5625 62.238281 101.664062 C 62.132812 101.769531 62.082031 101.890625 62.082031 102.039062 L 62.078125 103.996094 C 62.082031 104.140625 62.140625 104.273438 62.246094 104.363281 C 62.347656 104.464844 62.484375 104.515625 62.625 104.515625 L 65.421875 104.515625 C 65.574219 104.515625 65.699219 104.636719 65.699219 104.792969 L 65.695312 114.128906 C 65.695312 119.140625 69.476562 120.929688 72.792969 120.929688 C 72.792969 120.929688 73.183594 120.9375 73.484375 120.90625 C 73.785156 120.878906 74.007812 120.667969 74.007812 120.375 L 74.007812 118.542969 C 74.007812 118.394531 73.957031 118.269531 73.851562 118.167969 C 73.746094 118.066406 73.621094 118.015625 73.472656 118.015625 Z M 60.695312 119.597656 C 60.511719 119.089844 60.460938 118.527344 60.445312 118.28125 C 60.4375 118.101562 60.429688 117.363281 60.429688 117.363281 L 60.429688 108.117188 C 60.429688 103.234375 56.96875 101.496094 53.730469 101.496094 C 51.167969 101.496094 48.828125 102.164062 47.320312 103.167969 C 47.199219 103.25 47.121094 103.363281 47.085938 103.503906 C 47.058594 103.640625 47.085938 103.777344 47.160156 103.890625 C 47.171875 103.910156 48.355469 105.5 48.355469 105.5 C 48.441406 105.617188 48.554688 105.6875 48.695312 105.710938 C 48.835938 105.734375 48.964844 105.703125 49.082031 105.617188 L 49.246094 105.511719 C 50.460938 104.753906 51.789062 104.371094 53.222656 104.359375 C 57.222656 104.359375 57.105469 107.484375 57.105469 107.890625 C 57.105469 108.101562 56.984375 108.152344 56.832031 108.144531 L 56.214844 108.132812 C 53.113281 108.019531 45.246094 109.074219 45.246094 115.300781 C 45.246094 118.957031 48.300781 120.820312 51.148438 120.820312 C 53.910156 120.820312 56.128906 119.726562 57.238281 118.390625 L 57.25 118.375 C 57.261719 118.355469 57.28125 118.347656 57.304688 118.347656 C 57.34375 118.347656 57.375 118.382812 57.375 118.417969 C 57.375 118.589844 57.375 118.980469 57.414062 119.316406 C 57.4375 119.617188 57.476562 119.839844 57.527344 120.007812 C 57.574219 120.152344 57.667969 120.300781 57.808594 120.371094 C 57.878906 120.40625 57.953125 120.421875 58.03125 120.425781 L 60.246094 120.429688 C 60.386719 120.429688 60.511719 120.378906 60.613281 120.28125 C 60.714844 120.183594 60.765625 120.0625 60.769531 119.917969 C 60.769531 119.828125 60.695312 119.597656 60.695312 119.597656 Z M 57.25 112.355469 C 56.796875 115.542969 55.222656 117.390625 52.3125 117.867188 C 50.265625 118.203125 48.414062 117.359375 48.3125 115.171875 C 48.203125 112.769531 51 110.75 56.164062 110.972656 C 56.164062 110.972656 56.546875 110.996094 56.800781 111.027344 C 57.027344 111.050781 57.167969 111.121094 57.253906 111.257812 C 57.335938 111.382812 57.351562 111.636719 57.25 112.355469 Z M 103.535156 118.015625 L 103.417969 118.019531 C 100.570312 118.019531 99.125 116.511719 99.125 113.542969 L 99.125 104.792969 C 99.125 104.640625 99.253906 104.515625 99.402344 104.515625 L 103.867188 104.515625 C 104.164062 104.515625 104.402344 104.277344 104.402344 103.988281 L 104.402344 102.042969 C 104.402344 101.894531 104.351562 101.769531 104.246094 101.667969 C 104.140625 101.5625 104.015625 101.511719 103.867188 101.511719 L 99.421875 101.511719 C 99.339844 101.511719 99.269531 101.484375 99.210938 101.429688 C 99.15625 101.371094 99.125 101.304688 99.125 101.222656 L 99.125 97.203125 C 99.132812 97.058594 99.082031 96.929688 98.984375 96.824219 C 98.882812 96.71875 98.761719 96.660156 98.617188 96.65625 L 98.554688 96.65625 L 96.273438 96.835938 C 96.128906 96.835938 96.003906 96.886719 95.902344 96.992188 C 95.800781 97.09375 95.75 97.21875 95.75 97.363281 L 95.75 101.238281 C 95.75 101.3125 95.722656 101.378906 95.667969 101.433594 C 95.613281 101.484375 95.546875 101.511719 95.46875 101.511719 L 92.667969 101.511719 C 92.523438 101.511719 92.398438 101.5625 92.292969 101.664062 C 92.191406 101.769531 92.136719 101.890625 92.140625 102.039062 L 92.132812 103.996094 C 92.136719 104.140625 92.191406 104.265625 92.296875 104.363281 C 92.40625 104.46875 92.53125 104.519531 92.679688 104.515625 L 95.472656 104.515625 C 95.625 104.515625 95.75 104.636719 95.75 104.792969 L 95.75 114.128906 C 95.75 119.140625 99.53125 120.929688 102.847656 120.929688 C 102.847656 120.929688 103.238281 120.9375 103.539062 120.90625 C 103.839844 120.878906 104.0625 120.667969 104.0625 120.375 L 104.0625 118.542969 C 104.0625 118.394531 104.011719 118.269531 103.90625 118.167969 C 103.804688 118.066406 103.679688 118.015625 103.535156 118.015625 Z M 103.535156 118.015625 " fill-opacity="1" fill-rule="nonzero"></path></g><g clip-path="url(#84fb03bd1a)"><path fill="#32a5dd" d="M 47.601562 49.503906 C 47.601562 48.238281 47.785156 47.347656 48.125 46.558594 C 48.699219 45.382812 49.34375 44.25 50.0625 43.15625 C 49.867188 43.488281 49.769531 43.847656 49.769531 44.234375 C 49.769531 46.984375 56.515625 50.554688 65.71875 51.722656 C 68.835938 52.121094 77.09375 53.246094 83.488281 52.71875 C 96.386719 51.65625 99.257812 47.160156 99.257812 44.234375 C 99.257812 43.433594 98.824219 42.265625 98.390625 41.589844 C 98.976562 42.363281 99.527344 43.167969 100.035156 43.996094 C 101.023438 45.710938 100.902344 46.394531 100.902344 46.691406 C 100.902344 52.664062 89.765625 56.5625 82.3125 58.59375 C 63.199219 63.800781 47.601562 56.703125 47.601562 49.503906 Z M 53.703125 41.132812 C 53.703125 43.824219 57.628906 48.132812 69.003906 48.132812 C 75.75 48.132812 81.195312 46.828125 85.304688 45.464844 C 91.890625 43.277344 95.15625 40.605469 95.039062 38.617188 C 95.019531 38.308594 94.898438 37.804688 94.53125 37.40625 C 93.058594 36.09375 91.472656 34.9375 89.773438 33.9375 C 90.898438 34.589844 91.535156 35.351562 91.535156 36.199219 C 91.535156 39.164062 84.277344 41.882812 74.792969 42.125 C 65.3125 42.367188 57.457031 40.039062 57.246094 37.082031 C 57.175781 36.101562 57.882812 35.136719 59.222656 34.28125 C 58.203125 34.914062 57.222656 35.605469 56.285156 36.355469 C 53.644531 38.542969 53.703125 40.847656 53.703125 41.132812 Z M 78.382812 75.898438 C 72.613281 76.105469 62.445312 74.121094 56.046875 71.511719 C 50.894531 69.410156 45.796875 65.320312 45.25 61.421875 C 45.308594 62.359375 45.417969 63.285156 45.566406 64.199219 C 48.726562 81.394531 70.425781 80.410156 74.164062 79.996094 C 101.460938 76.972656 103.808594 65.339844 104.167969 63.042969 C 104.222656 62.566406 104.273438 62.082031 104.308594 61.597656 C 103.828125 64.660156 99.214844 75.15625 78.382812 75.898438 Z M 57.628906 79.820312 C 52.730469 77.800781 49.339844 74.4375 47.980469 71.984375 C 49.234375 74.640625 50.847656 77.058594 52.820312 79.234375 C 59.203125 85.21875 69.015625 85.945312 73.519531 85.945312 C 92.597656 85.945312 99.410156 75.9375 100.949219 73.257812 C 101.234375 72.722656 101.503906 72.171875 101.757812 71.617188 C 98.738281 77.824219 83.078125 90.316406 57.628906 79.820312 Z M 103.832031 54.8125 C 103.832031 54.335938 103.773438 53.386719 103.550781 52.414062 C 103.390625 51.761719 103.210938 51.113281 103.003906 50.46875 C 103.363281 51.671875 103.304688 52.515625 103.304688 52.835938 C 103.304688 54.304688 101.480469 63.265625 83.542969 64.898438 C 81.992188 65.035156 70.597656 65.210938 60.691406 62.710938 C 54.097656 61.046875 47.480469 57.832031 46.234375 53.367188 C 46.039062 52.667969 46.125 52.027344 46.277344 51.421875 C 45.765625 53.242188 45.433594 55.09375 45.28125 56.976562 C 45.394531 61.679688 49.484375 67.164062 56.980469 69.523438 C 65.542969 72.210938 70.796875 72.296875 83.25 69.53125 C 104.027344 64.90625 103.832031 55.824219 103.832031 54.8125 Z M 103.832031 54.8125 " fill-opacity="1" fill-rule="nonzero"></path></g><g clip-path="url(#91286ec373)"><path fill="#0096d7" d="M 82.316406 58.59375 C 82.820312 58.457031 83.339844 58.308594 83.875 58.152344 C 81.480469 57.644531 79.058594 57.394531 76.609375 57.394531 C 71.8125 57.394531 67.335938 58.351562 63.5625 59.996094 C 68.976562 60.75 75.414062 60.472656 82.316406 58.59375 Z M 79.867188 46.960938 C 81.703125 46.558594 83.519531 46.058594 85.304688 45.460938 C 86.132812 45.1875 86.953125 44.890625 87.761719 44.5625 C 85.503906 44.148438 83.492188 43.890625 82.136719 43.765625 C 76.976562 43.296875 69.296875 44.757812 67.304688 45.171875 C 66.691406 45.296875 63.886719 45.875 60.472656 47.066406 C 61.273438 47.304688 62.160156 47.507812 63.132812 47.675781 C 66.226562 46.808594 69.429688 46.316406 72.46875 46.316406 C 74.480469 46.316406 77.054688 46.53125 79.867188 46.960938 Z M 80.457031 64.960938 C 78.574219 64.953125 76.015625 64.875 73.128906 64.648438 C 68.011719 65.246094 63.664062 67.523438 61.191406 70.683594 C 62.007812 70.871094 62.8125 71.03125 63.613281 71.160156 C 66.222656 68.300781 70.632812 66.421875 75.636719 66.421875 C 79.285156 66.421875 82.621094 67.421875 85.171875 69.074219 C 86.117188 68.835938 87.058594 68.578125 87.996094 68.292969 C 85.960938 66.738281 83.371094 65.570312 80.457031 64.960938 Z M 97.246094 52.355469 C 98.738281 51.257812 99.882812 50.039062 100.46875 48.699219 C 99.699219 48.230469 98.894531 47.820312 98.066406 47.464844 C 97.195312 48.578125 95.773438 49.679688 93.546875 50.601562 C 94.816406 51.113281 96.046875 51.699219 97.246094 52.355469 Z M 90.691406 55.832031 C 92.261719 55.199219 93.777344 54.492188 95.140625 53.710938 C 93.726562 52.957031 92.078125 52.273438 90.160156 51.691406 C 88.308594 52.148438 86.105469 52.503906 83.488281 52.71875 C 82.707031 52.785156 81.90625 52.824219 81.082031 52.84375 C 82.914062 53.195312 84.664062 53.660156 86.324219 54.210938 C 87.800781 54.695312 89.257812 55.234375 90.691406 55.832031 Z M 94.1875 62.535156 C 92.867188 63.070312 91.359375 63.550781 89.640625 63.945312 C 90.851562 64.667969 91.964844 65.515625 92.988281 66.488281 C 94.257812 65.945312 95.484375 65.320312 96.671875 64.617188 C 95.898438 63.855469 95.070312 63.164062 94.1875 62.535156 Z M 55.5 49.121094 C 53.1875 50.25 50.921875 51.65625 49.101562 53.375 C 49.378906 53.730469 49.691406 54.074219 50.042969 54.414062 C 52.03125 52.660156 54.535156 51.089844 57.3125 49.8125 C 56.699219 49.601562 56.097656 49.371094 55.5 49.121094 Z M 62.875 63.214844 C 61.675781 62.964844 60.492188 62.675781 59.316406 62.339844 C 56.914062 63.996094 55.011719 66 53.773438 68.226562 C 54.558594 68.617188 55.367188 68.960938 56.195312 69.253906 C 56.945312 67.933594 57.894531 66.773438 59.039062 65.773438 C 60.144531 64.800781 61.4375 63.945312 62.875 63.214844 Z M 54.582031 75.332031 C 54.582031 73.917969 54.828125 72.523438 55.304688 71.195312 C 54.5 70.835938 53.714844 70.4375 52.949219 70 C 52.429688 71.367188 52.167969 72.78125 52.167969 74.242188 C 52.167969 74.53125 52.179688 74.816406 52.203125 75.101562 C 52.988281 75.6875 53.808594 76.210938 54.671875 76.679688 C 54.613281 76.230469 54.585938 75.78125 54.582031 75.332031 Z M 70.675781 52.316406 C 68.585938 52.097656 66.828125 51.867188 65.71875 51.726562 C 65 51.632812 64.296875 51.527344 63.609375 51.40625 C 59.625 52.667969 56.132812 54.566406 53.398438 56.835938 C 53.957031 57.140625 54.546875 57.433594 55.167969 57.707031 C 59.140625 54.824219 64.570312 52.855469 70.675781 52.316406 Z M 62.363281 81.550781 C 61.53125 81.285156 60.703125 81.003906 59.882812 80.699219 C 60.554688 82.132812 61.582031 83.441406 62.886719 84.578125 C 63.945312 84.871094 65.015625 85.109375 66.097656 85.304688 C 64.511719 84.273438 63.230469 82.996094 62.363281 81.550781 Z M 103.132812 50.882812 L 103.039062 50.582031 C 103.0625 50.664062 103.082031 50.742188 103.097656 50.820312 Z M 49.203125 65.011719 C 49.9375 63.121094 51.140625 61.363281 52.71875 59.789062 C 52.203125 59.519531 51.695312 59.234375 51.195312 58.929688 C 49.808594 60.445312 48.738281 62.078125 48.054688 63.757812 C 48.414062 64.199219 48.796875 64.617188 49.203125 65.011719 Z M 98.410156 60.257812 C 99.109375 60.839844 99.703125 61.417969 100.207031 61.988281 C 100.863281 61.378906 101.453125 60.714844 101.984375 59.992188 C 101.613281 59.363281 101.199219 58.761719 100.742188 58.195312 C 100.039062 58.964844 99.261719 59.652344 98.410156 60.257812 Z M 52.484375 76.875 C 52.738281 77.949219 53.144531 78.988281 53.671875 79.984375 C 54.714844 80.847656 55.832031 81.601562 57.023438 82.25 C 56.171875 81.105469 55.515625 79.882812 55.101562 78.59375 C 54.191406 78.082031 53.316406 77.507812 52.484375 76.875 Z M 86.957031 83.921875 C 88.261719 83.484375 89.53125 82.960938 90.765625 82.351562 C 91.203125 81.742188 91.574219 81.09375 91.871094 80.402344 C 90.867188 80.902344 89.839844 81.347656 88.789062 81.734375 C 88.292969 82.523438 87.675781 83.257812 86.953125 83.921875 Z M 89.601562 74.261719 C 89.871094 74.972656 90.042969 75.710938 90.113281 76.472656 C 90.933594 76.164062 91.746094 75.828125 92.546875 75.464844 C 92.449219 74.78125 92.277344 74.117188 92.027344 73.472656 C 91.261719 73.753906 90.457031 74.019531 89.601562 74.261719 Z M 94.871094 39.523438 C 93.511719 39.054688 91.894531 38.703125 90.089844 38.46875 C 87.976562 40.082031 83.71875 41.390625 78.410156 41.90625 C 81.75 42.238281 85.8125 42.8125 89.691406 43.714844 C 92.621094 42.300781 94.355469 40.820312 94.871094 39.523438 Z M 57.5 37.894531 C 56.171875 38.453125 54.976562 39.027344 53.957031 39.59375 C 53.820312 40.003906 53.734375 40.425781 53.707031 40.859375 C 55.015625 40.183594 56.578125 39.496094 58.316406 38.828125 C 57.960938 38.53125 57.683594 38.21875 57.5 37.894531 Z M 47.257812 55.457031 C 46.492188 56.515625 45.898438 57.667969 45.550781 58.925781 C 45.640625 59.308594 45.757812 59.695312 45.902344 60.078125 C 46.34375 58.824219 47.082031 57.601562 48.058594 56.433594 C 47.769531 56.128906 47.503906 55.800781 47.257812 55.457031 Z M 48.375 69.375 C 48.375 68.527344 48.464844 67.695312 48.640625 66.882812 C 48.222656 66.496094 47.824219 66.089844 47.449219 65.660156 C 47.171875 66.851562 47.105469 68.050781 47.25 69.265625 C 47.636719 70.027344 48.074219 70.738281 48.550781 71.402344 C 48.433594 70.730469 48.375 70.054688 48.375 69.375 Z M 55.832031 44.773438 C 58.953125 43.359375 62.785156 42.230469 67.304688 41.761719 C 65.875 41.582031 64.464844 41.3125 63.070312 40.949219 C 60.105469 41.765625 57.320312 42.746094 54.898438 43.875 C 55.160156 44.179688 55.46875 44.480469 55.832031 44.773438 Z M 100.351562 70.214844 C 100.191406 69.769531 100.007812 69.335938 99.800781 68.910156 C 98.742188 69.867188 97.59375 70.707031 96.363281 71.429688 C 96.570312 71.972656 96.738281 72.53125 96.855469 73.097656 C 98.28125 72.144531 99.429688 71.167969 100.351562 70.214844 Z M 103.542969 63.953125 C 103.222656 64.628906 102.855469 65.277344 102.433594 65.898438 C 102.554688 66.328125 102.636719 66.746094 102.6875 67.144531 C 103.171875 66.3125 103.492188 65.546875 103.714844 64.890625 C 103.667969 64.578125 103.609375 64.261719 103.542969 63.953125 Z M 103.5625 52.476562 C 103.496094 52.195312 103.425781 51.914062 103.347656 51.636719 C 103.304688 51.539062 103.261719 51.441406 103.210938 51.347656 C 103.335938 52.082031 103.304688 52.601562 103.304688 52.835938 C 103.304688 53.316406 103.109375 54.601562 102.214844 56.171875 C 102.617188 56.628906 102.972656 57.121094 103.28125 57.644531 C 103.851562 56.183594 103.832031 55.121094 103.832031 54.8125 C 103.832031 54.34375 103.777344 53.429688 103.5625 52.476562 Z M 61.125 77.191406 C 61.125 75.890625 61.433594 74.640625 62.003906 73.488281 C 61.269531 73.285156 60.550781 73.078125 59.851562 72.859375 C 59.277344 74.09375 58.988281 75.390625 58.988281 76.75 C 58.988281 77.363281 59.046875 77.964844 59.167969 78.554688 C 59.898438 78.78125 60.636719 78.980469 61.363281 79.152344 C 61.203125 78.507812 61.125 77.855469 61.125 77.191406 Z M 96.929688 77.191406 C 96.855469 77.613281 96.753906 78.03125 96.628906 78.445312 C 99.046875 76.300781 100.363281 74.277344 100.941406 73.269531 C 100.964844 73.234375 100.984375 73.195312 101.003906 73.15625 L 100.980469 72.945312 C 100.078125 74.269531 98.722656 75.75 96.929688 77.191406 Z M 91.496094 35.835938 C 92.675781 36.316406 93.757812 36.910156 94.707031 37.636719 C 94.65625 37.5625 94.601562 37.488281 94.542969 37.421875 C 93.585938 36.566406 92.582031 35.773438 91.523438 35.050781 C 91.25 34.878906 90.96875 34.722656 90.679688 34.578125 C 91.117188 34.972656 91.394531 35.390625 91.492188 35.835938 Z M 50.046875 43.191406 L 49.796875 43.574219 C 49.839844 43.519531 49.886719 43.464844 49.9375 43.410156 C 49.96875 43.332031 50.007812 43.261719 50.046875 43.191406 Z M 98.546875 46.75 C 99.339844 47.164062 100.058594 47.605469 100.695312 48.082031 C 100.832031 47.628906 100.902344 47.167969 100.902344 46.691406 C 100.902344 46.398438 101.019531 45.730469 100.074219 44.058594 C 99.5625 43.226562 99.015625 42.417969 98.425781 41.640625 C 98.417969 41.632812 98.414062 41.625 98.40625 41.617188 C 98.835938 42.300781 99.257812 43.445312 99.257812 44.234375 C 99.257812 44.996094 99.0625 45.863281 98.546875 46.75 Z M 51.726562 47.039062 C 51.382812 46.78125 51.0625 46.5 50.761719 46.195312 C 49.484375 47.074219 48.417969 48.015625 47.613281 49.015625 C 47.605469 49.171875 47.601562 49.332031 47.601562 49.503906 C 47.601562 49.816406 47.632812 50.132812 47.691406 50.445312 C 48.679688 49.347656 50.027344 48.167969 51.726562 47.039062 Z M 47.992188 72.007812 C 48.679688 73.460938 49.480469 74.851562 50.390625 76.171875 C 49.90625 75.398438 49.5 74.582031 49.175781 73.726562 C 48.730469 73.1875 48.339844 72.613281 47.992188 72.007812 Z M 46.265625 51.480469 C 46.078125 52.148438 45.914062 52.820312 45.777344 53.5 C 45.851562 53.234375 45.96875 52.949219 46.125 52.644531 C 46.117188 52.25 46.164062 51.863281 46.265625 51.480469 Z M 45.441406 62.28125 C 45.355469 62 45.292969 61.714844 45.25 61.425781 C 45.296875 62.148438 45.371094 62.863281 45.472656 63.570312 C 45.421875 63.140625 45.410156 62.710938 45.441406 62.28125 Z M 45.441406 62.28125 " fill-opacity="1" fill-rule="nonzero"></path></g></svg>