<svg xmlns="http://www.w3.org/2000/svg" xmlns:xlink="http://www.w3.org/1999/xlink" width="200" zoomAndPan="magnify" viewBox="0 0 150 149.999998" height="200" preserveAspectRatio="xMidYMid meet" version="1.0"><defs><clipPath id="8de56018ab"><path d="M 19.90625 17.453125 L 134.65625 17.453125 L 134.65625 132.203125 L 19.90625 132.203125 Z M 19.90625 17.453125 " clip-rule="nonzero"/></clipPath></defs><g clip-path="url(#8de56018ab)"><path fill="#ffffff" d="M 19.90625 132.203125 L 134.65625 132.203125 L 134.65625 17.453125 L 19.90625 17.453125 Z M 19.90625 132.203125 " fill-opacity="1" fill-rule="nonzero"/></g><path fill="#cc2131" d="M 114.957031 75.429688 L 122.558594 75.429688 L 123.789062 78.476562 L 113.527344 78.476562 L 111.890625 81.96875 L 107.359375 81.96875 L 118.597656 58.941406 L 121.730469 58.941406 L 132.964844 81.96875 L 128.4375 81.96875 L 120.164062 64.191406 Z M 29.1875 75.601562 L 36.789062 75.601562 L 38.019531 78.644531 L 27.761719 78.644531 L 26.121094 82.140625 L 21.589844 82.140625 L 32.828125 59.113281 L 35.964844 59.113281 L 47.199219 82.140625 L 42.667969 82.140625 L 34.394531 64.359375 Z M 71.910156 75.601562 L 79.515625 75.601562 L 80.742188 78.644531 L 70.484375 78.644531 L 68.847656 82.140625 L 64.316406 82.140625 L 75.550781 59.113281 L 78.6875 59.113281 L 89.921875 82.140625 L 85.394531 82.140625 L 77.117188 64.359375 Z M 42.96875 59.039062 L 54.195312 82.066406 L 57.335938 82.066406 L 68.566406 59.039062 L 64.042969 59.039062 L 55.765625 77.15625 L 47.488281 59.039062 Z M 96.195312 90.710938 L 111.703125 59.039062 L 107.179688 59.039062 L 98.558594 77.496094 L 90.625 59.039062 L 86.097656 59.039062 L 96.316406 82.066406 L 91.863281 90.710938 Z M 96.195312 90.710938 " fill-opacity="1" fill-rule="evenodd"/></svg>