<svg xmlns="http://www.w3.org/2000/svg" xmlns:xlink="http://www.w3.org/1999/xlink" width="200" zoomAndPan="magnify" viewBox="0 0 150 149.999998" height="200" preserveAspectRatio="xMidYMid meet" version="1.0"><defs><clipPath id="7f93922f7a"><path d="M 26 43.539062 L 123 43.539062 L 123 77 L 26 77 Z M 26 43.539062 " clip-rule="nonzero"/></clipPath><clipPath id="c42a22cec4"><path d="M 22 84 L 118 84 L 118 106.539062 L 22 106.539062 Z M 22 84 " clip-rule="nonzero"/></clipPath></defs><g clip-path="url(#7f93922f7a)"><path fill="#252f3e" d="M 51.832031 66.417969 C 51.832031 67.714844 51.96875 68.765625 52.214844 69.535156 C 52.492188 70.308594 52.84375 71.148438 53.332031 72.058594 C 53.503906 72.339844 53.574219 72.621094 53.574219 72.867188 C 53.574219 73.214844 53.367188 73.566406 52.910156 73.917969 L 50.714844 75.386719 C 50.398438 75.597656 50.085938 75.703125 49.804688 75.703125 C 49.457031 75.703125 49.109375 75.527344 48.757812 75.214844 C 48.269531 74.6875 47.851562 74.128906 47.503906 73.566406 C 47.15625 72.972656 46.804688 72.304688 46.421875 71.5 C 43.699219 74.722656 40.28125 76.335938 36.164062 76.335938 C 33.230469 76.335938 30.894531 75.492188 29.183594 73.8125 C 27.472656 72.128906 26.601562 69.886719 26.601562 67.085938 C 26.601562 64.105469 27.648438 61.6875 29.777344 59.867188 C 31.90625 58.042969 34.730469 57.132812 38.328125 57.132812 C 39.511719 57.132812 40.734375 57.238281 42.023438 57.414062 C 43.316406 57.589844 44.640625 57.867188 46.039062 58.183594 L 46.039062 55.625 C 46.039062 52.964844 45.480469 51.105469 44.398438 50.019531 C 43.28125 48.933594 41.398438 48.410156 38.710938 48.410156 C 37.488281 48.410156 36.234375 48.546875 34.941406 48.863281 C 33.652344 49.179688 32.394531 49.566406 31.171875 50.054688 C 30.613281 50.300781 30.195312 50.441406 29.953125 50.511719 C 29.707031 50.582031 29.53125 50.617188 29.394531 50.617188 C 28.90625 50.617188 28.660156 50.265625 28.660156 49.53125 L 28.660156 47.8125 C 28.660156 47.253906 28.730469 46.832031 28.90625 46.585938 C 29.078125 46.339844 29.394531 46.097656 29.882812 45.851562 C 31.101562 45.21875 32.570312 44.695312 34.277344 44.273438 C 35.988281 43.816406 37.804688 43.609375 39.722656 43.609375 C 43.875 43.609375 46.910156 44.554688 48.863281 46.445312 C 50.785156 48.339844 51.761719 51.210938 51.761719 55.066406 L 51.761719 66.417969 Z M 37.664062 71.746094 C 38.816406 71.746094 40 71.535156 41.257812 71.113281 C 42.511719 70.691406 43.628906 69.921875 44.570312 68.871094 C 45.128906 68.207031 45.550781 67.46875 45.757812 66.628906 C 45.96875 65.789062 46.109375 64.773438 46.109375 63.582031 L 46.109375 62.109375 C 45.09375 61.863281 44.015625 61.652344 42.898438 61.511719 C 41.78125 61.371094 40.699219 61.304688 39.617188 61.304688 C 37.28125 61.304688 35.570312 61.757812 34.417969 62.703125 C 33.265625 63.648438 32.707031 64.980469 32.707031 66.734375 C 32.707031 68.378906 33.128906 69.605469 34 70.449219 C 34.835938 71.324219 36.058594 71.746094 37.664062 71.746094 Z M 65.683594 75.527344 C 65.054688 75.527344 64.636719 75.421875 64.355469 75.179688 C 64.078125 74.96875 63.832031 74.476562 63.625 73.8125 L 55.425781 46.726562 C 55.214844 46.027344 55.109375 45.570312 55.109375 45.324219 C 55.109375 44.765625 55.390625 44.449219 55.949219 44.449219 L 59.367188 44.449219 C 60.03125 44.449219 60.484375 44.554688 60.726562 44.800781 C 61.007812 45.007812 61.214844 45.5 61.425781 46.164062 L 67.289062 69.363281 L 72.730469 46.164062 C 72.90625 45.464844 73.113281 45.007812 73.394531 44.800781 C 73.671875 44.589844 74.160156 44.449219 74.789062 44.449219 L 77.582031 44.449219 C 78.246094 44.449219 78.699219 44.554688 78.976562 44.800781 C 79.257812 45.007812 79.5 45.5 79.640625 46.164062 L 85.152344 69.640625 L 91.191406 46.164062 C 91.398438 45.464844 91.644531 45.007812 91.886719 44.800781 C 92.167969 44.589844 92.621094 44.449219 93.25 44.449219 L 96.492188 44.449219 C 97.050781 44.449219 97.367188 44.730469 97.367188 45.324219 C 97.367188 45.5 97.332031 45.675781 97.296875 45.886719 C 97.261719 46.097656 97.191406 46.375 97.050781 46.761719 L 88.644531 73.847656 C 88.433594 74.546875 88.1875 75.003906 87.910156 75.214844 C 87.628906 75.421875 87.175781 75.5625 86.585938 75.5625 L 83.582031 75.5625 C 82.921875 75.5625 82.464844 75.457031 82.1875 75.214844 C 81.910156 74.96875 81.664062 74.511719 81.523438 73.8125 L 76.117188 51.210938 L 70.742188 73.777344 C 70.566406 74.476562 70.359375 74.933594 70.078125 75.179688 C 69.800781 75.421875 69.3125 75.527344 68.683594 75.527344 Z M 110.519531 76.476562 C 108.707031 76.476562 106.890625 76.265625 105.148438 75.84375 C 103.402344 75.421875 102.042969 74.96875 101.132812 74.441406 C 100.578125 74.128906 100.191406 73.777344 100.054688 73.460938 C 99.914062 73.144531 99.84375 72.796875 99.84375 72.480469 L 99.84375 70.691406 C 99.84375 69.957031 100.121094 69.605469 100.644531 69.605469 C 100.855469 69.605469 101.066406 69.640625 101.273438 69.710938 C 101.484375 69.78125 101.796875 69.921875 102.144531 70.0625 C 103.332031 70.589844 104.625 71.007812 105.984375 71.289062 C 107.378906 71.570312 108.742188 71.710938 110.136719 71.710938 C 112.335938 71.710938 114.046875 71.324219 115.230469 70.554688 C 116.417969 69.78125 117.046875 68.660156 117.046875 67.222656 C 117.046875 66.242188 116.730469 65.4375 116.105469 64.773438 C 115.476562 64.105469 114.289062 63.511719 112.578125 62.949219 L 107.519531 61.371094 C 104.972656 60.566406 103.089844 59.375 101.9375 57.800781 C 100.785156 56.257812 100.191406 54.539062 100.191406 52.71875 C 100.191406 51.246094 100.507812 49.949219 101.132812 48.828125 C 101.761719 47.707031 102.601562 46.726562 103.648438 45.957031 C 104.695312 45.148438 105.878906 44.554688 107.277344 44.132812 C 108.671875 43.714844 110.136719 43.539062 111.671875 43.539062 C 112.441406 43.539062 113.242188 43.574219 114.011719 43.679688 C 114.8125 43.785156 115.546875 43.921875 116.277344 44.0625 C 116.976562 44.238281 117.640625 44.414062 118.265625 44.625 C 118.894531 44.835938 119.382812 45.042969 119.734375 45.253906 C 120.222656 45.535156 120.570312 45.816406 120.78125 46.132812 C 120.988281 46.410156 121.09375 46.796875 121.09375 47.289062 L 121.09375 48.933594 C 121.09375 49.667969 120.816406 50.054688 120.292969 50.054688 C 120.011719 50.054688 119.558594 49.914062 118.964844 49.636719 C 116.976562 48.722656 114.742188 48.269531 112.265625 48.269531 C 110.277344 48.269531 108.707031 48.582031 107.625 49.25 C 106.542969 49.914062 105.984375 50.929688 105.984375 52.367188 C 105.984375 53.347656 106.332031 54.191406 107.03125 54.855469 C 107.730469 55.519531 109.019531 56.1875 110.871094 56.78125 L 115.824219 58.359375 C 118.335938 59.164062 120.152344 60.285156 121.234375 61.722656 C 122.316406 63.160156 122.839844 64.808594 122.839844 66.628906 C 122.839844 68.136719 122.523438 69.5 121.929688 70.691406 C 121.304688 71.882812 120.464844 72.9375 119.382812 73.777344 C 118.300781 74.652344 117.011719 75.285156 115.511719 75.738281 C 113.941406 76.230469 112.300781 76.476562 110.519531 76.476562 Z M 110.519531 76.476562 " fill-opacity="1" fill-rule="nonzero"/></g><g clip-path="url(#c42a22cec4)"><path fill="#ff9900" d="M 117.117188 93.503906 C 105.636719 102.019531 88.957031 106.539062 74.617188 106.539062 C 54.515625 106.539062 36.40625 99.074219 22.730469 86.671875 C 21.648438 85.691406 22.625 84.359375 23.914062 85.128906 C 38.710938 93.75 56.960938 98.96875 75.835938 98.96875 C 88.574219 98.96875 102.566406 96.308594 115.441406 90.839844 C 117.359375 89.964844 119 92.101562 117.117188 93.503906 Z M 117.117188 93.503906 " fill-opacity="1" fill-rule="evenodd"/></g><path fill="#ff9900" d="M 121.894531 88.039062 C 120.429688 86.144531 112.195312 87.125 108.460938 87.582031 C 107.34375 87.722656 107.171875 86.742188 108.183594 86.003906 C 114.742188 81.378906 125.523438 82.710938 126.78125 84.253906 C 128.039062 85.828125 126.433594 96.65625 120.292969 101.84375 C 119.347656 102.648438 118.441406 102.226562 118.859375 101.175781 C 120.257812 97.707031 123.363281 89.894531 121.894531 88.039062 Z M 121.894531 88.039062 " fill-opacity="1" fill-rule="evenodd"/></svg>