<svg xmlns="http://www.w3.org/2000/svg" xmlns:xlink="http://www.w3.org/1999/xlink" width="200" zoomAndPan="magnify" viewBox="0 0 150 149.999998" height="200" preserveAspectRatio="xMidYMid meet" version="1.0"><rect x="-15" width="180" fill="#ffffff" y="-15" height="179.999997" fill-opacity="1"/><path fill="#b2b8be" d="M 145.539062 78.976562 C 145.441406 78.980469 145.351562 79 145.261719 79.042969 C 145.167969 79.082031 145.082031 79.136719 145.007812 79.210938 C 144.925781 79.296875 144.882812 79.378906 144.839844 79.464844 C 144.796875 79.570312 144.777344 79.675781 144.777344 79.78125 C 144.777344 79.886719 144.796875 79.972656 144.839844 80.078125 C 144.882812 80.164062 144.925781 80.246094 145.007812 80.332031 C 145.09375 80.417969 145.179688 80.457031 145.261719 80.5 C 145.347656 80.542969 145.453125 80.5625 145.539062 80.5625 L 145.558594 80.5625 C 145.660156 80.566406 145.761719 80.542969 145.855469 80.5 C 145.957031 80.464844 146.050781 80.40625 146.128906 80.332031 C 146.191406 80.246094 146.253906 80.164062 146.296875 80.078125 C 146.339844 79.992188 146.359375 79.886719 146.359375 79.78125 C 146.359375 79.675781 146.339844 79.570312 146.296875 79.464844 C 146.253906 79.378906 146.191406 79.296875 146.128906 79.210938 C 146.042969 79.148438 145.960938 79.085938 145.875 79.042969 C 145.773438 79 145.667969 78.980469 145.558594 78.976562 Z M 145.9375 79.613281 L 145.75 79.613281 C 145.75 79.550781 145.726562 79.507812 145.683594 79.484375 C 145.664062 79.464844 145.621094 79.445312 145.558594 79.445312 L 145.539062 79.445312 C 145.496094 79.445312 145.453125 79.484375 145.410156 79.527344 C 145.367188 79.59375 145.347656 79.675781 145.347656 79.78125 C 145.347656 79.886719 145.367188 79.953125 145.410156 80.015625 C 145.453125 80.058594 145.496094 80.078125 145.539062 80.101562 L 145.582031 80.101562 C 145.621094 80.097656 145.65625 80.085938 145.6875 80.058594 C 145.726562 80.015625 145.75 79.972656 145.75 79.929688 L 145.960938 79.929688 C 145.957031 80.03125 145.914062 80.105469 145.835938 80.164062 C 145.769531 80.226562 145.6875 80.25 145.558594 80.25 L 145.539062 80.25 C 145.421875 80.246094 145.324219 80.203125 145.242188 80.121094 C 145.179688 80.035156 145.136719 79.929688 145.136719 79.785156 C 145.136719 79.636719 145.179688 79.53125 145.265625 79.421875 C 145.339844 79.347656 145.429688 79.304688 145.539062 79.296875 L 145.558594 79.296875 C 145.664062 79.296875 145.769531 79.339844 145.835938 79.382812 C 145.898438 79.445312 145.9375 79.507812 145.9375 79.613281 Z M 145.539062 80.4375 C 145.472656 80.4375 145.390625 80.417969 145.304688 80.394531 C 145.242188 80.351562 145.15625 80.308594 145.09375 80.246094 C 145.03125 80.183594 144.988281 80.097656 144.945312 80.035156 C 144.925781 79.949219 144.902344 79.867188 144.902344 79.78125 C 144.902344 79.695312 144.925781 79.613281 144.945312 79.527344 C 145.023438 79.363281 145.144531 79.246094 145.304688 79.167969 C 145.390625 79.125 145.453125 79.125 145.539062 79.125 L 145.558594 79.125 C 145.664062 79.125 145.75 79.125 145.8125 79.167969 C 145.898438 79.1875 145.960938 79.253906 146.023438 79.316406 C 146.085938 79.378906 146.152344 79.441406 146.171875 79.527344 C 146.214844 79.589844 146.234375 79.695312 146.234375 79.78125 C 146.234375 79.867188 146.214844 79.949219 146.171875 80.035156 C 146.152344 80.097656 146.085938 80.183594 146.046875 80.246094 C 145.972656 80.304688 145.894531 80.351562 145.8125 80.394531 C 145.726562 80.414062 145.644531 80.4375 145.558594 80.4375 Z M 145.539062 80.4375 " fill-opacity="1" fill-rule="evenodd"/><path fill="#cc2229" d="M 44.773438 62.589844 L 43.820312 67.367188 L 46.378906 67.367188 C 47.5 67.367188 48.367188 67.515625 48.980469 67.835938 C 49.617188 68.152344 50.101562 68.660156 50.441406 69.378906 C 50.589844 69.695312 50.695312 70.011719 50.777344 70.351562 C 50.863281 70.6875 50.925781 71.027344 50.949219 71.386719 C 51.011719 72.105469 50.949219 72.910156 50.777344 73.796875 C 50.355469 75.914062 49.550781 77.5625 48.347656 78.746094 C 47.351562 79.761719 46.148438 80.332031 44.773438 80.5 C 44.519531 80.523438 44.242188 80.542969 43.96875 80.542969 L 38.238281 80.542969 L 41.792969 62.589844 Z M 53.695312 80.542969 L 55.789062 69.96875 L 57.207031 69.96875 L 55.894531 76.546875 C 55.894531 76.546875 55.09375 79.910156 57.628906 80.4375 C 57.925781 80.5 58.199219 80.523438 58.519531 80.523438 L 61.222656 80.523438 L 61.730469 77.878906 L 60.210938 77.878906 C 59.957031 77.878906 58.6875 77.898438 59.003906 75.890625 C 59.003906 75.699219 60.167969 69.96875 60.167969 69.96875 L 63.296875 69.96875 L 63.824219 67.324219 L 60.695312 67.324219 L 61.625 62.566406 L 58.664062 62.566406 L 57.714844 67.367188 L 53.210938 67.367188 L 50.585938 80.542969 Z M 56.636719 65.867188 L 57.292969 62.589844 L 54.160156 62.589844 L 53.527344 65.867188 Z M 43.25 70.203125 L 41.769531 77.730469 L 43.820312 77.730469 C 44.160156 77.730469 44.476562 77.6875 44.773438 77.644531 C 45.449219 77.519531 45.976562 77.265625 46.359375 76.882812 C 46.929688 76.332031 47.351562 75.382812 47.605469 74.050781 C 47.882812 72.675781 47.839844 71.683594 47.4375 71.089844 C 47.058594 70.496094 46.253906 70.203125 45.070312 70.203125 Z M 43.25 70.203125 " fill-opacity="1" fill-rule="evenodd"/><path fill="#b2b8be" d="M 69.683594 80.542969 L 67.90625 80.542969 C 66.195312 80.542969 64.96875 79.949219 64.226562 78.765625 C 63.488281 77.5625 63.339844 75.910156 63.761719 73.796875 C 63.933594 72.910156 64.183594 72.105469 64.546875 71.386719 C 64.882812 70.644531 65.328125 69.988281 65.855469 69.375 C 66.488281 68.65625 67.167969 68.148438 67.90625 67.832031 C 68.476562 67.601562 69.070312 67.460938 69.683594 67.410156 C 70 67.367188 70.339844 67.367188 70.71875 67.367188 L 73.257812 67.367188 L 74.1875 62.589844 L 77.148438 62.589844 L 76.617188 65.210938 L 73.59375 80.542969 Z M 128.089844 78.535156 C 128.832031 79.972656 130.269531 80.480469 131.625 80.566406 L 140.949219 80.566406 L 143.042969 69.925781 L 144.332031 69.925781 C 144.332031 69.925781 144.839844 69.925781 145.050781 70.117188 C 145.113281 70.179688 145.285156 70.308594 145.15625 71.238281 C 145.136719 71.300781 144.820312 72.910156 144.820312 72.910156 L 147.609375 72.910156 C 147.777344 72.167969 147.925781 71.429688 148.074219 70.6875 C 148.074219 70.6875 148.433594 69.039062 147.949219 68.257812 C 147.421875 67.410156 146.089844 67.390625 145.917969 67.390625 L 140.609375 67.390625 L 138.519531 77.816406 L 132.785156 77.816406 C 132.785156 77.816406 131.414062 77.816406 131.011719 77.285156 C 130.691406 76.949219 130.734375 75.507812 130.863281 75.359375 L 137.566406 75.359375 L 138.09375 72.613281 L 131.414062 72.613281 C 131.414062 72.613281 131.582031 71.554688 132.195312 70.878906 C 132.320312 70.75 132.679688 70.203125 134.371094 70.136719 C 134.539062 70.117188 138.601562 70.136719 138.601562 70.136719 L 139.128906 67.410156 L 134.5 67.410156 C 134.5 67.410156 132.214844 67.242188 130.3125 69.019531 C 129.363281 69.84375 128.578125 71.300781 128.09375 72.886719 C 127.542969 74.707031 127.414062 76.695312 127.902344 78.089844 C 127.964844 78.238281 128.027344 78.386719 128.089844 78.535156 Z M 128.089844 62.566406 L 128.578125 62.566406 L 128.089844 65.0625 L 125.046875 80.523438 L 119.335938 80.523438 C 117.605469 80.523438 116.378906 79.929688 115.65625 78.746094 C 114.917969 77.5625 114.769531 75.890625 115.191406 73.777344 C 115.359375 72.910156 115.613281 72.105469 115.953125 71.367188 C 116.3125 70.644531 116.734375 69.96875 117.265625 69.378906 C 117.898438 68.636719 118.597656 68.128906 119.335938 67.8125 C 119.84375 67.601562 120.4375 67.476562 121.089844 67.390625 C 121.429688 67.371094 121.765625 67.347656 122.128906 67.347656 L 124.6875 67.347656 L 125.617188 62.566406 Z M 121.089844 77.710938 L 122.632812 77.710938 L 124.117188 70.203125 L 122.320312 70.203125 C 121.90625 70.203125 121.496094 70.238281 121.089844 70.308594 C 120.476562 70.457031 119.96875 70.710938 119.589844 71.070312 C 118.976562 71.660156 118.511719 72.65625 118.257812 74.027344 C 117.984375 75.359375 118.023438 76.3125 118.382812 76.863281 C 118.742188 77.433594 119.484375 77.710938 120.605469 77.710938 Z M 76.617188 78.535156 C 77.78125 80.667969 80.46875 80.5 80.46875 80.5 L 85.015625 80.5 L 85.542969 77.753906 L 81.164062 77.753906 C 79.960938 77.667969 79.304688 77.394531 79.242188 76.417969 C 79.179688 75.871094 79.347656 75.277344 79.347656 75.277344 L 86.027344 75.277344 L 86.578125 72.527344 L 79.875 72.527344 C 80.296875 70.117188 81.90625 70.097656 82.644531 70.074219 L 88.375 70.074219 L 86.324219 80.457031 L 89.390625 80.457031 L 91.441406 70.074219 L 93.601562 70.074219 C 91.675781 72.761719 91.804688 76.101562 91.804688 76.417969 C 91.886719 80.796875 96.285156 80.523438 96.285156 80.523438 L 105.210938 80.523438 L 107.21875 70.246094 C 107.21875 70.246094 109.609375 70.203125 109.839844 70.246094 C 110.582031 70.289062 111.027344 70.351562 111.238281 70.941406 C 111.265625 71.390625 111.242188 71.835938 111.175781 72.277344 L 109.566406 80.503906 L 112.527344 80.503906 C 112.527344 80.503906 114.453125 70.878906 114.367188 70.605469 C 114.621094 67.136719 110.921875 67.347656 110.921875 67.347656 L 104.828125 67.347656 L 102.800781 77.753906 L 97.195312 77.753906 C 96.179688 77.710938 95.609375 77.667969 95.25 77.285156 C 94.699219 76.546875 95.039062 75.320312 95.039062 75.320312 L 101.761719 75.320312 L 102.292969 72.59375 L 95.585938 72.570312 C 95.945312 70.457031 97.175781 70.117188 98.359375 70.078125 L 102.800781 70.078125 L 103.390625 67.328125 L 91.992188 67.328125 C 91.992188 67.328125 92.140625 66.332031 92.226562 66.121094 C 92.417969 65 93.855469 65.066406 93.855469 65.066406 L 95.226562 65.066406 L 95.714844 62.503906 C 95.714844 62.503906 92.816406 62.503906 92.457031 62.546875 C 90.957031 62.546875 90.132812 63.160156 89.667969 64.261719 C 89.351562 65.042969 89.242188 65.59375 89.242188 65.59375 L 88.90625 67.304688 L 82.855469 67.304688 C 79.027344 67.519531 77.527344 69.738281 76.617188 72.71875 C 76.53125 72.972656 76.449219 73.25 76.386719 73.523438 C 76.320312 73.714844 76.089844 75.554688 76.089844 75.765625 C 76.027344 76.96875 76.261719 77.859375 76.617188 78.535156 Z M 69.683594 70.328125 C 69.050781 70.476562 68.5625 70.730469 68.160156 71.089844 C 67.546875 71.683594 67.101562 72.675781 66.828125 74.050781 C 66.550781 75.382812 66.597656 76.335938 66.953125 76.882812 C 67.3125 77.433594 68.054688 77.730469 69.175781 77.730469 L 71.207031 77.730469 L 72.6875 70.203125 L 70.910156 70.203125 C 70.496094 70.195312 70.085938 70.238281 69.683594 70.328125 Z M 69.683594 70.328125 " fill-opacity="1" fill-rule="evenodd"/><path fill="#cc2229" d="M 14.957031 70.5 L 17.832031 58.867188 L 10.34375 75.425781 L 32.378906 78.238281 Z M 32.738281 76.417969 L 21.488281 67.433594 L 23.074219 59.777344 L 17.980469 69.082031 Z M 31.363281 80.542969 C 30.53125 82.28125 29.402344 83.804688 27.980469 85.109375 C 26.496094 86.476562 24.808594 87.515625 22.925781 88.230469 C 21.039062 88.949219 19.085938 89.289062 17.070312 89.253906 C 8.546875 89.085938 1.71875 82.148438 1.867188 73.777344 C 1.992188 67.644531 5.839844 62.398438 11.253906 60.117188 L 6.519531 80.542969 Z M 32.886719 73.140625 L 32.886719 74.324219 C 32.886719 74.347656 32.886719 74.367188 32.867188 74.390625 L 24.578125 66.691406 L 26.269531 61.59375 C 26.875 61.984375 27.445312 62.421875 27.980469 62.90625 C 30.582031 65.273438 32.699219 68.996094 32.886719 73.140625 Z M 32.886719 73.140625 " fill-opacity="1" fill-rule="evenodd"/><path fill="#b2b8be" d="M 76.175781 88.28125 L 76.957031 84.242188 L 78.375 84.242188 L 77.382812 89.253906 C 77.253906 89.929688 77 90.417969 76.574219 90.734375 C 76.175781 91.03125 75.582031 91.203125 74.820312 91.203125 L 72.328125 91.203125 L 72.539062 90.101562 L 75.03125 90.101562 C 75.328125 90.101562 75.539062 90.058594 75.644531 89.996094 C 75.710938 89.953125 75.773438 89.910156 75.816406 89.828125 C 75.835938 89.761719 75.898438 89.613281 75.964844 89.359375 L 74.695312 89.359375 C 73.277344 89.402344 72.726562 88.640625 73.109375 87.097656 L 73.660156 84.242188 L 75.054688 84.242188 L 74.527344 86.972656 C 74.421875 87.5 74.398438 87.835938 74.460938 88.007812 C 74.527344 88.199219 74.714844 88.28125 75.011719 88.28125 Z M 131.410156 88.238281 C 131.707031 88.199219 131.960938 88.070312 132.171875 87.859375 C 132.449219 87.5625 132.636719 87.203125 132.722656 86.78125 C 132.914062 85.808594 132.554688 85.34375 131.664062 85.34375 L 130.605469 85.34375 L 130.035156 88.28125 L 131.09375 88.28125 C 131.199219 88.28125 131.304688 88.261719 131.410156 88.238281 Z M 131.410156 84.242188 L 132.066406 84.242188 C 132.617188 84.242188 133.058594 84.328125 133.355469 84.5 C 133.78125 84.730469 134.054688 85.089844 134.160156 85.554688 C 134.246094 85.917969 134.246094 86.316406 134.160156 86.742188 C 133.96875 87.777344 133.441406 88.515625 132.597656 89.003906 C 132.34375 89.128906 132.085938 89.226562 131.8125 89.296875 C 131.6875 89.320312 131.558594 89.320312 131.414062 89.339844 C 131.199219 89.363281 130.96875 89.363281 130.714844 89.363281 L 128.429688 89.363281 L 129.785156 82.363281 L 131.199219 82.363281 L 130.820312 84.242188 Z M 135.703125 84.242188 L 137.101562 84.242188 L 136.105469 89.359375 L 134.710938 89.359375 Z M 135.8125 83.714844 L 136.066406 82.363281 L 137.480469 82.363281 L 137.207031 83.714844 Z M 138.875 84.242188 L 139.234375 82.363281 L 140.652344 82.363281 L 140.273438 84.242188 L 141.585938 84.242188 L 141.371094 85.34375 L 140.058594 85.34375 L 139.699219 87.203125 C 139.617188 87.628906 139.59375 87.902344 139.660156 88.027344 C 139.742188 88.199219 139.933594 88.28125 140.25 88.28125 L 140.800781 88.28125 L 140.589844 89.359375 L 139.550781 89.359375 C 138.960938 89.359375 138.539062 89.210938 138.347656 88.917969 C 138.136719 88.621094 138.117188 88.136719 138.242188 87.4375 L 138.664062 85.34375 L 137.753906 85.34375 L 137.96875 84.242188 Z M 119.589844 90.441406 L 119.652344 90.101562 L 122.191406 90.101562 C 122.488281 90.101562 122.679688 90.058594 122.785156 89.996094 C 122.871094 89.953125 122.933594 89.910156 122.953125 89.828125 C 122.996094 89.761719 123.039062 89.613281 123.121094 89.359375 L 121.851562 89.359375 C 120.394531 89.402344 119.863281 88.640625 120.246094 87.097656 L 120.796875 84.242188 L 122.210938 84.242188 L 121.683594 86.972656 C 121.578125 87.5 121.554688 87.835938 121.621094 88.007812 C 121.683594 88.199219 121.875 88.28125 122.167969 88.28125 L 123.332031 88.28125 L 124.113281 84.242188 L 125.511719 84.242188 L 124.539062 89.253906 C 124.414062 89.929688 124.136719 90.417969 123.734375 90.734375 C 123.3125 91.03125 122.742188 91.199219 121.960938 91.199219 L 119.441406 91.199219 Z M 119.589844 86.359375 L 119.652344 86.0625 C 119.738281 85.660156 119.757812 85.367188 119.738281 85.152344 C 119.71875 85.007812 119.675781 84.859375 119.589844 84.753906 C 119.570312 84.707031 119.542969 84.664062 119.503906 84.625 C 119.355469 84.480469 119.179688 84.382812 118.976562 84.332031 C 118.765625 84.265625 118.425781 84.242188 118.003906 84.242188 L 115.929688 84.242188 L 114.9375 89.363281 L 116.335938 89.363281 L 117.117188 85.34375 L 117.519531 85.34375 C 117.878906 85.34375 118.109375 85.40625 118.214844 85.535156 C 118.320312 85.664062 118.320312 85.917969 118.257812 86.277344 L 118.195312 86.550781 L 119.546875 86.550781 Z M 110.035156 85.875 C 110.171875 85.605469 110.34375 85.347656 110.5625 85.109375 C 110.851562 84.789062 111.152344 84.582031 111.511719 84.433594 C 111.851562 84.304688 112.273438 84.242188 112.78125 84.242188 L 114.769531 84.242188 L 114.558594 85.34375 L 112.675781 85.34375 C 112.292969 85.34375 112 85.40625 111.828125 85.535156 C 111.636719 85.660156 111.511719 85.914062 111.40625 86.253906 L 114.367188 86.253906 L 114.15625 87.351562 L 111.195312 87.351562 C 111.152344 87.691406 111.214844 87.921875 111.386719 88.070312 C 111.535156 88.199219 111.828125 88.28125 112.253906 88.28125 L 113.984375 88.28125 L 113.773438 89.359375 L 111.890625 89.359375 C 111.492188 89.359375 111.152344 89.339844 110.921875 89.253906 C 110.671875 89.191406 110.453125 89.070312 110.265625 88.894531 C 110.101562 88.742188 109.964844 88.566406 109.863281 88.367188 C 109.671875 87.945312 109.652344 87.214844 109.757812 86.738281 C 109.863281 86.261719 109.902344 86.148438 110.035156 85.875 Z M 109.863281 84.5625 L 110.054688 84.242188 L 108.570312 84.242188 L 106.457031 87.773438 L 105.824219 84.242188 L 104.300781 84.242188 L 105.335938 89.359375 L 106.859375 89.359375 Z M 81.546875 88.347656 C 82.203125 88.238281 82.625 87.710938 82.8125 86.800781 C 83.003906 85.765625 82.6875 85.257812 81.84375 85.238281 C 81.742188 85.238281 81.644531 85.253906 81.546875 85.28125 C 80.871094 85.386719 80.445312 85.914062 80.277344 86.824219 C 80.191406 87.246094 80.191406 87.585938 80.300781 87.796875 C 80.445312 88.175781 80.765625 88.367188 81.25 88.367188 C 81.355469 88.367188 81.441406 88.367188 81.546875 88.347656 Z M 81.546875 84.203125 C 81.695312 84.179688 81.863281 84.160156 82.054688 84.160156 C 82.984375 84.160156 83.640625 84.433594 83.976562 84.984375 C 84.296875 85.492188 84.378906 86.105469 84.230469 86.867188 C 84.085938 87.667969 83.703125 88.304688 83.089844 88.789062 C 82.632812 89.140625 82.117188 89.347656 81.546875 89.402344 C 81.363281 89.429688 81.179688 89.441406 80.996094 89.445312 C 80.148438 89.445312 79.515625 89.191406 79.136719 88.707031 C 78.777344 88.261719 78.671875 87.605469 78.839844 86.78125 C 78.988281 86.0625 79.304688 85.449219 79.832031 84.984375 C 80.320312 84.539062 80.890625 84.277344 81.546875 84.203125 Z M 88.375 88.28125 L 89.160156 84.242188 L 90.554688 84.242188 L 89.5625 89.359375 L 86.792969 89.359375 C 86.390625 89.359375 86.074219 89.339844 85.882812 89.273438 C 85.679688 89.214844 85.5 89.109375 85.351562 88.957031 C 85.058594 88.621094 84.972656 88.113281 85.121094 87.394531 L 85.734375 84.242188 L 87.148438 84.242188 L 86.496094 87.542969 C 86.453125 87.773438 86.472656 87.941406 86.578125 88.070312 C 86.664062 88.195312 86.832031 88.28125 87.046875 88.28125 Z M 91.949219 84.242188 L 94.023438 84.242188 C 94.464844 84.242188 94.785156 84.265625 94.996094 84.328125 C 95.226562 84.394531 95.398438 84.5 95.542969 84.625 C 95.671875 84.773438 95.734375 84.941406 95.757812 85.152344 C 95.777344 85.367188 95.757812 85.660156 95.671875 86.0625 L 95.585938 86.550781 L 94.234375 86.550781 L 94.277344 86.273438 C 94.339844 85.914062 94.339844 85.660156 94.234375 85.535156 C 94.128906 85.40625 93.894531 85.34375 93.558594 85.34375 L 93.132812 85.34375 L 92.351562 89.359375 L 90.957031 89.359375 Z M 103.308594 86.253906 L 103.097656 87.351562 L 100.113281 87.351562 C 100.070312 87.691406 100.132812 87.921875 100.304688 88.070312 C 100.472656 88.199219 100.769531 88.28125 101.191406 88.28125 L 102.90625 88.28125 L 102.695312 89.359375 L 100.8125 89.359375 C 100.410156 89.359375 100.09375 89.339844 99.839844 89.253906 C 99.605469 89.191406 99.394531 89.0625 99.183594 88.894531 C 98.65625 88.410156 98.484375 87.691406 98.675781 86.738281 C 98.800781 86.125 99.070312 85.582031 99.480469 85.109375 C 99.75 84.816406 100.066406 84.59375 100.433594 84.433594 C 100.769531 84.304688 101.191406 84.242188 101.722656 84.242188 L 103.6875 84.242188 L 103.476562 85.34375 L 101.59375 85.34375 C 101.214844 85.34375 100.9375 85.40625 100.75 85.535156 C 100.578125 85.660156 100.429688 85.914062 100.324219 86.253906 Z M 42.445312 84.242188 L 42.214844 85.34375 L 39.71875 85.34375 C 39.445312 85.34375 39.253906 85.34375 39.167969 85.386719 C 39 85.429688 38.894531 85.578125 38.851562 85.789062 C 38.808594 85.976562 38.871094 86.105469 39 86.210938 C 39.0625 86.253906 39.296875 86.296875 39.675781 86.296875 L 40.5 86.296875 C 41.03125 86.296875 41.433594 86.402344 41.6875 86.632812 C 41.980469 86.886719 42.085938 87.269531 42.003906 87.753906 C 41.910156 88.132812 41.742188 88.46875 41.496094 88.769531 C 41.285156 89 41.050781 89.171875 40.820312 89.253906 C 40.585938 89.320312 40.207031 89.363281 39.699219 89.363281 L 36.78125 89.363281 L 36.992188 88.285156 L 39.507812 88.285156 C 39.804688 88.285156 40.015625 88.261719 40.140625 88.261719 C 40.394531 88.242188 40.542969 88.09375 40.609375 87.839844 C 40.648438 87.628906 40.585938 87.480469 40.4375 87.394531 C 40.355469 87.351562 40.164062 87.332031 39.824219 87.332031 L 38.980469 87.332031 C 38.640625 87.332031 38.386719 87.3125 38.21875 87.269531 C 38.046875 87.234375 37.898438 87.15625 37.773438 87.035156 C 37.605469 86.910156 37.5 86.71875 37.433594 86.488281 C 37.351562 86.253906 37.351562 86 37.414062 85.726562 C 37.5 85.21875 37.773438 84.816406 38.195312 84.519531 C 38.472656 84.332031 38.875 84.246094 39.421875 84.246094 L 42.445312 84.246094 Z M 47.5625 86.253906 L 47.351562 87.351562 L 44.371094 87.351562 C 44.328125 87.691406 44.390625 87.921875 44.5625 88.070312 C 44.730469 88.199219 45.027344 88.28125 45.449219 88.28125 L 47.160156 88.28125 L 46.949219 89.359375 L 45.066406 89.359375 C 44.667969 89.359375 44.347656 89.339844 44.097656 89.253906 C 43.863281 89.191406 43.652344 89.0625 43.441406 88.894531 C 42.933594 88.410156 42.742188 87.691406 42.933594 86.738281 C 43.058594 86.125 43.324219 85.582031 43.734375 85.109375 C 44.003906 84.816406 44.324219 84.59375 44.6875 84.433594 C 45.027344 84.304688 45.449219 84.242188 45.976562 84.242188 L 47.945312 84.242188 L 47.734375 85.34375 L 45.851562 85.34375 C 45.46875 85.34375 45.195312 85.40625 45.003906 85.535156 C 44.835938 85.660156 44.6875 85.914062 44.582031 86.253906 Z M 53.378906 84.242188 L 53.167969 85.34375 L 51.476562 85.34375 C 50.925781 85.34375 50.503906 85.46875 50.226562 85.722656 C 49.972656 85.957031 49.804688 86.316406 49.699219 86.804688 C 49.59375 87.351562 49.699219 87.753906 49.996094 88.007812 C 50.101562 88.113281 50.25 88.175781 50.398438 88.21875 C 50.566406 88.261719 50.777344 88.28125 51.074219 88.28125 L 52.59375 88.28125 L 52.382812 89.359375 L 50.460938 89.359375 C 49.953125 89.359375 49.550781 89.316406 49.253906 89.210938 C 48.96875 89.097656 48.734375 88.914062 48.554688 88.664062 C 48.21875 88.175781 48.132812 87.542969 48.261719 86.804688 C 48.453125 85.871094 48.851562 85.195312 49.464844 84.753906 C 49.699219 84.5625 49.972656 84.433594 50.289062 84.347656 C 50.675781 84.277344 51.0625 84.242188 51.453125 84.242188 Z M 57.039062 88.28125 L 57.820312 84.242188 L 59.238281 84.242188 L 58.242188 89.359375 L 55.472656 89.359375 C 55.050781 89.359375 54.753906 89.339844 54.542969 89.273438 C 54.347656 89.210938 54.179688 89.105469 54.035156 88.957031 C 53.738281 88.621094 53.65625 88.113281 53.804688 87.394531 L 54.414062 84.242188 L 55.8125 84.242188 L 55.175781 87.542969 C 55.132812 87.773438 55.15625 87.945312 55.261719 88.070312 C 55.347656 88.199219 55.492188 88.28125 55.707031 88.28125 Z M 60.632812 84.242188 L 62.703125 84.242188 C 63.128906 84.242188 63.464844 84.265625 63.675781 84.328125 C 63.910156 84.394531 64.078125 84.5 64.207031 84.625 C 64.332031 84.773438 64.417969 84.941406 64.4375 85.152344 C 64.460938 85.367188 64.417969 85.660156 64.351562 86.0625 L 64.246094 86.550781 L 62.894531 86.550781 L 62.957031 86.273438 C 63.023438 85.914062 63 85.660156 62.917969 85.535156 C 62.8125 85.40625 62.578125 85.34375 62.21875 85.34375 L 61.816406 85.34375 L 61.035156 89.359375 L 59.617188 89.359375 Z M 69.429688 86.253906 L 69.21875 87.351562 L 66.257812 87.351562 C 66.214844 87.691406 66.28125 87.921875 66.449219 88.070312 C 66.597656 88.199219 66.894531 88.28125 67.316406 88.28125 L 69.050781 88.28125 L 68.839844 89.359375 L 66.957031 89.359375 C 66.554688 89.359375 66.21875 89.339844 65.984375 89.253906 C 65.738281 89.183594 65.519531 89.066406 65.328125 88.894531 C 64.800781 88.410156 64.632812 87.691406 64.824219 86.738281 C 64.929688 86.117188 65.199219 85.574219 65.625 85.109375 C 65.921875 84.792969 66.21875 84.582031 66.578125 84.433594 C 66.914062 84.304688 67.339844 84.242188 67.847656 84.242188 L 69.835938 84.242188 L 69.621094 85.34375 L 67.742188 85.34375 C 67.359375 85.34375 67.085938 85.40625 66.894531 85.535156 C 66.703125 85.660156 66.578125 85.914062 66.472656 86.253906 Z M 69.429688 86.253906 " fill-opacity="1" fill-rule="evenodd"/></svg>