<svg xmlns="http://www.w3.org/2000/svg" xmlns:xlink="http://www.w3.org/1999/xlink" width="200" zoomAndPan="magnify" viewBox="0 0 150 149.999998" height="200" preserveAspectRatio="xMidYMid meet" version="1.0"><defs><clipPath id="3678b89abb"><path d="M 72 28.53125 L 106 28.53125 L 106 70 L 72 70 Z M 72 28.53125 " clip-rule="nonzero"/></clipPath><clipPath id="4dfb0f8961"><path d="M 32.671875 89 L 117.421875 89 L 117.421875 121.53125 L 32.671875 121.53125 Z M 32.671875 89 " clip-rule="nonzero"/></clipPath></defs><g clip-path="url(#3678b89abb)"><path fill="#0161b0" d="M 99.027344 29.578125 C 100.625 28.988281 102.496094 28.550781 104.105469 29.339844 C 105.058594 29.957031 105.210938 31.21875 105.257812 32.261719 C 105.410156 34.636719 104.394531 36.875 103.289062 38.917969 C 101.25 42.523438 98.667969 45.785156 96 48.9375 C 92.28125 53.386719 88.554688 57.835938 84.679688 62.15625 C 83.964844 63.011719 83.140625 63.769531 82.480469 64.671875 C 83.835938 66.128906 85.195312 67.582031 86.484375 69.09375 C 81.960938 69.117188 77.4375 69.117188 72.914062 69.09375 C 72.792969 64.480469 72.71875 59.871094 72.699219 55.261719 C 74.605469 56.566406 76.105469 58.425781 78.03125 59.679688 C 81.070312 57.507812 83.851562 54.984375 86.65625 52.515625 C 89.269531 50.105469 91.90625 47.710938 94.308594 45.085938 C 96.898438 42.382812 99.414062 39.5625 101.347656 36.339844 C 101.949219 35.253906 102.550781 34.070312 102.511719 32.800781 C 102.535156 32.058594 101.914062 31.34375 101.164062 31.339844 C 99.535156 31.277344 97.941406 31.734375 96.398438 32.214844 C 93.570312 33.160156 90.878906 34.492188 88.335938 36.046875 C 88.667969 35.652344 89.054688 35.308594 89.488281 35.019531 C 92.476562 32.90625 95.585938 30.878906 99.027344 29.578125 Z M 99.027344 29.578125 " fill-opacity="1" fill-rule="nonzero"/></g><path fill="#bcbdc1" d="M 64.3125 35.175781 C 69.417969 32.339844 75.695312 31.777344 81.253906 33.53125 C 86.628906 35.164062 91.25 39.019531 93.964844 43.921875 C 94.132812 44.285156 94.417969 44.660156 94.308594 45.085938 C 91.90625 47.710938 89.269531 50.105469 86.65625 52.515625 C 83.851562 54.984375 81.070312 57.507812 78.03125 59.679688 C 76.105469 58.425781 74.605469 56.566406 72.699219 55.261719 C 72.71875 59.871094 72.792969 64.480469 72.914062 69.09375 C 77.4375 69.117188 81.960938 69.117188 86.484375 69.09375 C 85.195312 67.582031 83.835938 66.128906 82.480469 64.671875 C 83.140625 63.769531 83.964844 63.011719 84.679688 62.15625 C 88.554688 57.835938 92.28125 53.386719 96 48.9375 C 96.710938 52.207031 96.933594 55.628906 96.191406 58.914062 C 95.058594 64.429688 91.710938 69.453125 87.03125 72.589844 C 83.214844 75.191406 78.550781 76.546875 73.933594 76.339844 C 69.863281 76.328125 65.957031 74.816406 62.511719 72.738281 L 62.445312 72.675781 C 62.347656 72.578125 62.246094 72.488281 62.140625 72.40625 C 59.335938 70.472656 57.089844 67.832031 55.371094 64.902344 C 59.910156 59.863281 64.78125 55.171875 69.980469 50.824219 C 70.648438 50.300781 71.273438 49.710938 72.015625 49.289062 C 72.335938 49.292969 72.535156 49.601562 72.769531 49.78125 C 74.058594 51.066406 75.335938 52.367188 76.628906 53.648438 C 76.859375 49.394531 76.691406 45.132812 76.714844 40.875 L 76.457031 40.554688 C 72.9375 40.445312 69.40625 40.558594 65.882812 40.507812 C 65.125 40.507812 64.332031 40.414062 63.621094 40.742188 C 65.183594 42.105469 66.617188 43.617188 68.042969 45.128906 C 63.238281 50.152344 58.613281 55.339844 54.175781 60.6875 L 53.859375 60.777344 C 53.519531 60.320312 53.417969 59.753906 53.296875 59.210938 C 52.300781 54.582031 52.78125 49.621094 54.785156 45.320312 C 56.742188 41.023438 60.128906 37.382812 64.3125 35.175781 Z M 64.3125 35.175781 " fill-opacity="1" fill-rule="nonzero"/><path fill="#db1920" d="M 63.621094 40.742188 C 64.332031 40.414062 65.125 40.507812 65.882812 40.507812 C 69.40625 40.558594 72.9375 40.445312 76.457031 40.554688 L 76.714844 40.875 C 76.691406 45.132812 76.859375 49.394531 76.628906 53.648438 C 75.335938 52.367188 74.058594 51.066406 72.769531 49.78125 C 72.535156 49.601562 72.335938 49.292969 72.015625 49.289062 C 71.273438 49.710938 70.648438 50.300781 69.980469 50.824219 C 64.78125 55.171875 59.910156 59.863281 55.371094 64.902344 C 52.953125 67.707031 50.503906 70.570312 48.898438 73.9375 C 48.464844 74.964844 47.941406 76.242188 48.585938 77.289062 C 49.40625 78.265625 50.859375 78.113281 51.976562 77.875 C 54.222656 77.277344 56.214844 76.027344 58.230469 74.917969 C 59.5625 74.125 60.957031 73.417969 62.140625 72.40625 C 62.246094 72.488281 62.347656 72.578125 62.445312 72.675781 C 61.242188 73.246094 60.300781 74.210938 59.207031 74.949219 C 56.589844 76.78125 53.917969 78.589844 50.9375 79.78125 C 49.566406 80.3125 47.980469 80.703125 46.570312 80.070312 C 45.550781 79.53125 44.886719 78.402344 44.847656 77.253906 C 44.664062 75.253906 45.5625 73.386719 46.445312 71.65625 C 48.390625 68.023438 50.886719 64.71875 53.480469 61.53125 C 53.675781 61.316406 53.804688 61.0625 53.859375 60.777344 L 54.175781 60.6875 C 58.609375 55.34375 63.238281 50.148438 68.042969 45.128906 C 66.617188 43.617188 65.183594 42.105469 63.621094 40.742188 Z M 63.621094 40.742188 " fill-opacity="1" fill-rule="nonzero"/><g clip-path="url(#4dfb0f8961)"><path fill="#21201e" d="M 54.488281 97.804688 C 54.460938 93.535156 58.332031 89.8125 62.539062 89.675781 C 65.300781 89.511719 68.390625 90.15625 70.230469 92.382812 C 71.9375 94.371094 72.265625 97.113281 72.128906 99.632812 C 70.292969 99.683594 68.453125 99.699219 66.617188 99.625 C 66.894531 98.011719 66.613281 96.144531 65.339844 95.003906 C 63.976562 93.539062 61.101562 94.113281 60.519531 96.058594 C 60.046875 97.089844 60.660156 98.210938 61.386719 98.945312 C 63.910156 101.558594 67.25 103.195312 69.800781 105.773438 C 71.429688 107.527344 72.636719 109.785156 72.730469 112.210938 C 72.933594 114.601562 72.457031 117.257812 70.644531 118.972656 C 68.898438 120.71875 66.335938 121.25 63.953125 121.359375 C 61.226562 121.515625 58.179688 120.894531 56.355469 118.699219 C 54.351562 116.292969 53.9375 112.953125 54.21875 109.925781 C 56.179688 109.957031 58.140625 109.929688 60.101562 109.941406 C 60.109375 111.363281 60.191406 112.785156 60.382812 114.191406 C 60.605469 115.917969 62.453125 117.34375 64.191406 116.898438 C 65.796875 116.457031 67.160156 114.816406 66.851562 113.09375 C 66.652344 112.105469 66.324219 111.011719 65.464844 110.398438 C 62.441406 108.066406 59.476562 105.652344 56.550781 103.203125 C 54.992188 101.898438 54.425781 99.769531 54.488281 97.804688 Z M 32.675781 90.441406 C 36.425781 90.425781 40.175781 90.4375 43.925781 90.433594 C 46.144531 90.414062 48.4375 91.617188 49.417969 93.648438 C 50.25 95.371094 50.203125 97.351562 50.007812 99.207031 C 49.738281 101.265625 48.773438 103.515625 46.703125 104.316406 C 48.875 104.511719 49.90625 106.777344 50.261719 108.660156 C 50.679688 111.105469 50.914062 113.738281 49.980469 116.097656 C 48.890625 118.734375 46.121094 120.382812 43.351562 120.621094 C 39.792969 120.648438 36.230469 120.625 32.671875 120.632812 C 32.679688 110.570312 32.679688 100.507812 32.675781 90.441406 M 38.585938 94.523438 C 38.574219 97.199219 38.582031 99.875 38.585938 102.550781 C 39.714844 102.703125 40.910156 102.703125 41.964844 102.214844 C 43.058594 101.746094 43.792969 100.640625 43.941406 99.480469 C 44.105469 98.085938 44.078125 96.445312 42.976562 95.417969 C 41.832031 94.292969 40.074219 94.285156 38.585938 94.523438 M 38.585938 107.199219 C 38.566406 110.167969 38.589844 113.136719 38.578125 116.105469 C 40.082031 116.414062 41.800781 116.511719 43.085938 115.527344 C 44.335938 114.5625 44.636719 112.882812 44.628906 111.398438 C 44.585938 110.117188 44.324219 108.734375 43.394531 107.785156 C 42.410156 106.738281 40.863281 106.492188 39.492188 106.632812 C 39.144531 106.71875 38.421875 106.585938 38.585938 107.199219 Z M 77.125 90.441406 C 79.140625 90.429688 81.15625 90.433594 83.175781 90.4375 C 85.5 96.542969 87.847656 102.640625 90.1875 108.742188 C 90.40625 109.285156 90.523438 109.898438 90.929688 110.347656 C 90.960938 103.714844 90.953125 97.082031 90.933594 90.449219 C 92.71875 90.414062 94.503906 90.441406 96.289062 90.433594 C 96.300781 100.5 96.285156 110.566406 96.296875 120.632812 C 94.21875 120.617188 92.140625 120.664062 90.066406 120.613281 C 87.667969 114.09375 85.277344 107.574219 82.828125 101.074219 L 82.75 101.941406 C 82.757812 108.167969 82.746094 114.390625 82.753906 120.613281 C 80.878906 120.652344 79 120.625 77.125 120.632812 C 77.128906 110.570312 77.128906 100.507812 77.125 90.441406 Z M 101.289062 90.4375 C 103.3125 90.4375 105.335938 90.421875 107.359375 90.449219 C 107.339844 98.941406 107.300781 107.441406 107.378906 115.933594 C 110.726562 115.902344 114.074219 115.890625 117.421875 115.9375 C 117.394531 117.503906 117.410156 119.066406 117.410156 120.632812 C 112.042969 120.636719 106.671875 120.625 101.304688 120.640625 C 101.285156 110.570312 101.316406 100.503906 101.289062 90.4375 Z M 101.289062 90.4375 " fill-opacity="1" fill-rule="nonzero"/></g></svg>