<svg xmlns="http://www.w3.org/2000/svg" xmlns:xlink="http://www.w3.org/1999/xlink" width="200" zoomAndPan="magnify" viewBox="0 0 150 149.999998" height="200" preserveAspectRatio="xMidYMid meet" version="1.0"><defs><clipPath id="166549fea7"><path d="M 0 59.453125 L 150 59.453125 L 150 90.203125 L 0 90.203125 Z M 0 59.453125 " clip-rule="nonzero"/></clipPath></defs><g clip-path="url(#166549fea7)"><path fill="#cc2229" d="M 11.945312 81.335938 C 14.339844 85.222656 18.738281 87.832031 23.632812 87.832031 C 30.859375 87.832031 34.839844 81.660156 34.839844 81.660156 L 35.351562 83.304688 C 32.003906 87.609375 26.027344 90.203125 19.335938 90.203125 C 11.632812 90.203125 4.992188 86.570312 1.933594 81.332031 C 0.785156 79.355469 0.140625 77.152344 0.140625 74.828125 C 0.140625 66.335938 8.734375 59.453125 19.335938 59.453125 C 26.828125 59.453125 32.855469 62.628906 36.023438 67.226562 L 23.453125 74.671875 L 30.628906 63.777344 C 28.574219 62.5 26.058594 61.304688 23.453125 61.304688 C 16.097656 61.304688 10.035156 67.378906 10.035156 74.65625 C 10.035156 77.09375 10.734375 79.386719 11.945312 81.335938 Z M 45.597656 81.332031 C 45.558594 81.582031 45.539062 81.832031 45.539062 82.082031 C 45.539062 84.84375 47.804688 87.085938 50.597656 87.085938 C 53.390625 87.085938 55.65625 84.847656 55.65625 82.082031 C 55.65625 81.832031 55.636719 81.578125 55.597656 81.332031 C 55.234375 78.925781 53.132812 77.082031 50.597656 77.082031 C 48.0625 77.082031 45.960938 78.925781 45.597656 81.332031 Z M 64.363281 81.332031 L 66.878906 89.703125 L 58.058594 89.703125 L 56.328125 83.96875 C 55.164062 87.273438 51.246094 89.703125 46.59375 89.703125 C 41.023438 89.703125 36.507812 86.226562 36.507812 81.933594 C 36.507812 81.734375 36.519531 81.535156 36.539062 81.332031 C 36.933594 77.324219 41.285156 74.164062 46.59375 74.164062 C 49.605469 74.164062 52.308594 75.179688 54.15625 76.796875 L 51.753906 68.851562 L 41.636719 68.851562 C 41.636719 68.851562 43.320312 67.855469 50.785156 65.167969 C 58.253906 62.480469 60.617188 68.851562 60.617188 68.851562 Z M 92.558594 81.332031 L 92.558594 89.703125 L 83.484375 89.703125 L 83.484375 71.304688 C 83.484375 70.980469 83.421875 70.667969 83.296875 70.367188 C 83.167969 70.066406 82.992188 69.800781 82.757812 69.570312 C 82.527344 69.339844 82.257812 69.164062 81.953125 69.039062 C 81.648438 68.914062 81.332031 68.851562 81.003906 68.851562 C 80.496094 68.851562 80.027344 68.996094 79.605469 69.28125 C 79.183594 69.566406 78.878906 69.945312 78.695312 70.414062 L 78.695312 89.703125 L 69.789062 89.703125 L 69.789062 68.851562 L 64.597656 68.851562 C 64.597656 68.851562 71.820312 64.523438 74.328125 64.523438 C 76.699219 64.523438 78.457031 66.328125 78.679688 68.625 C 82.171875 66.761719 85.636719 64.523438 88.019531 64.523438 C 90.484375 64.523438 92.488281 66.464844 92.558594 68.886719 Z M 106.535156 81.332031 L 107.796875 85.457031 C 107.820312 87.226562 109.289062 88.640625 111.09375 88.640625 C 112.941406 88.640625 114.433594 87.164062 114.433594 85.339844 C 114.433594 85.210938 114.425781 85.082031 114.414062 84.957031 L 113.339844 81.332031 L 109.570312 68.589844 C 109.382812 66.9375 107.96875 65.652344 106.25 65.652344 C 104.546875 65.652344 102.925781 67.226562 102.71875 68.851562 Z M 120.972656 81.332031 C 119.253906 86.484375 114.347656 90.203125 108.5625 90.203125 C 102.773438 90.203125 97.867188 86.484375 96.148438 81.332031 C 95.710938 80.015625 95.492188 78.664062 95.492188 77.28125 C 95.492188 70.144531 101.34375 64.355469 108.5625 64.355469 C 115.777344 64.355469 121.628906 70.144531 121.628906 77.28125 C 121.628906 78.695312 121.398438 80.058594 120.972656 81.332031 Z M 135.996094 81.332031 L 135.996094 89.703125 L 127.089844 89.703125 L 127.089844 68.851562 L 122.109375 68.851562 C 122.109375 68.851562 129.121094 64.523438 131.628906 64.523438 C 134.003906 64.523438 135.757812 66.328125 135.980469 68.625 C 139.472656 66.761719 142.9375 64.523438 145.320312 64.523438 C 147.785156 64.523438 149.789062 66.464844 149.859375 68.886719 L 149.859375 89.703125 L 140.785156 89.703125 L 140.785156 71.304688 C 140.785156 70.980469 140.722656 70.667969 140.597656 70.367188 C 140.46875 70.066406 140.292969 69.800781 140.058594 69.570312 C 139.828125 69.339844 139.558594 69.164062 139.253906 69.039062 C 138.949219 68.914062 138.632812 68.851562 138.304688 68.851562 C 137.796875 68.851562 137.328125 68.996094 136.90625 69.28125 C 136.484375 69.566406 136.179688 69.945312 135.996094 70.414062 Z M 135.996094 81.332031 " fill-opacity="1" fill-rule="nonzero"/></g></svg>