<svg xmlns="http://www.w3.org/2000/svg" xmlns:xlink="http://www.w3.org/1999/xlink" width="200" zoomAndPan="magnify" viewBox="0 0 150 149.999998" height="200" preserveAspectRatio="xMidYMid meet" version="1.0"><defs><clipPath id="8da8a4a8cb"><path d="M 70 47.894531 L 124.480469 47.894531 L 124.480469 89 L 70 89 Z M 70 47.894531 " clip-rule="nonzero"/></clipPath><clipPath id="4ee0950024"><path d="M 25.480469 79 L 64 79 L 64 91 L 25.480469 91 Z M 25.480469 79 " clip-rule="nonzero"/></clipPath><clipPath id="aec878e8bc"><path d="M 63 93 L 75 93 L 75 101.894531 L 63 101.894531 Z M 63 93 " clip-rule="nonzero"/></clipPath><clipPath id="fe2fafe3f2"><path d="M 43 93 L 46 93 L 46 101.894531 L 43 101.894531 Z M 43 93 " clip-rule="nonzero"/></clipPath><clipPath id="a944b3cf12"><path d="M 26 92 L 119 92 L 119 101.894531 L 26 101.894531 Z M 26 92 " clip-rule="nonzero"/></clipPath></defs><g clip-path="url(#8da8a4a8cb)"><path fill="#d91a21" d="M 87.082031 73.796875 L 90.332031 70.589844 L 87.765625 68.054688 L 90.332031 65.476562 L 87.082031 62.300781 L 84.527344 64.824219 L 82.835938 63.136719 C 80.140625 60.445312 75.714844 60.445312 73.007812 63.136719 C 71.644531 64.492188 70.96875 66.277344 70.96875 68.054688 C 70.96875 69.808594 71.632812 71.585938 73.007812 72.949219 C 75.714844 75.652344 80.140625 75.652344 82.835938 72.949219 C 83.402344 72.386719 83.964844 71.824219 84.527344 71.261719 Z M 79.636719 69.710938 C 78.683594 70.660156 77.167969 70.660156 76.226562 69.710938 C 75.773438 69.257812 75.546875 68.636719 75.546875 68.042969 C 75.546875 67.386719 75.773438 66.820312 76.226562 66.347656 C 77.167969 65.410156 78.683594 65.410156 79.636719 66.347656 C 80.378906 67.097656 81.320312 68.042969 81.320312 68.042969 C 81.320312 68.042969 80.378906 68.953125 79.636719 69.710938 Z M 122.449219 63.128906 C 119.746094 60.433594 115.328125 60.433594 112.617188 63.128906 C 111.851562 63.910156 110.921875 64.816406 110.921875 64.816406 L 108.355469 62.28125 L 105.136719 65.457031 L 107.691406 68.035156 L 105.136719 70.570312 L 108.355469 73.777344 L 110.910156 71.230469 C 110.910156 71.230469 111.84375 72.148438 112.605469 72.917969 C 115.320312 75.625 119.738281 75.625 122.441406 72.917969 C 123.796875 71.558594 124.480469 69.78125 124.480469 68.023438 C 124.480469 66.265625 123.808594 64.480469 122.449219 63.128906 Z M 119.222656 69.710938 C 118.289062 70.660156 116.773438 70.660156 115.835938 69.710938 C 115.070312 68.953125 114.140625 68.042969 114.140625 68.042969 C 114.140625 68.042969 115.070312 67.097656 115.835938 66.347656 C 116.773438 65.410156 118.289062 65.410156 119.222656 66.347656 C 119.6875 66.808594 119.914062 67.421875 119.914062 68.042969 C 119.914062 68.636719 119.695312 69.257812 119.222656 69.710938 Z M 100.980469 68.042969 C 100.980469 68.042969 108.535156 60.503906 109.277344 59.753906 C 112 57.050781 112 52.667969 109.277344 49.945312 C 106.574219 47.25 102.175781 47.25 99.445312 49.945312 C 98.382812 51.03125 97.761719 51.640625 97.761719 51.640625 C 97.761719 51.640625 97.144531 51.03125 96.078125 49.945312 C 93.351562 47.25 88.957031 47.25 86.230469 49.945312 C 83.519531 52.667969 83.519531 57.050781 86.230469 59.753906 L 94.550781 68.042969 C 94.550781 68.042969 86.984375 75.554688 86.230469 76.3125 C 83.519531 79.019531 83.519531 83.410156 86.230469 86.125 C 88.957031 88.816406 93.351562 88.816406 96.078125 86.125 C 97.144531 85.039062 97.761719 84.40625 97.761719 84.40625 C 97.761719 84.40625 98.382812 85.039062 99.445312 86.125 C 102.175781 88.816406 106.574219 88.816406 109.277344 86.125 C 112 83.410156 112 79.019531 109.277344 76.3125 C 108.535156 75.554688 100.980469 68.042969 100.980469 68.042969 Z M 89.449219 56.546875 C 88.527344 55.597656 88.527344 54.109375 89.449219 53.171875 C 90.390625 52.253906 91.917969 52.253906 92.835938 53.171875 L 94.539062 54.867188 L 91.976562 57.40625 L 95.183594 60.621094 L 97.75 58.066406 L 100.316406 60.621094 L 103.523438 57.40625 L 100.96875 54.867188 C 100.96875 54.867188 101.761719 54.070312 102.671875 53.171875 C 103.601562 52.253906 105.117188 52.253906 106.050781 53.171875 C 106.988281 54.109375 106.988281 55.597656 106.050781 56.546875 C 105.070312 57.523438 97.71875 64.867188 97.71875 64.867188 C 97.71875 64.867188 90.410156 57.523438 89.449219 56.546875 Z M 106.070312 82.90625 C 105.136719 83.824219 103.621094 83.824219 102.691406 82.90625 C 101.78125 82.007812 100.988281 81.21875 100.988281 81.21875 L 103.542969 78.664062 L 100.335938 75.453125 L 97.761719 78 L 95.195312 75.445312 L 91.984375 78.652344 L 94.550781 81.207031 C 94.550781 81.207031 93.75 82 92.847656 82.894531 C 91.925781 83.8125 90.402344 83.8125 89.460938 82.894531 C 88.539062 81.96875 88.539062 80.4375 89.460938 79.519531 C 90.421875 78.542969 97.75 71.203125 97.75 71.203125 C 97.75 71.203125 105.097656 78.542969 106.078125 79.519531 C 107.011719 80.4375 107.011719 81.976562 106.070312 82.90625 Z M 106.070312 82.90625 " fill-opacity="1" fill-rule="nonzero"/></g><g clip-path="url(#4ee0950024)"><path fill="#000000" d="M 61.292969 82.667969 L 61.292969 83.566406 C 60.550781 82.828125 59.707031 82.472656 58.769531 82.472656 C 57.6875 82.472656 56.777344 82.855469 56.054688 83.605469 C 55.332031 84.367188 54.964844 85.324219 54.964844 86.46875 C 54.964844 87.632812 55.339844 88.609375 56.054688 89.371094 C 56.785156 90.148438 57.699219 90.523438 58.816406 90.523438 C 59.699219 90.523438 60.519531 90.1875 61.285156 89.488281 L 61.285156 90.308594 L 63.164062 90.308594 L 63.164062 82.667969 Z M 60.769531 88.253906 C 60.34375 88.710938 59.796875 88.9375 59.085938 88.9375 C 58.441406 88.9375 57.90625 88.679688 57.480469 88.234375 C 57.074219 87.78125 56.875 87.199219 56.875 86.46875 C 56.875 85.796875 57.074219 85.207031 57.492188 84.761719 C 57.917969 84.296875 58.460938 84.0625 59.105469 84.0625 C 59.789062 84.0625 60.332031 84.296875 60.757812 84.761719 C 61.183594 85.207031 61.402344 85.796875 61.402344 86.5 C 61.414062 87.210938 61.195312 87.78125 60.769531 88.253906 Z M 35.484375 79.226562 L 37.445312 79.226562 L 37.445312 83.546875 C 37.445312 83.546875 38.148438 82.550781 39.671875 82.550781 C 41.058594 82.550781 42.347656 83.480469 42.347656 85.808594 L 42.347656 90.335938 L 40.554688 90.335938 L 40.554688 85.667969 C 40.554688 84.871094 40.238281 83.875 39.109375 83.875 C 38 83.875 37.453125 84.683594 37.453125 85.667969 L 37.453125 90.335938 L 35.492188 90.335938 Z M 34.789062 88.441406 C 34.355469 89.023438 33.828125 89.539062 33.15625 89.914062 C 32.375 90.355469 31.503906 90.566406 30.550781 90.566406 C 29.15625 90.566406 27.957031 90.0625 26.964844 89.105469 C 25.976562 88.105469 25.480469 86.933594 25.480469 85.511719 C 25.480469 84.03125 26.035156 82.757812 27.164062 81.761719 C 28.144531 80.882812 29.273438 80.429688 30.550781 80.429688 C 31.460938 80.429688 32.34375 80.6875 33.15625 81.109375 C 33.808594 81.503906 34.363281 81.976562 34.800781 82.582031 L 33.125 83.773438 C 33.027344 83.488281 32.847656 83.242188 32.652344 83.003906 C 32.097656 82.382812 31.402344 82.046875 30.53125 82.046875 C 29.691406 82.046875 28.988281 82.382812 28.433594 83.023438 C 27.867188 83.667969 27.589844 84.503906 27.589844 85.5 C 27.589844 86.539062 27.867188 87.375 28.433594 88.039062 C 28.976562 88.660156 29.667969 88.976562 30.53125 88.976562 C 31.375 88.976562 32.066406 88.660156 32.652344 88.007812 C 32.839844 87.761719 33.015625 87.515625 33.125 87.238281 C 33.117188 87.257812 34.355469 88.148438 34.789062 88.441406 Z M 51.390625 82.550781 C 49.539062 82.511719 48.941406 83.546875 48.941406 83.546875 L 48.855469 82.648438 L 47.191406 82.648438 L 47.191406 90.335938 L 49.113281 90.335938 L 49.113281 85.667969 C 49.113281 84.691406 49.707031 83.863281 50.796875 83.863281 C 51.933594 83.863281 52.269531 84.878906 52.269531 85.667969 L 52.269531 90.335938 L 54.054688 90.335938 L 54.054688 85.816406 C 54.054688 83.457031 52.777344 82.550781 51.390625 82.550781 Z M 51.390625 82.550781 " fill-opacity="1" fill-rule="nonzero"/></g><path fill="#d91a21" d="M 43.804688 90.328125 L 43.804688 82.621094 L 45.605469 82.621094 L 45.605469 90.328125 Z M 44.683594 81.851562 C 44.050781 81.851562 43.644531 81.375 43.644531 80.824219 C 43.644531 80.242188 44.089844 79.789062 44.703125 79.789062 C 45.367188 79.789062 45.765625 80.230469 45.765625 80.824219 C 45.765625 81.367188 45.367188 81.851562 44.703125 81.851562 Z M 44.683594 93.191406 C 44.050781 93.191406 43.644531 92.726562 43.644531 92.183594 C 43.644531 91.582031 44.089844 91.117188 44.703125 91.117188 C 45.367188 91.117188 45.765625 91.570312 45.765625 92.183594 C 45.765625 92.714844 45.367188 93.191406 44.703125 93.191406 Z M 44.683594 93.191406 " fill-opacity="1" fill-rule="nonzero"/><g clip-path="url(#aec878e8bc)"><path fill="#000000" d="M 72.148438 93.910156 C 71 93.890625 70.195312 94.375 69.535156 95.113281 C 69.085938 94.304688 68.324219 93.949219 67.523438 93.910156 C 65.878906 93.871094 65.195312 94.90625 65.195312 94.90625 L 65.117188 93.988281 L 63.375 93.988281 L 63.375 101.65625 L 65.324219 101.65625 L 65.324219 97.039062 C 65.324219 96.042969 65.847656 95.242188 66.859375 95.242188 C 67.898438 95.242188 68.195312 96.238281 68.195312 97.039062 L 68.195312 101.65625 L 69.96875 101.65625 L 69.96875 97.136719 L 69.96875 97.15625 C 69.988281 95.855469 70.574219 95.242188 71.476562 95.242188 C 72.515625 95.242188 72.832031 96.238281 72.832031 97.039062 L 72.832031 101.65625 L 74.605469 101.65625 L 74.605469 97.167969 C 74.605469 94.835938 73.433594 93.949219 72.148438 93.910156 Z M 72.148438 93.910156 " fill-opacity="1" fill-rule="nonzero"/></g><g clip-path="url(#fe2fafe3f2)"><path fill="#d91a21" d="M 43.804688 93.988281 L 45.605469 93.988281 L 45.605469 101.65625 L 43.804688 101.65625 Z M 43.804688 93.988281 " fill-opacity="1" fill-rule="nonzero"/></g><g clip-path="url(#a944b3cf12)"><path fill="#000000" d="M 58.421875 93.8125 C 59.152344 93.8125 59.808594 93.988281 60.453125 94.355469 C 61.09375 94.710938 61.601562 95.210938 61.9375 95.796875 C 62.292969 96.425781 62.480469 97.109375 62.480469 97.796875 C 62.480469 98.527344 62.285156 99.191406 61.9375 99.820312 C 61.582031 100.441406 61.09375 100.957031 60.480469 101.292969 C 59.855469 101.65625 59.175781 101.816406 58.441406 101.816406 C 57.332031 101.816406 56.402344 101.441406 55.628906 100.660156 C 54.835938 99.878906 54.460938 98.933594 54.460938 97.808594 C 54.460938 96.625 54.90625 95.636719 55.785156 94.855469 C 56.550781 94.167969 57.441406 93.8125 58.421875 93.8125 Z M 58.558594 95.152344 C 57.9375 95.152344 57.441406 95.398438 57.042969 95.902344 C 56.617188 96.40625 56.421875 97.058594 56.421875 97.816406 C 56.421875 98.628906 56.617188 99.277344 57.015625 99.792969 C 57.441406 100.265625 57.925781 100.511719 58.558594 100.511719 C 59.175781 100.511719 59.707031 100.265625 60.105469 99.773438 C 60.53125 99.269531 60.75 98.617188 60.75 97.816406 C 60.75 97.039062 60.53125 96.417969 60.136719 95.882812 C 59.71875 95.398438 59.203125 95.152344 58.558594 95.152344 Z M 39.671875 93.871094 C 37.839844 93.851562 37.226562 94.886719 37.226562 94.886719 L 37.148438 93.988281 L 35.464844 93.988281 L 35.464844 101.65625 L 37.394531 101.65625 L 37.394531 97.019531 C 37.394531 96.003906 37.96875 95.222656 39.050781 95.222656 C 40.199219 95.222656 40.523438 96.210938 40.523438 97.019531 L 40.523438 101.65625 L 42.335938 101.65625 L 42.335938 97.15625 C 42.347656 94.808594 41.058594 93.910156 39.671875 93.871094 Z M 29.710938 101.765625 C 31.550781 101.796875 32.15625 100.769531 32.15625 100.769531 L 32.246094 101.65625 L 33.917969 101.65625 L 33.917969 93.988281 L 31.976562 93.988281 L 31.976562 98.648438 C 31.976562 99.632812 31.421875 100.453125 30.324219 100.453125 C 29.175781 100.453125 28.730469 99.4375 28.730469 98.648438 L 28.730469 93.988281 L 26.777344 93.988281 L 26.777344 98.488281 C 26.777344 100.847656 28.3125 101.746094 29.710938 101.765625 Z M 54.3125 100.167969 C 53.984375 100.652344 53.546875 101.035156 53.011719 101.320312 C 52.398438 101.695312 51.6875 101.863281 50.945312 101.863281 C 49.835938 101.863281 48.882812 101.449219 48.089844 100.691406 C 47.300781 99.910156 46.902344 98.972656 46.902344 97.859375 C 46.902344 96.664062 47.359375 95.667969 48.25 94.867188 C 49.023438 94.1875 49.933594 93.832031 50.945312 93.832031 C 51.648438 93.832031 52.351562 94.007812 52.992188 94.375 C 53.519531 94.660156 53.964844 95.054688 54.292969 95.519531 L 52.863281 96.554688 C 52.777344 96.328125 52.648438 96.148438 52.507812 96.003906 C 52.113281 95.527344 51.605469 95.28125 50.964844 95.28125 C 50.371094 95.28125 49.863281 95.527344 49.46875 96.003906 C 49.050781 96.476562 48.855469 97.097656 48.855469 97.859375 C 48.855469 98.617188 49.050781 99.238281 49.46875 99.734375 C 49.875 100.195312 50.371094 100.421875 50.964844 100.421875 C 51.585938 100.421875 52.09375 100.195312 52.488281 99.714844 C 52.648438 99.535156 52.777344 99.339844 52.863281 99.128906 Z M 111.84375 100.652344 C 111.507812 100.652344 111.238281 100.375 111.238281 100.046875 L 111.238281 95.28125 L 109.148438 95.28125 L 109.148438 96.210938 L 109.84375 96.210938 L 109.84375 100.414062 C 109.84375 101.125 110.464844 101.566406 110.960938 101.566406 L 118.894531 101.566406 L 118.894531 100.652344 Z M 115.140625 94.335938 C 114.558594 93.941406 113.875 93.644531 113.875 93.644531 L 113.386719 94.265625 L 113.875 94.699219 L 111.992188 94.699219 L 111.992188 100.226562 L 112.367188 100.226562 C 112.785156 100.226562 113.25 99.949219 113.25 99.398438 L 113.25 98.636719 L 114.695312 98.636719 L 114.695312 100.226562 L 115.101562 100.226562 C 115.578125 100.226562 115.933594 99.96875 115.953125 99.386719 L 115.953125 98.636719 L 117.417969 98.636719 L 117.417969 99.011719 C 117.417969 99.179688 117.203125 99.296875 117.042969 99.296875 L 116.476562 99.296875 L 116.726562 100.234375 L 117.636719 100.234375 C 118.25 100.234375 118.757812 99.753906 118.757812 99.121094 L 118.757812 95.46875 C 118.757812 95.042969 118.398438 94.710938 117.992188 94.710938 L 116.527344 94.710938 L 118.46875 93.554688 L 118.46875 92.5 L 111.921875 92.5 L 111.921875 93.40625 L 116.707031 93.40625 Z M 114.707031 97.738281 L 113.257812 97.738281 L 113.257812 97.117188 L 114.707031 97.117188 Z M 114.707031 96.238281 L 113.257812 96.238281 L 113.257812 95.617188 L 114.707031 95.617188 Z M 117.429688 97.738281 L 115.964844 97.738281 L 115.964844 97.117188 L 117.429688 97.117188 Z M 117.429688 95.617188 L 117.429688 96.238281 L 115.964844 96.238281 L 115.964844 95.617188 Z M 111.417969 94.167969 C 110.734375 93.210938 109.980469 92.695312 109.980469 92.695312 L 109.25 93.21875 L 110.488281 94.867188 Z M 103.238281 98.421875 L 102.621094 98.597656 L 102.621094 93.445312 C 102.621094 92.863281 102.265625 92.507812 101.832031 92.507812 L 98.550781 92.507812 L 98.550781 93.445312 L 101.304688 93.445312 L 101.304688 94.867188 L 100.175781 94.867188 L 100.175781 93.910156 L 98.9375 93.910156 L 98.9375 99.625 L 98.394531 99.792969 L 98.394531 100.808594 L 101.304688 99.988281 L 101.304688 101.863281 L 101.832031 101.863281 C 102.234375 101.863281 102.503906 101.609375 102.621094 101.113281 L 102.621094 99.632812 L 103.238281 99.457031 Z M 101.296875 98.953125 L 100.167969 99.269531 L 100.167969 97.835938 L 101.296875 97.835938 Z M 101.296875 96.910156 L 100.167969 96.910156 L 100.167969 95.785156 L 101.296875 95.785156 Z M 106.367188 97.609375 L 107.980469 97.609375 L 107.980469 96.683594 L 106.179688 96.683594 L 106.179688 95.28125 L 107.980469 95.28125 L 107.980469 94.363281 L 106.800781 94.363281 L 107.863281 93.03125 L 106.851562 92.3125 L 105.542969 94.363281 L 104.59375 94.363281 L 105.375 93.800781 C 104.710938 92.882812 104.136719 92.320312 104.136719 92.320312 L 103.40625 92.773438 L 104.355469 94.375 L 103.175781 94.375 L 103.175781 95.292969 L 104.722656 95.292969 L 104.722656 96.691406 L 103.175781 96.691406 L 103.175781 97.621094 L 104.542969 97.621094 L 102.941406 101.746094 L 103.625 101.746094 C 104 101.746094 104.367188 101.488281 104.515625 101.164062 L 105.503906 98.707031 L 106.863281 101.753906 L 108.21875 101.753906 Z M 84.984375 93.605469 L 81.964844 93.605469 L 81.964844 92.3125 L 80.378906 92.3125 L 80.378906 93.605469 L 78.398438 93.605469 L 78.398438 94.542969 L 80.378906 94.542969 L 80.378906 98.292969 L 77.933594 98.292969 L 77.933594 93.605469 L 76.347656 93.605469 L 76.347656 99.199219 L 80.386719 99.199219 L 80.386719 101.863281 L 80.636719 101.863281 C 81.535156 101.824219 81.941406 101.429688 81.972656 100.769531 L 81.972656 99.199219 L 84.636719 99.199219 C 85.351562 99.199219 85.945312 98.636719 85.984375 97.898438 L 85.984375 94.550781 C 85.945312 94.027344 85.527344 93.605469 84.984375 93.605469 Z M 84.410156 97.691406 C 84.410156 97.855469 84.351562 97.992188 84.238281 98.109375 C 84.121094 98.226562 83.980469 98.285156 83.816406 98.28125 L 81.972656 98.28125 L 81.972656 94.53125 L 84.410156 94.53125 Z M 95.898438 92.488281 L 89.351562 92.488281 L 89.351562 93.398438 L 95.441406 93.398438 L 95.441406 100.089844 C 95.441406 100.421875 95.183594 100.671875 94.859375 100.671875 L 88.867188 100.671875 L 88.867188 92.488281 L 87.421875 92.488281 L 87.421875 101.597656 L 95.582031 101.597656 C 96.304688 101.597656 96.90625 101.015625 96.90625 100.265625 L 96.90625 93.484375 C 96.90625 92.941406 96.460938 92.488281 95.898438 92.488281 Z M 94.957031 98.855469 L 94.253906 98.855469 L 94.71875 98.273438 C 94.105469 97.710938 93.609375 97.421875 93.609375 97.421875 L 93.066406 97.964844 L 93.859375 98.855469 L 92.777344 98.855469 L 92.777344 97.316406 L 94.917969 97.316406 L 94.917969 96.386719 L 92.777344 96.386719 L 92.777344 95.242188 L 94.917969 95.242188 L 94.917969 94.324219 L 89.390625 94.324219 L 89.390625 95.242188 L 91.324219 95.242188 L 91.324219 96.386719 L 89.390625 96.386719 L 89.390625 97.316406 L 91.324219 97.316406 L 91.324219 98.855469 L 89.351562 98.855469 L 89.351562 99.773438 L 94.957031 99.773438 Z M 94.957031 98.855469 " fill-opacity="1" fill-rule="nonzero"/></g></svg>