<svg xmlns="http://www.w3.org/2000/svg" xmlns:xlink="http://www.w3.org/1999/xlink" width="200" zoomAndPan="magnify" viewBox="0 0 150 149.999998" height="200" preserveAspectRatio="xMidYMid meet" version="1.0"><path fill="#c4122e" d="M 56.820312 98.351562 L 52.101562 98.351562 L 52.101562 79.570312 L 56.820312 79.570312 Z M 56.820312 98.351562 " fill-opacity="1" fill-rule="nonzero"/><path fill="#c4122e" d="M 94.871094 84.953125 C 94.679688 84.851562 93.160156 83.949219 90.902344 83.949219 C 87.851562 83.949219 85.734375 86.082031 85.734375 88.960938 C 85.734375 91.75 87.761719 93.972656 90.902344 93.972656 C 93.121094 93.972656 94.664062 93.085938 94.871094 92.976562 L 94.871094 98.019531 C 94.28125 98.183594 92.667969 98.6875 90.570312 98.6875 C 85.265625 98.6875 80.605469 95.011719 80.605469 88.957031 C 80.605469 83.351562 84.820312 79.238281 90.570312 79.238281 C 92.785156 79.238281 94.425781 79.777344 94.871094 79.910156 Z M 45.613281 84.953125 C 45.421875 84.851562 43.90625 83.949219 41.648438 83.949219 C 38.59375 83.949219 36.476562 86.082031 36.476562 88.960938 C 36.476562 91.75 38.503906 93.972656 41.648438 93.972656 C 43.867188 93.972656 45.410156 93.085938 45.613281 92.976562 L 45.613281 98.019531 C 45.027344 98.183594 43.417969 98.6875 41.308594 98.6875 C 36.003906 98.6875 31.351562 95.011719 31.351562 88.957031 C 31.351562 83.351562 35.566406 79.238281 41.308594 79.238281 C 43.53125 79.238281 45.167969 79.777344 45.613281 79.910156 Z M 109.71875 84.019531 C 106.917969 84.019531 104.839844 86.234375 104.839844 88.960938 C 104.839844 91.691406 106.917969 93.902344 109.71875 93.902344 C 112.515625 93.902344 114.601562 91.691406 114.601562 88.960938 C 114.601562 86.234375 112.515625 84.019531 109.71875 84.019531 M 119.601562 88.960938 C 119.601562 94.332031 115.46875 98.6875 109.71875 98.6875 C 103.964844 98.6875 99.839844 94.332031 99.839844 88.957031 C 99.839844 83.59375 103.96875 79.238281 109.71875 79.238281 C 115.46875 79.238281 119.601562 83.59375 119.601562 88.960938 M 74.714844 83.839844 C 74.644531 83.816406 72.660156 83.265625 71.027344 83.265625 C 69.136719 83.265625 68.109375 83.902344 68.109375 84.804688 C 68.109375 85.949219 69.496094 86.347656 70.269531 86.59375 L 71.574219 87.011719 C 74.636719 87.988281 76.03125 90.097656 76.03125 92.382812 C 76.03125 97.101562 71.898438 98.6875 68.289062 98.6875 C 65.777344 98.6875 63.425781 98.222656 63.195312 98.175781 L 63.195312 93.851562 C 63.613281 93.957031 65.589844 94.550781 67.652344 94.550781 C 70 94.550781 71.078125 93.859375 71.078125 92.796875 C 71.078125 91.84375 70.144531 91.296875 68.976562 90.925781 C 68.691406 90.828125 68.261719 90.695312 67.96875 90.597656 C 65.339844 89.765625 63.148438 88.210938 63.148438 85.105469 C 63.148438 81.589844 65.765625 79.230469 70.117188 79.230469 C 72.414062 79.230469 74.574219 79.792969 74.714844 79.828125 Z M 74.714844 83.839844 " fill-opacity="1" fill-rule="nonzero"/><path fill="#15495d" d="M 26.347656 59.382812 C 26.347656 58.089844 25.292969 57.042969 24.003906 57.042969 C 22.714844 57.042969 21.660156 58.089844 21.660156 59.382812 L 21.660156 64.316406 C 21.667969 64.621094 21.734375 64.914062 21.855469 65.199219 C 21.976562 65.480469 22.148438 65.726562 22.367188 65.941406 C 22.585938 66.15625 22.835938 66.320312 23.121094 66.4375 C 23.402344 66.550781 23.699219 66.609375 24.003906 66.609375 C 24.308594 66.609375 24.605469 66.550781 24.886719 66.4375 C 25.171875 66.320312 25.421875 66.15625 25.640625 65.941406 C 25.859375 65.726562 26.027344 65.480469 26.152344 65.199219 C 26.273438 64.914062 26.339844 64.621094 26.347656 64.316406 Z M 39.214844 52.914062 C 39.214844 52.601562 39.15625 52.300781 39.039062 52.011719 C 38.917969 51.726562 38.75 51.472656 38.53125 51.25 C 38.308594 51.03125 38.054688 50.859375 37.769531 50.738281 C 37.480469 50.621094 37.183594 50.5625 36.871094 50.558594 C 36.5625 50.5625 36.261719 50.621094 35.976562 50.738281 C 35.6875 50.859375 35.433594 51.027344 35.214844 51.25 C 34.996094 51.46875 34.828125 51.726562 34.707031 52.011719 C 34.589844 52.300781 34.53125 52.601562 34.53125 52.914062 L 34.53125 64.316406 C 34.53125 64.628906 34.589844 64.925781 34.707031 65.214844 C 34.828125 65.503906 34.996094 65.757812 35.214844 65.980469 C 35.433594 66.199219 35.6875 66.371094 35.976562 66.488281 C 36.261719 66.609375 36.5625 66.667969 36.871094 66.667969 C 37.183594 66.667969 37.480469 66.609375 37.769531 66.488281 C 38.054688 66.371094 38.308594 66.199219 38.53125 65.980469 C 38.75 65.757812 38.917969 65.503906 39.039062 65.214844 C 39.15625 64.925781 39.214844 64.628906 39.214844 64.316406 Z M 52.085938 44.058594 C 52.085938 42.765625 51.035156 41.714844 49.742188 41.714844 C 48.453125 41.714844 47.398438 42.765625 47.398438 44.058594 L 47.398438 69 C 47.40625 69.308594 47.472656 69.601562 47.59375 69.882812 C 47.71875 70.164062 47.886719 70.414062 48.105469 70.625 C 48.324219 70.839844 48.578125 71.003906 48.859375 71.121094 C 49.144531 71.238281 49.4375 71.296875 49.742188 71.296875 C 50.046875 71.296875 50.34375 71.238281 50.625 71.121094 C 50.910156 71.003906 51.160156 70.839844 51.378906 70.625 C 51.597656 70.414062 51.769531 70.164062 51.890625 69.882812 C 52.011719 69.601562 52.078125 69.308594 52.085938 69 Z M 64.957031 52.914062 C 64.957031 52.601562 64.894531 52.300781 64.777344 52.011719 C 64.65625 51.726562 64.488281 51.472656 64.269531 51.25 C 64.050781 51.03125 63.796875 50.859375 63.507812 50.738281 C 63.222656 50.621094 62.921875 50.5625 62.613281 50.558594 C 62.300781 50.5625 62.003906 50.621094 61.714844 50.738281 C 61.429688 50.859375 61.175781 51.027344 60.957031 51.25 C 60.734375 51.46875 60.566406 51.726562 60.445312 52.011719 C 60.328125 52.300781 60.269531 52.601562 60.269531 52.914062 L 60.269531 64.316406 C 60.269531 64.628906 60.328125 64.925781 60.445312 65.214844 C 60.566406 65.503906 60.734375 65.757812 60.957031 65.980469 C 61.175781 66.199219 61.429688 66.371094 61.714844 66.488281 C 62.003906 66.609375 62.300781 66.667969 62.613281 66.667969 C 62.921875 66.667969 63.222656 66.609375 63.507812 66.488281 C 63.796875 66.371094 64.050781 66.199219 64.269531 65.980469 C 64.488281 65.757812 64.65625 65.503906 64.777344 65.214844 C 64.894531 64.925781 64.957031 64.628906 64.957031 64.316406 Z M 77.8125 59.382812 C 77.8125 59.074219 77.753906 58.777344 77.632812 58.488281 C 77.515625 58.203125 77.347656 57.949219 77.128906 57.726562 C 76.910156 57.507812 76.660156 57.339844 76.375 57.21875 C 76.089844 57.101562 75.789062 57.042969 75.480469 57.042969 C 75.171875 57.039062 74.875 57.101562 74.585938 57.21875 C 74.300781 57.335938 74.046875 57.507812 73.828125 57.726562 C 73.609375 57.945312 73.441406 58.199219 73.320312 58.484375 C 73.199219 58.773438 73.140625 59.070312 73.140625 59.382812 L 73.140625 64.316406 C 73.140625 64.625 73.199219 64.925781 73.316406 65.214844 C 73.4375 65.5 73.605469 65.753906 73.824219 65.972656 C 74.042969 66.195312 74.296875 66.363281 74.582031 66.480469 C 74.867188 66.601562 75.164062 66.660156 75.476562 66.660156 C 75.785156 66.660156 76.082031 66.601562 76.367188 66.480469 C 76.65625 66.363281 76.90625 66.195312 77.125 65.972656 C 77.34375 65.753906 77.515625 65.5 77.632812 65.210938 C 77.75 64.925781 77.8125 64.625 77.8125 64.316406 Z M 90.6875 52.914062 C 90.679688 52.609375 90.613281 52.316406 90.492188 52.035156 C 90.371094 51.753906 90.199219 51.507812 89.980469 51.292969 C 89.761719 51.078125 89.511719 50.914062 89.230469 50.800781 C 88.949219 50.683594 88.65625 50.625 88.351562 50.625 C 88.046875 50.625 87.75 50.683594 87.46875 50.800781 C 87.1875 50.914062 86.9375 51.078125 86.71875 51.292969 C 86.5 51.507812 86.332031 51.753906 86.207031 52.035156 C 86.085938 52.316406 86.023438 52.609375 86.015625 52.914062 L 86.015625 64.316406 C 86.015625 64.625 86.074219 64.925781 86.191406 65.214844 C 86.3125 65.5 86.480469 65.753906 86.699219 65.972656 C 86.917969 66.195312 87.171875 66.363281 87.457031 66.480469 C 87.742188 66.601562 88.039062 66.660156 88.351562 66.660156 C 88.660156 66.660156 88.957031 66.601562 89.242188 66.480469 C 89.53125 66.363281 89.78125 66.195312 90 65.972656 C 90.21875 65.753906 90.390625 65.5 90.507812 65.210938 C 90.625 64.925781 90.6875 64.625 90.6875 64.316406 Z M 103.5625 44.058594 C 103.5625 43.75 103.503906 43.449219 103.386719 43.160156 C 103.265625 42.875 103.097656 42.621094 102.878906 42.402344 C 102.660156 42.179688 102.40625 42.011719 102.121094 41.890625 C 101.835938 41.773438 101.539062 41.714844 101.226562 41.714844 C 100.917969 41.714844 100.621094 41.773438 100.335938 41.890625 C 100.046875 42.011719 99.796875 42.179688 99.578125 42.402344 C 99.355469 42.621094 99.1875 42.875 99.070312 43.160156 C 98.953125 43.449219 98.890625 43.75 98.890625 44.058594 L 98.890625 69 C 98.878906 69.320312 98.925781 69.628906 99.039062 69.929688 C 99.152344 70.230469 99.320312 70.496094 99.539062 70.726562 C 99.757812 70.957031 100.015625 71.136719 100.308594 71.261719 C 100.601562 71.386719 100.910156 71.453125 101.226562 71.453125 C 101.546875 71.453125 101.851562 71.386719 102.144531 71.261719 C 102.441406 71.136719 102.695312 70.957031 102.917969 70.726562 C 103.136719 70.496094 103.304688 70.230469 103.417969 69.929688 C 103.527344 69.628906 103.578125 69.320312 103.5625 69 Z M 116.4375 52.914062 C 116.4375 51.617188 115.394531 50.566406 114.074219 50.566406 C 113.765625 50.566406 113.464844 50.625 113.179688 50.746094 C 112.894531 50.863281 112.640625 51.035156 112.421875 51.253906 C 112.203125 51.472656 112.035156 51.726562 111.917969 52.015625 C 111.796875 52.300781 111.738281 52.601562 111.738281 52.914062 L 111.738281 64.316406 C 111.738281 65.617188 112.785156 66.664062 114.074219 66.664062 C 115.394531 66.664062 116.4375 65.617188 116.4375 64.316406 Z M 129.289062 59.382812 C 129.289062 59.074219 129.230469 58.773438 129.113281 58.484375 C 128.992188 58.199219 128.824219 57.945312 128.605469 57.722656 C 128.386719 57.503906 128.132812 57.335938 127.847656 57.214844 C 127.558594 57.097656 127.261719 57.035156 126.953125 57.035156 C 126.640625 57.035156 126.34375 57.097656 126.058594 57.214844 C 125.769531 57.335938 125.519531 57.503906 125.296875 57.722656 C 125.078125 57.945312 124.910156 58.199219 124.792969 58.484375 C 124.671875 58.773438 124.613281 59.074219 124.613281 59.382812 L 124.613281 64.316406 C 124.613281 65.617188 125.660156 66.667969 126.953125 66.667969 C 128.242188 66.667969 129.289062 65.617188 129.289062 64.316406 Z M 129.289062 59.382812 " fill-opacity="1" fill-rule="nonzero"/><path fill="#c4122e" d="M 126.589844 95.878906 L 126.589844 96.171875 L 125.753906 96.171875 L 125.753906 98.351562 L 125.410156 98.351562 L 125.410156 96.175781 L 124.574219 96.175781 L 124.574219 95.878906 Z M 126.761719 95.878906 L 127.300781 95.878906 L 128.035156 97.90625 L 128.050781 97.90625 L 128.761719 95.878906 L 129.289062 95.878906 L 129.289062 98.351562 L 128.9375 98.351562 L 128.9375 96.324219 L 128.925781 96.324219 L 128.175781 98.351562 L 127.851562 98.351562 L 127.125 96.324219 L 127.105469 96.324219 L 127.105469 98.351562 L 126.761719 98.351562 Z M 126.761719 95.878906 " fill-opacity="1" fill-rule="nonzero"/></svg>