<svg xmlns="http://www.w3.org/2000/svg" xmlns:xlink="http://www.w3.org/1999/xlink" width="200" zoomAndPan="magnify" viewBox="0 0 150 149.999998" height="200" preserveAspectRatio="xMidYMid meet" version="1.0"><defs><clipPath id="20f6885a45"><path d="M 50.265625 31.542969 L 99.765625 31.542969 L 99.765625 118.542969 L 50.265625 118.542969 Z M 50.265625 31.542969 " clip-rule="nonzero"/></clipPath><clipPath id="60bb3e96f1"><path d="M 29.511719 29.511719 L 120.261719 29.511719 L 120.261719 120.261719 L 29.511719 120.261719 Z M 29.511719 29.511719 " clip-rule="nonzero"/></clipPath></defs><g clip-path="url(#20f6885a45)"><path fill="#1d9f9e" d="M 75.054688 31.542969 C 61.101562 31.542969 50.273438 42.886719 50.273438 56.164062 C 50.273438 67.917969 57.945312 74.253906 57.945312 74.253906 C 58.707031 74.921875 58.515625 75.265625 57.96875 75.820312 C 57.96875 75.820312 50.273438 82.828125 50.273438 93.660156 C 50.273438 108.515625 62.148438 118.542969 75.054688 118.542969 C 89.484375 118.542969 99.757812 106.800781 99.757812 93.832031 C 99.757812 82.667969 92.367188 76.082031 92.367188 76.082031 C 91.320312 75.082031 91.320312 74.914062 92.367188 73.992188 C 92.367188 73.992188 99.757812 67.78125 99.757812 56.152344 C 99.757812 43.035156 89.210938 31.542969 75.054688 31.542969 Z M 69.539062 44.320312 C 70.242188 44.320312 70.867188 44.683594 71.21875 45.226562 C 71.582031 44.683594 72.195312 44.320312 72.910156 44.320312 C 73.714844 44.320312 74.417969 44.796875 74.738281 45.488281 C 75.054688 44.796875 75.746094 44.320312 76.5625 44.320312 C 77.371094 44.320312 78.074219 44.796875 78.390625 45.488281 C 78.710938 44.796875 79.414062 44.320312 80.21875 44.320312 C 81.332031 44.320312 82.230469 45.214844 82.230469 46.328125 C 82.230469 47.441406 81.332031 48.351562 80.21875 48.351562 C 79.414062 48.351562 78.710938 47.875 78.390625 47.179688 C 78.074219 47.875 77.371094 48.351562 76.5625 48.351562 C 75.757812 48.351562 75.054688 47.875 74.738281 47.179688 C 74.417969 47.875 73.714844 48.351562 72.910156 48.351562 C 72.203125 48.351562 71.582031 47.988281 71.21875 47.441406 C 71.070312 47.65625 70.886719 47.851562 70.671875 48 C 71.195312 48.363281 71.546875 48.964844 71.546875 49.65625 C 71.546875 50.335938 71.207031 50.9375 70.683594 51.3125 C 71.207031 51.675781 71.546875 52.28125 71.546875 52.972656 C 71.546875 53.652344 71.207031 54.253906 70.683594 54.628906 C 70.84375 54.742188 70.980469 54.878906 71.105469 55.027344 C 71.480469 54.5625 72.046875 54.265625 72.683594 54.265625 C 73.417969 54.265625 74.066406 54.664062 74.417969 55.253906 C 74.769531 54.664062 75.417969 54.265625 76.15625 54.265625 C 76.882812 54.265625 77.527344 54.652344 77.882812 55.230469 C 78.234375 54.652344 78.867188 54.265625 79.605469 54.265625 C 80.71875 54.265625 81.628906 55.164062 81.628906 56.277344 C 81.628906 57.390625 80.71875 58.296875 79.605469 58.296875 C 78.878906 58.296875 78.234375 57.914062 77.882812 57.332031 C 77.527344 57.914062 76.894531 58.296875 76.15625 58.296875 C 75.417969 58.296875 74.769531 57.902344 74.417969 57.308594 C 74.066406 57.902344 73.417969 58.296875 72.683594 58.296875 C 72.046875 58.296875 71.480469 58.003906 71.105469 57.539062 C 70.980469 57.695312 70.832031 57.820312 70.671875 57.933594 C 71.195312 58.296875 71.546875 58.898438 71.546875 59.59375 C 71.546875 60.285156 71.207031 60.886719 70.671875 61.25 C 71.195312 61.613281 71.546875 62.214844 71.546875 62.910156 C 71.546875 63.601562 71.207031 64.203125 70.671875 64.566406 C 70.886719 64.714844 71.070312 64.894531 71.207031 65.113281 C 71.570312 64.554688 72.195312 64.191406 72.898438 64.191406 C 73.703125 64.191406 74.40625 64.667969 74.726562 65.363281 C 75.042969 64.667969 75.734375 64.191406 76.554688 64.191406 C 77.359375 64.191406 78.0625 64.667969 78.378906 65.363281 C 78.699219 64.667969 79.402344 64.191406 80.207031 64.191406 C 81.320312 64.191406 82.21875 65.101562 82.21875 66.214844 C 82.21875 67.328125 81.320312 68.222656 80.207031 68.222656 C 79.402344 68.222656 78.699219 67.746094 78.378906 67.054688 C 78.0625 67.746094 77.359375 68.222656 76.554688 68.222656 C 75.746094 68.222656 75.042969 67.746094 74.726562 67.054688 C 74.40625 67.746094 73.703125 68.222656 72.898438 68.222656 C 72.195312 68.222656 71.582031 67.859375 71.21875 67.316406 C 70.855469 67.871094 70.230469 68.234375 69.527344 68.234375 C 68.414062 68.234375 67.515625 67.335938 67.515625 66.226562 C 67.515625 65.53125 67.867188 64.929688 68.390625 64.566406 C 67.867188 64.203125 67.515625 63.601562 67.515625 62.910156 C 67.515625 62.214844 67.867188 61.613281 68.390625 61.25 C 67.867188 60.886719 67.515625 60.273438 67.515625 59.59375 C 67.515625 58.898438 67.855469 58.296875 68.390625 57.933594 C 67.867188 57.570312 67.515625 56.96875 67.515625 56.277344 C 67.515625 55.59375 67.855469 54.992188 68.378906 54.617188 C 67.855469 54.253906 67.515625 53.652344 67.515625 52.960938 C 67.515625 52.28125 67.855469 51.675781 68.378906 51.304688 C 67.855469 50.9375 67.515625 50.335938 67.515625 49.644531 C 67.515625 48.953125 67.867188 48.351562 68.390625 47.988281 C 67.867188 47.625 67.515625 47.011719 67.515625 46.328125 C 67.527344 45.214844 68.425781 44.320312 69.539062 44.320312 Z M 69.539062 81.863281 C 70.242188 81.863281 70.867188 82.226562 71.21875 82.769531 C 71.582031 82.226562 72.195312 81.863281 72.910156 81.863281 C 73.714844 81.863281 74.417969 82.339844 74.738281 83.03125 C 75.054688 82.339844 75.746094 81.863281 76.5625 81.863281 C 77.371094 81.863281 78.074219 82.339844 78.390625 83.03125 C 78.710938 82.339844 79.414062 81.863281 80.21875 81.863281 C 81.332031 81.863281 82.230469 82.769531 82.230469 83.882812 C 82.230469 84.996094 81.332031 85.894531 80.21875 85.894531 C 79.414062 85.894531 78.710938 85.417969 78.390625 84.722656 C 78.074219 85.417969 77.371094 85.894531 76.5625 85.894531 C 75.757812 85.894531 75.054688 85.417969 74.738281 84.722656 C 74.417969 85.417969 73.714844 85.894531 72.910156 85.894531 C 72.203125 85.894531 71.582031 85.53125 71.21875 84.984375 C 71.070312 85.199219 70.886719 85.394531 70.683594 85.542969 C 71.207031 85.90625 71.558594 86.519531 71.558594 87.199219 C 71.558594 87.882812 71.21875 88.484375 70.695312 88.859375 C 71.21875 89.222656 71.558594 89.824219 71.558594 90.515625 C 71.558594 91.195312 71.21875 91.800781 70.695312 92.175781 C 70.855469 92.289062 71 92.421875 71.117188 92.570312 C 71.488281 92.105469 72.058594 91.808594 72.691406 91.808594 C 73.429688 91.808594 74.078125 92.207031 74.429688 92.796875 C 74.78125 92.207031 75.429688 91.808594 76.167969 91.808594 C 76.894531 91.808594 77.539062 92.195312 77.890625 92.777344 C 78.246094 92.195312 78.878906 91.808594 79.617188 91.808594 C 80.730469 91.808594 81.636719 92.71875 81.636719 93.832031 C 81.636719 94.945312 80.730469 95.84375 79.617188 95.84375 C 78.890625 95.84375 78.246094 95.457031 77.890625 94.875 C 77.539062 95.457031 76.90625 95.84375 76.167969 95.84375 C 75.429688 95.84375 74.78125 95.445312 74.429688 94.855469 C 74.078125 95.445312 73.429688 95.84375 72.691406 95.84375 C 72.058594 95.84375 71.488281 95.546875 71.117188 95.082031 C 70.992188 95.238281 70.84375 95.375 70.683594 95.488281 C 71.207031 95.851562 71.558594 96.457031 71.558594 97.148438 C 71.558594 97.839844 71.21875 98.441406 70.683594 98.804688 C 71.207031 99.167969 71.558594 99.78125 71.558594 100.464844 C 71.558594 101.15625 71.207031 101.757812 70.683594 102.121094 C 70.898438 102.269531 71.082031 102.460938 71.21875 102.679688 C 71.582031 102.121094 72.203125 101.757812 72.910156 101.757812 C 73.714844 101.757812 74.417969 102.234375 74.738281 102.929688 C 75.054688 102.234375 75.746094 101.757812 76.5625 101.757812 C 77.371094 101.757812 78.074219 102.234375 78.390625 102.929688 C 78.710938 102.234375 79.414062 101.757812 80.21875 101.757812 C 81.332031 101.757812 82.230469 102.65625 82.230469 103.769531 C 82.230469 104.882812 81.332031 105.789062 80.21875 105.789062 C 79.414062 105.789062 78.710938 105.3125 78.390625 104.621094 C 78.074219 105.3125 77.371094 105.789062 76.5625 105.789062 C 75.757812 105.789062 75.054688 105.3125 74.738281 104.621094 C 74.417969 105.3125 73.714844 105.789062 72.910156 105.789062 C 72.203125 105.789062 71.59375 105.425781 71.230469 104.882812 C 70.867188 105.4375 70.242188 105.800781 69.539062 105.800781 C 68.425781 105.800781 67.527344 104.894531 67.527344 103.78125 C 67.527344 103.085938 67.867188 102.484375 68.402344 102.121094 C 67.878906 101.757812 67.527344 101.15625 67.527344 100.464844 C 67.527344 99.769531 67.867188 99.167969 68.402344 98.804688 C 67.878906 98.441406 67.527344 97.828125 67.527344 97.148438 C 67.527344 96.457031 67.878906 95.851562 68.402344 95.488281 C 67.878906 95.125 67.527344 94.523438 67.527344 93.832031 C 67.527344 93.152344 67.867188 92.539062 68.390625 92.175781 C 67.867188 91.808594 67.527344 91.207031 67.527344 90.515625 C 67.527344 89.835938 67.867188 89.234375 68.390625 88.859375 C 67.867188 88.496094 67.527344 87.890625 67.527344 87.199219 C 67.527344 86.507812 67.867188 85.90625 68.402344 85.542969 C 67.878906 85.179688 67.527344 84.566406 67.527344 83.882812 C 67.527344 82.769531 68.425781 81.863281 69.539062 81.863281 Z M 69.539062 81.863281 " fill-opacity="1" fill-rule="nonzero"/></g><g clip-path="url(#60bb3e96f1)"><path fill="#ffffff" d="M 29.511719 29.511719 L 120.261719 29.511719 L 120.261719 120.261719 L 29.511719 120.261719 Z M 29.511719 29.511719 " fill-opacity="1" fill-rule="evenodd"/></g><path fill="#2767b0" d="M 57.429688 54.972656 C 57.429688 45.308594 65.246094 37.488281 74.910156 37.488281 C 84.53125 37.488281 92.394531 45.308594 92.394531 54.972656 C 92.394531 64.589844 84.53125 72.410156 74.910156 72.410156 C 65.246094 72.410156 57.429688 64.589844 57.429688 54.972656 Z M 65.105469 51.84375 L 66.859375 53.265625 L 74.105469 47.15625 C 74.769531 46.632812 75.621094 46.351562 76.523438 46.351562 C 77.421875 46.351562 78.277344 46.683594 78.988281 47.203125 L 88.128906 54.640625 L 88.128906 56.347656 L 80.027344 49.808594 C 79.414062 49.335938 78.703125 49.097656 77.898438 49.097656 C 77.09375 49.097656 76.332031 49.382812 75.71875 49.855469 L 75.621094 49.902344 L 75.574219 49.949219 C 74.816406 50.613281 71.074219 53.742188 69.179688 55.304688 L 69.226562 55.304688 C 69.605469 55.921875 70.601562 56.015625 71.5 55.496094 L 71.546875 55.496094 C 73.585938 53.742188 75.433594 52.179688 75.621094 51.988281 C 76.191406 51.515625 76.902344 51.183594 77.660156 51.183594 C 78.417969 51.183594 79.082031 51.46875 79.601562 51.894531 L 85.429688 56.632812 L 87.136719 58.054688 L 88.128906 58.859375 L 87.941406 58.90625 L 88.128906 59.09375 C 88.128906 59.09375 80.40625 65.679688 78.464844 67.339844 C 77.515625 68.335938 76.144531 68.949219 74.628906 68.949219 C 73.253906 68.949219 71.925781 68.429688 70.980469 67.53125 L 61.363281 59.710938 L 61.363281 57.292969 L 70.933594 65.066406 C 71.597656 65.539062 72.355469 65.824219 73.253906 65.824219 C 74.152344 65.824219 75.007812 65.492188 75.671875 64.96875 C 76.050781 64.636719 81.828125 59.710938 84.433594 57.53125 L 82.730469 56.109375 L 75.433594 62.269531 C 74.722656 62.742188 73.917969 63.027344 73.015625 63.027344 C 72.070312 63.027344 71.214844 62.742188 70.503906 62.175781 L 61.363281 54.734375 L 61.363281 53.03125 L 69.511719 59.617188 C 70.078125 60.042969 70.789062 60.328125 71.597656 60.328125 C 72.449219 60.328125 73.207031 60.042969 73.777344 59.570312 L 73.871094 59.472656 L 73.917969 59.425781 C 74.722656 58.761719 78.417969 55.683594 80.3125 54.074219 L 80.265625 54.074219 L 80.265625 54.023438 L 79.792969 53.691406 C 79.316406 53.457031 78.65625 53.550781 78.039062 53.882812 C 77.992188 53.882812 77.992188 53.929688 77.992188 53.882812 C 75.953125 55.636719 74.058594 57.199219 73.871094 57.390625 C 73.347656 57.910156 72.589844 58.195312 71.832031 58.195312 C 71.121094 58.195312 70.457031 57.957031 69.890625 57.53125 L 64.109375 52.699219 L 64.0625 52.746094 L 62.402344 51.371094 L 61.929688 50.851562 L 61.363281 50.378906 L 61.457031 50.378906 L 61.363281 50.28125 C 61.363281 50.28125 69.085938 43.695312 71.027344 42.039062 C 72.023438 41.042969 73.347656 40.425781 74.863281 40.425781 C 76.285156 40.425781 77.566406 40.996094 78.511719 41.847656 L 88.132812 49.714844 L 88.132812 52.132812 L 78.5625 44.3125 C 77.898438 43.839844 77.140625 43.554688 76.285156 43.554688 C 75.367188 43.554688 74.546875 43.839844 73.824219 44.40625 C 73.445312 44.738281 67.710938 49.667969 65.105469 51.84375 Z M 113.90625 82.59375 C 113.8125 81.980469 113.527344 81.222656 113.007812 80.273438 L 114.144531 79.941406 C 114.617188 80.699219 114.902344 81.554688 115.042969 82.59375 L 118.929688 82.59375 L 118.929688 83.78125 L 109.359375 83.78125 L 109.359375 82.59375 Z M 99.359375 83.78125 C 99.074219 83.636719 98.128906 83.117188 96.847656 82.644531 L 97.609375 82.027344 C 98.082031 82.171875 98.363281 82.121094 99.074219 82.453125 C 99.359375 82.40625 99.785156 81.980469 100.308594 81.554688 L 100.261719 81.460938 L 95.238281 81.460938 L 95.238281 80.417969 L 101.824219 80.417969 L 102.203125 81.222656 C 101.253906 81.980469 100.449219 82.5 100.117188 82.972656 L 100.6875 83.355469 L 99.882812 83.78125 L 103.148438 83.78125 L 103.101562 90.933594 C 103.101562 91.410156 102.722656 91.644531 102.390625 91.835938 C 102.109375 92.023438 101.777344 92.261719 101.160156 92.214844 C 101.304688 92.074219 101.066406 91.691406 100.640625 91.078125 C 101.019531 91.125 101.113281 91.125 101.351562 91.125 C 101.824219 91.125 101.730469 91.125 101.777344 91.078125 C 101.871094 90.980469 101.917969 90.886719 101.917969 90.699219 L 101.917969 89.417969 L 99.597656 89.417969 L 99.597656 91.785156 L 98.460938 91.976562 L 98.460938 89.417969 L 95.902344 89.417969 L 95.902344 91.976562 L 94.71875 91.976562 L 94.71875 83.78125 Z M 110.351562 93.492188 L 110.351562 89.324219 L 118.171875 89.324219 L 118.171875 93.492188 Z M 118.125 87.050781 L 118.125 88.234375 L 110.351562 88.234375 L 110.351562 87.050781 Z M 118.125 84.964844 L 118.125 86.148438 L 110.351562 86.148438 L 110.351562 84.964844 Z M 107.511719 85.535156 L 107.460938 85.535156 C 106.941406 86.246094 106.65625 86.957031 105.992188 88.089844 L 105.140625 86.667969 C 106.609375 85.058594 107.558594 83.023438 108.503906 79.988281 L 110.117188 80.890625 C 110.023438 81.222656 109.878906 80.9375 109.453125 81.460938 C 109.453125 81.460938 108.835938 82.925781 108.742188 83.542969 L 108.742188 94.0625 L 107.511719 94.0625 Z M 117.035156 90.367188 L 111.441406 90.367188 L 111.492188 92.261719 L 117.035156 92.261719 Z M 101.917969 88.472656 L 101.917969 87.285156 L 99.597656 87.285156 L 99.597656 88.472656 Z M 95.902344 88.472656 L 98.460938 88.472656 L 98.460938 87.285156 L 95.902344 87.285156 Z M 98.460938 86.101562 L 98.460938 84.917969 L 95.902344 84.917969 L 95.902344 86.101562 Z M 101.917969 86.101562 L 101.917969 84.917969 L 99.597656 84.917969 L 99.597656 86.101562 Z M 90.972656 81.363281 L 92.0625 80.605469 C 92.773438 81.460938 93.4375 82.121094 94.054688 83.070312 L 93.011719 83.78125 C 92.347656 82.738281 91.828125 82.074219 90.972656 81.363281 Z M 91.023438 93.96875 L 89.929688 92.972656 C 90.40625 92.59375 90.546875 92.167969 91.875 91.078125 L 91.875 86.101562 L 90.167969 86.101562 L 90.167969 85.011719 L 93.058594 85.011719 L 93.058594 91.171875 C 93.628906 91.789062 94.292969 92.214844 95.050781 92.453125 C 95.808594 92.6875 97.703125 92.78125 99.691406 92.78125 C 100.121094 92.78125 101.066406 92.6875 101.492188 92.640625 L 104.429688 92.546875 C 103.957031 92.972656 103.957031 93.445312 103.863281 93.921875 L 97.417969 94.015625 C 96.421875 94.015625 95.097656 93.777344 94.433594 93.589844 C 93.722656 93.351562 93.105469 92.78125 92.492188 92.121094 C 92.207031 92.308594 91.210938 93.539062 91.023438 93.96875 Z M 83.15625 88.753906 C 83.394531 87.710938 83.582031 86.8125 83.582031 86.101562 L 83.582031 84.726562 L 81.261719 84.726562 L 81.261719 83.542969 L 83.582031 83.542969 L 83.535156 79.894531 L 85.050781 80.132812 C 85.621094 80.132812 85.289062 80.417969 84.957031 80.605469 L 84.957031 83.542969 L 88.320312 83.542969 C 87.988281 88.753906 87.800781 92.117188 87.753906 92.734375 C 87.65625 93.398438 87.042969 93.96875 86.332031 93.96875 C 86.1875 93.96875 85.808594 94.015625 85.144531 93.917969 C 85.195312 93.257812 84.71875 92.828125 84.578125 92.449219 C 84.765625 92.449219 85.335938 92.546875 85.667969 92.59375 C 86.328125 92.640625 86.378906 92.308594 86.472656 91.738281 C 86.613281 91.21875 86.660156 90.367188 86.757812 88.945312 C 86.804688 87.570312 86.851562 86.007812 86.945312 84.679688 L 84.816406 84.726562 C 84.816406 87.472656 84.433594 89.703125 83.582031 91.125 C 82.824219 92.496094 81.972656 93.539062 80.457031 94.441406 L 78.9375 93.398438 C 79.886719 93.160156 80.929688 92.496094 81.449219 91.929688 C 81.449219 91.929688 82.683594 90.652344 83.15625 88.753906 Z M 79.933594 91.785156 C 79.792969 91.457031 79.746094 91.265625 79.601562 90.980469 C 77.519531 91.550781 77.328125 91.503906 76.144531 91.929688 L 75.621094 92.496094 L 74.675781 90.792969 C 74.816406 90.652344 75.246094 90.652344 75.386719 90.460938 C 75.71875 90.082031 75.765625 89.84375 75.953125 89.085938 C 76.097656 88.140625 76.429688 87.050781 76.570312 86.054688 L 74.722656 86.054688 L 74.722656 84.871094 L 80.976562 84.871094 L 80.976562 86.054688 L 77.804688 86.054688 C 77.378906 87.902344 76.855469 90.601562 76.855469 90.601562 L 79.320312 89.988281 C 79.222656 89.84375 79.035156 88.613281 78.65625 87.855469 L 79.699219 87.476562 C 80.078125 88.421875 80.929688 90.273438 81.261719 91.410156 Z M 75.195312 82.785156 L 75.195312 81.648438 L 80.644531 81.648438 L 80.644531 82.785156 Z M 59.324219 84.445312 L 61.835938 84.445312 L 61.835938 82.59375 C 61.457031 82.644531 60.886719 82.738281 60.035156 82.878906 L 59.324219 81.789062 C 61.503906 81.554688 62.925781 81.128906 64.109375 80.511719 L 65.058594 81.601562 C 64.25 81.980469 63.539062 82.121094 63.066406 82.265625 L 63.066406 84.445312 L 65.058594 84.445312 L 65.058594 85.582031 L 63.066406 85.582031 L 63.066406 86.433594 L 63.257812 86.289062 C 63.492188 86.574219 64.441406 87.429688 65.058594 88.28125 L 64.347656 89.230469 C 63.824219 88.472656 63.492188 87.667969 63.066406 87.378906 L 63.066406 94.441406 L 61.835938 94.441406 L 61.835938 88.042969 L 61.785156 88.042969 C 61.457031 88.800781 60.886719 89.703125 60.082031 90.652344 C 59.988281 90.746094 59.890625 91.21875 59.796875 91.3125 L 58.898438 90.128906 C 60.316406 88.660156 61.171875 87.191406 61.738281 86.007812 C 61.785156 85.863281 61.785156 85.769531 61.785156 85.578125 L 59.324219 85.578125 Z M 68.230469 81.742188 L 72.304688 81.742188 L 72.636719 82.121094 C 72.542969 82.453125 72.496094 82.550781 72.496094 82.738281 C 71.644531 85.25 69.179688 86.765625 65.53125 87.902344 L 65.292969 87.285156 L 64.726562 86.765625 C 66.195312 86.578125 67.238281 86.148438 68.136719 85.675781 C 68.042969 85.15625 67.566406 84.777344 66.859375 84.492188 L 67.710938 83.78125 C 68.230469 84.066406 68.753906 84.539062 69.132812 85.15625 C 70.128906 84.398438 70.835938 83.6875 71.265625 82.929688 L 67.710938 82.929688 C 66.90625 83.6875 66.621094 84.207031 66.003906 84.964844 L 64.914062 84.300781 C 66.003906 83.210938 66.808594 81.980469 67.519531 80.558594 C 67.519531 80.558594 67.472656 79.800781 68.089844 80.132812 C 68.457031 80.300781 68.820312 80.476562 69.179688 80.65625 C 69.179688 80.890625 68.847656 80.84375 68.707031 81.078125 C 68.5625 81.269531 68.277344 81.695312 68.230469 81.742188 Z M 69.464844 87.761719 L 73.253906 87.761719 C 72.921875 89.511719 72.023438 91.078125 70.503906 92.402344 C 68.515625 94.0625 67.710938 93.917969 65.152344 94.441406 C 64.628906 94.488281 64.960938 93.636719 64.347656 93.160156 C 66.714844 93.019531 67.710938 92.828125 68.847656 92.074219 C 68.5625 91.550781 68.042969 91.21875 67.425781 90.746094 L 68.277344 89.988281 C 68.753906 90.175781 69.367188 90.839844 69.746094 91.550781 C 70.933594 90.414062 71.214844 89.84375 71.738281 88.753906 L 68.609375 88.753906 C 67.710938 89.5625 66.953125 90.175781 65.671875 90.886719 L 65.390625 90.507812 L 64.632812 90.035156 C 65.769531 89.703125 68.46875 87.808594 69.320312 86.242188 L 70.648438 86.433594 C 70.789062 86.71875 70.457031 86.765625 70.128906 86.859375 Z M 51.363281 90.273438 L 54.964844 90.273438 L 54.964844 91.363281 L 46.769531 91.363281 L 46.769531 90.273438 L 50.179688 90.273438 L 50.179688 87.523438 L 47.429688 87.523438 L 47.429688 86.433594 L 50.179688 86.433594 L 50.179688 84.726562 L 46.957031 84.726562 L 46.957031 83.636719 L 54.726562 83.636719 L 54.726562 84.726562 L 51.363281 84.726562 L 51.363281 86.433594 L 54.347656 86.433594 L 54.347656 87.523438 L 51.363281 87.523438 Z M 55.769531 82.171875 L 46.011719 82.171875 L 46.011719 92.78125 L 55.769531 92.78125 Z M 44.777344 94.015625 L 44.777344 80.984375 L 56.90625 80.984375 L 56.90625 94.015625 Z M 52.027344 88.328125 L 52.738281 87.855469 C 53.6875 88.421875 54.113281 88.707031 54.539062 89.371094 L 53.589844 89.941406 C 52.976562 89.085938 52.738281 88.707031 52.027344 88.328125 Z M 37.339844 89.132812 L 41.273438 89.132812 L 41.273438 84.300781 L 37.339844 84.300781 Z M 32.175781 90.222656 L 30.894531 90.222656 L 30.894531 83.117188 L 36.105469 83.117188 L 36.105469 81.125 C 36.105469 81.125 35.445312 80.039062 35.964844 80.132812 C 36.863281 80.320312 37.054688 80.273438 37.480469 80.417969 C 37.8125 80.464844 37.339844 81.128906 37.339844 81.128906 L 37.339844 83.117188 L 42.550781 83.117188 L 42.550781 90.222656 L 37.339844 90.222656 L 37.386719 94.773438 L 36.058594 94.773438 L 36.109375 90.222656 Z M 32.128906 89.132812 L 36.105469 89.132812 L 36.105469 84.300781 L 32.128906 84.300781 Z M 118.457031 106.808594 L 118.457031 105.574219 L 113.8125 105.574219 L 113.8125 102.78125 L 118.457031 102.78125 L 118.457031 101.546875 L 113.8125 101.546875 L 113.8125 98.847656 L 118.457031 98.847656 L 118.457031 97.617188 L 112.484375 97.617188 L 112.484375 106.808594 Z M 112.058594 106.808594 L 112.058594 105.574219 L 108.03125 105.574219 L 108.03125 97.613281 L 106.703125 97.613281 L 106.703125 106.804688 L 112.058594 106.804688 Z M 105.425781 106.808594 L 105.425781 97.613281 L 104.050781 97.613281 L 104.050781 106.804688 L 105.425781 106.804688 Z M 97.226562 102.6875 L 99.835938 102.6875 C 100.308594 102.6875 100.925781 102.6875 101.351562 103.253906 C 101.539062 103.492188 101.683594 103.820312 101.683594 104.152344 C 101.683594 104.628906 101.351562 105.574219 100.023438 105.574219 L 97.230469 105.574219 L 97.230469 102.6875 Z M 95.855469 106.808594 L 99.976562 106.808594 C 102.488281 106.808594 103.007812 105.054688 103.007812 104.152344 C 103.007812 102.730469 102.015625 102.117188 101.632812 101.925781 C 101.964844 101.644531 102.488281 101.167969 102.488281 100.175781 C 102.488281 99.511719 102.203125 97.613281 99.597656 97.613281 L 95.855469 97.613281 Z M 97.226562 98.847656 L 99.597656 98.847656 C 99.882812 98.847656 101.113281 98.847656 101.113281 100.175781 C 101.113281 100.695312 100.925781 101.453125 99.644531 101.453125 L 97.226562 101.453125 Z M 93.675781 102.257812 C 93.675781 103.679688 92.585938 105.765625 90.214844 105.765625 C 87.894531 105.765625 86.804688 103.726562 86.804688 102.210938 C 86.804688 100.742188 87.894531 98.703125 90.214844 98.703125 C 92.539062 98.703125 93.675781 100.648438 93.675781 102.257812 Z M 95.003906 102.257812 C 95.003906 99.605469 92.964844 97.472656 90.21875 97.472656 C 87.421875 97.472656 85.480469 99.746094 85.480469 102.210938 C 85.480469 104.722656 87.515625 106.949219 90.21875 106.949219 C 92.964844 106.949219 95.003906 104.722656 95.003906 102.257812 Z M 84.578125 106.808594 L 84.578125 97.613281 L 82.96875 97.613281 L 79.648438 104.675781 L 76.144531 97.613281 L 74.582031 97.613281 L 74.582031 106.804688 L 75.90625 106.804688 L 75.90625 99.890625 L 79.035156 106.804688 L 80.125 106.804688 L 83.203125 99.890625 L 83.25 99.890625 L 83.25 106.804688 L 84.578125 106.804688 Z M 70.742188 106.808594 L 66.621094 97.617188 L 65.292969 97.617188 L 61.125 106.808594 L 62.6875 106.808594 L 63.875 104.105469 L 67.996094 104.105469 L 69.179688 106.808594 Z M 64.441406 102.875 L 65.910156 99.367188 L 65.957031 99.367188 L 67.472656 102.875 Z M 60.886719 106.808594 L 60.886719 97.613281 L 59.464844 97.613281 L 59.464844 104.628906 L 59.417969 104.628906 L 53.78125 97.613281 L 52.5 97.613281 L 52.5 106.804688 L 53.921875 106.804688 L 53.921875 99.699219 L 53.96875 99.699219 L 59.609375 106.804688 L 60.886719 106.804688 Z M 50.9375 106.808594 L 50.9375 97.613281 L 49.609375 97.613281 L 49.609375 106.804688 L 50.9375 106.804688 Z M 48.238281 106.808594 L 48.238281 97.613281 L 46.863281 97.613281 L 46.863281 101.359375 L 41.652344 101.359375 L 41.652344 97.613281 L 40.324219 97.613281 L 40.324219 106.804688 L 41.652344 106.804688 L 41.652344 102.398438 L 46.863281 102.398438 L 46.863281 106.804688 L 48.238281 106.804688 Z M 39.753906 99.984375 C 39.519531 99.558594 39.1875 98.941406 38.335938 98.375 C 37.339844 97.617188 36.25 97.472656 35.539062 97.472656 C 32.980469 97.472656 30.847656 99.511719 30.847656 102.164062 C 30.847656 104.769531 32.933594 106.949219 35.539062 106.949219 C 36.960938 106.949219 38.664062 106.332031 39.707031 104.53125 L 38.050781 104.53125 C 37.433594 105.292969 36.535156 105.765625 35.539062 105.765625 C 33.738281 105.765625 32.175781 104.152344 32.175781 102.210938 C 32.175781 100.269531 33.691406 98.703125 35.585938 98.703125 C 37.054688 98.703125 37.859375 99.652344 38.144531 99.984375 Z M 39.753906 99.984375 " fill-opacity="1" fill-rule="evenodd"/></svg>