<svg xmlns="http://www.w3.org/2000/svg" xmlns:xlink="http://www.w3.org/1999/xlink" width="200" zoomAndPan="magnify" viewBox="0 0 150 149.999998" height="200" preserveAspectRatio="xMidYMid meet" version="1.0"><defs><clipPath id="3e447dd61d"><path d="M 21 33.652344 L 56 33.652344 L 56 65 L 21 65 Z M 21 33.652344 " clip-rule="nonzero"/></clipPath><clipPath id="a765efb95f"><path d="M 13 75 L 136.730469 75 L 136.730469 116.152344 L 13 116.152344 Z M 13 75 " clip-rule="nonzero"/></clipPath></defs><g clip-path="url(#3e447dd61d)"><path fill="#da1b1b" d="M 21.132812 33.914062 C 21.132812 34.148438 22.863281 37.652344 23.070312 37.832031 C 23.113281 37.875 23.289062 38.148438 23.46875 38.453125 C 23.648438 38.753906 23.949219 39.152344 24.113281 39.34375 C 24.292969 39.539062 24.429688 39.730469 24.429688 39.769531 C 24.429688 39.8125 24.554688 40.003906 24.71875 40.183594 C 24.871094 40.363281 25.324219 40.882812 25.710938 41.339844 C 27.484375 43.398438 30.039062 45.792969 32.746094 47.910156 C 32.828125 47.964844 33.035156 48.128906 33.214844 48.28125 C 33.394531 48.429688 33.585938 48.554688 33.628906 48.554688 C 33.667969 48.554688 33.875 48.691406 34.054688 48.855469 C 34.546875 49.296875 35.042969 49.640625 37.640625 51.371094 C 40.046875 52.964844 40.085938 53.007812 41.0625 53.585938 C 41.40625 53.792969 41.765625 54.050781 41.859375 54.148438 C 41.957031 54.246094 42.109375 54.328125 42.175781 54.328125 C 42.273438 54.328125 43.660156 55.109375 44.363281 55.566406 C 44.472656 55.648438 44.71875 55.785156 44.910156 55.867188 C 45.40625 56.113281 48.15625 57.777344 48.96875 58.328125 C 51.304688 59.894531 54.257812 62.574219 55.152344 63.90625 C 55.523438 64.472656 55.769531 64.648438 55.769531 64.347656 C 55.769531 64.167969 55.207031 63.136719 54.988281 62.878906 C 54.890625 62.78125 54.808594 62.628906 54.808594 62.5625 C 54.808594 62.410156 53.984375 61.0625 53.738281 60.800781 C 53.640625 60.691406 53.449219 60.445312 53.324219 60.25 C 52.953125 59.6875 52.5 59.179688 51.097656 57.765625 C 49.40625 56.085938 49.214844 55.9375 46.835938 54.164062 C 45.738281 53.351562 44.789062 52.636719 44.707031 52.566406 C 44.636719 52.511719 44.320312 52.308594 44.019531 52.128906 C 43.714844 51.949219 43.441406 51.757812 43.398438 51.714844 C 43.359375 51.675781 43.082031 51.480469 42.78125 51.304688 C 42.480469 51.125 41.613281 50.574219 40.855469 50.078125 C 39.332031 49.078125 39.070312 48.910156 38.628906 48.679688 C 38.453125 48.582031 38.3125 48.457031 38.3125 48.390625 C 38.3125 48.335938 38.246094 48.28125 38.175781 48.28125 C 38.09375 48.28125 37.765625 48.085938 37.449219 47.851562 C 36.914062 47.46875 35.261719 46.300781 34.699219 45.914062 C 34.546875 45.820312 34.3125 45.625 34.164062 45.488281 C 34 45.367188 33.832031 45.253906 33.792969 45.253906 C 33.75 45.253906 33.558594 45.117188 33.367188 44.9375 C 33.171875 44.773438 32.636719 44.335938 32.171875 43.976562 C 31.703125 43.621094 31.234375 43.25 31.140625 43.152344 C 31.042969 43.054688 30.617188 42.710938 30.203125 42.382812 C 28.429688 40.996094 22.382812 35.195312 21.777344 34.300781 C 21.515625 33.914062 21.132812 33.683594 21.132812 33.914062 Z M 21.132812 33.914062 " fill-opacity="1" fill-rule="nonzero"/></g><path fill="#da1b1b" d="M 34.027344 36.402344 C 33.914062 36.511719 34.066406 37.007812 34.203125 37.007812 C 34.273438 37.007812 34.328125 37.078125 34.328125 37.171875 C 34.328125 37.378906 35.316406 39.359375 35.539062 39.59375 C 35.621094 39.6875 35.703125 39.824219 35.703125 39.894531 C 35.703125 40.074219 36.882812 41.777344 37.460938 42.425781 C 38.835938 43.964844 41.339844 46.285156 42.300781 46.917969 C 42.492188 47.042969 42.835938 47.316406 43.054688 47.507812 C 43.289062 47.714844 43.714844 48.046875 44.019531 48.25 C 44.320312 48.457031 44.691406 48.734375 44.828125 48.855469 C 44.980469 48.996094 45.351562 49.269531 45.652344 49.476562 C 45.96875 49.695312 46.339844 49.96875 46.480469 50.09375 C 46.628906 50.230469 47 50.507812 47.304688 50.710938 C 47.621094 50.917969 47.894531 51.125 47.9375 51.164062 C 47.976562 51.207031 48.445312 51.578125 48.96875 51.992188 C 49.503906 52.402344 49.996094 52.800781 50.082031 52.882812 C 50.164062 52.953125 50.710938 53.449219 51.304688 53.984375 C 53.308594 55.785156 54.851562 57.460938 55.785156 58.863281 C 56.691406 60.238281 57.050781 60.84375 57.859375 62.410156 C 58.285156 63.261719 58.917969 64.390625 59.234375 64.925781 C 59.566406 65.460938 59.976562 66.148438 60.15625 66.464844 C 60.335938 66.78125 60.566406 67.125 60.679688 67.21875 C 60.773438 67.316406 60.855469 67.46875 60.855469 67.535156 C 60.855469 67.605469 60.925781 67.742188 60.992188 67.839844 C 61.078125 67.933594 61.722656 68.898438 62.449219 69.996094 C 64.773438 73.515625 67.964844 76.320312 71.097656 77.570312 C 72.582031 78.160156 75.6875 78.394531 79.757812 78.21875 C 82.589844 78.105469 85.832031 78.1875 86.394531 78.394531 C 86.574219 78.464844 86.972656 78.519531 87.289062 78.519531 C 87.605469 78.53125 88.113281 78.617188 88.417969 78.726562 C 88.71875 78.835938 89.089844 78.933594 89.242188 78.933594 C 89.390625 78.933594 89.695312 79.027344 89.914062 79.136719 C 90.121094 79.246094 90.394531 79.34375 90.503906 79.34375 C 90.726562 79.34375 91.480469 79.675781 93.226562 80.527344 C 95.742188 81.777344 97.777344 83.261719 99.921875 85.417969 C 101.351562 86.863281 101.40625 86.902344 101.488281 86.546875 C 101.597656 86.121094 101.460938 84.664062 101.28125 84.332031 C 101.214844 84.195312 101.007812 83.769531 100.828125 83.398438 C 100.484375 82.628906 99.839844 81.707031 98.875 80.59375 C 98.503906 80.140625 98.246094 79.703125 98.246094 79.507812 C 98.246094 78.945312 97.707031 78.066406 97.074219 77.597656 C 96.277344 77.007812 93.832031 75.769531 93.460938 75.769531 C 93.390625 75.769531 93.144531 75.675781 92.9375 75.5625 C 92.71875 75.453125 92.429688 75.359375 92.292969 75.359375 C 92.167969 75.359375 91.949219 75.304688 91.8125 75.234375 C 91.6875 75.164062 91.109375 74.972656 90.546875 74.808594 C 88.664062 74.246094 87.453125 73.820312 87.027344 73.558594 C 86.574219 73.28125 86.148438 72.566406 86.148438 72.085938 C 86.148438 71.730469 86.671875 70.105469 86.835938 69.941406 C 86.917969 69.859375 86.972656 69.707031 86.972656 69.597656 C 86.972656 69.476562 87.054688 69.214844 87.164062 69.007812 C 87.273438 68.816406 87.425781 68.210938 87.523438 67.675781 C 87.976562 65.007812 86.53125 63.304688 81.886719 60.980469 C 81.269531 60.679688 80.140625 60.167969 79.621094 59.949219 C 79.46875 59.894531 79.054688 59.714844 78.699219 59.5625 C 78.339844 59.398438 77.957031 59.277344 77.847656 59.277344 C 77.734375 59.277344 77.597656 59.207031 77.558594 59.136719 C 77.515625 59.054688 77.378906 59 77.253906 59 C 77.144531 59 76.855469 58.917969 76.621094 58.808594 C 76.375 58.699219 75.191406 58.285156 73.984375 57.902344 C 72.773438 57.503906 71.6875 57.132812 71.5625 57.078125 C 71.441406 57.007812 71.097656 56.910156 70.808594 56.855469 C 70.507812 56.816406 70.21875 56.71875 70.136719 56.664062 C 70.066406 56.609375 69.777344 56.511719 69.515625 56.472656 C 69.253906 56.417969 68.910156 56.320312 68.761719 56.25 C 68.609375 56.195312 68.210938 56.074219 67.867188 55.976562 C 67.523438 55.894531 67 55.757812 66.699219 55.6875 C 66.394531 55.605469 66.023438 55.480469 65.875 55.425781 C 65.722656 55.359375 65.378906 55.261719 65.117188 55.207031 C 64.855469 55.164062 64.554688 55.070312 64.429688 55.015625 C 64.320312 54.960938 63.757812 54.765625 63.195312 54.601562 C 62.628906 54.4375 62.066406 54.257812 61.957031 54.203125 C 61.832031 54.136719 61.53125 54.039062 61.269531 53.984375 C 61.007812 53.929688 60.734375 53.847656 60.652344 53.792969 C 60.582031 53.738281 60.046875 53.542969 59.480469 53.363281 C 58.917969 53.199219 58.394531 53.007812 58.3125 52.953125 C 58.246094 52.898438 57.777344 52.71875 57.28125 52.539062 C 56.789062 52.363281 56.335938 52.167969 56.265625 52.101562 C 56.183594 52.046875 56.046875 51.992188 55.9375 51.992188 C 55.660156 51.992188 54.367188 51.398438 51.097656 49.804688 C 48.800781 48.679688 46.683594 47.523438 46.21875 47.152344 C 46.148438 47.097656 45.585938 46.726562 44.980469 46.328125 C 44.375 45.929688 43.824219 45.558594 43.742188 45.503906 C 43.675781 45.449219 43.027344 44.964844 42.3125 44.429688 C 39.828125 42.574219 36.210938 39.097656 34.683594 37.078125 C 34.398438 36.691406 34.148438 36.375 34.136719 36.347656 C 34.109375 36.335938 34.066406 36.363281 34.027344 36.402344 Z M 95.496094 78.050781 C 96.898438 78.519531 97.351562 78.875 97.679688 79.714844 C 98.011719 80.527344 97.460938 80.71875 96.789062 80.015625 C 96.566406 79.785156 96.167969 79.46875 95.90625 79.304688 C 95.644531 79.136719 95.34375 78.933594 95.246094 78.835938 C 95.152344 78.738281 94.988281 78.65625 94.875 78.65625 C 94.699219 78.65625 94.53125 78.367188 94.53125 78.023438 C 94.53125 77.777344 94.726562 77.777344 95.496094 78.050781 Z M 24.15625 45.0625 C 24.15625 45.214844 25.324219 47.523438 25.53125 47.769531 C 25.613281 47.867188 25.902344 48.238281 26.175781 48.621094 C 27.179688 49.96875 28.746094 51.578125 30.835938 53.363281 C 31.359375 53.820312 32.789062 54.890625 33.242188 55.179688 C 33.433594 55.304688 33.683594 55.496094 33.792969 55.59375 C 33.902344 55.703125 34.230469 55.9375 34.535156 56.113281 C 34.835938 56.292969 35.113281 56.484375 35.152344 56.527344 C 35.234375 56.636719 39.289062 59.042969 40.582031 59.757812 C 41.597656 60.335938 42.699219 60.882812 46.5625 62.765625 C 48.828125 63.878906 49.253906 64.101562 50.917969 65.105469 C 52.167969 65.859375 54.175781 67.425781 55.179688 68.429688 C 55.742188 68.992188 56.222656 69.449219 56.253906 69.449219 C 56.292969 69.449219 56.238281 69.296875 56.15625 69.105469 C 56.074219 68.910156 55.949219 68.761719 55.878906 68.761719 C 55.824219 68.761719 55.769531 68.675781 55.769531 68.582031 C 55.769531 68.472656 55.648438 68.238281 55.496094 68.058594 C 55.34375 67.878906 55.179688 67.660156 55.125 67.589844 C 54.121094 66.273438 53.296875 65.476562 50.765625 63.332031 C 50.425781 63.027344 48.15625 61.488281 47.097656 60.828125 C 46.257812 60.292969 44.570312 59.34375 42.851562 58.421875 C 42.4375 58.191406 42.039062 57.957031 41.957031 57.902344 C 41.832031 57.804688 41.242188 57.488281 39.277344 56.417969 C 38.039062 55.757812 34.90625 53.820312 34.398438 53.40625 C 34.328125 53.335938 34.011719 53.132812 33.710938 52.953125 C 33.40625 52.773438 33.105469 52.566406 33.023438 52.511719 C 32.953125 52.457031 32.210938 51.90625 31.371094 51.289062 C 30.546875 50.671875 29.832031 50.121094 29.792969 50.078125 C 29.75 50.023438 29.421875 49.75 29.035156 49.460938 C 28.265625 48.882812 27.277344 47.976562 25.433594 46.164062 C 24.734375 45.476562 24.15625 44.980469 24.15625 45.0625 Z M 39.769531 69.679688 C 39.632812 69.820312 41.941406 71.960938 43.46875 73.105469 C 44.226562 73.667969 44.910156 74.175781 44.980469 74.230469 C 45.339844 74.503906 46.574219 75.21875 46.683594 75.21875 C 46.753906 75.21875 46.90625 75.304688 47 75.386719 C 47.097656 75.480469 47.398438 75.660156 47.660156 75.796875 C 49.488281 76.664062 50.273438 77.007812 50.464844 77.007812 C 50.574219 77.007812 50.699219 77.0625 50.738281 77.117188 C 50.851562 77.296875 55.179688 78.65625 55.660156 78.65625 C 55.796875 78.65625 56.019531 78.710938 56.15625 78.792969 C 56.28125 78.863281 56.664062 78.988281 57.007812 79.054688 C 58.203125 79.316406 58.863281 79.480469 59.136719 79.605469 C 59.289062 79.675781 59.878906 79.867188 60.445312 80.046875 C 61.007812 80.222656 61.53125 80.402344 61.613281 80.472656 C 61.679688 80.527344 61.820312 80.582031 61.929688 80.582031 C 62.039062 80.582031 62.3125 80.664062 62.546875 80.773438 C 64.800781 81.75 65.40625 81.984375 65.488281 81.914062 C 65.53125 81.859375 65.394531 81.679688 65.171875 81.515625 C 64.828125 81.242188 64.222656 80.703125 62.917969 79.480469 C 62.710938 79.289062 62.339844 78.960938 62.09375 78.738281 C 61.40625 78.148438 58.519531 76.003906 57.902344 75.632812 C 57.597656 75.453125 57.324219 75.261719 57.28125 75.21875 C 57.242188 75.164062 57.117188 75.082031 57.007812 75.027344 C 56.898438 74.972656 56.429688 74.726562 55.976562 74.464844 C 55.125 73.96875 53.378906 73.105469 52.402344 72.691406 C 52.101562 72.566406 51.757812 72.402344 51.648438 72.347656 C 51.523438 72.277344 51.234375 72.183594 50.988281 72.140625 C 50.753906 72.085938 50.519531 71.976562 50.480469 71.90625 C 50.425781 71.839844 50.257812 71.785156 50.09375 71.785156 C 49.792969 71.796875 49.792969 71.796875 50.066406 71.949219 C 50.21875 72.03125 50.367188 72.140625 50.410156 72.195312 C 50.453125 72.238281 50.753906 72.445312 51.097656 72.648438 C 51.824219 73.074219 53.160156 74.257812 53.160156 74.476562 C 53.160156 74.5625 53.0625 74.710938 52.953125 74.808594 C 52.789062 74.945312 52.390625 74.933594 50.960938 74.753906 C 49.96875 74.628906 49.023438 74.464844 48.855469 74.394531 C 48.691406 74.339844 48.210938 74.175781 47.796875 74.050781 C 45.652344 73.40625 41.339844 71.015625 40.085938 69.789062 C 39.964844 69.679688 39.828125 69.625 39.769531 69.679688 Z M 39.769531 69.679688 " fill-opacity="1" fill-rule="nonzero"/><g clip-path="url(#a765efb95f)"><path fill="#da1b1b" d="M 63.261719 76.773438 C 65.832031 79.136719 72.417969 85.859375 72.828125 86.519531 C 72.992188 86.765625 72.800781 87.042969 72.484375 87.042969 C 72.335938 87.027344 71.949219 86.917969 71.648438 86.765625 C 71.34375 86.617188 71.054688 86.503906 71 86.492188 C 70.820312 86.492188 69.460938 85.625 69.105469 85.296875 C 68.691406 84.910156 68.472656 84.882812 68.71875 85.242188 C 69.117188 85.816406 71.109375 87.785156 72.363281 88.855469 C 72.925781 89.335938 74.421875 90.367188 74.933594 90.617188 C 75.757812 91.027344 75.839844 91.097656 75.839844 91.359375 C 75.839844 91.589844 75.769531 91.605469 75.082031 91.523438 C 74.671875 91.480469 74.328125 91.480469 74.328125 91.550781 C 74.328125 91.644531 75.136719 92.042969 76.113281 92.414062 C 76.828125 92.703125 78.820312 92.664062 79.386719 92.359375 C 79.632812 92.222656 79.976562 92.128906 80.128906 92.15625 C 80.429688 92.195312 80.457031 92.238281 80.882812 93.15625 C 81.40625 94.285156 82.617188 95.839844 82.960938 95.839844 C 83.027344 95.839844 83.164062 95.921875 83.246094 96.03125 C 83.414062 96.222656 85.296875 96.730469 85.40625 96.621094 C 85.445312 96.582031 85.1875 96.332031 84.84375 96.058594 C 83.878906 95.328125 83.414062 94.644531 83.398438 93.96875 C 83.398438 93.242188 83.703125 92.648438 84.332031 92.15625 C 85.253906 91.453125 85.820312 91.261719 87.164062 91.246094 C 88.265625 91.246094 88.484375 91.273438 88.964844 91.578125 C 89.269531 91.757812 89.597656 92.003906 89.695312 92.128906 C 89.957031 92.445312 90.410156 93.488281 90.410156 93.789062 C 90.410156 94.257812 90.671875 94.066406 90.765625 93.527344 C 90.960938 92.484375 90.902344 91.359375 90.644531 91.054688 C 90.273438 90.644531 89.269531 90.382812 87.730469 90.273438 C 85.105469 90.105469 83.769531 89.667969 82.589844 88.59375 C 81.363281 87.496094 81.417969 87.371094 83.164062 87.289062 C 84.402344 87.21875 85.460938 87 86.355469 86.628906 C 86.503906 86.558594 86.945312 86.367188 87.316406 86.214844 C 87.703125 86.050781 88.5 85.679688 89.101562 85.390625 C 91.414062 84.292969 92.828125 83.960938 95.191406 83.960938 C 96.910156 83.960938 97.363281 83.867188 96.730469 83.671875 C 96.582031 83.632812 96.457031 83.523438 96.457031 83.453125 C 96.457031 83.386719 96.402344 83.332031 96.332031 83.332031 C 96.222656 83.332031 95.042969 82.617188 94.589844 82.273438 C 94.382812 82.105469 93.613281 81.695312 92.539062 81.171875 C 92.015625 80.910156 91.46875 80.636719 91.34375 80.566406 C 91.207031 80.5 91.042969 80.445312 90.972656 80.445312 C 90.902344 80.445312 90.671875 80.375 90.449219 80.277344 C 89.886719 80.046875 88.964844 79.785156 87.867188 79.523438 C 86.464844 79.191406 81.199219 79.207031 78.863281 79.523438 C 75.386719 80.003906 74.78125 80.058594 73.160156 79.988281 C 71.496094 79.921875 70.890625 79.8125 69.242188 79.316406 C 68.238281 79.015625 68.058594 78.945312 67.164062 78.53125 C 66.820312 78.382812 66.492188 78.246094 66.449219 78.246094 C 66.394531 78.246094 65.957031 77.996094 65.460938 77.695312 C 64.964844 77.390625 64.527344 77.144531 64.5 77.144531 C 64.429688 77.144531 63.277344 76.359375 62.5625 75.8125 C 61.625 75.109375 61.96875 75.578125 63.261719 76.773438 Z M 17.0625 105.171875 C 16.265625 105.378906 15.289062 105.925781 14.644531 106.53125 C 14.027344 107.109375 13.296875 108.347656 13.296875 108.8125 C 13.296875 108.925781 13.242188 109.0625 13.160156 109.101562 C 12.996094 109.210938 12.980469 111.742188 13.144531 111.839844 C 13.203125 111.878906 13.296875 112.125 13.339844 112.386719 C 13.546875 113.640625 15.222656 115.371094 16.664062 115.8125 C 17.503906 116.070312 19.550781 116.125 19.6875 115.90625 C 19.730469 115.839844 19.894531 115.769531 20.046875 115.769531 C 20.597656 115.769531 22.230469 114.765625 22.230469 114.4375 C 22.230469 114.160156 21.972656 114.214844 21.488281 114.574219 C 21.257812 114.753906 20.84375 115 20.582031 115.125 C 20.03125 115.382812 18.410156 115.769531 18.191406 115.699219 C 18.109375 115.671875 17.695312 115.578125 17.269531 115.496094 C 15.375 115.125 13.875 113.445312 13.574219 111.371094 C 13.269531 109.226562 14.09375 107.273438 15.746094 106.230469 C 16.363281 105.84375 17.628906 105.460938 18.289062 105.460938 C 19.015625 105.460938 20.429688 105.859375 21.023438 106.230469 C 21.558594 106.574219 21.957031 106.65625 21.957031 106.421875 C 21.957031 106.242188 20.996094 105.640625 20.28125 105.390625 C 19.578125 105.144531 17.667969 105.007812 17.0625 105.171875 Z M 41.40625 105.128906 C 39.632812 105.597656 38.273438 106.628906 37.570312 108.070312 C 37.449219 108.332031 37.253906 108.992188 37.132812 109.527344 C 36.953125 110.410156 36.953125 110.628906 37.144531 111.523438 C 37.269531 112.085938 37.488281 112.8125 37.65625 113.144531 C 38.203125 114.269531 39.976562 115.769531 40.789062 115.769531 C 40.925781 115.769531 41.089844 115.824219 41.132812 115.90625 C 41.242188 116.085938 43.496094 116.085938 43.605469 115.90625 C 43.648438 115.824219 43.8125 115.769531 43.964844 115.769531 C 44.789062 115.769531 46.671875 114.203125 47.167969 113.117188 C 47.796875 111.742188 47.921875 110.355469 47.539062 108.925781 C 47.34375 108.222656 47.195312 107.921875 46.5625 107.109375 C 45.859375 106.203125 45.804688 106.160156 44.046875 105.296875 C 43.757812 105.15625 41.804688 105.035156 41.40625 105.128906 Z M 43.648438 105.679688 C 45.117188 106.105469 46.21875 107.070312 46.917969 108.554688 C 47.125 108.980469 47.179688 109.40625 47.179688 110.546875 C 47.179688 111.851562 47.140625 112.070312 46.796875 112.757812 C 46.355469 113.640625 45.351562 114.710938 44.625 115.082031 C 44.347656 115.234375 43.730469 115.441406 43.234375 115.550781 C 42.4375 115.726562 42.257812 115.726562 41.53125 115.550781 C 41.089844 115.441406 40.511719 115.246094 40.253906 115.125 C 39.523438 114.792969 38.410156 113.597656 37.96875 112.675781 C 37.613281 111.933594 37.570312 111.714844 37.570312 110.476562 C 37.570312 109.183594 37.597656 109.0625 38.027344 108.277344 C 38.273438 107.824219 38.617188 107.300781 38.769531 107.136719 C 39.332031 106.53125 40.320312 105.886719 40.910156 105.75 C 41.226562 105.679688 41.53125 105.585938 41.570312 105.542969 C 41.738281 105.378906 42.890625 105.460938 43.648438 105.679688 Z M 81.804688 105.363281 C 81.417969 105.554688 80.980469 105.871094 80.816406 106.09375 C 80.648438 106.3125 80.457031 106.558594 80.390625 106.640625 C 80.183594 106.890625 80.074219 107.894531 80.167969 108.5 C 80.277344 109.144531 81.078125 110.039062 81.886719 110.4375 C 82.148438 110.558594 82.847656 110.890625 83.441406 111.164062 C 84.03125 111.441406 84.621094 111.769531 84.746094 111.894531 C 85.144531 112.292969 85.460938 112.855469 85.460938 113.15625 C 85.460938 113.417969 85.160156 114.011719 84.84375 114.339844 C 84.582031 114.613281 83.769531 114.945312 83.34375 114.945312 C 82.628906 114.945312 81.199219 114.339844 80.910156 113.925781 C 80.761719 113.734375 80.445312 113.914062 80.113281 114.367188 L 79.824219 114.78125 L 80.5 115.207031 C 80.871094 115.425781 81.390625 115.660156 81.667969 115.714844 C 81.941406 115.753906 82.203125 115.851562 82.246094 115.921875 C 82.339844 116.085938 84.320312 116.085938 84.429688 115.921875 C 84.472656 115.851562 84.675781 115.753906 84.898438 115.699219 C 85.625 115.535156 86.464844 114.558594 86.628906 113.652344 C 86.902344 112.238281 86.230469 111.136719 84.664062 110.410156 C 82.601562 109.433594 82.300781 109.269531 81.832031 108.8125 C 81.28125 108.277344 81.226562 107.933594 81.558594 107.273438 C 81.875 106.628906 82.503906 106.242188 83.359375 106.175781 C 83.976562 106.121094 84.222656 106.175781 84.992188 106.558594 C 85.488281 106.792969 85.914062 106.972656 85.929688 106.945312 C 85.957031 106.929688 86.078125 106.710938 86.191406 106.476562 C 86.394531 106.078125 86.394531 106.023438 86.175781 105.84375 C 85.613281 105.363281 84.953125 105.15625 83.742188 105.089844 C 82.644531 105.035156 82.421875 105.074219 81.804688 105.363281 Z M 26.878906 105.28125 C 26.644531 105.335938 26.628906 105.707031 26.628906 110.558594 C 26.628906 115.398438 26.644531 115.78125 26.863281 115.742188 C 27.070312 115.699219 27.085938 115.480469 27.058594 113.542969 C 27.027344 111.507812 27.042969 111.382812 27.304688 111.246094 C 27.59375 111.082031 29.847656 111.054688 30.230469 111.207031 C 30.355469 111.261719 30.628906 111.605469 30.835938 111.988281 C 31.304688 112.839844 32.140625 114.410156 32.554688 115.179688 C 32.855469 115.753906 33.367188 116.003906 33.367188 115.5625 C 33.367188 115.453125 33.3125 115.355469 33.242188 115.355469 C 33.171875 115.355469 33.050781 115.191406 32.96875 114.972656 C 32.882812 114.765625 32.542969 114.105469 32.199219 113.5 C 31.855469 112.898438 31.511719 112.238281 31.429688 112.015625 C 31.34375 111.8125 31.222656 111.644531 31.152344 111.644531 C 31.085938 111.644531 31.027344 111.496094 31.027344 111.300781 C 31.027344 111.054688 31.125 110.917969 31.359375 110.820312 C 32.363281 110.449219 33.007812 109.378906 33.007812 108.070312 C 33.007812 107.34375 32.941406 107.070312 32.652344 106.628906 C 32.183594 105.886719 31.839844 105.597656 31.207031 105.417969 C 30.671875 105.269531 27.304688 105.15625 26.878906 105.28125 Z M 31.605469 106.1875 C 32.429688 106.820312 32.734375 107.742188 32.457031 108.785156 C 32.253906 109.613281 31.578125 110.355469 30.851562 110.558594 C 30.191406 110.753906 27.414062 110.726562 27.207031 110.519531 C 26.972656 110.285156 26.972656 106.132812 27.207031 105.898438 C 27.316406 105.789062 27.964844 105.734375 29.1875 105.734375 L 31 105.734375 Z M 57.023438 105.75 C 56.871094 106.050781 56.71875 106.492188 56.664062 106.738281 C 56.625 106.984375 56.527344 107.300781 56.457031 107.453125 C 56.402344 107.605469 56.28125 108.003906 56.183594 108.347656 C 56.101562 108.691406 55.949219 109.269531 55.839844 109.652344 C 55.414062 111.164062 55.195312 112.015625 55.054688 112.609375 C 54.988281 112.953125 54.863281 113.28125 54.796875 113.351562 C 54.726562 113.433594 54.671875 113.625 54.671875 113.789062 C 54.671875 113.96875 54.601562 114.269531 54.519531 114.492188 L 54.367188 114.875 L 54.039062 114.492188 C 53.859375 114.285156 53.710938 113.941406 53.710938 113.734375 C 53.710938 113.527344 53.640625 113.144531 53.558594 112.882812 C 53.476562 112.621094 53.324219 112.058594 53.226562 111.644531 C 53.117188 111.234375 52.9375 110.519531 52.816406 110.066406 C 52.59375 109.242188 52.335938 108.210938 52.003906 106.902344 C 51.910156 106.519531 51.785156 106.105469 51.742188 105.96875 C 51.6875 105.84375 51.621094 105.640625 51.578125 105.527344 C 51.480469 105.199219 51.234375 105.296875 51.234375 105.652344 C 51.234375 105.832031 51.359375 106.367188 51.511719 106.835938 C 51.660156 107.300781 51.785156 107.8125 51.785156 107.949219 C 51.785156 108.097656 51.839844 108.320312 51.921875 108.457031 C 51.992188 108.582031 52.113281 108.992188 52.195312 109.378906 C 52.554688 110.917969 52.679688 111.441406 52.761719 111.578125 C 52.816406 111.644531 52.882812 111.960938 52.9375 112.265625 C 52.996094 112.566406 53.089844 112.992188 53.160156 113.226562 C 53.242188 113.445312 53.433594 114.121094 53.597656 114.695312 C 53.820312 115.480469 53.957031 115.769531 54.121094 115.769531 C 54.464844 115.769531 54.765625 115.355469 54.878906 114.738281 C 54.933594 114.4375 55.015625 114.121094 55.082031 114.050781 C 55.136719 113.96875 55.25 113.640625 55.332031 113.296875 C 55.414062 112.953125 55.566406 112.332031 55.6875 111.921875 C 55.796875 111.507812 55.964844 110.890625 56.046875 110.546875 C 56.128906 110.203125 56.253906 109.832031 56.308594 109.722656 C 56.375 109.597656 56.472656 109.226562 56.527344 108.898438 C 56.582031 108.566406 56.679688 108.195312 56.746094 108.070312 C 56.800781 107.960938 56.898438 107.578125 56.9375 107.21875 C 57.035156 106.492188 57.160156 106.339844 57.515625 106.546875 C 57.667969 106.628906 57.820312 106.984375 57.914062 107.550781 C 58.09375 108.527344 58.355469 109.515625 58.519531 109.925781 C 58.589844 110.078125 58.710938 110.476562 58.792969 110.820312 C 58.878906 111.164062 59.042969 111.785156 59.152344 112.195312 C 59.277344 112.609375 59.425781 113.199219 59.496094 113.5 C 59.566406 113.804688 59.6875 114.175781 59.757812 114.324219 C 59.839844 114.476562 59.9375 114.847656 60.003906 115.152344 C 60.101562 115.632812 60.167969 115.699219 60.527344 115.742188 C 60.910156 115.78125 60.9375 115.742188 61.089844 115.125 C 61.171875 114.765625 61.351562 114.105469 61.460938 113.679688 C 61.585938 113.238281 61.777344 112.539062 61.886719 112.125 C 62.09375 111.382812 62.285156 110.667969 62.726562 109.0625 C 62.835938 108.636719 63 108.003906 63.070312 107.660156 C 63.136719 107.316406 63.261719 106.945312 63.332031 106.820312 C 63.535156 106.4375 63.648438 105.324219 63.480469 105.324219 C 63.25 105.324219 62.90625 106.296875 62.492188 108.210938 C 62.410156 108.554688 62.300781 108.953125 62.230469 109.101562 C 62.164062 109.253906 62.050781 109.652344 61.96875 109.996094 C 61.902344 110.339844 61.738281 110.957031 61.625 111.371094 C 61.515625 111.785156 61.335938 112.46875 61.226562 112.882812 C 60.925781 114.050781 60.664062 114.738281 60.527344 114.738281 C 60.390625 114.738281 60.085938 113.984375 59.796875 112.882812 C 59.6875 112.46875 59.523438 111.8125 59.414062 111.441406 C 59.316406 111.054688 59.152344 110.476562 59.070312 110.132812 C 58.988281 109.789062 58.863281 109.390625 58.792969 109.242188 C 58.683594 108.964844 58.480469 108.210938 58.21875 107.109375 C 58.136719 106.765625 58.023438 106.421875 57.96875 106.355469 C 57.914062 106.269531 57.820312 106.023438 57.777344 105.777344 C 57.625 105.117188 57.324219 105.101562 57.023438 105.75 Z M 68.183594 105.28125 L 67.867188 105.335938 L 67.867188 115.796875 L 70.519531 115.742188 C 72.953125 115.6875 73.199219 115.660156 73.777344 115.371094 C 74.421875 115.027344 75.839844 113.679688 75.839844 113.390625 C 75.839844 113.296875 75.949219 113.035156 76.074219 112.8125 C 76.265625 112.484375 76.304688 112.042969 76.304688 110.613281 C 76.320312 108.527344 76.140625 107.976562 75.054688 106.820312 C 74.300781 106.011719 73.625 105.652344 72.402344 105.378906 C 71.578125 105.199219 68.925781 105.144531 68.183594 105.28125 Z M 73.019531 105.996094 C 74.765625 106.613281 75.976562 108.46875 75.976562 110.546875 C 75.976562 112.621094 74.847656 114.4375 73.132812 115.125 C 72.304688 115.453125 69.0625 115.632812 68.582031 115.371094 C 68.277344 115.207031 68.277344 115.191406 68.277344 110.640625 C 68.277344 107.261719 68.320312 106.023438 68.445312 105.898438 C 68.554688 105.789062 69.199219 105.734375 70.4375 105.734375 C 71.894531 105.734375 72.429688 105.789062 73.019531 105.996094 Z M 89.28125 105.597656 C 89.253906 105.816406 89.28125 106.066406 89.363281 106.148438 C 89.445312 106.230469 90.21875 106.285156 91.179688 106.285156 C 92.582031 106.285156 92.871094 106.328125 92.9375 106.503906 C 92.980469 106.628906 93.019531 108.757812 93.019531 111.246094 L 93.019531 115.78125 L 93.652344 115.742188 L 94.285156 115.699219 L 94.273438 111.164062 C 94.257812 108.664062 94.300781 106.558594 94.367188 106.464844 C 94.4375 106.355469 95.042969 106.285156 96.25 106.257812 L 98.039062 106.214844 L 98.039062 105.253906 L 93.695312 105.214844 L 89.335938 105.183594 Z M 101.378906 110.367188 C 101.351562 113.722656 101.390625 115.605469 101.472656 115.660156 C 101.558594 115.714844 101.84375 115.769531 102.132812 115.769531 L 102.644531 115.769531 L 102.644531 113.898438 C 102.644531 112.882812 102.710938 111.921875 102.78125 111.769531 C 102.902344 111.550781 103.082031 111.507812 104.015625 111.507812 L 105.101562 111.507812 L 105.460938 112.015625 C 105.652344 112.304688 105.804688 112.609375 105.804688 112.691406 C 105.804688 112.785156 105.84375 112.882812 105.914062 112.910156 C 105.96875 112.925781 106.273438 113.472656 106.601562 114.121094 C 107.425781 115.753906 107.441406 115.769531 108.195312 115.769531 C 108.539062 115.769531 108.828125 115.714844 108.828125 115.632812 C 108.828125 115.5625 108.636719 115.179688 108.402344 114.78125 C 108.167969 114.382812 107.933594 113.953125 107.867188 113.84375 C 107.796875 113.734375 107.523438 113.210938 107.246094 112.675781 C 106.972656 112.15625 106.683594 111.671875 106.601562 111.632812 C 106.4375 111.523438 106.585938 110.957031 106.78125 110.957031 C 106.847656 110.957031 107.136719 110.738281 107.441406 110.476562 C 108.003906 109.96875 108.414062 109.007812 108.414062 108.195312 C 108.414062 107.523438 107.976562 106.449219 107.523438 106.023438 C 106.78125 105.335938 106.105469 105.183594 103.632812 105.183594 L 101.40625 105.183594 Z M 106.050781 106.519531 C 106.710938 106.902344 107.042969 107.507812 107.042969 108.347656 C 107.042969 109.226562 106.699219 109.832031 105.96875 110.214844 C 105.335938 110.558594 102.988281 110.601562 102.78125 110.269531 C 102.628906 110.050781 102.601562 107.097656 102.726562 106.585938 C 102.808594 106.296875 102.875 106.285156 104.222656 106.285156 C 105.308594 106.285156 105.734375 106.339844 106.050781 106.519531 Z M 112.910156 105.28125 C 112.855469 105.324219 112.8125 107.714844 112.8125 110.574219 L 112.8125 115.769531 L 114.1875 115.769531 L 114.1875 105.183594 L 113.597656 105.183594 C 113.269531 105.183594 112.953125 105.226562 112.910156 105.28125 Z M 119 105.253906 L 119 115.632812 C 119 115.769531 119.671875 115.824219 119.988281 115.699219 C 120.125 115.644531 120.15625 115.164062 120.125 113.417969 C 120.097656 111.851562 120.125 111.164062 120.25 111.011719 C 120.414062 110.808594 121.695312 110.738281 121.96875 110.929688 C 122.148438 111.054688 123.398438 113.117188 123.398438 113.296875 C 123.398438 113.363281 123.480469 113.5 123.578125 113.597656 C 123.6875 113.695312 123.851562 113.941406 123.960938 114.148438 C 124.070312 114.339844 124.304688 114.792969 124.484375 115.136719 C 124.8125 115.753906 124.839844 115.769531 125.472656 115.769531 C 126.1875 115.769531 126.394531 115.617188 126.09375 115.328125 C 125.996094 115.21875 125.859375 115 125.816406 114.835938 C 125.761719 114.667969 125.667969 114.53125 125.597656 114.53125 C 125.542969 114.53125 125.417969 114.367188 125.335938 114.148438 C 125.238281 113.941406 125.101562 113.652344 125.007812 113.5 C 124.910156 113.351562 124.539062 112.703125 124.15625 112.085938 C 122.957031 110.105469 122.984375 110.4375 123.894531 108.925781 C 124.332031 108.195312 124.730469 107.5625 124.800781 107.550781 C 124.855469 107.523438 124.910156 107.425781 124.910156 107.34375 C 124.910156 107.261719 125.183594 106.78125 125.527344 106.269531 C 125.871094 105.761719 126.148438 105.308594 126.148438 105.269531 C 126.148438 105.226562 125.859375 105.183594 125.488281 105.183594 C 125.007812 105.183594 124.773438 105.253906 124.59375 105.460938 C 124.46875 105.613281 124.359375 105.777344 124.359375 105.816406 C 124.359375 105.96875 123.355469 107.589844 123.234375 107.632812 C 123.179688 107.660156 123.125 107.753906 123.125 107.839844 C 123.125 107.933594 122.875 108.386719 122.574219 108.855469 L 122.039062 109.722656 L 121.28125 109.722656 C 120.03125 109.722656 120.097656 109.84375 120.097656 107.371094 L 120.097656 105.183594 L 119.550781 105.183594 C 119.246094 105.183594 119 105.214844 119 105.253906 Z M 130.132812 110.476562 L 130.132812 115.769531 L 136.730469 115.769531 L 136.730469 114.808594 L 134.214844 114.808594 C 132.441406 114.808594 131.644531 114.753906 131.535156 114.640625 C 131.425781 114.53125 131.371094 113.953125 131.371094 112.9375 C 131.371094 110.890625 131.316406 110.945312 133.472656 110.972656 C 135.054688 110.984375 135.136719 110.972656 135.246094 110.699219 C 135.480469 110.066406 135.316406 109.996094 133.417969 109.996094 C 131.808594 109.996094 131.644531 109.96875 131.507812 109.734375 C 131.34375 109.417969 131.316406 106.710938 131.480469 106.464844 C 131.5625 106.339844 132.25 106.285156 133.84375 106.257812 L 136.113281 106.214844 L 136.152344 105.695312 L 136.195312 105.183594 L 130.132812 105.183594 Z M 130.132812 110.476562 " fill-opacity="1" fill-rule="nonzero"/></g></svg>