<svg xmlns="http://www.w3.org/2000/svg" xmlns:xlink="http://www.w3.org/1999/xlink" width="200" zoomAndPan="magnify" viewBox="0 0 150 149.999998" height="200" preserveAspectRatio="xMidYMid meet" version="1.0"><defs><clipPath id="0e5095bc88"><path d="M 18 56.5 L 36 56.5 L 36 93.25 L 18 93.25 Z M 18 56.5 " clip-rule="nonzero"/></clipPath><clipPath id="9f13eede51"><path d="M 7.5 56.5 L 72 56.5 L 72 78 L 7.5 78 Z M 7.5 56.5 " clip-rule="nonzero"/></clipPath><clipPath id="e3d1ff8c20"><path d="M 69 58 L 142.5 58 L 142.5 93 L 69 93 Z M 69 58 " clip-rule="nonzero"/></clipPath></defs><g clip-path="url(#0e5095bc88)"><path fill="#02489d" d="M 31.699219 62.671875 C 31.699219 62.671875 31.03125 61.9375 30.148438 61.9375 C 30.148438 61.9375 28.222656 61.9375 26.914062 66.078125 C 26.914062 66.078125 25.792969 69.695312 25.792969 75.0625 C 25.792969 75.0625 25.792969 80.125 26.839844 83.695312 C 26.839844 83.695312 27.886719 87.3125 29.410156 87.3125 C 29.410156 87.3125 30.484375 87.3125 31.386719 85.328125 C 31.386719 85.328125 32.292969 83.339844 32.671875 80.101562 L 35.53125 79.390625 C 35.53125 79.390625 34.792969 85.421875 32.507812 89.324219 C 32.507812 89.324219 30.148438 93.25 27.175781 93.25 C 27.175781 93.25 23.601562 93.25 21.078125 87.929688 C 21.078125 87.929688 18.554688 82.609375 18.554688 75.0625 C 18.554688 75.0625 18.554688 67.519531 21.078125 62.152344 C 21.078125 62.152344 23.601562 56.808594 27.175781 56.808594 C 27.175781 56.808594 30.746094 56.808594 33.292969 62.246094 L 31.699219 62.671875 " fill-opacity="1" fill-rule="nonzero"/></g><g clip-path="url(#9f13eede51)"><path fill="#02489d" d="M 41.742188 69.933594 C 41.742188 69.933594 36.816406 73.976562 28.960938 75.9375 C 28.960938 75.9375 21.078125 77.878906 14.816406 76.601562 C 14.816406 76.601562 8.558594 75.277344 7.628906 71.46875 C 7.628906 71.46875 6.84375 68.300781 10.296875 64.800781 C 10.296875 64.800781 13.699219 61.324219 19.816406 59.007812 L 20.222656 60.566406 C 20.222656 60.566406 16.652344 62.082031 14.675781 63.996094 C 14.675781 63.996094 12.652344 66.007812 13.105469 67.734375 C 13.105469 67.734375 13.699219 69.933594 17.890625 70.59375 C 17.890625 70.59375 22.054688 71.234375 27.460938 69.90625 C 27.460938 69.90625 32.816406 68.582031 36.246094 66.054688 C 36.246094 66.054688 39.625 63.5 39.054688 61.277344 C 39.054688 61.277344 38.578125 59.359375 35.148438 58.53125 L 34.625 56.5 C 34.625 56.5 39.078125 56.664062 42.03125 58.132812 C 42.03125 58.132812 45.054688 59.597656 45.671875 62.082031 C 45.671875 62.082031 46.648438 65.863281 41.742188 69.933594 M 69.933594 61.394531 L 69.933594 61.441406 L 70.121094 61.511719 L 70.359375 61.441406 L 70.480469 61.371094 L 70.71875 61.394531 C 70.71875 61.394531 71.003906 61.464844 71.242188 61.394531 L 71.3125 61.394531 L 70.121094 61.253906 L 69.933594 61.394531 " fill-opacity="1" fill-rule="nonzero"/></g><path fill="#02489d" d="M 62.480469 57.328125 C 62.410156 57.398438 62.3125 57.421875 62.3125 57.421875 L 62.621094 58.132812 L 62.410156 58.132812 L 62.621094 58.816406 C 62.765625 59.597656 62.765625 61.132812 62.765625 61.132812 L 62.671875 61.535156 L 62.550781 61.960938 L 62.621094 62.742188 C 62.597656 63.050781 62.242188 63.40625 62.242188 63.40625 L 62.242188 63.78125 C 60.859375 64.28125 60.671875 64.539062 60.671875 64.539062 L 59.933594 64.753906 C 59.597656 64.964844 58.910156 65.226562 58.910156 65.226562 C 58.457031 65.675781 57.980469 65.746094 57.980469 65.746094 L 57.910156 65.792969 L 57.835938 65.792969 L 57.835938 65.816406 L 57.648438 65.816406 C 57.910156 65.296875 57.648438 64.753906 57.648438 64.753906 L 57.480469 64.46875 L 57.289062 63.757812 C 57.125 63.191406 57.003906 63.144531 57.003906 63.144531 L 56.789062 63.476562 L 56.625 63.902344 L 56.480469 63.902344 L 56.171875 64.679688 L 55.886719 65.390625 L 55.503906 66.429688 C 55.527344 66.550781 55.074219 67.472656 55.074219 67.472656 L 54.886719 67.660156 C 54.886719 68.324219 54.601562 68.511719 54.601562 68.511719 L 54.410156 68.984375 C 54.265625 69.339844 54.242188 69.292969 54.242188 69.292969 C 54.265625 69.480469 54.125 70.476562 54.125 70.476562 C 54.050781 71.46875 54.386719 71.660156 54.386719 71.660156 C 54.527344 71.871094 54.457031 71.941406 54.457031 71.941406 L 54.8125 72.652344 L 54.933594 72.628906 L 55.074219 72.863281 C 55.3125 73.40625 55.8125 73.265625 55.8125 73.265625 L 56.71875 73.007812 L 56.910156 73.808594 C 57.003906 74.332031 57.195312 74.472656 57.195312 74.472656 L 57.886719 74.613281 L 58.597656 74.683594 L 59.289062 74.378906 L 60.835938 74.023438 C 61.835938 73.808594 62.335938 73.550781 62.335938 73.550781 C 62.742188 74.304688 62.671875 74.921875 62.671875 74.921875 L 62.597656 76.152344 L 62.742188 76.671875 L 62.835938 77.167969 L 62.882812 79.460938 L 63.121094 80.171875 L 63.027344 80.457031 L 63.027344 81.304688 L 63.265625 82.015625 L 63.335938 82.820312 L 63.480469 82.820312 L 63.40625 82.085938 L 63.667969 82.132812 L 63.71875 82.488281 L 63.789062 82.464844 L 63.742188 82.015625 C 63.480469 81.921875 63.480469 81.449219 63.480469 81.449219 C 63.480469 81.023438 63.667969 80.738281 63.667969 80.738281 C 63.8125 80.785156 64.027344 81.566406 64.027344 81.566406 C 64.21875 82.15625 64.242188 82.535156 64.242188 82.535156 L 64.742188 82.535156 L 64.742188 82.75 L 64.597656 82.628906 C 64.359375 82.773438 64.3125 83.53125 64.3125 83.53125 C 64.289062 84.285156 64.433594 84.308594 64.433594 84.308594 C 64.503906 84.308594 64.882812 84.027344 64.882812 84.027344 L 64.789062 84.167969 L 64.789062 84.238281 L 64.929688 84.238281 L 65.003906 84.640625 C 65.167969 84.640625 65.167969 83.671875 65.167969 83.671875 L 65.265625 83.671875 L 65.429688 83.8125 L 65.503906 83.742188 L 65.503906 82.820312 L 65.695312 82.984375 L 65.929688 82.773438 L 66.074219 82.464844 C 66.121094 82.253906 66.003906 81.636719 66.003906 81.636719 C 66.191406 80.691406 66.21875 80.195312 66.21875 80.195312 L 66.21875 79.675781 L 66.90625 78.136719 C 67.097656 77.546875 67.121094 76.601562 67.121094 76.601562 L 67.191406 75.015625 L 67.480469 74.613281 C 67.742188 74.378906 67.765625 74.234375 67.765625 74.234375 L 68.3125 72.699219 C 68.742188 71.585938 69.027344 71.46875 69.027344 71.46875 L 70.40625 71.160156 C 71.3125 70.878906 71.242188 70.402344 71.242188 70.402344 C 71.691406 70.402344 71.882812 68.441406 71.882812 68.441406 L 72.265625 66.503906 L 72.597656 65.863281 L 72.742188 64.375 L 73.003906 62.90625 C 73.074219 62.222656 72.667969 61.890625 72.667969 61.890625 C 72.40625 61.652344 71.667969 61.464844 71.667969 61.464844 L 71.597656 61.511719 C 71.765625 61.605469 72.121094 61.726562 72.121094 61.726562 C 72.453125 61.890625 72.527344 62.152344 72.527344 62.152344 C 72.621094 62.527344 72.382812 63.144531 72.382812 63.144531 C 72.167969 63.6875 71.8125 63.996094 71.8125 63.996094 L 71.835938 64.253906 C 71.742188 64.585938 71.191406 65.226562 71.191406 65.226562 L 70.429688 66.265625 L 69.765625 66.691406 C 68.859375 66.714844 68.574219 67 68.574219 67 L 68.453125 66.902344 C 68.3125 66.691406 68.3125 65.605469 68.3125 65.605469 L 68.214844 64.753906 C 68.359375 64.539062 68.359375 64.398438 68.359375 64.398438 L 68.359375 63.925781 C 68.597656 63.640625 70.003906 63.121094 70.003906 63.121094 C 71.265625 62.601562 71.40625 62.105469 71.40625 62.105469 L 71.476562 62.175781 C 71.453125 62.386719 71.667969 62.433594 71.667969 62.433594 C 71.667969 62.078125 71.90625 62.078125 71.90625 62.078125 L 72.40625 62.175781 L 72.40625 62.105469 L 71.597656 61.75 C 71.597656 61.9375 71.453125 61.9375 71.453125 61.9375 L 71.144531 61.890625 L 71.121094 62.035156 L 71.238281 62.105469 L 71.074219 62.363281 L 71.003906 62.363281 C 71.003906 62.246094 70.550781 62.246094 70.550781 62.246094 L 70.691406 61.726562 C 70.289062 61.535156 70.265625 61.890625 70.265625 61.890625 L 70.214844 61.890625 L 70.144531 61.75 L 70.074219 61.75 L 70.050781 61.867188 L 69.765625 61.867188 L 69.574219 62.082031 L 69.359375 62.011719 L 69.503906 61.867188 L 69.359375 61.585938 C 69.644531 61.585938 69.789062 61.253906 69.789062 61.253906 L 68.027344 61.371094 C 68.027344 61.609375 68.527344 61.535156 68.527344 61.535156 C 69.074219 61.464844 69.144531 61.65625 69.144531 61.65625 L 68.597656 61.609375 L 68.097656 61.679688 L 68.027344 61.890625 L 67.882812 61.796875 L 67.742188 61.679688 L 67.382812 61.535156 C 67.171875 61.679688 67.050781 61.65625 67.050781 61.65625 L 66.8125 61.511719 L 66.574219 61.277344 C 66.289062 61.0625 65.027344 58.933594 65.027344 58.933594 C 64.097656 57.398438 62.480469 57.328125 62.480469 57.328125 Z M 62.242188 66.007812 L 62.527344 67.140625 L 62.695312 67.898438 C 62.835938 68.371094 62.765625 68.679688 62.765625 68.679688 L 62.3125 69.339844 L 61.765625 70.050781 C 61.121094 70.453125 60.648438 70.59375 60.648438 70.59375 L 59.433594 70.757812 C 58.835938 70.832031 58.171875 71.445312 58.171875 71.445312 C 57.503906 72.011719 57.265625 71.988281 57.265625 71.988281 C 57.148438 72.058594 57.003906 72.082031 57.003906 72.082031 C 56.863281 71.730469 57.148438 71.515625 57.148438 71.515625 C 57.050781 71.375 57.21875 70.972656 57.21875 70.972656 L 57.574219 70.546875 L 57.835938 70.050781 L 57.980469 69.433594 C 58.242188 69.269531 58.195312 69.082031 58.195312 69.082031 L 59.433594 67.660156 L 60.933594 67 C 62.003906 66.550781 62.242188 66.007812 62.242188 66.007812 Z M 86.597656 61.253906 L 87.523438 60.898438 L 88.476562 60.636719 L 89.335938 60.542969 L 89.691406 60.402344 L 90.667969 60.355469 L 91.644531 60.402344 L 92.023438 60.425781 L 92.429688 60.566406 L 92.714844 60.992188 L 93.046875 61.609375 C 93.046875 61.609375 92.859375 62.53125 93.046875 62.71875 C 93.046875 62.71875 92.90625 63.003906 92.832031 64.824219 L 92.644531 66.785156 L 92.5 68.183594 L 92.621094 70.144531 C 92.621094 70.144531 92.621094 70.523438 92.429688 71.160156 C 92.429688 71.160156 92.644531 72.15625 92.429688 72.367188 C 92.429688 72.367188 92.90625 75.347656 92.832031 75.511719 L 92.570312 76.152344 L 92.359375 76.765625 L 92.332031 77.121094 L 92.429688 77.238281 L 92.359375 77.664062 L 92.40625 78.066406 C 92.40625 78.066406 92.359375 78.375 92.214844 78.375 L 91.859375 78.136719 L 91.570312 77.808594 L 91.570312 77.785156 C 91.570312 77.785156 90.953125 77.261719 90.667969 77.40625 C 90.667969 77.40625 90.667969 78.28125 91.238281 79.15625 L 91.359375 79.226562 C 91.359375 79.226562 91.429688 79.628906 92.097656 80.667969 L 92.167969 80.808594 L 92.714844 82.417969 C 92.714844 82.417969 93.121094 82.984375 94.691406 83.695312 L 94.832031 83.671875 L 94.832031 83.554688 C 94.832031 83.554688 94.976562 83.554688 95.308594 83.175781 C 95.308594 83.175781 95.738281 82.632812 95.785156 82.015625 L 95.785156 80.808594 L 95.929688 79.957031 L 95.929688 79.085938 L 95.714844 78.304688 C 95.714844 78.304688 95.59375 77.6875 95.855469 77.59375 C 95.855469 77.59375 95.855469 76.339844 95.738281 76.269531 C 95.738281 76.269531 95.953125 75.300781 95.808594 74.1875 L 95.855469 73.3125 L 95.855469 72.414062 L 95.714844 70.453125 L 95.667969 68.441406 L 95.59375 66.644531 L 95.382812 64.941406 C 95.382812 64.941406 95.453125 64.445312 95.570312 64.257812 C 95.570312 64.257812 95.5 63.972656 95.59375 63.074219 C 95.59375 63.074219 95.285156 63.050781 95.453125 61.9375 L 95.667969 60.566406 C 95.667969 60.566406 95.59375 60.210938 94.976562 59.433594 L 94.09375 58.460938 C 94.09375 58.460938 93.546875 58.179688 93.261719 58.25 L 91.359375 58.535156 C 91.359375 58.535156 90.023438 58.675781 89.667969 59.078125 L 89.191406 59.03125 L 88.691406 59.148438 L 88.621094 59.21875 L 87.714844 59.3125 L 87 59.457031 L 86.738281 59.457031 L 85.8125 59.785156 L 84.976562 60.1875 L 84.144531 60.496094 C 84.144531 60.496094 83.40625 61.109375 83.023438 61.039062 C 83.023438 61.039062 81.40625 61.441406 80.761719 61.820312 C 80.761719 61.820312 80.761719 61.867188 81.191406 61.960938 C 81.191406 61.960938 81.621094 62.082031 81.667969 62.316406 L 82.144531 62.460938 C 82.144531 62.460938 83.285156 62.648438 83.929688 62.222656 C 83.929688 62.222656 84.074219 62.292969 84.882812 61.9375 C 84.882812 61.9375 85.046875 61.726562 85.453125 61.726562 L 85.953125 61.441406 L 86.597656 61.253906 " fill-opacity="1" fill-rule="nonzero"/><path fill="#02489d" d="M 65.71875 83.105469 L 65.695312 84.074219 C 65.695312 84.074219 65.859375 84.074219 65.859375 83.625 C 65.859375 83.625 65.90625 83.199219 65.71875 83.105469 M 63.621094 83.625 L 63.742188 84.027344 L 63.789062 84.027344 L 63.882812 83.8125 L 63.882812 83.386719 L 63.8125 83.386719 L 63.789062 83.410156 L 63.859375 83.175781 L 63.527344 82.984375 C 63.527344 82.984375 63.457031 83.199219 63.621094 83.625 M 64.097656 84.308594 L 64.144531 84.238281 C 64.144531 84.238281 64.21875 83.53125 64.074219 83.386719 C 64.074219 83.386719 63.882812 83.554688 64.027344 84.3125 L 64.097656 84.3125 M 63.597656 85.964844 L 63.597656 88.613281 L 65.835938 88.613281 L 65.835938 85.964844 L 67.765625 85.964844 L 67.765625 92.328125 L 65.835938 92.328125 L 65.835938 89.609375 L 63.597656 89.609375 L 63.597656 92.328125 L 61.648438 92.328125 L 61.648438 85.964844 L 63.597656 85.964844 M 57.050781 87.457031 C 57.050781 87.457031 56.480469 88.023438 56.480469 89.136719 L 56.480469 89.207031 C 56.480469 89.207031 56.480469 90.363281 57.003906 90.933594 C 57.003906 90.933594 57.625 91.476562 58.527344 91.476562 L 59.648438 91.359375 L 60.359375 91.191406 L 60.359375 92.136719 L 59.648438 92.351562 L 58.410156 92.421875 C 58.410156 92.421875 56.648438 92.421875 55.527344 91.640625 C 55.527344 91.640625 54.457031 90.859375 54.457031 89.324219 L 54.457031 89.039062 C 54.457031 89.039062 54.457031 87.597656 55.574219 86.746094 C 55.574219 86.746094 56.695312 85.847656 58.386719 85.847656 L 59.597656 85.917969 L 60.359375 86.109375 L 60.359375 87.101562 L 59.671875 86.933594 L 58.695312 86.863281 C 58.695312 86.863281 57.648438 86.863281 57.050781 87.457031 M 90.621094 69.292969 C 90.621094 69.292969 90.667969 69.695312 90.191406 70.214844 L 90.046875 70.40625 L 90.023438 70.476562 L 89.882812 70.757812 L 89.8125 71.089844 L 89.597656 71.234375 L 89.523438 71.375 L 89.597656 71.398438 C 89.597656 71.398438 89.835938 71.46875 90.238281 71.257812 L 90.621094 71.160156 L 91.074219 71.113281 L 91.382812 71.089844 L 91.574219 71.042969 C 91.574219 71.042969 92 71.183594 92.335938 70.6875 L 92.40625 70.050781 L 92.335938 69.695312 L 92.214844 69.433594 L 92.074219 69.363281 L 91.859375 69.269531 L 91.359375 69.222656 L 91.285156 69.152344 L 90.8125 68.9375 L 90.453125 68.796875 L 90.621094 69.292969 " fill-opacity="1" fill-rule="nonzero"/><g clip-path="url(#e3d1ff8c20)"><path fill="#02489d" d="M 88.976562 62.222656 L 88.359375 62.386719 L 87.667969 62.53125 L 86.359375 62.8125 L 85.691406 63.191406 L 85.121094 63.335938 C 85.121094 63.335938 85.023438 63.40625 84.882812 63.429688 L 84.621094 63.476562 L 84.359375 63.546875 L 83.40625 63.972656 L 82.929688 64.257812 L 82.597656 64.328125 L 82.5 64.398438 L 82.453125 64.445312 L 82.289062 64.660156 L 81.953125 64.824219 L 81.550781 65.109375 C 81.550781 65.109375 80.8125 65.109375 80.953125 65.652344 L 81.097656 65.652344 C 81.097656 65.652344 81.097656 65.746094 82 66.125 L 82.027344 66.550781 C 82.027344 66.550781 82.097656 66.859375 82.3125 67 L 83.265625 67 L 83.574219 67.046875 L 84.074219 67.046875 C 84.074219 67.046875 84.214844 67.046875 84.214844 67.140625 L 84.289062 67.613281 L 84.335938 67.96875 L 84.289062 68.511719 L 84.121094 68.867188 L 83.714844 68.9375 L 83.40625 69.128906 L 82.5 69.484375 L 82.144531 69.765625 L 81.597656 70.121094 L 81.3125 70.40625 L 81.335938 70.523438 L 81.335938 70.617188 L 81.050781 70.878906 L 81.097656 71.160156 L 81.191406 71.230469 L 81.527344 71.539062 L 82 71.609375 L 82.214844 71.988281 L 82.5 72.273438 L 82.859375 72.34375 L 83.144531 72.296875 L 83.097656 72.507812 C 83.097656 72.507812 83 72.722656 83.097656 72.722656 L 82.953125 73.195312 L 82.789062 73.527344 L 82.714844 73.691406 L 82.289062 74.023438 L 82.074219 74.308594 L 81.859375 74.683594 L 81.859375 74.851562 L 81.691406 75.207031 L 81.550781 75.417969 L 81.550781 75.703125 L 81.742188 76.222656 L 81.953125 76.554688 C 81.953125 76.554688 82.097656 76.742188 82.144531 76.695312 C 82.144531 76.695312 82.144531 76.742188 82.382812 76.835938 C 82.382812 76.835938 82.882812 76.90625 83.167969 76.835938 L 84.144531 76.625 L 84.691406 76.339844 L 85.667969 76.007812 L 85.882812 75.84375 C 85.882812 75.84375 86.027344 75.84375 86.597656 75.417969 C 86.597656 75.417969 86.714844 75.488281 87 75.207031 C 87 75.207031 87 75.230469 87.382812 75.015625 L 87.714844 74.921875 C 87.714844 74.921875 87.90625 74.851562 88.074219 74.734375 L 88.550781 74.589844 L 89.191406 74.164062 L 89.667969 73.761719 C 89.667969 73.761719 89.90625 73.621094 89.976562 73.335938 L 90.097656 73.125 L 90.167969 73.007812 L 89.882812 73.007812 C 89.882812 73.007812 89.691406 73.007812 89.8125 72.722656 L 89.976562 72.414062 L 89.40625 72.367188 C 89.40625 72.367188 89.050781 72.367188 89.050781 72.226562 L 88.046875 72.296875 L 88.144531 71.917969 L 88.191406 71.609375 L 88.335938 71.234375 C 88.335938 71.234375 88.214844 71.234375 88.214844 71.019531 L 88.359375 70.902344 L 88.621094 70.878906 L 89.191406 70.074219 L 89.808594 69.433594 L 89.835938 69.269531 L 89.976562 68.984375 L 89.976562 68.679688 L 89.90625 68.324219 L 89.523438 67.945312 L 88.835938 67.472656 L 88.546875 67.332031 L 88.429688 67.210938 L 88.191406 67.046875 L 88.261719 66.929688 C 88.261719 66.929688 88.261719 66.621094 88.429688 66.265625 L 89.144531 65.507812 C 89.144531 65.507812 89.335938 65.507812 89.667969 64.824219 L 89.90625 64.515625 L 89.976562 64.207031 L 89.953125 63.902344 L 90.023438 63.6875 L 89.976562 63.355469 L 89.621094 62.742188 L 89.453125 62.503906 C 89.453125 62.507812 89.453125 62.222656 88.976562 62.222656 M 83.074219 78.375 L 82.527344 78.515625 L 81.691406 78.515625 L 81.3125 78.585938 L 80.882812 78.5625 L 81.335938 79.558594 C 81.335938 79.558594 81.789062 80.382812 81.929688 80.410156 L 82.359375 80.527344 L 83.027344 80.335938 C 83.027344 80.335938 83.5 80.242188 83.574219 80.101562 L 83.714844 80.101562 C 83.714844 80.101562 84.335938 79.957031 84.476562 79.746094 L 85.238281 79.558594 L 85.953125 79.226562 L 86.285156 79.132812 L 86.8125 78.871094 L 87.382812 78.515625 L 88.859375 77.476562 C 88.859375 77.476562 89.453125 77.097656 90.808594 76.460938 L 91.144531 76.152344 L 91.144531 76.082031 L 90.929688 76.082031 C 90.929688 76.082031 90.738281 76.222656 89.976562 76.410156 L 89.261719 76.695312 L 89.046875 76.742188 L 88.40625 76.980469 L 87.667969 77.097656 L 86.667969 77.523438 L 86.167969 77.617188 L 85.667969 77.855469 L 85.382812 77.878906 L 84.691406 78.019531 C 84.691406 78.019531 84.121094 78.304688 83.976562 78.351562 L 83.644531 78.28125 L 83.074219 78.375 M 79.550781 63.191406 L 79.335938 63.832031 C 79.335938 63.832031 79.214844 64.183594 79.265625 64.585938 L 79.335938 64.871094 L 79.335938 65.863281 L 79.40625 66.480469 L 79.289062 66.929688 L 79.265625 67.683594 L 79.121094 68.015625 L 78.90625 68.914062 L 78.976562 69.082031 L 78.976562 69.835938 L 78.859375 70.261719 L 78.859375 70.59375 L 78.789062 71.257812 L 78.667969 71.730469 L 78.574219 73.21875 L 78.527344 73.21875 L 78.453125 73.667969 L 78.289062 74.046875 C 78.289062 74.046875 78.214844 74.589844 78.359375 74.921875 L 78.382812 75.371094 L 78.429688 75.988281 C 78.429688 75.988281 78.453125 76.316406 78.3125 76.484375 L 78.238281 77.050781 C 78.238281 77.050781 78.167969 78.351562 78.929688 78.988281 C 78.929688 78.988281 79.191406 79.226562 79.40625 79.15625 L 79.574219 78.941406 C 79.574219 78.941406 79.859375 78.5625 79.859375 77.878906 L 79.765625 76.742188 L 79.691406 76.414062 L 79.835938 75.347656 C 79.835938 75.347656 79.835938 74.875 79.90625 74.6875 C 79.90625 74.6875 79.550781 74.449219 79.789062 73.3125 L 79.835938 72.652344 L 79.859375 72.226562 C 79.859375 72.226562 79.929688 71.871094 79.976562 71.871094 L 80.050781 71.515625 L 80.121094 71.257812 L 80.476562 69.578125 L 80.8125 68.609375 L 80.8125 68.441406 L 80.667969 68.183594 L 80.667969 67.804688 L 80.761719 67.542969 L 80.882812 66.976562 L 80.835938 66.976562 L 80.882812 66.550781 L 80.835938 66.125 C 80.835938 66.125 80.667969 66.125 80.667969 64.964844 L 80.453125 64.28125 L 80.261719 64.066406 L 80.050781 63.640625 L 79.835938 62.980469 L 79.644531 62.8125 L 79.550781 63.191406 M 70.90625 62.007812 L 70.929688 61.867188 L 70.835938 61.679688 L 70.835938 61.960938 L 70.90625 62.007812 M 71.3125 61.796875 L 70.980469 61.679688 L 70.980469 61.796875 L 71.3125 61.796875 M 80.191406 85.964844 L 80.191406 92.328125 L 79.359375 92.328125 L 75.050781 88.332031 L 75.050781 92.328125 L 73.644531 92.328125 L 73.644531 85.964844 L 74.691406 85.964844 L 78.835938 89.75 L 78.835938 85.964844 L 80.191406 85.964844 M 71.742188 85.964844 L 71.742188 92.328125 L 69.789062 92.328125 L 69.789062 85.964844 L 71.742188 85.964844 M 83.859375 85.964844 L 80.953125 92.328125 L 82.527344 92.328125 L 83.167969 90.8125 L 86.050781 90.8125 L 86.667969 92.328125 L 88.691406 92.328125 L 85.667969 85.964844 Z M 84.574219 87.527344 L 85.667969 89.890625 L 83.574219 89.890625 Z M 91.714844 85.964844 L 97.476562 85.964844 L 97.476562 86.886719 L 95.59375 86.886719 L 95.59375 92.328125 L 93.644531 92.328125 L 93.644531 86.886719 L 91.714844 86.886719 L 91.714844 85.964844 M 133.78125 60.828125 L 134.042969 60.496094 L 134.304688 60.542969 L 134.472656 60.496094 L 135.257812 60.425781 C 135.257812 60.425781 135.304688 60.566406 134.542969 60.566406 L 134.117188 60.757812 L 134.378906 60.898438 L 135.1875 60.992188 C 135.1875 60.992188 135.449219 61.039062 135.804688 61.324219 L 136.28125 61.820312 L 135.925781 62.222656 L 135.613281 62.363281 L 135.304688 62.386719 L 134.066406 62.648438 L 133.117188 62.71875 L 132.355469 62.933594 L 130.757812 63.121094 L 130.09375 63.332031 L 129.6875 63.570312 L 129.617188 63.570312 L 129.542969 63.429688 L 129.355469 63.617188 C 129.355469 63.617188 129.28125 63.757812 129.28125 63.972656 C 129.28125 63.972656 129.28125 64.28125 129.472656 64.398438 L 129.902344 64.515625 C 129.902344 64.515625 130.1875 64.660156 130.332031 64.660156 L 131.234375 64.398438 L 132.210938 64.210938 L 133.117188 63.972656 L 134.589844 63.757812 L 139.257812 63.640625 L 140.449219 63.476562 L 140.804688 63.546875 L 141.136719 63.570312 C 141.136719 63.570312 141.566406 63.359375 141.710938 63.429688 L 141.757812 63.191406 L 141.757812 62.71875 L 142.042969 62.53125 C 142.042969 62.53125 142.613281 62.152344 142.398438 61.867188 L 141.636719 61.65625 L 140.78125 61.679688 L 139.542969 61.679688 C 139.542969 61.679688 139.089844 61.679688 139.113281 61.441406 L 139.164062 61.109375 C 139.164062 61.109375 139.019531 60.683594 139.089844 60.542969 L 139.042969 59.808594 L 138.566406 59.457031 L 138.28125 59.433594 L 137.972656 59.171875 L 136.640625 58.605469 L 136.140625 58.460938 L 135.851562 58.53125 L 135.402344 59.289062 L 135.378906 59.359375 L 135.117188 59.289062 L 134.804688 59.503906 L 134.828125 59.527344 L 134.664062 59.644531 L 134.117188 60.046875 C 134.117188 60.046875 133.78125 60.355469 134.042969 60.28125 L 134.117188 60.28125 L 133.972656 60.402344 L 133.28125 60.636719 L 133.210938 60.851562 L 133.402344 60.921875 L 133.78125 60.828125 M 108.59375 60.542969 L 108.523438 61.324219 C 108.523438 61.324219 108.117188 61.960938 108.023438 62.292969 C 108.023438 62.292969 107.691406 64.824219 107.476562 65.082031 L 107.070312 65.4375 L 106.617188 65.652344 L 106.117188 65.984375 L 104.878906 66.859375 L 104.855469 66.90625 L 105.355469 66.976562 L 105.640625 67.28125 L 106.214844 67.117188 L 106.832031 67.046875 L 106.855469 67.519531 L 106.976562 67.683594 L 106.570312 68.324219 C 106.570312 68.324219 106.570312 68.867188 104.640625 70.144531 C 104.640625 70.144531 104.570312 69.933594 104.640625 69.199219 L 104.785156 68.230469 L 104.738281 67.828125 L 104.453125 67.332031 C 104.453125 67.332031 104.117188 66.90625 104.09375 66.714844 C 104.09375 66.714844 103.691406 66.644531 103.667969 66.289062 L 103.453125 65.863281 C 103.453125 65.863281 103.378906 65.863281 103.261719 66.289062 L 103.046875 66.785156 L 102.976562 67.046875 L 102.90625 67.070312 C 102.90625 67.070312 102.90625 67.28125 102.617188 67.660156 L 102.332031 68.160156 C 102.332031 68.160156 102.261719 68.464844 102.332031 69.859375 L 102.214844 71.257812 L 102 72.628906 L 101.714844 73.550781 C 101.714844 73.550781 101.5 74.023438 101.714844 74.542969 C 101.714844 74.542969 101.832031 74.757812 102.285156 75.015625 C 102.285156 75.015625 102.738281 75.230469 102.976562 75.277344 L 103.261719 75.585938 C 103.261719 75.585938 103.40625 75.9375 103.523438 75.984375 L 104.238281 76.484375 L 104.929688 76.601562 L 105.5 76.8125 L 105.902344 78.445312 C 105.902344 78.445312 106.261719 79.839844 106.714844 79.984375 L 106.761719 79.984375 C 106.761719 79.984375 106.785156 80.125 107.046875 80.3125 L 107.402344 80.527344 C 107.402344 80.527344 108.046875 80.953125 108.546875 81.09375 L 109.808594 81.285156 L 110.902344 81.308594 L 112.164062 81.425781 C 112.164062 81.425781 113.238281 81.308594 113.355469 81.09375 L 114.449219 80.953125 C 114.449219 80.953125 115.640625 80.667969 115.570312 80.550781 L 115.710938 80.527344 L 117.855469 79.984375 L 118.378906 79.769531 L 118.285156 79.769531 L 118.378906 79.558594 L 118.449219 79.558594 L 118.425781 79.414062 L 118.496094 79.414062 L 118.570312 79.488281 L 118.59375 79.414062 L 118.570312 79.34375 L 118.664062 79.203125 L 118.570312 79.226562 L 118.734375 78.917969 L 118.996094 78.660156 L 119.023438 78.660156 L 119.023438 78.800781 L 119.210938 78.5625 L 119.261719 78.5625 L 119.261719 78.585938 L 119.164062 78.660156 L 119.210938 78.730469 C 119.210938 78.730469 119.164062 78.800781 119.257812 78.777344 L 119.285156 78.636719 L 119.402344 78.5625 L 119.425781 78.585938 L 119.546875 78.445312 L 119.617188 78.421875 L 119.617188 78.210938 L 119.472656 78.136719 L 119.402344 78.234375 L 119.402344 78.066406 L 119.332031 78.019531 L 119.332031 78.089844 L 119.261719 78.066406 L 119.261719 77.949219 L 119.164062 77.855469 L 119.332031 77.734375 L 119.285156 77.664062 L 119.09375 77.855469 L 119.164062 77.617188 L 119.285156 77.617188 L 119.332031 77.546875 L 119.023438 77.523438 L 118.925781 77.59375 L 118.878906 77.546875 L 118.925781 77.382812 L 118.710938 77.335938 L 118.855469 77.261719 L 118.785156 77.191406 L 118.785156 77.121094 L 118.878906 77.167969 L 118.878906 77.121094 L 118.734375 76.980469 L 118.710938 77.027344 L 118.59375 76.886719 L 118.570312 76.835938 L 118.425781 76.886719 L 118.378906 76.8125 L 118.378906 76.910156 L 118.496094 76.910156 L 118.496094 77.121094 L 118.449219 77.121094 L 118.308594 76.835938 L 118.234375 76.8125 L 118.164062 76.835938 L 118.308594 76.742188 L 118.355469 76.742188 L 118.09375 76.695312 C 118.09375 76.695312 117.949219 76.695312 117.925781 76.8125 L 117.664062 76.957031 L 117.261719 77.238281 L 116.832031 77.335938 L 116.402344 77.523438 L 115 77.785156 L 113.808594 78.136719 L 113.378906 78.210938 L 111.070312 78.445312 L 110.476562 78.234375 C 110.476562 78.234375 110.355469 78.234375 110.285156 78.136719 L 110.214844 77.878906 C 110.214844 77.878906 109.738281 76.90625 109.808594 76.671875 L 110.476562 75.796875 L 110.832031 75.488281 C 110.832031 75.488281 111.070312 75.300781 111.476562 75.347656 L 111.878906 75.277344 L 112.378906 75.207031 L 112.6875 75.015625 L 113.09375 74.945312 L 113.5 74.851562 L 113.878906 74.757812 L 115.5 74.542969 L 115.710938 74.378906 L 115.902344 74.09375 L 116.238281 73.621094 C 116.238281 73.621094 116.59375 73.335938 116.617188 73.054688 L 116.617188 72.699219 L 116.738281 72.273438 L 116.378906 71.445312 L 116 70.664062 L 116.6875 68.914062 L 116.808594 68.464844 C 116.808594 68.464844 116.902344 68.109375 117.023438 68.109375 L 117.117188 67.613281 L 117.238281 67.070312 C 117.238281 67.070312 117.378906 66.761719 117.332031 66.574219 L 117.261719 66.125 L 117.332031 65.816406 L 117.238281 65.460938 C 117.238281 65.460938 117.09375 65.25 117.09375 65.109375 L 116.738281 64.585938 L 116.449219 63.785156 C 116.449219 63.785156 116.308594 63.429688 115.714844 63.191406 L 115.617188 63.261719 L 115.070312 63.050781 C 115.070312 63.050781 114.714844 62.8125 114.378906 62.910156 L 113.640625 62.789062 L 112.332031 63.40625 L 110.902344 64.183594 L 110.476562 64.183594 L 110.761719 62.363281 C 110.761719 62.363281 110.832031 61.394531 109.808594 60.921875 L 109.238281 60.636719 Z M 113.023438 64.871094 L 114.09375 65.109375 L 114.070312 65.25 L 114.285156 65.535156 L 114.285156 65.746094 C 114.285156 65.746094 114.285156 65.933594 114 66.21875 L 113.59375 66.21875 C 113.59375 66.21875 112.476562 67 111.808594 67.140625 L 111.261719 67.210938 L 111 67.210938 C 111 67.210938 110.714844 67.28125 110.402344 67.210938 C 110.402344 67.210938 109.953125 67.140625 109.878906 66.90625 L 109.953125 66.410156 C 109.953125 66.410156 110.070312 66.054688 110.164062 66.007812 C 110.164062 66.007812 110.164062 65.816406 110.5 65.675781 L 110.832031 65.535156 C 110.832031 65.535156 111.117188 65.390625 111.640625 65.25 L 112.046875 65.035156 L 112.59375 64.894531 Z M 113.238281 68.9375 L 113.308594 69.007812 C 113.308594 69.007812 113.425781 69.128906 113.355469 69.269531 L 113.117188 70.40625 L 112.949219 70.6875 C 112.949219 70.6875 112.761719 70.949219 111.808594 71.375 C 111.808594 71.375 110.832031 72.011719 110.285156 71.609375 L 110.09375 71.113281 L 110.214844 70.734375 C 110.214844 70.734375 110.164062 70.40625 110.261719 70.214844 L 110.570312 69.859375 L 111.355469 69.433594 L 112.378906 69.082031 Z M 105.5 71.398438 L 105.976562 71.585938 C 105.976562 71.585938 106.191406 71.800781 106.046875 72.4375 L 105.761719 73.3125 L 105.714844 73.480469 L 105.5 73.808594 L 105 73.90625 C 105 73.90625 104.855469 73.90625 104.378906 74.164062 C 104.378906 74.164062 104.167969 74.308594 103.902344 74.402344 L 103.738281 74.589844 L 103.691406 74.542969 L 103.878906 73.953125 L 103.808594 73.597656 L 103.90625 73.265625 L 103.953125 72.933594 L 104.238281 72.15625 L 104.355469 71.800781 L 104.378906 71.800781 C 104.378906 71.800781 104.640625 71.800781 105 71.585938 L 105.5 71.445312 Z M 126.164062 63.191406 L 126.164062 63.40625 C 126.164062 63.40625 125.878906 64.257812 125.878906 64.660156 L 125.402344 65.390625 L 125.332031 65.652344 L 125.1875 65.933594 L 124.78125 66.785156 L 124.140625 68.183594 L 123.78125 68.609375 L 123.234375 69.433594 L 123.070312 69.980469 L 122.878906 70.546875 L 122.925781 71.089844 L 122.949219 71.917969 C 122.949219 71.917969 123.070312 71.988281 123.140625 72.011719 L 123.378906 72.367188 L 123.425781 73.125 L 123.378906 73.90625 L 123.496094 73.738281 L 123.59375 73.457031 L 123.59375 73.410156 L 123.640625 73.410156 L 123.664062 73.457031 L 123.59375 73.597656 L 123.640625 73.667969 L 123.710938 73.667969 L 123.832031 73.457031 L 124.046875 72.792969 L 124.425781 72.367188 L 124.640625 72.226562 L 126.117188 70.808594 C 126.117188 70.808594 126.542969 70.664062 126.808594 71.257812 L 126.878906 71.800781 L 127.019531 72.863281 L 127.019531 74.234375 L 126.855469 75.015625 L 126.6875 76.410156 L 126.472656 77.050781 L 126.1875 78.707031 L 126.164062 80.480469 C 126.164062 80.480469 126.164062 81.234375 126.878906 81.308594 L 127.210938 80.929688 C 127.210938 80.929688 127.734375 80.953125 127.519531 80.667969 L 127.519531 80.382812 L 127.804688 80.171875 L 128.066406 80.171875 L 128.425781 79.605469 L 128.566406 78.515625 L 128.78125 76.152344 L 128.855469 75.347656 L 128.996094 74.542969 L 129.257812 71.398438 C 129.257812 71.398438 129.140625 70.6875 129.1875 70.40625 L 129.402344 69.910156 C 129.402344 69.910156 129.496094 69.695312 129.496094 69.128906 L 129.425781 68.867188 L 129.210938 68.679688 L 128.996094 68.441406 C 128.996094 68.441406 128.828125 68.371094 128.617188 68.253906 L 127.925781 67.945312 L 127.496094 68.039062 L 127.59375 67.613281 L 127.734375 67.261719 L 127.78125 66.550781 L 127.878906 66.195312 C 127.878906 66.195312 127.925781 65.722656 127.640625 65.109375 L 127.140625 64.113281 L 127.09375 63.832031 L 126.855469 63.214844 L 126.304688 62.742188 L 126.164062 63.191406 M 107 85.964844 L 107 91.40625 L 110.214844 91.40625 L 110.214844 92.328125 L 105.070312 92.328125 L 105.070312 85.964844 L 107 85.964844 M 100.308594 86.886719 L 100.308594 88.636719 L 102.878906 88.636719 L 102.878906 89.609375 L 100.308594 89.609375 L 100.308594 91.40625 L 103.832031 91.40625 L 103.832031 92.328125 L 98.382812 92.328125 L 98.382812 85.964844 L 103.617188 85.964844 L 103.617188 86.886719 L 100.308594 86.886719 M 111.5 85.964844 L 116.761719 85.964844 L 116.761719 86.886719 L 113.449219 86.886719 L 113.449219 88.636719 L 116 88.636719 L 116 89.609375 L 113.449219 89.609375 L 113.449219 91.40625 L 117.023438 91.40625 L 117.023438 92.328125 L 111.5 92.328125 L 111.5 85.964844 M 120.425781 87.457031 C 120.425781 87.457031 119.832031 88.070312 119.832031 89.136719 L 119.832031 89.207031 C 119.832031 89.207031 119.832031 90.363281 120.355469 90.933594 C 120.355469 90.933594 121.023438 91.476562 121.878906 91.476562 L 122.996094 91.359375 L 123.710938 91.191406 L 123.710938 92.136719 L 122.996094 92.351562 L 121.757812 92.421875 C 121.757812 92.421875 119.972656 92.421875 118.925781 91.640625 C 118.925781 91.640625 117.808594 90.859375 117.808594 89.324219 L 117.808594 89.039062 C 117.808594 89.039062 117.808594 87.597656 118.925781 86.746094 C 118.925781 86.746094 120.046875 85.847656 121.757812 85.847656 L 122.949219 85.917969 L 123.710938 86.109375 L 123.710938 87.101562 L 123.070312 86.933594 L 122.09375 86.863281 C 122.09375 86.863281 121.046875 86.863281 120.425781 87.457031 M 128.164062 85.847656 C 128.164062 85.847656 126.402344 85.847656 125.519531 86.746094 C 125.519531 86.746094 124.570312 87.644531 124.570312 88.992188 L 124.570312 89.347656 C 124.570312 89.347656 124.570312 90.8125 125.59375 91.640625 C 125.59375 91.640625 126.519531 92.421875 128.140625 92.421875 C 128.140625 92.421875 129.757812 92.421875 130.6875 91.640625 C 130.6875 91.640625 131.710938 90.8125 131.710938 89.347656 L 131.710938 88.992188 C 131.710938 88.992188 131.710938 87.644531 130.757812 86.746094 C 130.757812 86.746094 129.902344 85.847656 128.164062 85.847656 Z M 128.140625 86.792969 C 128.140625 86.792969 129.1875 86.792969 129.425781 87.3125 C 129.425781 87.3125 129.710938 87.953125 129.710938 89.0625 L 129.710938 89.253906 C 129.710938 89.253906 129.710938 90.386719 129.355469 91.003906 C 129.355469 91.003906 128.996094 91.546875 128.140625 91.546875 C 128.140625 91.546875 127.140625 91.546875 126.855469 91.027344 C 126.855469 91.027344 126.542969 90.601562 126.542969 89.253906 L 126.542969 89.0625 C 126.542969 89.0625 126.542969 87.785156 126.878906 87.289062 C 126.878906 87.289062 127.140625 86.792969 128.140625 86.792969 Z M 138.496094 64.941406 L 137.78125 64.941406 C 137.78125 64.941406 137.28125 64.941406 137.066406 64.800781 L 136.164062 64.800781 L 135.402344 65.011719 L 134.6875 65.296875 C 134.6875 65.296875 134.542969 65.320312 134.472656 65.507812 C 134.472656 65.507812 134.378906 65.746094 134.519531 66.007812 C 134.519531 66.007812 134.6875 66.21875 134.972656 66.289062 L 135.878906 66.761719 L 136.089844 66.976562 L 137.351562 67.542969 L 137.972656 67.683594 L 138.828125 67.683594 L 139.113281 67.804688 C 139.113281 67.804688 139.257812 67.875 139.375 67.804688 C 139.375 67.804688 139.542969 67.683594 139.828125 67.117188 L 140.019531 66.90625 L 140.019531 66.621094 L 140.042969 66.289062 L 139.734375 66.007812 L 139.542969 65.535156 C 139.542969 65.535156 139.234375 65.4375 139.089844 65.367188 L 138.804688 65.085938 L 138.496094 64.941406 M 135.019531 68.511719 L 133.566406 68.75 L 133.542969 68.914062 C 133.542969 68.914062 133.472656 69.058594 133.542969 69.222656 L 133.78125 69.695312 L 134.140625 70.144531 L 134.804688 70.6875 C 134.804688 70.6875 134.972656 70.878906 135.304688 70.949219 L 136.019531 70.972656 L 136.640625 71.089844 C 136.640625 71.089844 136.925781 71.113281 137.425781 71.398438 L 137.925781 71.328125 L 138.28125 71.328125 L 138.636719 71.160156 C 138.636719 71.160156 139.019531 71.089844 139.042969 71.042969 C 139.042969 71.042969 139.234375 70.972656 139.398438 70.664062 L 139.613281 70.121094 L 139.613281 69.910156 L 139.664062 69.71875 C 139.664062 69.71875 139.6875 69.578125 139.875 69.507812 L 140.113281 69.363281 L 140.113281 68.867188 C 140.113281 68.867188 140.113281 68.796875 139.757812 68.726562 L 139.304688 68.679688 L 138.804688 68.75 L 137.425781 68.441406 L 136.664062 68.394531 L 135.019531 68.511719 M 131.664062 74.449219 L 131.878906 75.417969 C 131.878906 75.417969 131.78125 75.984375 131.855469 76.484375 L 131.878906 77.617188 L 131.855469 78.445312 L 132.234375 80.03125 L 132.304688 80.195312 L 132.304688 80.785156 C 132.304688 80.785156 132.378906 81.09375 132.640625 81.210938 L 133.066406 81.308594 L 133.640625 81.566406 L 133.828125 81.804688 C 133.828125 81.804688 133.925781 81.945312 134.066406 81.921875 C 134.066406 81.921875 134.1875 81.875 134.1875 81.566406 L 134.472656 81.070312 L 134.519531 80.527344 L 134.664062 79.960938 L 134.757812 79.558594 L 134.972656 77.617188 L 134.878906 77.335938 L 134.6875 77.050781 L 134.734375 76.671875 L 134.734375 76.316406 L 134.804688 76.269531 L 135.878906 76.316406 L 136.28125 75.867188 C 136.28125 75.867188 136.875 75.300781 137.257812 75.160156 L 137.425781 75.417969 C 137.425781 75.417969 137.566406 75.796875 137.472656 76.386719 L 136.664062 77.3125 L 136.164062 77.808594 C 136.164062 77.808594 135.851562 78.066406 135.78125 78.375 L 135.613281 78.492188 L 135.589844 78.730469 L 135.542969 79.390625 C 135.542969 79.390625 135.542969 79.960938 135.613281 80.101562 L 135.925781 80.3125 L 136.28125 80.457031 L 136.566406 80.691406 L 137.710938 80.785156 L 138.902344 80.550781 L 139.589844 80.691406 L 140.496094 80.667969 L 140.875 80.457031 L 141.164062 80.335938 L 141.425781 80.054688 L 141.425781 79.675781 L 141.496094 78.800781 L 141.164062 78.636719 L 141.089844 78.585938 L 140.710938 78.28125 L 140.664062 77.996094 L 141.210938 76.554688 L 141.234375 75.773438 C 141.234375 75.773438 141.136719 75.585938 141.28125 75.207031 L 141.28125 74.472656 L 140.875 74.023438 L 140.449219 73.386719 L 139.949219 72.984375 L 139.734375 72.792969 L 139.164062 72.652344 L 138.566406 72.699219 L 138.257812 72.558594 L 137.140625 73.3125 L 134.902344 74.402344 L 134.617188 74.519531 L 134.328125 74.589844 C 134.328125 74.589844 134.042969 74.589844 133.925781 74.472656 L 133.6875 74.1875 L 133.472656 73.953125 L 133.328125 73.597656 L 132.902344 73.410156 L 132.449219 73.21875 C 132.449219 73.21875 132.234375 73.125 132.140625 72.914062 L 132.019531 72.769531 L 131.855469 72.839844 L 131.710938 73.738281 L 131.664062 74.449219 M 134.066406 92.328125 L 132.757812 92.328125 L 132.757812 85.964844 L 134.1875 85.964844 L 137.425781 90.601562 L 140.734375 85.964844 L 141.996094 85.964844 L 141.996094 92.328125 L 140.234375 92.328125 L 140.234375 88.683594 L 137.613281 92.328125 L 136.566406 92.328125 L 134.066406 88.683594 L 134.066406 92.328125 " fill-opacity="1" fill-rule="nonzero"/></g></svg>