<svg xmlns="http://www.w3.org/2000/svg" xmlns:xlink="http://www.w3.org/1999/xlink" width="200" zoomAndPan="magnify" viewBox="0 0 150 149.999998" height="200" preserveAspectRatio="xMidYMid meet" version="1.0"><defs><clipPath id="3a7f3c06c0"><path d="M 0 54.273438 L 79 54.273438 L 79 80.523438 L 0 80.523438 Z M 0 54.273438 " clip-rule="nonzero"/></clipPath></defs><g clip-path="url(#3a7f3c06c0)"><path fill="#007db8" d="M 33.804688 54.273438 L 20.6875 64.503906 C 19.339844 59.386719 14.96875 55.632812 9.585938 55.632812 L 0.167969 55.632812 L 0.167969 79.160156 L 9.585938 79.160156 C 14.96875 79.160156 19.675781 75.410156 20.6875 70.296875 L 33.800781 80.523438 L 46.925781 70.296875 L 46.925781 79.160156 L 61.726562 79.160156 L 61.726562 74.386719 L 51.972656 74.386719 L 51.972656 55.636719 L 46.589844 55.636719 L 46.589844 64.5 L 34.140625 74.730469 L 31.449219 72.351562 L 37.507812 67.570312 L 43.898438 62.460938 L 40.195312 59.394531 L 27.75 69.28125 L 25.058594 66.894531 L 37.507812 57.347656 L 33.804688 54.277344 Z M 5.214844 60.40625 L 9.25 60.40625 C 10.089844 60.40625 10.910156 60.601562 11.667969 60.953125 C 12.425781 61.304688 13.121094 61.816406 13.707031 62.453125 C 14.296875 63.09375 14.78125 63.855469 15.117188 64.722656 C 15.453125 65.585938 15.640625 66.546875 15.640625 67.570312 C 15.640625 68.507812 15.46875 69.421875 15.164062 70.265625 C 14.855469 71.113281 14.414062 71.875 13.832031 72.554688 C 13.265625 73.222656 12.589844 73.75 11.808594 74.136719 C 11.035156 74.515625 10.175781 74.722656 9.25 74.722656 L 5.210938 74.722656 Z M 78.542969 74.386719 L 78.542969 79.160156 L 63.742188 79.160156 L 63.742188 55.636719 L 69.125 55.636719 L 69.125 74.386719 Z M 78.542969 74.386719 " fill-opacity="1" fill-rule="nonzero"/></g><path fill="#808080" d="M 140.867188 79.59375 C 145.417969 79.59375 149.121094 77.285156 149.832031 72.238281 L 149.546875 71.949219 L 148.269531 71.949219 L 147.984375 72.238281 C 147.269531 75.84375 144.992188 77.863281 141.011719 77.863281 C 136.03125 77.863281 132.472656 74.113281 132.472656 67.476562 C 132.472656 60.839844 136.171875 57.09375 141.007812 57.09375 C 144.992188 57.09375 147.273438 59.113281 147.984375 62.429688 L 148.269531 62.71875 L 149.546875 62.71875 L 149.832031 62.429688 C 149.121094 57.816406 145.5625 55.363281 140.867188 55.363281 C 135.316406 55.363281 130.335938 59.402344 130.335938 67.335938 C 130.335938 75.558594 135.316406 79.59375 140.867188 79.59375 Z M 126.355469 78.871094 L 126.355469 56.085938 L 126.070312 55.796875 L 123.792969 55.796875 L 123.507812 56.085938 L 114.96875 76.421875 L 114.683594 76.421875 L 105.863281 56.085938 L 105.578125 55.796875 L 103.300781 55.796875 L 103.015625 56.085938 L 103.015625 78.871094 L 103.300781 79.160156 L 104.582031 79.160156 L 104.867188 78.871094 L 104.867188 59.546875 L 105.152344 59.546875 L 113.402344 78.871094 L 113.6875 79.160156 L 115.398438 79.160156 L 115.683594 78.871094 L 123.933594 59.546875 L 124.359375 59.546875 L 124.359375 78.871094 L 124.644531 79.160156 L 125.925781 79.160156 Z M 98.609375 78.871094 L 98.609375 77.863281 L 98.324219 77.574219 L 86.085938 77.574219 L 85.800781 77.285156 L 85.800781 68.632812 L 86.085938 68.34375 L 97.609375 68.34375 L 97.894531 68.054688 L 97.894531 66.902344 L 97.609375 66.613281 L 86.085938 66.613281 L 85.800781 66.324219 L 85.800781 57.8125 L 86.085938 57.527344 L 98.324219 57.527344 L 98.609375 57.238281 L 98.609375 56.085938 L 98.324219 55.796875 L 84.09375 55.796875 L 83.808594 56.085938 L 83.808594 78.871094 L 84.09375 79.160156 L 98.324219 79.160156 Z M 98.609375 78.871094 " fill-opacity="1" fill-rule="nonzero"/></svg>