<svg xmlns="http://www.w3.org/2000/svg" xmlns:xlink="http://www.w3.org/1999/xlink" width="200" zoomAndPan="magnify" viewBox="0 0 150 149.999998" height="200" preserveAspectRatio="xMidYMid meet" version="1.0"><defs><clipPath id="c53fdb6667"><path d="M 15.707031 15.707031 L 134.207031 15.707031 L 134.207031 134.207031 L 15.707031 134.207031 Z M 15.707031 15.707031 " clip-rule="nonzero"/></clipPath></defs><g clip-path="url(#c53fdb6667)"><path fill="#ffffff" d="M 15.707031 15.707031 L 134.207031 15.707031 L 134.207031 134.207031 L 15.707031 134.207031 Z M 15.707031 15.707031 " fill-opacity="1" fill-rule="evenodd"/></g><path fill="#0382c7" d="M 17.449219 58.929688 L 31.4375 58.929688 L 32.96875 58.992188 L 34.4375 59.121094 L 35.84375 59.441406 L 37.183594 59.757812 L 38.398438 60.269531 L 39.546875 60.78125 L 40.632812 61.421875 L 41.65625 62.121094 L 42.550781 62.890625 L 43.445312 63.71875 L 44.210938 64.613281 L 44.914062 65.570312 L 46.0625 67.617188 L 46.507812 68.703125 L 46.894531 69.789062 L 66.753906 57.011719 L 73.96875 61.867188 L 58.515625 71.828125 L 61.003906 73.488281 L 76.585938 63.589844 L 83.292969 68.0625 L 67.902344 78.214844 L 70.519531 79.8125 L 86.164062 69.851562 L 86.164062 58.929688 L 97.660156 58.929688 L 97.660156 80.707031 L 107.878906 80.707031 L 107.878906 90.921875 L 86.164062 90.921875 L 86.164062 80.449219 L 66.816406 92.902344 L 47.082031 79.554688 L 46.699219 80.707031 L 46.316406 81.792969 L 45.167969 83.964844 L 44.464844 84.921875 L 43.695312 85.878906 L 42.867188 86.773438 L 40.953125 88.304688 L 39.800781 88.945312 L 38.652344 89.519531 L 37.375 90.03125 L 36.035156 90.414062 L 34.628906 90.667969 L 33.160156 90.859375 L 31.5625 90.925781 L 17.449219 90.925781 Z M 28.433594 68.957031 L 31.4375 68.957031 L 32.777344 69.082031 L 33.863281 69.464844 L 34.820312 70.042969 L 35.652344 70.808594 L 36.226562 71.703125 L 36.675781 72.660156 L 36.929688 73.746094 L 36.992188 74.832031 L 36.929688 75.917969 L 36.675781 77.003906 L 36.226562 77.960938 L 35.589844 78.855469 L 34.820312 79.621094 L 33.863281 80.195312 L 32.714844 80.578125 L 31.4375 80.707031 L 28.433594 80.707031 Z M 110.753906 58.929688 L 122.3125 58.929688 L 122.3125 80.707031 L 132.46875 80.707031 L 132.46875 90.921875 L 110.753906 90.921875 Z M 110.753906 58.929688 " fill-opacity="1" fill-rule="evenodd"/></svg>