<svg xmlns="http://www.w3.org/2000/svg" xmlns:xlink="http://www.w3.org/1999/xlink" width="200" zoomAndPan="magnify" viewBox="0 0 150 149.999998" height="200" preserveAspectRatio="xMidYMid meet" version="1.0"><defs><clipPath id="d6d7abe266"><path d="M 0.976562 59.207031 L 148.726562 59.207031 L 148.726562 90.707031 L 0.976562 90.707031 Z M 0.976562 59.207031 " clip-rule="nonzero"/></clipPath></defs><g clip-path="url(#d6d7abe266)"><path fill="#000000" d="M 33.894531 59.519531 C 33.84375 59.699219 33.699219 59.882812 33.566406 59.929688 C 33.351562 60.011719 33.320312 61.605469 33.320312 71.644531 L 33.320312 83.277344 L 33.714844 83.636719 L 34.109375 84.015625 L 38.851562 83.933594 C 43.644531 83.851562 44.171875 83.785156 46.074219 83.097656 C 49.621094 81.800781 52.609375 78.421875 53.628906 74.546875 C 54.019531 72.988281 54.019531 70.347656 53.609375 68.804688 C 52.9375 66.246094 51.394531 63.835938 49.457031 62.277344 C 47.898438 61.046875 45.632812 59.980469 44.121094 59.78125 C 43.597656 59.71875 43.332031 59.601562 43.332031 59.4375 C 43.332031 59.242188 42.613281 59.207031 38.671875 59.207031 C 34.222656 59.207031 33.992188 59.226562 33.894531 59.519531 Z M 43.761719 64.066406 C 45.597656 64.671875 46.960938 65.574219 47.914062 66.820312 C 49.210938 68.558594 49.554688 69.578125 49.570312 71.757812 C 49.570312 73.417969 49.40625 74.089844 48.652344 75.613281 C 48.292969 76.351562 46.191406 78.402344 45.46875 78.75 C 43.628906 79.617188 43.5625 79.617188 40.640625 79.632812 L 37.835938 79.632812 L 37.785156 71.921875 C 37.769531 67.675781 37.785156 64.113281 37.835938 64 C 37.949219 63.6875 42.710938 63.71875 43.761719 64.066406 Z M 8.695312 60.160156 C 7.53125 60.785156 7.546875 60.570312 7.546875 70.21875 C 7.546875 76.007812 7.613281 79.011719 7.726562 79.355469 C 7.957031 80.027344 8.792969 80.535156 9.679688 80.535156 C 10.597656 80.535156 11.402344 79.945312 11.648438 79.09375 C 11.78125 78.683594 11.8125 75.746094 11.78125 69.871094 C 11.730469 61.554688 11.714844 61.242188 11.402344 60.816406 C 11.027344 60.324219 10.171875 59.863281 9.632812 59.863281 C 9.433594 59.863281 9.007812 59.996094 8.695312 60.160156 Z M 56.597656 60.488281 C 55.957031 61.09375 55.925781 61.175781 55.910156 62.113281 C 55.890625 62.785156 55.992188 63.226562 56.1875 63.539062 C 57.207031 65.082031 59.636719 64.949219 60.441406 63.308594 C 60.964844 62.226562 60.667969 61.03125 59.699219 60.292969 C 59.257812 59.945312 58.960938 59.863281 58.207031 59.863281 C 57.351562 59.863281 57.222656 59.914062 56.597656 60.488281 Z M 83.914062 59.996094 C 83.800781 60.078125 83.636719 60.390625 83.554688 60.703125 C 83.339844 61.457031 83.339844 82.996094 83.554688 83.554688 C 83.703125 83.980469 83.734375 83.980469 85.34375 83.980469 C 86.609375 83.980469 87.035156 83.917969 87.230469 83.71875 C 87.460938 83.488281 87.492188 82.226562 87.460938 71.710938 L 87.410156 59.945312 L 85.769531 59.898438 C 84.867188 59.882812 84.03125 59.929688 83.914062 59.996094 Z M 144.640625 60.210938 C 144.3125 60.570312 144.292969 60.75 144.292969 64.164062 C 144.292969 68.183594 144.292969 68.183594 143.195312 67.609375 C 140.945312 66.410156 137.859375 66.3125 135.660156 67.328125 C 134.246094 68.003906 133.527344 68.578125 132.164062 70.183594 C 131.636719 70.792969 130.914062 72.464844 130.667969 73.582031 C 130.339844 75.203125 130.605469 77.746094 131.226562 79.058594 C 131.851562 80.355469 132.082031 80.667969 133.117188 81.703125 C 134.445312 83.046875 136.039062 83.835938 137.972656 84.144531 C 139.105469 84.308594 139.484375 84.308594 140.667969 84.082031 C 141.421875 83.933594 142.457031 83.605469 142.964844 83.359375 C 143.902344 82.882812 144.292969 82.851562 144.292969 83.242188 C 144.292969 83.800781 144.789062 83.980469 146.347656 83.980469 C 147.757812 83.980469 147.90625 83.949219 148.136719 83.621094 C 148.367188 83.292969 148.398438 81.898438 148.398438 71.792969 C 148.398438 64.195312 148.449219 60.375 148.5625 60.4375 C 148.660156 60.488281 148.726562 60.4375 148.726562 60.308594 C 148.726562 60.027344 148.679688 60.011719 146.640625 59.914062 C 145.082031 59.847656 144.96875 59.863281 144.640625 60.210938 Z M 142.113281 71.285156 C 143.882812 72.464844 144.722656 74.367188 144.3125 76.320312 C 143.753906 79.027344 141.175781 80.78125 138.53125 80.226562 C 137.398438 79.996094 136.941406 79.765625 136.039062 78.914062 C 135.28125 78.207031 134.886719 77.484375 134.609375 76.289062 C 134.199219 74.515625 135.101562 72.414062 136.757812 71.316406 C 137.84375 70.59375 138.105469 70.546875 139.8125 70.609375 C 141.0625 70.644531 141.226562 70.710938 142.113281 71.285156 Z M 15.277344 63.738281 C 14.507812 64.066406 14.144531 64.539062 14.03125 65.328125 C 13.980469 65.707031 13.949219 69.839844 13.980469 74.5 L 14.03125 82.996094 L 14.574219 83.523438 C 15.046875 84.015625 15.195312 84.0625 16.082031 84.0625 C 16.96875 84.0625 17.117188 84.015625 17.59375 83.523438 L 18.132812 82.996094 L 18.183594 74.5 C 18.214844 69.839844 18.183594 65.707031 18.132812 65.34375 C 18.019531 64.523438 17.511719 63.917969 16.753906 63.65625 C 16.050781 63.425781 15.96875 63.425781 15.277344 63.738281 Z M 2.292969 66.707031 C 1.898438 66.855469 1.488281 67.265625 1.226562 67.789062 C 1.027344 68.183594 0.980469 68.96875 0.996094 71.578125 C 1.011719 75.335938 1.078125 75.582031 2.277344 76.253906 C 2.917969 76.597656 3.046875 76.617188 3.640625 76.453125 C 4 76.335938 4.507812 76.007812 4.773438 75.730469 L 5.246094 75.222656 L 5.246094 71.511719 C 5.230469 67.953125 5.230469 67.804688 4.871094 67.378906 C 4.3125 66.707031 3.128906 66.394531 2.292969 66.707031 Z M 69.601562 66.738281 C 67.84375 67 66.054688 67.984375 64.789062 69.378906 C 61.179688 73.382812 61.71875 79.289062 66.003906 82.539062 C 67.152344 83.390625 68.058594 83.785156 69.683594 84.097656 C 71.40625 84.425781 73.113281 84.195312 74.769531 83.375 C 75.839844 82.867188 75.9375 82.851562 76.117188 83.113281 C 76.230469 83.261719 76.332031 83.472656 76.332031 83.589844 C 76.332031 83.898438 76.757812 83.980469 78.382812 83.980469 C 79.746094 83.980469 79.957031 83.949219 80.105469 83.652344 C 80.222656 83.441406 80.253906 80.585938 80.238281 75.089844 L 80.1875 66.835938 L 76.742188 66.835938 L 76.363281 67.445312 L 75.96875 68.035156 L 74.835938 67.460938 C 73.328125 66.707031 71.554688 66.460938 69.601562 66.738281 Z M 73.574219 70.957031 C 74.378906 71.398438 75.460938 72.480469 75.871094 73.234375 C 76.167969 73.777344 76.230469 74.15625 76.230469 75.449219 C 76.230469 76.945312 76.214844 77.042969 75.691406 77.878906 C 74.261719 80.144531 71.585938 80.945312 69.222656 79.816406 C 67.8125 79.140625 67.007812 78.125 66.578125 76.417969 C 66.351562 75.46875 66.351562 75.253906 66.5625 74.417969 C 67.023438 72.613281 68.449219 71.070312 70.011719 70.675781 C 70.832031 70.445312 72.964844 70.628906 73.574219 70.957031 Z M 91.136719 66.789062 C 90.992188 66.9375 90.941406 69.773438 90.941406 78.585938 C 90.941406 84.964844 90.992188 90.296875 91.039062 90.445312 C 91.121094 90.660156 91.417969 90.707031 92.648438 90.707031 C 94.027344 90.707031 94.207031 90.675781 94.519531 90.332031 C 94.863281 89.96875 94.882812 89.824219 94.882812 86.425781 C 94.882812 84.472656 94.929688 82.851562 94.980469 82.800781 C 95.027344 82.75 95.636719 82.964844 96.324219 83.277344 C 100.691406 85.3125 105.503906 83.671875 107.816406 79.386719 C 109 77.191406 109 73.613281 107.785156 71.265625 C 106.929688 69.609375 104.632812 67.625 102.84375 67.035156 C 100.808594 66.363281 98.246094 66.542969 96.324219 67.476562 C 95.6875 67.789062 95.09375 68.019531 95.046875 67.984375 C 94.980469 67.9375 94.882812 67.707031 94.832031 67.445312 C 94.765625 67.164062 94.570312 66.902344 94.308594 66.789062 C 93.75 66.527344 91.402344 66.527344 91.136719 66.789062 Z M 102.070312 71.039062 C 102.925781 71.464844 104.023438 72.710938 104.417969 73.679688 C 105.191406 75.566406 104.5 77.992188 102.84375 79.242188 C 100.5625 80.964844 97.6875 80.667969 95.996094 78.535156 C 95.128906 77.417969 94.882812 76.746094 94.882812 75.351562 C 94.882812 74.367188 94.964844 73.972656 95.292969 73.316406 C 95.949219 72.023438 97.148438 71.003906 98.410156 70.675781 C 99.28125 70.445312 101.300781 70.644531 102.070312 71.039062 Z M 117.617188 66.753906 C 116.667969 66.886719 114.976562 67.640625 113.972656 68.378906 C 113.167969 68.96875 111.890625 70.511719 111.527344 71.347656 C 110.789062 73.039062 110.640625 73.726562 110.640625 75.386719 C 110.640625 77.746094 111.214844 79.40625 112.644531 81.128906 C 114.5 83.375 117.796875 84.636719 120.539062 84.144531 C 121.65625 83.949219 122.558594 83.652344 123.117188 83.308594 C 123.988281 82.785156 124.429688 82.785156 124.429688 83.308594 C 124.429688 83.457031 124.511719 83.671875 124.628906 83.785156 C 124.890625 84.046875 127.910156 84.046875 128.175781 83.785156 C 128.320312 83.636719 128.371094 81.503906 128.371094 75.171875 L 128.371094 66.738281 L 126.613281 66.789062 L 124.839844 66.835938 L 124.546875 67.410156 C 124.21875 68.066406 124.265625 68.066406 122.820312 67.394531 C 121.277344 66.671875 119.589844 66.460938 117.617188 66.753906 Z M 121.917969 71.070312 C 123.660156 72.167969 124.429688 73.5 124.429688 75.367188 C 124.429688 76.796875 124.085938 77.730469 123.183594 78.730469 C 121.195312 80.914062 118.0625 80.898438 115.84375 78.683594 C 115.664062 78.503906 115.320312 77.945312 115.058594 77.417969 C 113.777344 74.8125 115.320312 71.464844 118.191406 70.660156 C 118.421875 70.59375 119.195312 70.578125 119.933594 70.59375 C 121.015625 70.644531 121.378906 70.726562 121.917969 71.070312 Z M 56.566406 67.117188 C 56.335938 67.445312 56.304688 68.496094 56.304688 75.367188 C 56.304688 82.242188 56.335938 83.292969 56.566406 83.621094 C 56.796875 83.949219 56.960938 83.980469 58.257812 83.980469 C 59.4375 83.980469 59.75 83.933594 59.964844 83.6875 C 60.210938 83.40625 60.242188 82.585938 60.242188 75.335938 C 60.242188 65.902344 60.441406 66.753906 58.222656 66.753906 C 56.960938 66.753906 56.796875 66.789062 56.566406 67.117188 Z M 21.976562 67.691406 C 21.746094 67.722656 21.304688 68.019531 20.992188 68.332031 L 20.433594 68.90625 L 20.382812 72.21875 C 20.316406 76.074219 20.417969 76.566406 21.304688 77.171875 C 22.074219 77.699219 22.910156 77.714844 23.652344 77.207031 C 24.636719 76.550781 24.703125 76.238281 24.703125 72.578125 C 24.703125 69.035156 24.621094 68.625 23.796875 68.050781 C 23.355469 67.738281 22.632812 67.609375 21.976562 67.691406 Z M 21.976562 67.691406 " fill-opacity="1" fill-rule="nonzero"/></g></svg>