<svg xmlns="http://www.w3.org/2000/svg" xmlns:xlink="http://www.w3.org/1999/xlink" width="200" zoomAndPan="magnify" viewBox="0 0 150 149.999998" height="200" preserveAspectRatio="xMidYMid meet" version="1.0"><defs><clipPath id="eed3ae2d55"><path d="M 15.355469 15 L 137.605469 15 L 137.605469 137.25 L 15.355469 137.25 Z M 15.355469 15 " clip-rule="nonzero"/></clipPath></defs><g clip-path="url(#eed3ae2d55)"><path fill="#ffffff" d="M 15.355469 15 L 137.605469 15 L 137.605469 137.25 L 15.355469 137.25 Z M 15.355469 15 " fill-opacity="1" fill-rule="evenodd"/></g><path fill="#008893" d="M 20.34375 60.480469 L 21.109375 57.9375 L 36.316406 57.9375 C 38.191406 57.9375 39.492188 58.402344 40.222656 59.335938 C 41.605469 61.109375 43 62.875 44.398438 64.636719 C 45.785156 66.386719 46.425781 68.003906 46.324219 69.488281 C 46.425781 70.894531 45.917969 72.394531 44.789062 73.992188 C 43.617188 75.65625 42.433594 77.3125 41.246094 78.964844 C 40.496094 80 39.820312 80.664062 39.226562 80.957031 C 38.628906 81.25 37.691406 81.394531 36.421875 81.394531 L 20.34375 81.394531 L 21.039062 78.832031 C 21.507812 78.832031 21.929688 78.808594 22.308594 78.765625 C 22.695312 78.71875 22.886719 78.261719 22.886719 77.398438 L 22.886719 61.425781 C 22.886719 60.855469 22.640625 60.558594 22.152344 60.539062 C 21.664062 60.527344 21.058594 60.503906 20.34375 60.480469 Z M 39.214844 69.492188 C 39.214844 69.117188 39.011719 68.5625 38.59375 67.839844 C 38.144531 67.054688 37.664062 66.292969 37.144531 65.554688 C 36.609375 64.78125 36.054688 64.03125 35.472656 63.296875 C 34.910156 62.589844 34.484375 62.078125 34.1875 61.75 C 33.664062 60.972656 32.9375 60.5625 32.003906 60.527344 C 31.074219 60.488281 30.328125 60.46875 29.769531 60.480469 L 29.769531 78.832031 C 30.601562 78.832031 31.433594 78.8125 32.261719 78.765625 C 33.035156 78.71875 33.691406 78.257812 34.242188 77.382812 C 34.265625 77.3125 34.539062 76.945312 35.066406 76.277344 C 35.65625 75.523438 36.234375 74.757812 36.789062 73.980469 C 37.390625 73.152344 37.953125 72.296875 38.476562 71.417969 C 38.980469 70.574219 39.226562 69.929688 39.214844 69.492188 Z M 56.761719 67.902344 L 55.105469 71.527344 L 47.84375 71.527344 L 49.851562 67.902344 Z M 66.648438 61.308594 L 66.648438 77.917969 C 66.671875 78.289062 67.070312 78.578125 67.851562 78.785156 C 68.625 78.992188 69.480469 78.964844 70.40625 78.6875 C 71.332031 78.410156 72.179688 77.8125 72.953125 76.898438 C 73.730469 75.984375 74.128906 74.578125 74.164062 72.691406 L 76.277344 72.070312 L 76.277344 81.394531 L 57.203125 81.394531 L 57.902344 78.832031 C 58.390625 78.832031 58.820312 78.804688 59.199219 78.746094 C 59.570312 78.6875 59.75 78.238281 59.746094 77.398438 L 59.746094 61.425781 C 59.746094 60.941406 59.535156 60.660156 59.128906 60.574219 C 58.722656 60.492188 58.074219 60.460938 57.203125 60.480469 L 57.96875 57.9375 L 70.347656 57.9375 L 69.597656 60.464844 C 69.015625 60.523438 68.398438 60.527344 67.738281 60.492188 C 67.078125 60.453125 66.714844 60.722656 66.648438 61.308594 Z M 85.042969 60.28125 C 85.519531 61.058594 85.589844 61.800781 85.265625 62.507812 C 84.929688 63.214844 84.375 63.808594 83.574219 64.292969 C 82.765625 64.785156 81.703125 65.003906 80.375 64.953125 C 79.054688 64.898438 78.316406 64.734375 78.167969 64.480469 C 78 64.246094 78.183594 63.527344 78.734375 62.328125 C 79.28125 61.132812 79.957031 60.292969 80.757812 59.808594 C 81.554688 59.3125 82.347656 59.078125 83.132812 59.097656 C 83.914062 59.121094 84.550781 59.515625 85.042969 60.28125 Z M 85.398438 66.433594 L 85.398438 72.265625 C 85.398438 74.199219 85.402344 76.136719 85.414062 78.074219 C 85.378906 78.640625 85.59375 79.070312 86.054688 79.34375 C 86.503906 79.621094 86.996094 79.761719 87.527344 79.757812 L 87.050781 81.394531 L 77.214844 81.394531 L 77.65625 79.777344 C 78.382812 79.753906 78.863281 79.480469 79.089844 78.976562 C 79.316406 78.464844 79.429688 78.121094 79.429688 77.949219 L 79.449219 70.398438 C 79.519531 69.789062 79.328125 69.445312 78.878906 69.363281 C 78.328125 69.265625 77.773438 69.1875 77.214844 69.132812 L 77.828125 66.992188 C 78.882812 67.070312 80.058594 66.84375 81.347656 66.304688 C 82.640625 65.777344 83.914062 65.496094 85.175781 65.472656 C 85.34375 65.613281 85.417969 65.707031 85.390625 65.777344 C 85.363281 65.847656 85.363281 66.066406 85.398438 66.433594 Z M 99.054688 69.726562 C 98.28125 69.964844 97.683594 70.3125 97.261719 70.777344 C 96.921875 71.152344 96.59375 71.539062 96.273438 71.929688 L 96.289062 77.96875 C 96.40625 79.230469 97.09375 79.828125 98.351562 79.757812 L 97.875 81.394531 L 88.039062 81.394531 L 88.480469 79.777344 C 89.660156 79.625 90.253906 79.023438 90.253906 77.949219 L 90.273438 70.398438 C 90.273438 69.777344 90.074219 69.421875 89.683594 69.316406 C 89.289062 69.21875 88.742188 69.15625 88.039062 69.132812 L 88.648438 66.992188 C 90.015625 66.910156 91.269531 66.65625 92.40625 66.226562 C 93.566406 65.789062 94.761719 65.539062 96 65.472656 C 96.078125 65.511719 96.140625 65.574219 96.183594 65.652344 C 96.242188 65.738281 96.253906 65.996094 96.222656 66.433594 C 96.222656 66.714844 96.226562 66.996094 96.230469 67.265625 C 96.238281 67.542969 96.242188 67.820312 96.253906 68.085938 C 96.253906 68.4375 96.277344 68.632812 96.3125 68.679688 C 96.351562 68.722656 96.492188 68.695312 96.734375 68.589844 C 97.757812 68.054688 98.75 67.53125 99.722656 67.027344 C 100.695312 66.519531 102.011719 66.121094 103.675781 65.828125 C 106.023438 65.886719 107.324219 66.824219 107.574219 68.644531 L 107.574219 77.785156 C 107.664062 78.257812 107.8125 78.644531 108.007812 78.949219 C 108.207031 79.253906 109.003906 79.484375 110.390625 79.636719 L 109.402344 81.394531 L 103.449219 81.394531 C 102.226562 81.429688 101.609375 80.917969 101.609375 79.855469 L 101.609375 71.648438 C 101.609375 71.0625 101.289062 70.566406 100.65625 70.152344 C 100.019531 69.742188 99.484375 69.597656 99.054688 69.726562 Z M 119.675781 57.988281 L 119.675781 71.476562 L 125.136719 65.761719 L 131.101562 65.761719 L 130.625 67.445312 C 129.296875 67.414062 128.488281 67.574219 128.203125 67.917969 C 127.503906 68.613281 126.804688 69.308594 126.109375 70.003906 C 125.417969 70.691406 124.730469 71.378906 124.042969 72.070312 L 131.222656 78.542969 C 131.820312 79.382812 133.214844 79.636719 135.394531 79.304688 L 134.785156 81.394531 L 126.515625 81.394531 L 119.714844 74.953125 L 119.714844 78.074219 C 119.714844 78.566406 119.859375 78.941406 120.136719 79.195312 C 120.421875 79.449219 120.980469 79.632812 121.808594 79.761719 L 121.347656 81.394531 L 111.496094 81.394531 L 111.957031 79.777344 C 112.707031 79.554688 113.171875 79.34375 113.351562 79.160156 C 113.539062 78.976562 113.660156 78.574219 113.730469 77.953125 L 113.730469 62.625 C 113.730469 62.09375 113.539062 61.777344 113.160156 61.660156 C 112.777344 61.550781 112.234375 61.453125 111.53125 61.371094 L 112.125 59.265625 Z M 119.675781 57.988281 " fill-opacity="1" fill-rule="evenodd"/><path fill="#000000" d="M 20.5 94.050781 L 23.476562 94.050781 C 23.882812 94.050781 24.261719 94.019531 24.625 93.941406 C 24.996094 93.871094 25.320312 93.710938 25.597656 93.457031 C 25.871094 93.203125 26.011719 92.839844 26.011719 92.363281 C 26.011719 92.054688 25.933594 91.785156 25.777344 91.550781 C 25.617188 91.3125 25.410156 91.128906 25.152344 90.996094 C 24.882812 90.863281 24.597656 90.785156 24.296875 90.773438 L 24.296875 90.667969 C 24.546875 90.65625 24.78125 90.59375 25.007812 90.484375 C 25.242188 90.375 25.421875 90.210938 25.570312 90 C 25.71875 89.785156 25.785156 89.535156 25.785156 89.230469 C 25.785156 89.007812 25.742188 88.808594 25.65625 88.617188 C 25.5625 88.410156 25.429688 88.238281 25.25 88.097656 C 25.058594 87.953125 24.828125 87.839844 24.53125 87.75 C 24.183594 87.664062 23.828125 87.625 23.46875 87.628906 L 20.5 87.628906 L 20.5 87.882812 L 20.792969 87.882812 C 20.933594 87.882812 21.054688 87.925781 21.164062 87.992188 C 21.277344 88.078125 21.328125 88.226562 21.328125 88.445312 L 21.328125 93.238281 C 21.328125 93.609375 21.148438 93.800781 20.792969 93.800781 L 20.5 93.800781 Z M 22.75 88.046875 C 22.792969 88.039062 22.851562 88.039062 22.929688 88.039062 C 23.378906 88.039062 23.726562 88.148438 23.960938 88.394531 C 24.195312 88.625 24.308594 88.921875 24.308594 89.292969 C 24.308594 89.648438 24.210938 89.941406 24.011719 90.191406 C 23.824219 90.433594 23.519531 90.558594 23.097656 90.558594 L 22.75 90.546875 L 22.75 88.046875 L 22.75 90.964844 L 23.078125 90.964844 C 23.40625 90.964844 23.726562 91.042969 24.03125 91.203125 C 24.332031 91.371094 24.488281 91.722656 24.488281 92.261719 C 24.488281 92.539062 24.445312 92.769531 24.34375 92.980469 C 24.257812 93.183594 24.121094 93.34375 23.933594 93.464844 C 23.738281 93.585938 23.527344 93.644531 23.296875 93.636719 C 22.933594 93.636719 22.75 93.421875 22.75 93.003906 Z M 29.160156 94.050781 L 30.824219 94.050781 L 30.824219 93.84375 C 30.648438 93.84375 30.539062 93.808594 30.484375 93.742188 C 30.433594 93.671875 30.40625 93.578125 30.40625 93.457031 L 30.40625 89.65625 L 28.746094 89.65625 L 28.746094 89.863281 C 29.023438 89.863281 29.160156 89.996094 29.160156 90.253906 L 29.160156 92.867188 C 29.085938 93.03125 28.988281 93.179688 28.867188 93.316406 C 28.746094 93.445312 28.632812 93.507812 28.519531 93.507812 C 28.277344 93.507812 28.15625 93.316406 28.15625 92.9375 L 28.15625 89.65625 L 26.496094 89.65625 L 26.496094 89.863281 L 26.546875 89.863281 C 26.703125 89.871094 26.808594 89.90625 26.851562 89.976562 C 26.894531 90.0625 26.917969 90.15625 26.910156 90.253906 L 26.910156 92.929688 C 26.910156 93.335938 27.023438 93.644531 27.242188 93.863281 C 27.457031 94.070312 27.707031 94.183594 28.011719 94.183594 C 28.226562 94.183594 28.433594 94.125 28.652344 94.011719 C 28.875 93.898438 29.042969 93.730469 29.160156 93.507812 Z M 31.101562 94.050781 L 33.175781 94.050781 L 33.175781 93.84375 C 33.011719 93.84375 32.898438 93.808594 32.839844 93.742188 C 32.789062 93.671875 32.761719 93.578125 32.761719 93.457031 L 32.761719 89.65625 L 31.101562 89.65625 L 31.101562 89.863281 C 31.28125 89.863281 31.394531 89.90625 31.445312 89.976562 C 31.496094 90.0625 31.519531 90.15625 31.515625 90.253906 L 31.515625 93.457031 C 31.515625 93.707031 31.394531 93.84375 31.152344 93.84375 L 31.097656 93.84375 L 31.097656 94.050781 Z M 31.472656 88.296875 C 31.472656 88.476562 31.535156 88.636719 31.664062 88.765625 C 31.792969 88.894531 31.949219 88.964844 32.136719 88.964844 C 32.347656 88.964844 32.503906 88.894531 32.621094 88.746094 C 32.742188 88.605469 32.804688 88.453125 32.804688 88.296875 C 32.804688 88.132812 32.742188 87.976562 32.621094 87.835938 C 32.503906 87.699219 32.335938 87.628906 32.136719 87.628906 C 31.949219 87.628906 31.792969 87.699219 31.664062 87.820312 C 31.53125 87.953125 31.464844 88.109375 31.472656 88.296875 Z M 33.417969 94.050781 L 35.496094 94.050781 L 35.496094 93.84375 C 35.324219 93.84375 35.210938 93.808594 35.160156 93.742188 C 35.105469 93.671875 35.082031 93.578125 35.082031 93.457031 L 35.082031 87.632812 L 33.359375 87.632812 L 33.359375 87.839844 L 33.472656 87.839844 C 33.714844 87.839844 33.835938 87.96875 33.835938 88.226562 L 33.835938 93.457031 C 33.835938 93.609375 33.800781 93.714844 33.738281 93.765625 C 33.660156 93.824219 33.570312 93.847656 33.472656 93.84375 L 33.417969 93.84375 Z M 38.507812 94.183594 L 39.933594 93.84375 L 39.933594 93.636719 L 39.882812 93.636719 C 39.726562 93.636719 39.625 93.601562 39.582031 93.523438 C 39.53125 93.4375 39.507812 93.339844 39.511719 93.238281 L 39.511719 87.632812 L 37.789062 87.632812 L 37.789062 87.839844 L 37.902344 87.839844 C 38.144531 87.839844 38.265625 87.96875 38.265625 88.226562 L 38.265625 89.90625 C 38.039062 89.636719 37.753906 89.5 37.410156 89.5 C 37.121094 89.5 36.871094 89.59375 36.628906 89.785156 C 36.394531 89.976562 36.207031 90.242188 36.066406 90.589844 C 35.929688 90.9375 35.859375 91.324219 35.859375 91.757812 C 35.859375 92.328125 35.9375 92.796875 36.074219 93.160156 C 36.222656 93.523438 36.402344 93.785156 36.628906 93.9375 C 36.855469 94.105469 37.089844 94.183594 37.332031 94.183594 C 37.71875 94.183594 38.03125 94 38.265625 93.644531 L 38.265625 94.183594 Z M 38.265625 92.988281 C 38.265625 93.152344 38.214844 93.289062 38.136719 93.402344 C 38.046875 93.519531 37.929688 93.578125 37.78125 93.578125 C 37.546875 93.578125 37.390625 93.457031 37.3125 93.210938 C 37.246094 92.96875 37.203125 92.660156 37.203125 92.269531 L 37.203125 91.472656 C 37.191406 91.335938 37.191406 91.222656 37.191406 91.144531 C 37.191406 90.78125 37.226562 90.496094 37.296875 90.285156 C 37.367188 90.078125 37.503906 89.976562 37.710938 89.976562 C 37.910156 89.976562 38.09375 90.105469 38.265625 90.382812 Z M 40.210938 94.050781 L 42.289062 94.050781 L 42.289062 93.84375 C 42.125 93.84375 42.011719 93.808594 41.953125 93.742188 C 41.898438 93.671875 41.875 93.578125 41.875 93.457031 L 41.875 89.65625 L 40.210938 89.65625 L 40.210938 89.863281 C 40.394531 89.863281 40.507812 89.90625 40.558594 89.976562 C 40.605469 90.0625 40.628906 90.15625 40.625 90.253906 L 40.625 93.457031 C 40.625 93.707031 40.503906 93.84375 40.261719 93.84375 L 40.210938 93.84375 Z M 40.585938 88.296875 C 40.585938 88.476562 40.644531 88.636719 40.777344 88.765625 C 40.90625 88.894531 41.0625 88.964844 41.25 88.964844 C 41.457031 88.964844 41.613281 88.894531 41.734375 88.746094 C 41.855469 88.605469 41.917969 88.453125 41.917969 88.296875 C 41.917969 88.132812 41.855469 87.976562 41.734375 87.835938 C 41.613281 87.699219 41.449219 87.628906 41.25 87.628906 C 41.0625 87.628906 40.90625 87.699219 40.777344 87.820312 C 40.644531 87.953125 40.578125 88.109375 40.585938 88.296875 Z M 42.566406 94.050781 L 44.589844 94.050781 L 44.589844 93.84375 C 44.351562 93.84375 44.226562 93.714844 44.226562 93.457031 L 44.226562 90.695312 C 44.445312 90.3125 44.667969 90.132812 44.894531 90.132812 C 45.136719 90.132812 45.257812 90.285156 45.257812 90.597656 L 45.257812 93.457031 C 45.257812 93.714844 45.136719 93.84375 44.894531 93.84375 L 44.894531 94.050781 L 46.917969 94.050781 L 46.917969 93.84375 L 46.867188 93.84375 C 46.625 93.84375 46.503906 93.714844 46.503906 93.457031 L 46.503906 90.761719 C 46.503906 90.46875 46.453125 90.226562 46.355469 90.035156 C 46.273438 89.859375 46.140625 89.722656 45.96875 89.628906 C 45.800781 89.539062 45.625 89.496094 45.4375 89.5 C 45.015625 89.5 44.617188 89.726562 44.226562 90.15625 L 44.226562 89.65625 L 42.566406 89.65625 L 42.566406 89.863281 C 42.75 89.863281 42.859375 89.90625 42.910156 89.976562 C 42.960938 90.0625 42.984375 90.15625 42.980469 90.253906 L 42.980469 93.457031 C 42.980469 93.714844 42.859375 93.84375 42.617188 93.84375 L 42.566406 93.84375 Z M 51.253906 89.65625 L 50.042969 89.65625 C 49.792969 89.550781 49.480469 89.5 49.101562 89.5 C 48.640625 89.5 48.277344 89.585938 48.011719 89.75 C 47.75 89.914062 47.578125 90.113281 47.480469 90.332031 C 47.386719 90.546875 47.34375 90.753906 47.34375 90.9375 C 47.34375 91.238281 47.429688 91.523438 47.601562 91.785156 C 47.785156 92.042969 48.027344 92.226562 48.347656 92.335938 C 47.75 92.589844 47.449219 92.925781 47.449219 93.359375 C 47.449219 93.671875 47.59375 93.914062 47.898438 94.085938 L 47.898438 94.121094 C 47.722656 94.152344 47.574219 94.234375 47.457031 94.363281 C 47.339844 94.488281 47.28125 94.632812 47.285156 94.804688 C 47.285156 94.960938 47.34375 95.125 47.449219 95.273438 C 47.5625 95.429688 47.761719 95.558594 48.054688 95.671875 C 48.347656 95.773438 48.765625 95.828125 49.273438 95.828125 C 49.792969 95.828125 50.199219 95.75 50.503906 95.585938 C 50.804688 95.421875 51.011719 95.222656 51.125 94.988281 C 51.238281 94.769531 51.296875 94.535156 51.296875 94.285156 C 51.296875 93.9375 51.203125 93.6875 51.003906 93.515625 C 50.820312 93.34375 50.601562 93.238281 50.355469 93.195312 C 50.097656 93.152344 49.839844 93.132812 49.578125 93.132812 C 49.515625 93.132812 49.421875 93.132812 49.308594 93.140625 L 49.03125 93.140625 C 48.832031 93.140625 48.667969 93.125 48.554688 93.082031 C 48.433594 93.046875 48.375 92.953125 48.375 92.804688 C 48.375 92.726562 48.398438 92.65625 48.460938 92.597656 C 48.515625 92.53125 48.589844 92.5 48.675781 92.5 C 48.703125 92.5 48.769531 92.5 48.875 92.511719 C 48.988281 92.519531 49.074219 92.519531 49.144531 92.519531 C 49.542969 92.519531 49.863281 92.441406 50.113281 92.304688 C 50.371094 92.15625 50.5625 91.972656 50.675781 91.75 C 50.796875 91.523438 50.847656 91.300781 50.847656 91.046875 C 50.851562 90.726562 50.746094 90.445312 50.527344 90.210938 L 51.253906 90.261719 Z M 49.144531 92.140625 C 48.789062 92.140625 48.617188 91.757812 48.617188 91.007812 C 48.617188 90.253906 48.796875 89.882812 49.144531 89.882812 C 49.488281 89.882812 49.664062 90.261719 49.664062 91.007812 C 49.664062 91.757812 49.488281 92.140625 49.144531 92.140625 L 49.28125 95.445312 C 48.847656 95.445312 48.546875 95.386719 48.355469 95.273438 C 48.167969 95.152344 48.070312 95.007812 48.070312 94.832031 C 48.070312 94.582031 48.175781 94.417969 48.382812 94.332031 C 48.589844 94.246094 48.867188 94.203125 49.214844 94.203125 C 49.601562 94.203125 49.914062 94.238281 50.148438 94.304688 C 50.382812 94.375 50.496094 94.519531 50.496094 94.753906 C 50.496094 95.214844 50.097656 95.449219 49.28125 95.449219 Z M 54.640625 87.632812 L 54.640625 87.882812 C 54.839844 87.890625 55.003906 87.933594 55.140625 88.019531 C 55.28125 88.097656 55.410156 88.238281 55.53125 88.417969 L 55.53125 93.238281 C 55.53125 93.457031 55.480469 93.59375 55.367188 93.679688 C 55.253906 93.761719 55.132812 93.800781 54.996094 93.800781 L 54.699219 93.800781 L 54.699219 94.050781 L 56.777344 94.050781 L 56.777344 93.800781 L 56.484375 93.800781 C 56.34375 93.800781 56.222656 93.757812 56.109375 93.679688 C 56 93.59375 55.945312 93.445312 55.945312 93.238281 L 55.945312 88.816406 L 60.257812 94.183594 L 60.5 94.183594 L 60.5 88.445312 C 60.5 88.226562 60.558594 88.089844 60.664062 88.003906 C 60.773438 87.921875 60.898438 87.882812 61.035156 87.882812 L 61.328125 87.882812 L 61.328125 87.632812 L 59.25 87.632812 L 59.25 87.882812 L 59.546875 87.882812 C 59.683594 87.882812 59.816406 87.925781 59.917969 88.003906 C 60.03125 88.089844 60.082031 88.238281 60.082031 88.445312 L 60.082031 91.742188 L 56.777344 87.632812 Z M 65.09375 92.71875 C 64.824219 93.195312 64.511719 93.4375 64.132812 93.4375 C 63.863281 93.4375 63.640625 93.359375 63.457031 93.207031 C 63.269531 93.039062 63.128906 92.839844 63.042969 92.582031 C 62.949219 92.3125 62.902344 92.035156 62.90625 91.75 L 65.320312 91.75 C 65.320312 91.402344 65.273438 91.101562 65.1875 90.816406 C 65.101562 90.539062 64.992188 90.296875 64.824219 90.097656 C 64.671875 89.90625 64.484375 89.753906 64.261719 89.648438 C 64.03125 89.539062 63.789062 89.488281 63.535156 89.492188 C 63.171875 89.492188 62.84375 89.605469 62.558594 89.820312 C 62.25 90.066406 62.023438 90.371094 61.882812 90.738281 C 61.710938 91.152344 61.625 91.582031 61.632812 92.027344 C 61.632812 92.410156 61.710938 92.761719 61.847656 93.089844 C 61.988281 93.421875 62.203125 93.6875 62.488281 93.878906 C 62.78125 94.078125 63.128906 94.183594 63.527344 94.183594 C 63.992188 94.183594 64.367188 94.050781 64.652344 93.785156 C 64.945312 93.523438 65.164062 93.210938 65.316406 92.847656 Z M 62.90625 91.371094 C 62.90625 90.980469 62.9375 90.667969 63.007812 90.453125 C 63.078125 90.226562 63.164062 90.078125 63.25 90 C 63.355469 89.914062 63.449219 89.882812 63.546875 89.882812 C 63.640625 89.882812 63.726562 89.914062 63.8125 89.984375 C 63.898438 90.054688 63.976562 90.183594 64.039062 90.375 C 64.097656 90.5625 64.132812 90.816406 64.132812 91.152344 C 64.132812 91.171875 64.132812 91.203125 64.125 91.257812 L 64.125 91.371094 Z M 65.683594 90.042969 L 66.234375 90.042969 L 66.234375 92.910156 C 66.234375 93.757812 66.589844 94.183594 67.292969 94.183594 C 67.621094 94.183594 67.863281 94.097656 68.027344 93.921875 C 68.203125 93.742188 68.359375 93.464844 68.503906 93.082031 L 68.269531 93.003906 C 68.167969 93.367188 68.011719 93.550781 67.792969 93.550781 C 67.664062 93.550781 67.585938 93.496094 67.542969 93.382812 C 67.5 93.273438 67.484375 93.117188 67.484375 92.910156 L 67.484375 90.042969 L 68.425781 90.042969 L 68.425781 89.65625 L 67.484375 89.65625 L 67.484375 88.011719 L 67.300781 88.011719 C 67.183594 88.273438 67.042969 88.519531 66.878906 88.753906 C 66.707031 88.992188 66.515625 89.207031 66.296875 89.394531 C 66.097656 89.585938 65.890625 89.726562 65.683594 89.8125 Z M 68.535156 89.65625 L 68.535156 89.863281 C 68.632812 89.863281 68.703125 89.898438 68.753906 89.949219 C 68.804688 90.011719 68.851562 90.089844 68.894531 90.199219 L 70.328125 94.183594 L 70.589844 94.183594 L 71.585938 91.429688 L 72.476562 94.183594 L 72.734375 94.183594 L 74.023438 90.390625 C 74.09375 90.210938 74.15625 90.078125 74.214844 89.992188 C 74.273438 89.90625 74.371094 89.863281 74.492188 89.863281 L 74.492188 89.65625 L 73.289062 89.65625 L 73.289062 89.863281 L 73.324219 89.863281 C 73.445312 89.863281 73.523438 89.898438 73.585938 89.949219 C 73.636719 90.003906 73.664062 90.066406 73.660156 90.140625 C 73.660156 90.183594 73.644531 90.277344 73.601562 90.425781 L 73.023438 92.21875 L 72.425781 90.304688 C 72.402344 90.238281 72.386719 90.167969 72.382812 90.097656 C 72.390625 89.941406 72.46875 89.863281 72.632812 89.863281 L 72.839844 89.863281 L 72.839844 89.65625 L 70.839844 89.65625 L 70.839844 89.863281 C 71.003906 89.863281 71.125 89.976562 71.195312 90.199219 L 71.394531 90.824219 L 70.902344 92.214844 L 70.246094 90.304688 C 70.21875 90.238281 70.203125 90.167969 70.199219 90.09375 C 70.207031 89.941406 70.285156 89.863281 70.453125 89.863281 L 70.539062 89.863281 L 70.539062 89.65625 Z M 76.734375 94.183594 C 77.078125 94.183594 77.410156 94.097656 77.71875 93.921875 C 78.039062 93.742188 78.289062 93.480469 78.492188 93.136719 C 78.699219 92.78125 78.792969 92.347656 78.792969 91.84375 C 78.792969 91.34375 78.6875 90.910156 78.492188 90.558594 C 78.28125 90.203125 78.03125 89.941406 77.710938 89.761719 C 77.40625 89.589844 77.082031 89.5 76.734375 89.5 C 76.351562 89.496094 76 89.597656 75.675781 89.804688 C 75.355469 90.019531 75.109375 90.300781 74.941406 90.652344 C 74.757812 91.027344 74.671875 91.425781 74.671875 91.847656 C 74.671875 92.347656 74.777344 92.78125 74.976562 93.136719 C 75.183594 93.492188 75.445312 93.75 75.765625 93.921875 C 76.074219 94.097656 76.40625 94.183594 76.734375 94.183594 Z M 76.734375 93.800781 C 76.421875 93.800781 76.222656 93.628906 76.136719 93.273438 C 76.050781 92.917969 76.007812 92.441406 76.007812 91.84375 C 76.007812 91.566406 76.015625 91.324219 76.023438 91.109375 C 76.039062 90.90625 76.066406 90.703125 76.109375 90.503906 C 76.164062 90.3125 76.230469 90.167969 76.335938 90.054688 C 76.429688 89.933594 76.570312 89.882812 76.734375 89.882812 C 77.054688 89.882812 77.253906 90.0625 77.332031 90.410156 C 77.417969 90.765625 77.460938 91.238281 77.460938 91.84375 C 77.460938 92.445312 77.417969 92.929688 77.332031 93.273438 C 77.246094 93.628906 77.046875 93.800781 76.734375 93.800781 Z M 79.191406 94.050781 L 81.269531 94.050781 L 81.269531 93.84375 C 81.101562 93.84375 80.992188 93.808594 80.929688 93.742188 C 80.878906 93.671875 80.851562 93.578125 80.851562 93.457031 L 80.851562 91.285156 C 80.851562 91.015625 80.878906 90.808594 80.929688 90.640625 C 80.980469 90.484375 81.085938 90.410156 81.257812 90.410156 C 81.328125 90.410156 81.398438 90.453125 81.484375 90.546875 C 81.570312 90.636719 81.640625 90.703125 81.691406 90.738281 C 81.742188 90.78125 81.820312 90.800781 81.949219 90.800781 C 82.117188 90.800781 82.273438 90.738281 82.394531 90.625 C 82.511719 90.507812 82.574219 90.339844 82.574219 90.132812 C 82.574219 89.917969 82.503906 89.761719 82.367188 89.65625 C 82.21875 89.550781 82.054688 89.496094 81.871094 89.5 C 81.675781 89.5 81.476562 89.5625 81.292969 89.671875 C 81.101562 89.796875 80.953125 89.960938 80.851562 90.167969 L 80.851562 89.65625 L 79.191406 89.65625 L 79.191406 89.863281 C 79.371094 89.863281 79.484375 89.90625 79.535156 89.976562 C 79.585938 90.0625 79.609375 90.15625 79.605469 90.253906 L 79.605469 93.457031 C 79.605469 93.707031 79.484375 93.84375 79.242188 93.84375 L 79.191406 93.84375 Z M 82.695312 94.050781 L 84.773438 94.050781 L 84.773438 93.84375 L 84.722656 93.84375 C 84.476562 93.84375 84.355469 93.714844 84.355469 93.457031 L 84.355469 92.199219 L 84.476562 92.0625 L 85.386719 93.496094 C 85.421875 93.546875 85.445312 93.601562 85.449219 93.664062 C 85.449219 93.785156 85.363281 93.84375 85.1875 93.84375 L 85.113281 93.84375 L 85.113281 94.050781 L 87.171875 94.050781 L 87.171875 93.84375 C 87.09375 93.832031 87.027344 93.796875 86.972656 93.742188 C 86.945312 93.714844 86.929688 93.691406 86.902344 93.65625 C 86.886719 93.621094 86.875 93.59375 86.867188 93.59375 L 85.300781 91.171875 L 86.191406 90.210938 C 86.390625 89.976562 86.617188 89.863281 86.867188 89.863281 L 86.867188 89.65625 L 85.003906 89.65625 L 85.003906 89.863281 L 85.082031 89.863281 C 85.394531 89.863281 85.542969 89.976562 85.542969 90.210938 C 85.542969 90.304688 85.492188 90.417969 85.386719 90.53125 L 84.355469 91.679688 L 84.355469 87.628906 L 82.636719 87.628906 L 82.636719 87.839844 L 82.746094 87.839844 C 82.992188 87.839844 83.109375 87.96875 83.109375 88.226562 L 83.109375 93.453125 C 83.109375 93.714844 82.992188 93.84375 82.746094 93.84375 L 82.695312 93.84375 Z M 87.414062 92.675781 L 87.488281 94.183594 L 87.699219 94.183594 C 87.75 94 87.835938 93.914062 87.976562 93.914062 C 88.011719 93.914062 88.171875 93.964844 88.441406 94.070312 C 88.648438 94.148438 88.847656 94.183594 89.03125 94.183594 C 89.308594 94.183594 89.558594 94.121094 89.785156 94 C 90.003906 93.878906 90.183594 93.710938 90.320312 93.496094 C 90.460938 93.28125 90.519531 93.039062 90.519531 92.78125 C 90.519531 92.484375 90.449219 92.234375 90.3125 92.027344 C 90.195312 91.835938 90.046875 91.679688 89.863281 91.550781 C 89.699219 91.4375 89.488281 91.335938 89.257812 91.214844 C 89.179688 91.171875 89.082031 91.125 88.960938 91.066406 C 88.851562 91.011719 88.742188 90.949219 88.640625 90.875 C 88.554688 90.8125 88.480469 90.738281 88.417969 90.652344 C 88.363281 90.570312 88.335938 90.480469 88.339844 90.382812 C 88.34375 90.25 88.394531 90.132812 88.484375 90.035156 C 88.582031 89.933594 88.730469 89.882812 88.910156 89.882812 C 89.179688 89.882812 89.429688 89.976562 89.664062 90.175781 C 89.894531 90.375 90.054688 90.636719 90.132812 90.964844 L 90.335938 90.964844 L 90.257812 89.5 L 90.054688 89.5 C 90.050781 89.582031 90.023438 89.652344 89.976562 89.71875 C 89.933594 89.769531 89.878906 89.792969 89.808594 89.796875 C 89.757812 89.796875 89.652344 89.75 89.5 89.671875 C 89.273438 89.550781 89.023438 89.5 88.738281 89.5 C 88.503906 89.5 88.285156 89.5625 88.085938 89.691406 C 87.878906 89.820312 87.726562 89.984375 87.613281 90.203125 C 87.488281 90.417969 87.429688 90.648438 87.429688 90.894531 C 87.441406 91.230469 87.535156 91.515625 87.726562 91.734375 C 87.933594 91.957031 88.226562 92.175781 88.617188 92.382812 C 88.859375 92.503906 89.007812 92.582031 89.082031 92.617188 C 89.152344 92.660156 89.230469 92.710938 89.316406 92.769531 C 89.402344 92.824219 89.472656 92.902344 89.523438 92.980469 C 89.578125 93.070312 89.605469 93.167969 89.601562 93.273438 C 89.601562 93.414062 89.550781 93.535156 89.4375 93.636719 C 89.324219 93.75 89.167969 93.800781 88.960938 93.800781 C 88.648438 93.800781 88.375 93.691406 88.121094 93.472656 C 87.863281 93.246094 87.699219 92.988281 87.621094 92.675781 Z M 94.164062 94.050781 L 97.375 94.050781 L 97.375 93.800781 L 96.949219 93.800781 C 96.8125 93.800781 96.6875 93.761719 96.578125 93.679688 C 96.464844 93.59375 96.414062 93.445312 96.414062 93.238281 L 96.414062 91.007812 L 96.644531 91.007812 C 96.933594 91.007812 97.183594 91.082031 97.40625 91.238281 C 97.640625 91.40625 97.777344 91.75 97.839844 92.304688 L 98.089844 92.304688 L 98.089844 89.300781 L 97.839844 89.300781 C 97.777344 89.847656 97.632812 90.203125 97.40625 90.359375 C 97.179688 90.515625 96.933594 90.59375 96.644531 90.59375 L 96.414062 90.59375 L 96.414062 88.046875 L 97.164062 88.046875 C 97.710938 88.046875 98.128906 88.152344 98.402344 88.347656 C 98.679688 88.558594 98.851562 88.921875 98.914062 89.449219 L 99.164062 89.449219 L 99.164062 87.632812 L 94.164062 87.632812 L 94.164062 87.882812 L 94.457031 87.882812 C 94.59375 87.882812 94.726562 87.925781 94.828125 88.003906 C 94.941406 88.089844 94.992188 88.238281 94.992188 88.445312 L 94.992188 93.238281 C 94.992188 93.457031 94.941406 93.59375 94.828125 93.679688 C 94.71875 93.761719 94.59375 93.800781 94.457031 93.800781 L 94.164062 93.800781 Z M 101.527344 94.183594 C 101.871094 94.183594 102.203125 94.097656 102.515625 93.921875 C 102.835938 93.742188 103.085938 93.480469 103.285156 93.136719 C 103.492188 92.78125 103.585938 92.347656 103.585938 91.84375 C 103.585938 91.34375 103.484375 90.910156 103.285156 90.558594 C 103.078125 90.203125 102.824219 89.941406 102.503906 89.761719 C 102.203125 89.589844 101.875 89.5 101.527344 89.5 C 101.136719 89.5 100.785156 89.605469 100.472656 89.804688 C 100.148438 90.019531 99.902344 90.300781 99.734375 90.652344 C 99.554688 91.027344 99.464844 91.425781 99.46875 91.847656 C 99.46875 92.347656 99.570312 92.78125 99.773438 93.136719 C 99.976562 93.492188 100.238281 93.75 100.558594 93.921875 C 100.871094 94.097656 101.199219 94.183594 101.527344 94.183594 Z M 101.527344 93.800781 C 101.214844 93.800781 101.015625 93.628906 100.929688 93.273438 C 100.84375 92.917969 100.800781 92.441406 100.800781 91.84375 C 100.800781 91.566406 100.808594 91.324219 100.816406 91.109375 C 100.835938 90.894531 100.859375 90.695312 100.90625 90.503906 C 100.957031 90.3125 101.023438 90.167969 101.128906 90.054688 C 101.226562 89.933594 101.363281 89.882812 101.527344 89.882812 C 101.847656 89.882812 102.046875 90.0625 102.125 90.410156 C 102.210938 90.765625 102.253906 91.238281 102.253906 91.84375 C 102.253906 92.445312 102.210938 92.929688 102.125 93.273438 C 102.039062 93.628906 101.839844 93.800781 101.527344 93.800781 Z M 103.984375 94.050781 L 106.0625 94.050781 L 106.0625 93.84375 C 105.894531 93.84375 105.785156 93.808594 105.722656 93.742188 C 105.671875 93.671875 105.648438 93.578125 105.648438 93.457031 L 105.648438 91.285156 C 105.648438 91.015625 105.671875 90.808594 105.722656 90.640625 C 105.777344 90.484375 105.878906 90.410156 106.054688 90.410156 C 106.121094 90.410156 106.191406 90.453125 106.277344 90.546875 C 106.367188 90.636719 106.433594 90.703125 106.488281 90.738281 C 106.539062 90.78125 106.617188 90.800781 106.746094 90.800781 C 106.910156 90.800781 107.066406 90.738281 107.1875 90.625 C 107.308594 90.507812 107.367188 90.339844 107.367188 90.132812 C 107.367188 89.917969 107.300781 89.761719 107.160156 89.65625 C 107.015625 89.550781 106.851562 89.496094 106.667969 89.5 C 106.46875 89.5 106.269531 89.5625 106.089844 89.671875 C 105.894531 89.796875 105.75 89.960938 105.648438 90.167969 L 105.648438 89.65625 L 103.984375 89.65625 L 103.984375 89.863281 C 104.167969 89.863281 104.28125 89.90625 104.332031 89.976562 C 104.382812 90.0625 104.402344 90.15625 104.402344 90.253906 L 104.402344 93.457031 C 104.402344 93.707031 104.28125 93.84375 104.035156 93.84375 L 103.984375 93.84375 Z M 110.769531 94.050781 L 113.972656 94.050781 L 113.972656 93.800781 L 113.558594 93.800781 C 113.417969 93.800781 113.292969 93.761719 113.183594 93.679688 C 113.074219 93.59375 113.019531 93.445312 113.019531 93.238281 L 113.019531 91.050781 C 113.21875 91.074219 113.445312 91.082031 113.695312 91.082031 C 114.402344 91.082031 114.941406 90.980469 115.3125 90.773438 C 115.683594 90.558594 115.929688 90.324219 116.03125 90.0625 C 116.144531 89.796875 116.195312 89.542969 116.195312 89.292969 C 116.195312 88.824219 116.058594 88.480469 115.796875 88.238281 C 115.546875 87.992188 115.246094 87.828125 114.90625 87.746094 C 114.621094 87.671875 114.328125 87.636719 114.03125 87.632812 L 110.769531 87.632812 L 110.769531 87.882812 L 111.0625 87.882812 C 111.203125 87.882812 111.332031 87.925781 111.4375 88.003906 C 111.550781 88.089844 111.601562 88.238281 111.601562 88.445312 L 111.601562 93.238281 C 111.601562 93.457031 111.550781 93.59375 111.4375 93.679688 C 111.324219 93.761719 111.199219 93.800781 111.0625 93.800781 L 110.769531 93.800781 Z M 113.019531 88.046875 L 113.46875 88.046875 C 113.695312 88.046875 113.894531 88.070312 114.058594 88.105469 C 114.222656 88.148438 114.371094 88.273438 114.5 88.453125 C 114.628906 88.636719 114.691406 88.914062 114.691406 89.292969 C 114.691406 89.5 114.671875 89.707031 114.621094 89.90625 C 114.578125 90.097656 114.464844 90.28125 114.277344 90.445312 C 114.09375 90.609375 113.816406 90.6875 113.445312 90.6875 C 113.304688 90.6875 113.167969 90.667969 113.019531 90.636719 Z M 120.019531 92.71875 C 119.753906 93.195312 119.441406 93.4375 119.058594 93.4375 C 118.792969 93.4375 118.566406 93.359375 118.386719 93.207031 C 118.1875 93.035156 118.050781 92.828125 117.96875 92.582031 C 117.875 92.3125 117.828125 92.035156 117.832031 91.75 L 120.246094 91.75 C 120.25 91.433594 120.207031 91.121094 120.117188 90.816406 C 120.03125 90.539062 119.917969 90.296875 119.753906 90.097656 C 119.597656 89.90625 119.410156 89.753906 119.191406 89.648438 C 118.960938 89.539062 118.71875 89.488281 118.464844 89.492188 C 118.101562 89.492188 117.773438 89.605469 117.488281 89.820312 C 117.199219 90.042969 116.964844 90.347656 116.8125 90.738281 C 116.640625 91.152344 116.554688 91.582031 116.5625 92.027344 C 116.5625 92.410156 116.640625 92.761719 116.777344 93.089844 C 116.917969 93.421875 117.132812 93.6875 117.417969 93.878906 C 117.714844 94.078125 118.058594 94.183594 118.457031 94.183594 C 118.925781 94.183594 119.296875 94.050781 119.582031 93.785156 C 119.875 93.523438 120.097656 93.210938 120.246094 92.847656 Z M 117.832031 91.371094 C 117.832031 90.980469 117.867188 90.667969 117.9375 90.453125 C 118.003906 90.226562 118.09375 90.078125 118.179688 90 C 118.261719 89.925781 118.359375 89.882812 118.472656 89.882812 C 118.566406 89.882812 118.65625 89.914062 118.742188 89.984375 C 118.828125 90.054688 118.90625 90.183594 118.964844 90.375 C 119.027344 90.5625 119.0625 90.816406 119.0625 91.152344 C 119.0625 91.171875 119.0625 91.203125 119.054688 91.257812 L 119.054688 91.371094 Z M 122.789062 94.183594 C 123.136719 94.183594 123.464844 94.097656 123.777344 93.921875 C 124.097656 93.742188 124.347656 93.480469 124.546875 93.136719 C 124.753906 92.78125 124.851562 92.347656 124.851562 91.84375 C 124.851562 91.34375 124.746094 90.910156 124.546875 90.558594 C 124.339844 90.203125 124.089844 89.941406 123.769531 89.761719 C 123.464844 89.589844 123.140625 89.5 122.789062 89.5 C 122.410156 89.496094 122.058594 89.597656 121.734375 89.804688 C 121.414062 90.019531 121.167969 90.300781 121 90.652344 C 120.816406 91.027344 120.726562 91.425781 120.730469 91.847656 C 120.730469 92.347656 120.835938 92.78125 121.035156 93.136719 C 121.242188 93.492188 121.503906 93.75 121.820312 93.921875 C 122.121094 94.09375 122.445312 94.179688 122.789062 94.183594 Z M 122.789062 93.800781 C 122.480469 93.800781 122.28125 93.628906 122.191406 93.273438 C 122.105469 92.917969 122.066406 92.441406 122.066406 91.84375 C 122.066406 91.566406 122.070312 91.324219 122.082031 91.109375 C 122.097656 90.894531 122.125 90.695312 122.167969 90.503906 C 122.21875 90.3125 122.289062 90.167969 122.390625 90.054688 C 122.488281 89.933594 122.625 89.882812 122.789062 89.882812 C 123.109375 89.882812 123.308594 90.0625 123.386719 90.410156 C 123.472656 90.765625 123.515625 91.238281 123.515625 91.84375 C 123.515625 92.445312 123.472656 92.929688 123.386719 93.273438 C 123.300781 93.628906 123.101562 93.800781 122.789062 93.800781 Z M 126.667969 89.5 L 125.25 89.835938 L 125.25 90.042969 L 125.300781 90.042969 C 125.457031 90.042969 125.558594 90.089844 125.605469 90.15625 C 125.640625 90.234375 125.664062 90.332031 125.664062 90.445312 L 125.664062 95.1875 C 125.664062 95.445312 125.546875 95.578125 125.300781 95.578125 L 125.25 95.578125 L 125.25 95.785156 L 127.386719 95.785156 L 127.386719 95.578125 L 127.273438 95.578125 C 127.03125 95.578125 126.910156 95.445312 126.910156 95.1875 L 126.910156 93.773438 C 127.144531 94.042969 127.429688 94.183594 127.769531 94.183594 C 128.070312 94.183594 128.339844 94.089844 128.574219 93.898438 C 128.816406 93.707031 128.996094 93.445312 129.128906 93.101562 C 129.257812 92.753906 129.316406 92.367188 129.316406 91.921875 C 129.316406 91.152344 129.1875 90.558594 128.917969 90.140625 C 128.660156 89.71875 128.304688 89.511719 127.847656 89.511719 C 127.449219 89.511719 127.136719 89.691406 126.910156 90.046875 L 126.910156 89.5 Z M 126.910156 90.695312 C 126.917969 90.496094 126.972656 90.347656 127.074219 90.253906 C 127.179688 90.148438 127.28125 90.105469 127.394531 90.105469 C 127.644531 90.105469 127.804688 90.234375 127.882812 90.496094 C 127.949219 90.753906 127.984375 91.101562 127.984375 91.550781 L 127.984375 92.148438 C 127.992188 92.296875 127.992188 92.398438 127.992188 92.476562 C 127.992188 92.851562 127.957031 93.152344 127.886719 93.367188 C 127.8125 93.59375 127.671875 93.707031 127.464844 93.707031 C 127.355469 93.695312 127.257812 93.65625 127.171875 93.585938 C 127.066406 93.507812 126.980469 93.410156 126.910156 93.300781 Z M 129.679688 94.050781 L 131.757812 94.050781 L 131.757812 93.84375 C 131.582031 93.84375 131.46875 93.808594 131.417969 93.742188 C 131.367188 93.671875 131.339844 93.578125 131.339844 93.457031 L 131.339844 87.632812 L 129.621094 87.632812 L 129.621094 87.839844 L 129.730469 87.839844 C 129.972656 87.839844 130.09375 87.96875 130.09375 88.226562 L 130.09375 93.457031 C 130.09375 93.609375 130.058594 93.714844 130 93.765625 C 129.917969 93.824219 129.828125 93.847656 129.730469 93.84375 L 129.679688 93.84375 Z M 135.582031 92.71875 C 135.3125 93.195312 135 93.4375 134.621094 93.4375 C 134.351562 93.4375 134.128906 93.359375 133.945312 93.207031 C 133.746094 93.035156 133.609375 92.828125 133.53125 92.582031 C 133.433594 92.3125 133.386719 92.035156 133.390625 91.75 L 135.808594 91.75 C 135.8125 91.433594 135.765625 91.121094 135.675781 90.816406 C 135.589844 90.539062 135.476562 90.296875 135.3125 90.097656 C 135.160156 89.90625 134.972656 89.753906 134.75 89.648438 C 134.519531 89.539062 134.277344 89.488281 134.023438 89.492188 C 133.660156 89.488281 133.335938 89.597656 133.046875 89.820312 C 132.757812 90.042969 132.527344 90.347656 132.371094 90.738281 C 132.199219 91.152344 132.117188 91.582031 132.121094 92.027344 C 132.121094 92.410156 132.199219 92.761719 132.335938 93.089844 C 132.476562 93.421875 132.691406 93.6875 132.976562 93.878906 C 133.273438 94.078125 133.617188 94.183594 134.015625 94.183594 C 134.484375 94.183594 134.855469 94.050781 135.140625 93.785156 C 135.433594 93.523438 135.65625 93.210938 135.808594 92.847656 Z M 133.390625 91.371094 C 133.390625 90.980469 133.425781 90.667969 133.496094 90.453125 C 133.566406 90.226562 133.652344 90.078125 133.738281 90 C 133.84375 89.914062 133.9375 89.882812 134.03125 89.882812 C 134.128906 89.882812 134.214844 89.914062 134.300781 89.984375 C 134.390625 90.054688 134.464844 90.183594 134.527344 90.375 C 134.585938 90.5625 134.621094 90.816406 134.621094 91.152344 C 134.621094 91.171875 134.621094 91.203125 134.613281 91.257812 L 134.613281 91.371094 Z M 133.390625 91.371094 " fill-opacity="1" fill-rule="evenodd"/><path fill="#008893" d="M 130.171875 60.796875 L 130.5 60.796875 L 131.257812 62.179688 L 132.089844 62.179688 L 131.25 60.738281 C 131.683594 60.707031 132.042969 60.492188 132.042969 59.882812 C 132.042969 59.132812 131.539062 58.890625 130.691406 58.890625 L 129.46875 58.890625 L 129.46875 62.179688 L 130.171875 62.179688 Z M 130.171875 59.449219 L 130.660156 59.449219 C 130.921875 59.449219 131.289062 59.476562 131.289062 59.8125 C 131.289062 60.179688 131.105469 60.234375 130.789062 60.234375 L 130.171875 60.234375 Z M 133.742188 60.539062 C 133.742188 58.609375 132.292969 57.484375 130.675781 57.484375 C 129.050781 57.484375 127.601562 58.609375 127.601562 60.539062 C 127.601562 62.46875 129.050781 63.597656 130.675781 63.597656 C 132.292969 63.597656 133.742188 62.46875 133.742188 60.539062 Z M 132.859375 60.539062 C 132.859375 61.949219 131.851562 62.890625 130.675781 62.890625 C 129.46875 62.890625 128.480469 61.949219 128.480469 60.539062 C 128.480469 59.132812 129.46875 58.195312 130.675781 58.195312 C 131.851562 58.195312 132.859375 59.132812 132.859375 60.539062 Z M 132.859375 60.539062 " fill-opacity="1" fill-rule="evenodd"/></svg>