<svg xmlns="http://www.w3.org/2000/svg" xmlns:xlink="http://www.w3.org/1999/xlink" width="200" zoomAndPan="magnify" viewBox="0 0 150 149.999998" height="200" preserveAspectRatio="xMidYMid meet" version="1.0"><defs><clipPath id="91db357ea1"><path d="M 2.769531 2.769531 L 147.519531 2.769531 L 147.519531 147.519531 L 2.769531 147.519531 Z M 2.769531 2.769531 " clip-rule="nonzero"/></clipPath></defs><g clip-path="url(#91db357ea1)"><path fill="#ffffff" d="M 2.769531 2.769531 L 147.519531 2.769531 L 147.519531 147.519531 L 2.769531 147.519531 Z M 2.769531 2.769531 " fill-opacity="1" fill-rule="evenodd"/></g><path fill="#989a9c" d="M 12.457031 62.746094 C 12.457031 61.972656 12.492188 61.75 12.675781 61.53125 C 12.894531 61.289062 13.316406 61.160156 13.992188 61.160156 C 16.550781 61.160156 17.589844 62.746094 17.589844 66.632812 C 17.589844 70.632812 16.585938 72.144531 13.953125 72.144531 C 12.675781 72.144531 12.457031 71.886719 12.457031 70.488281 Z M 10.789062 70.414062 C 10.789062 71.371094 10.734375 71.722656 10.515625 71.941406 C 10.355469 72.109375 9.972656 72.21875 9.550781 72.21875 L 9.316406 72.21875 L 9.316406 72.808594 L 13.625 72.808594 C 15.398438 72.808594 16.75 72.328125 17.773438 71.296875 C 18.917969 70.171875 19.535156 68.53125 19.535156 66.632812 C 19.535156 64.976562 19.042969 63.539062 18.117188 62.414062 C 17.042969 61.105469 15.636719 60.515625 13.625 60.515625 L 9.316406 60.515625 L 9.316406 61.105469 L 9.550781 61.105469 C 9.972656 61.105469 10.351562 61.214844 10.515625 61.382812 C 10.734375 61.601562 10.789062 61.953125 10.789062 62.910156 Z M 22.488281 67.859375 C 22.507812 65.9375 23.144531 64.730469 24.164062 64.730469 C 25.183594 64.730469 25.785156 65.898438 25.769531 67.859375 Z M 27.460938 68.492188 C 27.371094 65.792969 26.058594 64.097656 24.074219 64.097656 C 22.160156 64.097656 20.777344 65.9375 20.777344 68.492188 C 20.777344 71.296875 22.144531 73.058594 24.257812 73.058594 C 25.621094 73.058594 26.570312 72.359375 27.351562 70.738281 L 26.804688 70.441406 C 26.167969 71.816406 25.53125 72.359375 24.546875 72.359375 C 23.109375 72.359375 22.488281 71.203125 22.472656 68.492188 Z M 34.203125 70.910156 C 33.582031 72.347656 32.742188 72.988281 31.558594 72.988281 C 30.757812 72.988281 30.136719 72.675781 29.792969 72.089844 C 29.449219 71.503906 29.339844 70.929688 29.339844 69.550781 L 29.339844 66.378906 C 29.339844 65.164062 29.175781 64.90625 28.410156 64.90625 L 28.210938 64.90625 L 28.210938 64.34375 L 30.863281 64.203125 L 30.863281 70.027344 C 30.863281 70.820312 30.921875 71.1875 31.085938 71.539062 C 31.160156 71.722656 31.28125 71.871094 31.449219 71.984375 C 31.613281 72.09375 31.796875 72.148438 31.996094 72.144531 C 32.617188 72.144531 33.199219 71.742188 33.582031 71.003906 C 33.929688 70.378906 34.058594 69.714844 34.058594 68.664062 L 34.058594 66.378906 C 34.058594 65.164062 33.894531 64.90625 33.128906 64.90625 L 32.855469 64.90625 L 32.855469 64.34375 L 35.585938 64.203125 L 35.585938 70.753906 C 35.585938 71.976562 35.746094 72.253906 36.511719 72.253906 L 36.710938 72.253906 L 36.710938 72.816406 L 34.203125 72.945312 Z M 39.882812 70.066406 C 39.882812 70.820312 39.917969 71.148438 40.011719 71.5 C 40.140625 71.941406 40.488281 72.214844 40.914062 72.214844 C 41.609375 72.214844 42.035156 71.464844 42.035156 70.15625 L 42.035156 69.898438 L 42.625 69.898438 L 42.625 70.25 C 42.625 72.050781 41.90625 72.988281 40.453125 72.988281 C 39.753906 72.988281 39.191406 72.769531 38.863281 72.363281 C 38.464844 71.886719 38.355469 71.351562 38.355469 70.066406 L 38.355469 64.972656 L 37.042969 64.972656 L 37.042969 64.457031 C 38.628906 64.070312 39.15625 63.332031 39.375 61.152344 L 39.882812 61.152344 L 39.882812 64.347656 L 42.355469 64.347656 L 42.355469 64.972656 L 39.882812 64.972656 Z M 48.613281 67.015625 L 48.066406 67.015625 C 47.753906 65.449219 47.0625 64.691406 45.933594 64.695312 C 45.148438 64.695312 44.5625 65.246094 44.5625 65.980469 C 44.5625 66.679688 44.929688 67.011719 46.078125 67.378906 C 47.246094 67.765625 47.738281 67.984375 48.140625 68.296875 C 48.796875 68.8125 49.105469 69.453125 49.105469 70.28125 C 49.105469 71.863281 47.976562 72.988281 46.371094 72.988281 C 45.640625 72.988281 45.222656 72.839844 44.328125 72.304688 C 44.269531 72.261719 44.203125 72.238281 44.128906 72.230469 C 44.003906 72.230469 43.894531 72.359375 43.820312 72.597656 L 43.765625 72.800781 L 43.257812 72.800781 L 43.257812 69.695312 L 43.765625 69.695312 C 44.003906 70.558594 44.183594 71.019531 44.472656 71.402344 C 44.929688 72.027344 45.621094 72.394531 46.371094 72.394531 C 47.207031 72.394531 47.828125 71.753906 47.828125 70.90625 C 47.828125 70.375 47.554688 69.894531 47.082031 69.601562 C 46.679688 69.34375 46.660156 69.34375 45.476562 68.941406 C 44.019531 68.460938 43.351562 67.671875 43.351562 66.476562 C 43.351562 65.117188 44.347656 64.167969 45.804688 64.167969 C 46.417969 64.175781 46.992188 64.339844 47.519531 64.65625 C 47.628906 64.710938 47.71875 64.75 47.792969 64.75 C 47.902344 64.75 48.011719 64.601562 48.066406 64.34375 L 48.613281 64.34375 Z M 56.683594 70.648438 C 56.027344 72.300781 55.097656 73.058594 53.695312 73.058594 C 51.601562 73.058594 50.164062 71.21875 50.164062 68.535156 C 50.164062 65.925781 51.691406 64.097656 53.878906 64.097656 C 55.390625 64.097656 56.574219 65.136719 56.574219 66.457031 C 56.574219 67.140625 56.136719 67.617188 55.535156 67.617188 C 55.007812 67.617188 54.605469 67.191406 54.605469 66.625 C 54.605469 66.109375 54.972656 65.6875 55.464844 65.6875 C 55.535156 65.6875 55.574219 65.6875 55.644531 65.742188 C 55.371094 65.097656 54.769531 64.730469 54.042969 64.730469 C 52.640625 64.730469 51.929688 66 51.929688 68.535156 C 51.929688 71.128906 52.605469 72.359375 53.988281 72.359375 C 54.898438 72.359375 55.589844 71.734375 56.101562 70.410156 Z M 63.085938 67.34375 C 63.085938 66.277344 63.03125 65.855469 62.8125 65.523438 C 62.613281 65.15625 62.285156 64.972656 61.902344 64.972656 C 61.300781 64.972656 60.734375 65.378906 60.386719 66.074219 C 60.058594 66.753906 59.929688 67.472656 59.929688 68.742188 L 59.929688 70.761719 C 59.929688 71.992188 60.09375 72.25 60.859375 72.25 L 61.152344 72.25 L 61.152344 72.8125 L 57.183594 72.8125 L 57.183594 72.25 L 57.476562 72.25 C 58.242188 72.25 58.40625 71.976562 58.40625 70.761719 L 58.40625 62.566406 C 58.40625 61.335938 58.242188 61.074219 57.476562 61.074219 L 57.273438 61.074219 L 57.273438 60.511719 L 59.929688 60.371094 L 59.929688 65.890625 C 60.515625 64.691406 61.226562 64.167969 62.285156 64.167969 C 63.050781 64.167969 63.667969 64.449219 64.03125 64.972656 C 64.488281 65.613281 64.613281 66.203125 64.613281 67.800781 L 64.613281 70.761719 C 64.613281 71.992188 64.777344 72.25 65.542969 72.25 L 65.742188 72.25 L 65.742188 72.8125 L 63.085938 72.8125 Z M 67.949219 67.859375 C 67.96875 65.9375 68.605469 64.730469 69.625 64.730469 C 70.644531 64.730469 71.246094 65.898438 71.230469 67.859375 Z M 72.921875 68.492188 C 72.832031 65.792969 71.519531 64.097656 69.535156 64.097656 C 67.621094 64.097656 66.238281 65.9375 66.238281 68.492188 C 66.238281 71.296875 67.605469 73.058594 69.714844 73.058594 C 71.082031 73.058594 72.03125 72.359375 72.8125 70.738281 L 72.265625 70.441406 C 71.628906 71.816406 70.992188 72.359375 70.007812 72.359375 C 68.570312 72.359375 67.949219 71.203125 67.929688 68.492188 Z M 14.539062 87.328125 C 14.539062 88.308594 14.59375 88.636719 14.8125 88.859375 C 14.992188 89.027344 15.355469 89.136719 15.777344 89.136719 L 16.195312 89.136719 L 16.195312 89.726562 L 11.214844 89.726562 L 11.214844 89.136719 L 11.632812 89.136719 C 12.050781 89.136719 12.417969 89.027344 12.597656 88.859375 C 12.816406 88.636719 12.871094 88.308594 12.871094 87.328125 L 12.871094 78.023438 L 12.492188 78.023438 C 11.414062 78.023438 10.539062 78.613281 10.121094 79.625 C 9.886719 80.179688 9.777344 80.730469 9.683594 81.726562 L 9.15625 81.6875 L 9.246094 77.429688 L 18.214844 77.429688 L 18.289062 81.6875 L 17.742188 81.726562 C 17.398438 79.035156 16.578125 78.023438 14.8125 78.023438 L 14.539062 78.023438 Z M 19.628906 84.773438 C 19.648438 82.851562 20.285156 81.644531 21.304688 81.644531 C 22.324219 81.644531 22.925781 82.816406 22.90625 84.773438 Z M 24.601562 85.40625 C 24.511719 82.707031 23.199219 81.011719 21.214844 81.011719 C 19.300781 81.011719 17.917969 82.851562 17.917969 85.40625 C 17.917969 88.214844 19.285156 89.976562 21.398438 89.976562 C 22.761719 89.976562 23.707031 89.273438 24.492188 87.65625 L 23.945312 87.359375 C 23.308594 88.734375 22.671875 89.273438 21.6875 89.273438 C 20.25 89.273438 19.628906 88.121094 19.609375 85.40625 Z M 27.804688 87.671875 C 27.804688 88.910156 27.96875 89.167969 28.734375 89.167969 L 29.023438 89.167969 L 29.023438 89.730469 L 25.058594 89.730469 L 25.058594 89.167969 L 25.347656 89.167969 C 26.113281 89.167969 26.277344 88.910156 26.277344 87.671875 L 26.277344 79.46875 C 26.277344 78.25 26.113281 77.988281 25.347656 77.988281 L 25.148438 77.988281 L 25.148438 77.429688 L 27.804688 77.285156 Z M 31.304688 84.773438 C 31.324219 82.851562 31.960938 81.644531 32.980469 81.644531 C 34 81.644531 34.601562 82.816406 34.582031 84.773438 Z M 36.277344 85.40625 C 36.1875 82.707031 34.875 81.011719 32.890625 81.011719 C 30.976562 81.011719 29.59375 82.851562 29.59375 85.40625 C 29.59375 88.214844 30.960938 89.976562 33.070312 89.976562 C 34.4375 89.976562 35.386719 89.273438 36.167969 87.65625 L 35.621094 87.359375 C 34.984375 88.734375 34.347656 89.273438 33.363281 89.273438 C 31.925781 89.273438 31.304688 88.121094 31.285156 85.40625 Z M 42.832031 89.730469 L 40.207031 85.453125 L 39.480469 86.101562 L 39.480469 87.671875 C 39.480469 88.910156 39.644531 89.167969 40.40625 89.167969 L 40.753906 89.167969 L 40.753906 89.730469 L 36.730469 89.730469 L 36.730469 89.167969 L 37.023438 89.167969 C 37.789062 89.167969 37.953125 88.890625 37.953125 87.671875 L 37.953125 79.46875 C 37.953125 78.25 37.789062 77.988281 37.023438 77.988281 L 36.824219 77.988281 L 36.824219 77.429688 L 39.480469 77.285156 L 39.480469 85.214844 L 41.9375 83.070312 C 42.265625 82.773438 42.464844 82.460938 42.464844 82.222656 C 42.464844 81.941406 42.230469 81.8125 41.683594 81.8125 L 41.410156 81.8125 L 41.410156 81.257812 L 44.996094 81.257812 L 44.996094 81.8125 L 44.816406 81.8125 C 44.289062 81.8125 44.050781 81.941406 43.304688 82.628906 L 41.300781 84.4375 L 43.507812 88.003906 C 44.050781 88.890625 44.398438 89.167969 44.980469 89.167969 L 45.128906 89.167969 L 45.128906 89.730469 Z M 48.808594 81.605469 C 49.460938 81.605469 50.019531 82.007812 50.328125 82.707031 C 50.617188 83.347656 50.742188 84.226562 50.742188 85.492188 C 50.742188 88.097656 50.109375 89.382812 48.824219 89.382812 C 47.539062 89.382812 46.925781 88.097656 46.925781 85.457031 C 46.925781 84.226562 47.050781 83.367188 47.339844 82.707031 C 47.632812 82.046875 48.210938 81.605469 48.808594 81.605469 Z M 48.878906 81.015625 C 46.632812 81.015625 45.15625 82.78125 45.15625 85.511719 C 45.15625 88.171875 46.632812 89.972656 48.824219 89.972656 C 51.035156 89.972656 52.511719 88.171875 52.511719 85.492188 C 52.511719 82.835938 51.035156 81.015625 48.878906 81.015625 Z M 63.011719 84.574219 C 63.011719 83.394531 62.941406 82.789062 62.777344 82.457031 C 62.578125 82.089844 62.253906 81.886719 61.855469 81.886719 C 61.347656 81.886719 60.894531 82.21875 60.585938 82.808594 C 60.277344 83.394531 60.203125 83.855469 60.203125 85.382812 L 60.203125 87.679688 C 60.203125 88.910156 60.367188 89.167969 61.128906 89.167969 L 61.382812 89.167969 L 61.382812 89.730469 L 58.679688 89.730469 L 58.679688 84.847656 C 58.679688 83.285156 58.640625 82.917969 58.425781 82.496094 C 58.222656 82.109375 57.898438 81.886719 57.480469 81.886719 C 56.972656 81.886719 56.519531 82.21875 56.230469 82.78125 C 55.941406 83.390625 55.867188 83.925781 55.867188 85.363281 L 55.867188 87.671875 C 55.867188 88.925781 56.015625 89.167969 56.792969 89.167969 L 57.046875 89.167969 L 57.046875 89.730469 L 53.121094 89.730469 L 53.121094 89.167969 L 53.414062 89.167969 C 54.160156 89.167969 54.34375 88.871094 54.34375 87.671875 L 54.34375 83.296875 C 54.34375 82.117188 54.160156 81.820312 53.414062 81.820312 L 53.210938 81.820312 L 53.210938 81.257812 L 55.757812 81.140625 L 55.757812 82.660156 C 56.105469 81.71875 56.957031 81.085938 57.878906 81.085938 C 58.898438 81.085938 59.550781 81.609375 60.003906 82.769531 C 60.53125 81.625 61.257812 81.085938 62.253906 81.085938 C 63.03125 81.085938 63.722656 81.457031 64.085938 82.070312 C 64.433594 82.605469 64.542969 83.210938 64.542969 84.367188 L 64.542969 87.675781 C 64.542969 88.890625 64.707031 89.164062 65.46875 89.164062 L 65.671875 89.164062 L 65.671875 89.726562 L 63.015625 89.726562 L 63.015625 84.574219 Z M 82.226562 73.847656 L 88.109375 73.847656 L 88.109375 79.808594 L 82.226562 79.808594 Z M 82.226562 73.847656 " fill-opacity="1" fill-rule="evenodd"/><path fill="#bf0e88" d="M 96.382812 83.417969 C 96.382812 87.367188 97.054688 88.003906 101.246094 88.046875 L 101.246094 89.722656 L 87.011719 89.722656 L 87.011719 88.046875 C 91.203125 88.003906 91.875 87.367188 91.875 83.417969 L 91.875 61.71875 C 87.054688 61.800781 84.246094 65.03125 83.824219 70.933594 L 82.273438 70.679688 L 82.570312 60.316406 L 105.691406 60.316406 L 105.984375 70.679688 L 104.433594 70.933594 C 104.015625 65.03125 101.164062 61.800781 96.382812 61.71875 Z M 96.382812 83.417969 " fill-opacity="1" fill-rule="evenodd"/><path fill="#989a9c" d="M 100.078125 73.847656 L 105.964844 73.847656 L 105.964844 79.808594 L 100.078125 79.808594 Z M 117.644531 73.847656 L 123.53125 73.847656 L 123.53125 79.808594 L 117.644531 79.808594 Z M 135.25 73.847656 L 141.132812 73.847656 L 141.132812 79.808594 L 135.25 79.808594 Z M 135.25 73.847656 " fill-opacity="1" fill-rule="evenodd"/></svg>