<svg xmlns="http://www.w3.org/2000/svg" xmlns:xlink="http://www.w3.org/1999/xlink" width="200" zoomAndPan="magnify" viewBox="0 0 150 149.999998" height="200" preserveAspectRatio="xMidYMid meet" version="1.0"><defs><clipPath id="1476940a50"><path d="M 50.265625 31.542969 L 99.765625 31.542969 L 99.765625 118.542969 L 50.265625 118.542969 Z M 50.265625 31.542969 " clip-rule="nonzero"/></clipPath></defs><g clip-path="url(#1476940a50)"><path fill="#1d9f9e" d="M 75.054688 31.542969 C 61.101562 31.542969 50.273438 42.886719 50.273438 56.164062 C 50.273438 67.917969 57.945312 74.253906 57.945312 74.253906 C 58.707031 74.921875 58.515625 75.265625 57.96875 75.820312 C 57.96875 75.820312 50.273438 82.828125 50.273438 93.660156 C 50.273438 108.515625 62.148438 118.542969 75.054688 118.542969 C 89.484375 118.542969 99.757812 106.800781 99.757812 93.832031 C 99.757812 82.667969 92.367188 76.082031 92.367188 76.082031 C 91.320312 75.082031 91.320312 74.914062 92.367188 73.992188 C 92.367188 73.992188 99.757812 67.78125 99.757812 56.152344 C 99.757812 43.035156 89.210938 31.542969 75.054688 31.542969 Z M 69.539062 44.320312 C 70.242188 44.320312 70.867188 44.683594 71.21875 45.226562 C 71.582031 44.683594 72.195312 44.320312 72.910156 44.320312 C 73.714844 44.320312 74.417969 44.796875 74.738281 45.488281 C 75.054688 44.796875 75.746094 44.320312 76.5625 44.320312 C 77.371094 44.320312 78.074219 44.796875 78.390625 45.488281 C 78.710938 44.796875 79.414062 44.320312 80.21875 44.320312 C 81.332031 44.320312 82.230469 45.214844 82.230469 46.328125 C 82.230469 47.441406 81.332031 48.351562 80.21875 48.351562 C 79.414062 48.351562 78.710938 47.875 78.390625 47.179688 C 78.074219 47.875 77.371094 48.351562 76.5625 48.351562 C 75.757812 48.351562 75.054688 47.875 74.738281 47.179688 C 74.417969 47.875 73.714844 48.351562 72.910156 48.351562 C 72.203125 48.351562 71.582031 47.988281 71.21875 47.441406 C 71.070312 47.65625 70.886719 47.851562 70.671875 48 C 71.195312 48.363281 71.546875 48.964844 71.546875 49.65625 C 71.546875 50.335938 71.207031 50.9375 70.683594 51.3125 C 71.207031 51.675781 71.546875 52.28125 71.546875 52.972656 C 71.546875 53.652344 71.207031 54.253906 70.683594 54.628906 C 70.84375 54.742188 70.980469 54.878906 71.105469 55.027344 C 71.480469 54.5625 72.046875 54.265625 72.683594 54.265625 C 73.417969 54.265625 74.066406 54.664062 74.417969 55.253906 C 74.769531 54.664062 75.417969 54.265625 76.15625 54.265625 C 76.882812 54.265625 77.527344 54.652344 77.882812 55.230469 C 78.234375 54.652344 78.867188 54.265625 79.605469 54.265625 C 80.71875 54.265625 81.628906 55.164062 81.628906 56.277344 C 81.628906 57.390625 80.71875 58.296875 79.605469 58.296875 C 78.878906 58.296875 78.234375 57.914062 77.882812 57.332031 C 77.527344 57.914062 76.894531 58.296875 76.15625 58.296875 C 75.417969 58.296875 74.769531 57.902344 74.417969 57.308594 C 74.066406 57.902344 73.417969 58.296875 72.683594 58.296875 C 72.046875 58.296875 71.480469 58.003906 71.105469 57.539062 C 70.980469 57.695312 70.832031 57.820312 70.671875 57.933594 C 71.195312 58.296875 71.546875 58.898438 71.546875 59.59375 C 71.546875 60.285156 71.207031 60.886719 70.671875 61.25 C 71.195312 61.613281 71.546875 62.214844 71.546875 62.910156 C 71.546875 63.601562 71.207031 64.203125 70.671875 64.566406 C 70.886719 64.714844 71.070312 64.894531 71.207031 65.113281 C 71.570312 64.554688 72.195312 64.191406 72.898438 64.191406 C 73.703125 64.191406 74.40625 64.667969 74.726562 65.363281 C 75.042969 64.667969 75.734375 64.191406 76.554688 64.191406 C 77.359375 64.191406 78.0625 64.667969 78.378906 65.363281 C 78.699219 64.667969 79.402344 64.191406 80.207031 64.191406 C 81.320312 64.191406 82.21875 65.101562 82.21875 66.214844 C 82.21875 67.328125 81.320312 68.222656 80.207031 68.222656 C 79.402344 68.222656 78.699219 67.746094 78.378906 67.054688 C 78.0625 67.746094 77.359375 68.222656 76.554688 68.222656 C 75.746094 68.222656 75.042969 67.746094 74.726562 67.054688 C 74.40625 67.746094 73.703125 68.222656 72.898438 68.222656 C 72.195312 68.222656 71.582031 67.859375 71.21875 67.316406 C 70.855469 67.871094 70.230469 68.234375 69.527344 68.234375 C 68.414062 68.234375 67.515625 67.335938 67.515625 66.226562 C 67.515625 65.53125 67.867188 64.929688 68.390625 64.566406 C 67.867188 64.203125 67.515625 63.601562 67.515625 62.910156 C 67.515625 62.214844 67.867188 61.613281 68.390625 61.25 C 67.867188 60.886719 67.515625 60.273438 67.515625 59.59375 C 67.515625 58.898438 67.855469 58.296875 68.390625 57.933594 C 67.867188 57.570312 67.515625 56.96875 67.515625 56.277344 C 67.515625 55.59375 67.855469 54.992188 68.378906 54.617188 C 67.855469 54.253906 67.515625 53.652344 67.515625 52.960938 C 67.515625 52.28125 67.855469 51.675781 68.378906 51.304688 C 67.855469 50.9375 67.515625 50.335938 67.515625 49.644531 C 67.515625 48.953125 67.867188 48.351562 68.390625 47.988281 C 67.867188 47.625 67.515625 47.011719 67.515625 46.328125 C 67.527344 45.214844 68.425781 44.320312 69.539062 44.320312 Z M 69.539062 81.863281 C 70.242188 81.863281 70.867188 82.226562 71.21875 82.769531 C 71.582031 82.226562 72.195312 81.863281 72.910156 81.863281 C 73.714844 81.863281 74.417969 82.339844 74.738281 83.03125 C 75.054688 82.339844 75.746094 81.863281 76.5625 81.863281 C 77.371094 81.863281 78.074219 82.339844 78.390625 83.03125 C 78.710938 82.339844 79.414062 81.863281 80.21875 81.863281 C 81.332031 81.863281 82.230469 82.769531 82.230469 83.882812 C 82.230469 84.996094 81.332031 85.894531 80.21875 85.894531 C 79.414062 85.894531 78.710938 85.417969 78.390625 84.722656 C 78.074219 85.417969 77.371094 85.894531 76.5625 85.894531 C 75.757812 85.894531 75.054688 85.417969 74.738281 84.722656 C 74.417969 85.417969 73.714844 85.894531 72.910156 85.894531 C 72.203125 85.894531 71.582031 85.53125 71.21875 84.984375 C 71.070312 85.199219 70.886719 85.394531 70.683594 85.542969 C 71.207031 85.90625 71.558594 86.519531 71.558594 87.199219 C 71.558594 87.882812 71.21875 88.484375 70.695312 88.859375 C 71.21875 89.222656 71.558594 89.824219 71.558594 90.515625 C 71.558594 91.195312 71.21875 91.800781 70.695312 92.175781 C 70.855469 92.289062 71 92.421875 71.117188 92.570312 C 71.488281 92.105469 72.058594 91.808594 72.691406 91.808594 C 73.429688 91.808594 74.078125 92.207031 74.429688 92.796875 C 74.78125 92.207031 75.429688 91.808594 76.167969 91.808594 C 76.894531 91.808594 77.539062 92.195312 77.890625 92.777344 C 78.246094 92.195312 78.878906 91.808594 79.617188 91.808594 C 80.730469 91.808594 81.636719 92.71875 81.636719 93.832031 C 81.636719 94.945312 80.730469 95.84375 79.617188 95.84375 C 78.890625 95.84375 78.246094 95.457031 77.890625 94.875 C 77.539062 95.457031 76.90625 95.84375 76.167969 95.84375 C 75.429688 95.84375 74.78125 95.445312 74.429688 94.855469 C 74.078125 95.445312 73.429688 95.84375 72.691406 95.84375 C 72.058594 95.84375 71.488281 95.546875 71.117188 95.082031 C 70.992188 95.238281 70.84375 95.375 70.683594 95.488281 C 71.207031 95.851562 71.558594 96.457031 71.558594 97.148438 C 71.558594 97.839844 71.21875 98.441406 70.683594 98.804688 C 71.207031 99.167969 71.558594 99.78125 71.558594 100.464844 C 71.558594 101.15625 71.207031 101.757812 70.683594 102.121094 C 70.898438 102.269531 71.082031 102.460938 71.21875 102.679688 C 71.582031 102.121094 72.203125 101.757812 72.910156 101.757812 C 73.714844 101.757812 74.417969 102.234375 74.738281 102.929688 C 75.054688 102.234375 75.746094 101.757812 76.5625 101.757812 C 77.371094 101.757812 78.074219 102.234375 78.390625 102.929688 C 78.710938 102.234375 79.414062 101.757812 80.21875 101.757812 C 81.332031 101.757812 82.230469 102.65625 82.230469 103.769531 C 82.230469 104.882812 81.332031 105.789062 80.21875 105.789062 C 79.414062 105.789062 78.710938 105.3125 78.390625 104.621094 C 78.074219 105.3125 77.371094 105.789062 76.5625 105.789062 C 75.757812 105.789062 75.054688 105.3125 74.738281 104.621094 C 74.417969 105.3125 73.714844 105.789062 72.910156 105.789062 C 72.203125 105.789062 71.59375 105.425781 71.230469 104.882812 C 70.867188 105.4375 70.242188 105.800781 69.539062 105.800781 C 68.425781 105.800781 67.527344 104.894531 67.527344 103.78125 C 67.527344 103.085938 67.867188 102.484375 68.402344 102.121094 C 67.878906 101.757812 67.527344 101.15625 67.527344 100.464844 C 67.527344 99.769531 67.867188 99.167969 68.402344 98.804688 C 67.878906 98.441406 67.527344 97.828125 67.527344 97.148438 C 67.527344 96.457031 67.878906 95.851562 68.402344 95.488281 C 67.878906 95.125 67.527344 94.523438 67.527344 93.832031 C 67.527344 93.152344 67.867188 92.539062 68.390625 92.175781 C 67.867188 91.808594 67.527344 91.207031 67.527344 90.515625 C 67.527344 89.835938 67.867188 89.234375 68.390625 88.859375 C 67.867188 88.496094 67.527344 87.890625 67.527344 87.199219 C 67.527344 86.507812 67.867188 85.90625 68.402344 85.542969 C 67.878906 85.179688 67.527344 84.566406 67.527344 83.882812 C 67.527344 82.769531 68.425781 81.863281 69.539062 81.863281 Z M 69.539062 81.863281 " fill-opacity="1" fill-rule="nonzero"/></g></svg>