<svg xmlns="http://www.w3.org/2000/svg" xmlns:xlink="http://www.w3.org/1999/xlink" width="200" zoomAndPan="magnify" viewBox="0 0 150 149.999998" height="200" preserveAspectRatio="xMidYMid meet" version="1.0"><path fill="#cc1b26" d="M 54.378906 62.433594 L 56.125 62.433594 L 56.125 77.863281 L 54.378906 77.863281 Z M 77.941406 62.433594 L 91.351562 62.433594 L 91.351562 64.175781 L 77.941406 64.175781 Z M 71.007812 70.515625 C 73.117188 70.398438 74.851562 68.699219 74.925781 66.625 C 74.933594 66.351562 74.917969 66.082031 74.871094 65.816406 C 74.828125 65.546875 74.757812 65.285156 74.660156 65.035156 C 74.5625 64.78125 74.441406 64.539062 74.292969 64.308594 C 74.148438 64.078125 73.980469 63.867188 73.792969 63.671875 C 73.601562 63.476562 73.394531 63.300781 73.171875 63.148438 C 72.945312 62.992188 72.707031 62.863281 72.457031 62.757812 C 72.207031 62.652344 71.949219 62.570312 71.679688 62.515625 C 71.414062 62.460938 71.144531 62.433594 70.871094 62.433594 L 61.113281 62.433594 L 61.113281 64.175781 L 70.871094 64.175781 C 71.179688 64.175781 71.472656 64.234375 71.753906 64.351562 C 72.039062 64.46875 72.285156 64.636719 72.503906 64.851562 C 72.71875 65.066406 72.886719 65.316406 73.003906 65.597656 C 73.121094 65.878906 73.179688 66.171875 73.179688 66.476562 C 73.179688 67.789062 72.253906 68.777344 71.027344 68.777344 L 61.113281 68.777344 L 61.113281 77.863281 L 62.859375 77.863281 L 62.859375 70.519531 L 67.859375 70.519531 C 68.277344 70.519531 68.671875 70.625 69.035156 70.839844 C 69.398438 71.054688 69.679688 71.34375 69.882812 71.710938 L 73.304688 77.859375 L 75.089844 77.859375 Z M 37.027344 63.671875 C 37.824219 62.84375 38.796875 62.429688 39.945312 62.433594 L 49.707031 62.433594 L 49.707031 64.175781 L 39.945312 64.175781 C 39.640625 64.175781 39.347656 64.234375 39.0625 64.351562 C 38.78125 64.46875 38.53125 64.636719 38.316406 64.851562 C 38.097656 65.066406 37.933594 65.316406 37.816406 65.597656 C 37.699219 65.878906 37.640625 66.171875 37.636719 66.476562 C 37.636719 66.527344 37.640625 66.574219 37.644531 66.625 L 35.894531 66.625 C 35.847656 65.476562 36.226562 64.492188 37.027344 63.671875 Z M 39.945312 68.777344 C 39.675781 68.777344 39.40625 68.804688 39.136719 68.859375 C 38.871094 68.914062 38.613281 68.996094 38.363281 69.101562 C 38.109375 69.207031 37.875 69.335938 37.648438 69.492188 C 37.425781 69.644531 37.21875 69.820312 37.027344 70.015625 C 36.839844 70.210938 36.671875 70.421875 36.527344 70.652344 C 36.378906 70.878906 36.257812 71.121094 36.160156 71.375 C 36.0625 71.628906 35.992188 71.886719 35.945312 72.15625 C 35.902344 72.425781 35.882812 72.695312 35.894531 72.964844 L 35.886719 72.96875 L 35.886719 77.863281 L 37.636719 77.863281 L 37.644531 72.96875 C 37.640625 72.917969 37.636719 72.871094 37.636719 72.820312 C 37.640625 72.515625 37.699219 72.222656 37.816406 71.941406 C 37.933594 71.660156 38.097656 71.410156 38.316406 71.195312 C 38.53125 70.980469 38.78125 70.8125 39.0625 70.695312 C 39.347656 70.578125 39.640625 70.519531 39.945312 70.519531 L 49.707031 70.519531 L 49.707031 68.777344 Z M 77.941406 68.78125 L 77.941406 73.671875 L 77.949219 73.675781 C 77.941406 73.945312 77.957031 74.214844 78.003906 74.484375 C 78.046875 74.75 78.117188 75.011719 78.214844 75.265625 C 78.3125 75.519531 78.433594 75.761719 78.582031 75.988281 C 78.726562 76.21875 78.894531 76.429688 79.085938 76.625 C 79.273438 76.820312 79.480469 76.996094 79.703125 77.148438 C 79.929688 77.304688 80.167969 77.433594 80.417969 77.539062 C 80.667969 77.644531 80.925781 77.726562 81.195312 77.78125 C 81.460938 77.835938 81.730469 77.863281 82.003906 77.863281 L 91.351562 77.863281 L 91.351562 76.121094 L 82.003906 76.121094 C 81.695312 76.121094 81.402344 76.0625 81.121094 75.945312 C 80.835938 75.828125 80.585938 75.660156 80.371094 75.445312 C 80.152344 75.230469 79.988281 74.980469 79.871094 74.699219 C 79.753906 74.417969 79.695312 74.125 79.695312 73.820312 C 79.695312 73.769531 79.691406 73.722656 79.695312 73.671875 L 79.695312 70.523438 L 91.351562 70.523438 L 91.351562 68.78125 Z M 20.335938 61.917969 C 20.464844 61.945312 20.578125 61.917969 20.679688 61.839844 C 20.78125 61.757812 20.835938 61.65625 20.84375 61.527344 C 20.90625 60.316406 20.835938 57.347656 18.847656 56.613281 C 16.265625 55.664062 12.105469 56.996094 8.914062 58.808594 C 5.683594 60.644531 1.621094 64.9375 0 69.3125 C 0 69.3125 6.007812 64.132812 12.175781 62.625 C 16.824219 61.484375 19.367188 61.730469 20.335938 61.917969 Z M 5.207031 69.476562 C 5.164062 69.355469 5.085938 69.269531 4.964844 69.21875 C 4.84375 69.171875 4.726562 69.175781 4.613281 69.234375 C 3.53125 69.789062 0.984375 71.332031 1.34375 73.414062 C 1.804688 76.117188 5.042969 79.042969 8.214844 80.890625 C 11.425781 82.765625 17.1875 84.125 21.796875 83.335938 C 21.796875 83.335938 14.296875 80.738281 9.898438 76.167969 C 6.585938 72.726562 5.527344 70.410156 5.207031 69.476562 Z M 19.402344 78.871094 C 19.316406 78.96875 19.28125 79.082031 19.300781 79.210938 C 19.316406 79.335938 19.378906 79.4375 19.488281 79.507812 C 20.507812 80.164062 23.125 81.589844 24.757812 80.238281 C 26.871094 78.488281 27.792969 74.230469 27.816406 70.566406 C 27.835938 66.859375 26.136719 61.207031 23.148438 57.621094 C 23.148438 57.621094 24.640625 65.394531 22.871094 71.476562 C 21.535156 76.058594 20.050781 78.128906 19.402344 78.871094 Z M 19.402344 78.871094 " fill-opacity="1" fill-rule="nonzero"/><path fill="#64666b" d="M 95.203125 62.433594 L 109.019531 62.433594 L 109.019531 64.175781 L 95.203125 64.175781 Z M 129.09375 62.433594 L 142.914062 62.433594 L 142.914062 64.175781 L 129.09375 64.175781 Z M 95.203125 68.78125 L 95.203125 73.671875 L 95.207031 73.675781 C 95.199219 73.945312 95.214844 74.214844 95.261719 74.484375 C 95.304688 74.75 95.378906 75.011719 95.476562 75.265625 C 95.570312 75.519531 95.695312 75.761719 95.839844 75.988281 C 95.988281 76.21875 96.152344 76.429688 96.34375 76.625 C 96.53125 76.820312 96.738281 76.996094 96.964844 77.148438 C 97.1875 77.304688 97.425781 77.433594 97.675781 77.539062 C 97.925781 77.644531 98.1875 77.726562 98.453125 77.78125 C 98.71875 77.835938 98.988281 77.863281 99.261719 77.863281 L 109.019531 77.863281 L 109.019531 76.121094 L 99.261719 76.121094 C 98.957031 76.121094 98.660156 76.0625 98.378906 75.945312 C 98.097656 75.828125 97.847656 75.660156 97.628906 75.445312 C 97.414062 75.230469 97.246094 74.980469 97.128906 74.699219 C 97.011719 74.417969 96.953125 74.125 96.953125 73.820312 C 96.953125 73.769531 96.949219 73.722656 96.953125 73.671875 L 96.953125 70.523438 L 109.019531 70.523438 L 109.019531 68.78125 Z M 129.09375 68.78125 L 129.09375 73.671875 L 129.101562 73.675781 C 129.089844 73.945312 129.109375 74.214844 129.152344 74.484375 C 129.199219 74.75 129.269531 75.011719 129.367188 75.265625 C 129.464844 75.519531 129.585938 75.761719 129.734375 75.988281 C 129.878906 76.21875 130.046875 76.429688 130.234375 76.625 C 130.425781 76.820312 130.632812 76.996094 130.855469 77.148438 C 131.082031 77.304688 131.316406 77.433594 131.570312 77.539062 C 131.820312 77.644531 132.078125 77.726562 132.34375 77.78125 C 132.613281 77.835938 132.882812 77.863281 133.152344 77.863281 L 142.914062 77.863281 L 142.914062 76.121094 L 133.152344 76.121094 C 132.847656 76.121094 132.554688 76.0625 132.269531 75.945312 C 131.988281 75.828125 131.738281 75.660156 131.523438 75.445312 C 131.304688 75.230469 131.140625 74.980469 131.023438 74.699219 C 130.90625 74.417969 130.847656 74.125 130.847656 73.820312 C 130.847656 73.769531 130.84375 73.722656 130.847656 73.671875 L 130.847656 70.523438 L 142.914062 70.523438 L 142.914062 68.78125 Z M 125.441406 62.433594 L 119.03125 69.371094 L 112.617188 62.433594 L 110.363281 62.433594 L 118.15625 70.863281 L 118.15625 77.863281 L 119.90625 77.863281 L 119.90625 70.863281 L 127.695312 62.433594 Z M 145.953125 62.828125 L 145.183594 62.828125 L 145.183594 62.433594 L 147.15625 62.433594 L 147.15625 62.828125 L 146.382812 62.828125 L 146.382812 64.859375 L 145.953125 64.859375 Z M 147.609375 62.433594 L 148.0625 62.433594 L 148.804688 63.582031 L 149.542969 62.433594 L 150 62.433594 L 150 64.859375 L 149.574219 64.859375 L 149.574219 63.121094 L 148.804688 64.265625 L 148.789062 64.265625 L 148.03125 63.128906 L 148.03125 64.859375 L 147.609375 64.859375 Z M 147.609375 62.433594 " fill-opacity="1" fill-rule="nonzero"/></svg>