<svg xmlns="http://www.w3.org/2000/svg" xmlns:xlink="http://www.w3.org/1999/xlink" width="200" zoomAndPan="magnify" viewBox="0 0 150 149.999998" height="200" preserveAspectRatio="xMidYMid meet" version="1.0"><defs><clipPath id="61e47493dc"><path d="M 0 66.410156 L 150 66.410156 L 150 83.660156 L 0 83.660156 Z M 0 66.410156 " clip-rule="nonzero"/></clipPath><clipPath id="7546292030"><path d="M 20 66.410156 L 45 66.410156 L 45 83.660156 L 20 83.660156 Z M 20 66.410156 " clip-rule="nonzero"/></clipPath></defs><g clip-path="url(#61e47493dc)"><path fill="#231f20" d="M 97.222656 83.480469 L 93.101562 83.480469 L 93.101562 66.589844 L 106.355469 66.601562 C 106.355469 66.601562 108.785156 66.511719 110.328125 68.042969 C 110.328125 68.042969 111.902344 69.363281 111.902344 72.59375 L 111.902344 83.476562 L 107.792969 83.476562 L 107.792969 72.3125 C 107.792969 72.3125 107.84375 71.171875 107.457031 70.773438 C 107.457031 70.773438 107.117188 70.339844 106.464844 70.339844 L 97.214844 70.339844 L 97.222656 83.476562 Z M 114.769531 83.476562 L 114.769531 66.601562 L 131.308594 66.601562 L 131.308594 70.355469 L 118.863281 70.355469 L 118.863281 73.226562 L 127.511719 73.226562 L 127.511719 76.851562 L 118.863281 76.851562 L 118.863281 79.730469 L 131.386719 79.730469 L 131.386719 83.484375 L 114.757812 83.484375 Z M 85.917969 83.476562 L 85.917969 66.601562 L 90.023438 66.601562 L 90.023438 83.484375 L 85.917969 83.484375 Z M 138.277344 69.292969 L 138.277344 68.726562 Z M 137.21875 83.476562 L 137.21875 70.351562 L 133.34375 70.351562 L 133.34375 66.597656 L 148.753906 66.597656 L 148.753906 70.351562 L 141.324219 70.351562 L 141.324219 83.476562 Z M 73.421875 69.292969 L 73.421875 68.726562 Z M 72.363281 83.476562 L 72.363281 70.351562 L 68.488281 70.351562 L 68.488281 66.597656 L 83.898438 66.597656 L 83.898438 70.351562 L 76.46875 70.351562 L 76.46875 83.476562 Z M 59.984375 73.214844 C 60.988281 73.207031 61.589844 73.214844 61.832031 73.066406 C 61.832031 73.066406 62.25 72.832031 62.257812 72.332031 L 62.257812 71.226562 C 62.257812 70.722656 61.832031 70.492188 61.832031 70.492188 C 61.511719 70.316406 60.96875 70.347656 59.683594 70.347656 L 51.683594 70.347656 L 51.683594 73.214844 L 60.167969 73.214844 Z M 62.199219 83.476562 L 62.199219 77.71875 C 62.199219 77.199219 61.765625 76.984375 61.765625 76.984375 C 61.574219 76.863281 60.988281 76.839844 60.132812 76.839844 L 60.332031 76.839844 L 51.683594 76.839844 L 51.683594 83.476562 L 47.582031 83.476562 L 47.582031 66.601562 L 60.394531 66.601562 C 62.605469 66.609375 64.132812 66.9375 65.183594 67.960938 C 66.21875 69.019531 66.355469 70.402344 66.363281 71.84375 L 66.363281 73.042969 C 66.375 74.265625 65.734375 75.382812 64.972656 76.03125 L 65.125 76.109375 C 65.4375 76.261719 65.605469 76.476562 65.605469 76.476562 C 66.1875 77.21875 66.179688 77.859375 66.179688 78.648438 L 66.179688 83.480469 L 62.199219 83.480469 Z M 0.128906 66.597656 L 0.128906 83.472656 L 4.234375 83.472656 L 4.234375 76.839844 L 16.667969 76.839844 L 16.667969 73.214844 L 4.234375 73.214844 L 4.234375 70.347656 L 18.6875 70.347656 L 18.6875 66.59375 L 0.128906 66.59375 Z M 147.367188 80.492188 L 147.367188 81.269531 L 148.085938 81.269531 C 148.28125 81.269531 148.46875 81.214844 148.496094 80.925781 C 148.539062 80.539062 148.261719 80.492188 148.085938 80.492188 Z M 147.078125 80.238281 L 148.078125 80.238281 C 148.425781 80.238281 148.761719 80.304688 148.792969 80.8125 C 148.804688 81.101562 148.714844 81.207031 148.496094 81.375 C 148.730469 81.523438 148.734375 81.558594 148.769531 81.945312 C 148.792969 82.242188 148.75 82.292969 148.875 82.484375 L 148.535156 82.484375 L 148.488281 82.203125 C 148.4375 81.933594 148.570312 81.523438 148.105469 81.523438 L 147.367188 81.523438 L 147.367188 82.484375 L 147.078125 82.484375 Z M 147.832031 79.617188 C 147.59375 79.617188 147.363281 79.664062 147.144531 79.753906 C 146.925781 79.847656 146.730469 79.976562 146.5625 80.148438 C 146.394531 80.316406 146.265625 80.515625 146.175781 80.734375 C 146.085938 80.957031 146.042969 81.1875 146.042969 81.425781 C 146.042969 82.421875 146.84375 83.230469 147.839844 83.226562 C 148.078125 83.226562 148.308594 83.179688 148.527344 83.085938 C 148.746094 82.996094 148.941406 82.863281 149.109375 82.695312 C 149.277344 82.523438 149.40625 82.328125 149.5 82.109375 C 149.589844 81.886719 149.636719 81.65625 149.632812 81.417969 C 149.632812 81.179688 149.589844 80.949219 149.496094 80.726562 C 149.40625 80.507812 149.273438 80.3125 149.105469 80.140625 C 148.9375 79.972656 148.742188 79.84375 148.519531 79.753906 C 148.300781 79.660156 148.070312 79.617188 147.832031 79.617188 M 147.839844 83.460938 C 147.570312 83.460938 147.308594 83.410156 147.0625 83.304688 C 146.8125 83.203125 146.59375 83.054688 146.402344 82.863281 C 146.210938 82.671875 146.0625 82.453125 145.960938 82.203125 C 145.855469 81.953125 145.804688 81.691406 145.804688 81.421875 C 145.804688 81.148438 145.855469 80.890625 145.960938 80.640625 C 146.0625 80.390625 146.210938 80.167969 146.402344 79.976562 C 146.589844 79.785156 146.8125 79.636719 147.0625 79.535156 C 147.308594 79.429688 147.570312 79.378906 147.839844 79.378906 C 148.960938 79.378906 149.871094 80.296875 149.871094 81.421875 C 149.871094 81.691406 149.820312 81.953125 149.714844 82.203125 C 149.613281 82.453125 149.464844 82.671875 149.273438 82.863281 C 149.085938 83.054688 148.863281 83.199219 148.617188 83.304688 C 148.367188 83.40625 148.109375 83.460938 147.839844 83.460938 " fill-opacity="1" fill-rule="nonzero"/></g><g clip-path="url(#7546292030)"><path fill="#ee2e24" d="M 41.9375 83.644531 C 43.269531 83.191406 44.308594 81.648438 44.558594 79.710938 L 44.558594 79.148438 L 37.722656 79.148438 L 37.722656 83.644531 Z M 44.558594 70.90625 L 44.558594 70.398438 C 44.296875 68.378906 43.183594 66.785156 41.761719 66.410156 L 37.722656 66.410156 L 37.722656 70.90625 Z M 20.5 79.152344 L 20.5 79.707031 C 20.75 81.644531 21.785156 83.191406 23.125 83.644531 L 27.316406 83.644531 L 27.316406 79.148438 L 20.5 79.148438 Z M 23.296875 66.414062 C 21.878906 66.789062 20.761719 68.382812 20.5 70.40625 L 20.5 70.910156 L 27.316406 70.910156 L 27.316406 66.414062 Z M 44.5625 72.78125 L 37.726562 72.78125 L 37.726562 77.28125 L 44.5625 77.28125 Z M 29.183594 83.648438 L 35.867188 83.648438 L 35.867188 79.152344 L 29.183594 79.152344 Z M 35.867188 66.410156 L 29.183594 66.410156 L 29.183594 70.90625 L 35.867188 70.90625 Z M 20.507812 77.273438 L 27.324219 77.273438 L 27.324219 72.777344 L 20.507812 72.777344 Z M 20.507812 77.273438 " fill-opacity="1" fill-rule="nonzero"/></g></svg>