<svg xmlns="http://www.w3.org/2000/svg" xmlns:xlink="http://www.w3.org/1999/xlink" width="200" zoomAndPan="magnify" viewBox="0 0 150 149.999998" height="200" preserveAspectRatio="xMidYMid meet" version="1.0"><defs><clipPath id="6af9b50e35"><path d="M 36 59 L 150 59 L 150 79.675781 L 36 79.675781 Z M 36 59 " clip-rule="nonzero"/></clipPath></defs><path fill="#ea4335" d="M 18.695312 62.179688 L 19.535156 62.179688 L 21.929688 59.820312 L 22.046875 58.816406 C 21.707031 58.519531 21.347656 58.246094 20.96875 57.992188 C 20.59375 57.742188 20.203125 57.511719 19.796875 57.308594 C 19.390625 57.105469 18.972656 56.929688 18.542969 56.777344 C 18.113281 56.628906 17.679688 56.503906 17.234375 56.410156 C 16.789062 56.3125 16.339844 56.246094 15.886719 56.203125 C 15.433594 56.164062 14.980469 56.152344 14.523438 56.167969 C 14.070312 56.1875 13.617188 56.230469 13.167969 56.304688 C 12.71875 56.378906 12.277344 56.480469 11.839844 56.609375 C 11.402344 56.738281 10.976562 56.894531 10.5625 57.078125 C 10.144531 57.257812 9.742188 57.464844 9.355469 57.699219 C 8.964844 57.933594 8.589844 58.1875 8.234375 58.46875 C 7.878906 58.746094 7.542969 59.046875 7.222656 59.371094 C 6.90625 59.691406 6.609375 60.03125 6.335938 60.390625 C 6.0625 60.75 5.8125 61.125 5.589844 61.511719 C 5.363281 61.902344 5.164062 62.304688 4.988281 62.722656 C 4.816406 63.136719 4.667969 63.558594 4.550781 63.992188 C 4.824219 63.882812 5.101562 63.867188 5.390625 63.945312 L 10.175781 63.164062 C 10.175781 63.164062 10.417969 62.769531 10.542969 62.792969 C 10.796875 62.519531 11.078125 62.269531 11.378906 62.046875 C 11.679688 61.820312 12 61.628906 12.339844 61.464844 C 12.679688 61.300781 13.03125 61.171875 13.394531 61.074219 C 13.757812 60.976562 14.128906 60.914062 14.503906 60.886719 C 14.882812 60.859375 15.257812 60.863281 15.632812 60.90625 C 16.007812 60.949219 16.375 61.023438 16.734375 61.136719 C 17.09375 61.246094 17.441406 61.390625 17.773438 61.566406 C 18.105469 61.742188 18.421875 61.945312 18.714844 62.179688 Z M 18.695312 62.179688 " fill-opacity="1" fill-rule="nonzero"/><path fill="#4285f4" d="M 25.339844 63.992188 C 24.777344 61.953125 23.691406 60.230469 22.089844 58.824219 L 18.730469 62.136719 C 19.4375 62.710938 19.984375 63.40625 20.371094 64.226562 C 20.753906 65.046875 20.9375 65.90625 20.921875 66.808594 L 20.921875 67.398438 C 21.316406 67.398438 21.699219 67.472656 22.066406 67.621094 C 22.433594 67.773438 22.753906 67.984375 23.035156 68.261719 C 23.316406 68.539062 23.53125 68.855469 23.683594 69.21875 C 23.835938 69.578125 23.910156 69.957031 23.910156 70.347656 C 23.910156 70.738281 23.835938 71.113281 23.683594 71.476562 C 23.53125 71.835938 23.316406 72.15625 23.035156 72.433594 C 22.753906 72.707031 22.433594 72.921875 22.066406 73.070312 C 21.699219 73.21875 21.316406 73.296875 20.921875 73.296875 L 14.945312 73.296875 L 14.347656 73.890625 L 14.347656 77.429688 L 14.945312 78.015625 L 20.921875 78.015625 C 21.757812 78.023438 22.570312 77.898438 23.367188 77.648438 C 24.160156 77.394531 24.894531 77.027344 25.566406 76.539062 C 26.242188 76.054688 26.820312 75.476562 27.308594 74.804688 C 27.792969 74.136719 28.160156 73.410156 28.40625 72.621094 C 28.65625 71.835938 28.769531 71.03125 28.753906 70.207031 C 28.742188 69.382812 28.59375 68.585938 28.320312 67.808594 C 28.042969 67.03125 27.648438 66.316406 27.140625 65.664062 C 26.628906 65.011719 26.03125 64.457031 25.339844 63.992188 Z M 25.339844 63.992188 " fill-opacity="1" fill-rule="nonzero"/><path fill="#34a853" d="M 8.957031 77.984375 L 14.933594 77.984375 L 14.933594 73.261719 L 8.957031 73.261719 C 8.527344 73.261719 8.113281 73.171875 7.722656 72.996094 L 6.882812 73.253906 L 4.472656 75.613281 L 4.265625 76.441406 C 5.652344 77.476562 7.21875 77.988281 8.957031 77.984375 Z M 8.957031 77.984375 " fill-opacity="1" fill-rule="nonzero"/><path fill="#fbbc05" d="M 8.957031 62.667969 C 8.148438 62.671875 7.359375 62.800781 6.585938 63.046875 C 5.816406 63.296875 5.105469 63.65625 4.449219 64.121094 C 3.792969 64.589844 3.222656 65.148438 2.742188 65.789062 C 2.261719 66.433594 1.894531 67.132812 1.636719 67.890625 C 1.378906 68.648438 1.242188 69.425781 1.230469 70.222656 C 1.21875 71.023438 1.328125 71.804688 1.566406 72.570312 C 1.800781 73.332031 2.148438 74.042969 2.609375 74.703125 C 3.070312 75.359375 3.621094 75.929688 4.265625 76.417969 L 7.730469 72.996094 C 7.511719 72.898438 7.304688 72.777344 7.117188 72.628906 C 6.925781 72.480469 6.757812 72.3125 6.605469 72.125 C 6.457031 71.9375 6.335938 71.734375 6.234375 71.515625 C 6.136719 71.300781 6.066406 71.074219 6.023438 70.839844 C 5.976562 70.605469 5.964844 70.367188 5.980469 70.128906 C 5.992188 69.890625 6.035156 69.660156 6.109375 69.429688 C 6.179688 69.203125 6.28125 68.988281 6.40625 68.785156 C 6.53125 68.578125 6.675781 68.394531 6.847656 68.226562 C 7.019531 68.054688 7.207031 67.910156 7.414062 67.785156 C 7.621094 67.664062 7.839844 67.566406 8.070312 67.496094 C 8.300781 67.425781 8.539062 67.382812 8.78125 67.367188 C 9.019531 67.351562 9.261719 67.367188 9.5 67.410156 C 9.738281 67.453125 9.964844 67.523438 10.1875 67.621094 C 10.40625 67.71875 10.613281 67.839844 10.804688 67.988281 C 10.992188 68.132812 11.164062 68.300781 11.3125 68.488281 C 11.460938 68.675781 11.585938 68.878906 11.6875 69.097656 L 15.152344 65.675781 C 14.414062 64.722656 13.503906 63.984375 12.414062 63.457031 C 11.324219 62.925781 10.171875 62.664062 8.957031 62.667969 Z M 8.957031 62.667969 " fill-opacity="1" fill-rule="nonzero"/><g clip-path="url(#6af9b50e35)"><path fill="#5f6368" d="M 44.675781 74.6875 C 43.632812 74.699219 42.632812 74.511719 41.671875 74.121094 C 40.710938 73.730469 39.863281 73.171875 39.132812 72.441406 C 38.378906 71.742188 37.800781 70.921875 37.394531 69.984375 C 36.988281 69.042969 36.792969 68.0625 36.808594 67.042969 C 36.792969 66.019531 36.992188 65.039062 37.394531 64.101562 C 37.800781 63.160156 38.378906 62.339844 39.132812 61.640625 C 39.859375 60.902344 40.703125 60.335938 41.667969 59.941406 C 42.628906 59.542969 43.632812 59.347656 44.675781 59.355469 C 45.667969 59.34375 46.625 59.519531 47.546875 59.886719 C 48.46875 60.25 49.28125 60.777344 49.988281 61.46875 L 48.496094 62.96875 C 47.984375 62.480469 47.394531 62.105469 46.734375 61.847656 C 46.070312 61.589844 45.386719 61.464844 44.675781 61.476562 C 43.925781 61.46875 43.210938 61.605469 42.523438 61.894531 C 41.835938 62.183594 41.238281 62.597656 40.726562 63.132812 C 40.195312 63.652344 39.792969 64.253906 39.511719 64.9375 C 39.226562 65.621094 39.09375 66.328125 39.105469 67.066406 C 39.101562 67.796875 39.238281 68.496094 39.519531 69.171875 C 39.800781 69.84375 40.203125 70.4375 40.726562 70.949219 C 40.984375 71.203125 41.265625 71.429688 41.566406 71.628906 C 41.867188 71.828125 42.1875 72 42.523438 72.136719 C 42.859375 72.277344 43.203125 72.382812 43.558594 72.457031 C 43.914062 72.527344 44.273438 72.566406 44.636719 72.570312 C 45 72.574219 45.363281 72.546875 45.71875 72.480469 C 46.078125 72.417969 46.425781 72.320312 46.765625 72.1875 C 47.101562 72.054688 47.425781 71.894531 47.730469 71.703125 C 48.039062 71.507812 48.324219 71.289062 48.585938 71.042969 C 49.261719 70.3125 49.648438 69.453125 49.738281 68.464844 L 44.699219 68.464844 L 44.699219 66.347656 L 51.828125 66.347656 C 51.898438 66.773438 51.925781 67.203125 51.910156 67.636719 C 51.957031 68.542969 51.820312 69.417969 51.5 70.265625 C 51.179688 71.117188 50.703125 71.867188 50.074219 72.523438 C 49.371094 73.246094 48.546875 73.796875 47.605469 74.171875 C 46.667969 74.550781 45.6875 74.722656 44.675781 74.6875 Z M 61.246094 73.277344 C 61.011719 73.503906 60.753906 73.703125 60.480469 73.878906 C 60.203125 74.054688 59.914062 74.203125 59.609375 74.324219 C 59.304688 74.441406 58.988281 74.535156 58.667969 74.597656 C 58.34375 74.65625 58.019531 74.6875 57.691406 74.6875 C 57.363281 74.6875 57.039062 74.65625 56.714844 74.597656 C 56.394531 74.535156 56.082031 74.441406 55.777344 74.324219 C 55.472656 74.203125 55.179688 74.054688 54.90625 73.878906 C 54.628906 73.703125 54.375 73.503906 54.136719 73.277344 C 53.65625 72.816406 53.289062 72.28125 53.035156 71.667969 C 52.78125 71.054688 52.664062 70.417969 52.683594 69.757812 C 52.664062 69.097656 52.78125 68.460938 53.035156 67.847656 C 53.289062 67.234375 53.65625 66.699219 54.136719 66.238281 C 54.375 66.015625 54.628906 65.816406 54.90625 65.640625 C 55.183594 65.464844 55.472656 65.316406 55.777344 65.195312 C 56.082031 65.078125 56.394531 64.984375 56.714844 64.925781 C 57.039062 64.863281 57.363281 64.832031 57.691406 64.832031 C 58.019531 64.832031 58.34375 64.863281 58.667969 64.925781 C 58.988281 64.984375 59.304688 65.078125 59.609375 65.195312 C 59.910156 65.316406 60.203125 65.464844 60.476562 65.640625 C 60.753906 65.816406 61.011719 66.015625 61.246094 66.238281 C 61.730469 66.699219 62.09375 67.234375 62.347656 67.847656 C 62.601562 68.460938 62.71875 69.097656 62.699219 69.757812 C 62.71875 70.421875 62.597656 71.058594 62.34375 71.671875 C 62.089844 72.28125 61.722656 72.820312 61.238281 73.277344 Z M 55.707031 71.894531 C 55.964844 72.167969 56.265625 72.375 56.609375 72.523438 C 56.953125 72.671875 57.316406 72.746094 57.691406 72.746094 C 58.066406 72.746094 58.429688 72.671875 58.773438 72.523438 C 59.121094 72.375 59.421875 72.167969 59.675781 71.894531 C 60.261719 71.300781 60.542969 70.585938 60.515625 69.757812 C 60.542969 68.925781 60.261719 68.210938 59.675781 67.613281 C 59.417969 67.34375 59.113281 67.136719 58.769531 66.992188 C 58.421875 66.847656 58.058594 66.773438 57.683594 66.773438 C 57.308594 66.773438 56.945312 66.847656 56.601562 66.992188 C 56.253906 67.136719 55.949219 67.34375 55.691406 67.613281 C 55.105469 68.210938 54.824219 68.925781 54.851562 69.757812 C 54.828125 70.589844 55.109375 71.300781 55.699219 71.894531 Z M 72.179688 73.277344 C 71.941406 73.503906 71.6875 73.703125 71.410156 73.878906 C 71.132812 74.054688 70.84375 74.203125 70.539062 74.324219 C 70.234375 74.441406 69.921875 74.535156 69.597656 74.597656 C 69.277344 74.65625 68.953125 74.6875 68.625 74.6875 C 68.296875 74.6875 67.96875 74.65625 67.648438 74.597656 C 67.324219 74.535156 67.011719 74.441406 66.707031 74.324219 C 66.402344 74.203125 66.113281 74.054688 65.835938 73.878906 C 65.5625 73.703125 65.304688 73.503906 65.066406 73.277344 C 64.585938 72.816406 64.21875 72.28125 63.964844 71.667969 C 63.714844 71.054688 63.597656 70.417969 63.617188 69.757812 C 63.597656 69.097656 63.714844 68.460938 63.96875 67.847656 C 64.21875 67.234375 64.585938 66.699219 65.066406 66.238281 C 65.304688 66.015625 65.5625 65.816406 65.835938 65.640625 C 66.113281 65.464844 66.402344 65.316406 66.707031 65.195312 C 67.011719 65.074219 67.324219 64.984375 67.648438 64.921875 C 67.96875 64.859375 68.296875 64.828125 68.625 64.828125 C 68.953125 64.828125 69.277344 64.859375 69.597656 64.921875 C 69.921875 64.984375 70.234375 65.074219 70.539062 65.195312 C 70.84375 65.316406 71.132812 65.464844 71.410156 65.640625 C 71.6875 65.816406 71.941406 66.015625 72.179688 66.238281 C 72.660156 66.699219 73.027344 67.234375 73.28125 67.847656 C 73.53125 68.460938 73.648438 69.097656 73.632812 69.757812 C 73.652344 70.417969 73.535156 71.054688 73.28125 71.667969 C 73.027344 72.28125 72.660156 72.816406 72.179688 73.277344 Z M 66.636719 71.894531 C 66.894531 72.167969 67.195312 72.375 67.542969 72.523438 C 67.886719 72.671875 68.246094 72.746094 68.625 72.746094 C 69 72.746094 69.359375 72.671875 69.707031 72.523438 C 70.050781 72.375 70.351562 72.167969 70.609375 71.894531 C 71.195312 71.300781 71.472656 70.585938 71.449219 69.757812 C 71.476562 68.925781 71.195312 68.210938 70.609375 67.613281 C 70.347656 67.34375 70.046875 67.136719 69.699219 66.992188 C 69.351562 66.847656 68.992188 66.773438 68.617188 66.773438 C 68.238281 66.773438 67.878906 66.847656 67.53125 66.992188 C 67.183594 67.136719 66.882812 67.34375 66.621094 67.613281 C 66.035156 68.210938 65.753906 68.925781 65.78125 69.757812 C 65.757812 70.589844 66.042969 71.300781 66.628906 71.894531 Z M 79.367188 79.109375 C 78.328125 79.140625 77.398438 78.847656 76.570312 78.230469 C 75.84375 77.695312 75.300781 77.015625 74.941406 76.195312 L 76.855469 75.40625 C 77.066406 75.898438 77.382812 76.308594 77.804688 76.640625 C 78.261719 77.003906 78.785156 77.179688 79.375 77.164062 C 80.140625 77.207031 80.792969 76.960938 81.332031 76.417969 C 81.855469 75.792969 82.089844 75.074219 82.027344 74.265625 L 82.027344 73.550781 L 81.953125 73.550781 C 81.628906 73.933594 81.234375 74.21875 80.773438 74.417969 C 80.308594 74.613281 79.828125 74.699219 79.324219 74.667969 C 78.6875 74.671875 78.078125 74.546875 77.492188 74.296875 C 76.90625 74.046875 76.398438 73.691406 75.964844 73.230469 C 75.496094 72.769531 75.136719 72.242188 74.886719 71.640625 C 74.636719 71.035156 74.519531 70.410156 74.53125 69.757812 C 74.519531 69.105469 74.636719 68.472656 74.886719 67.867188 C 75.136719 67.257812 75.496094 66.726562 75.964844 66.261719 C 76.398438 65.800781 76.90625 65.441406 77.492188 65.191406 C 78.074219 64.9375 78.6875 64.8125 79.324219 64.8125 C 79.863281 64.8125 80.378906 64.925781 80.871094 65.152344 C 81.292969 65.335938 81.65625 65.597656 81.960938 65.941406 L 82.035156 65.941406 L 82.035156 65.152344 L 84.117188 65.152344 L 84.117188 73.972656 C 84.175781 74.679688 84.085938 75.367188 83.855469 76.035156 C 83.621094 76.703125 83.265625 77.300781 82.785156 77.824219 C 82.324219 78.257812 81.800781 78.585938 81.207031 78.808594 C 80.613281 79.03125 80 79.132812 79.367188 79.109375 Z M 79.515625 72.75 C 80.28125 72.765625 80.914062 72.488281 81.414062 71.921875 C 81.953125 71.3125 82.207031 70.605469 82.179688 69.800781 C 82.210938 68.980469 81.957031 68.261719 81.414062 67.636719 C 80.914062 67.066406 80.28125 66.792969 79.515625 66.808594 C 78.734375 66.792969 78.082031 67.070312 77.554688 67.636719 C 76.976562 68.238281 76.695312 68.953125 76.714844 69.785156 C 76.695312 70.605469 76.976562 71.3125 77.554688 71.902344 C 78.078125 72.476562 78.734375 72.757812 79.515625 72.75 Z M 87.820312 59.910156 L 87.820312 74.386719 L 85.628906 74.386719 L 85.628906 59.910156 Z M 93.832031 74.6875 C 93.167969 74.703125 92.53125 74.589844 91.914062 74.34375 C 91.300781 74.097656 90.761719 73.738281 90.296875 73.269531 C 89.828125 72.804688 89.46875 72.269531 89.222656 71.65625 C 88.976562 71.046875 88.863281 70.414062 88.878906 69.757812 C 88.855469 69.101562 88.960938 68.464844 89.199219 67.847656 C 89.433594 67.234375 89.785156 66.6875 90.246094 66.214844 C 90.683594 65.761719 91.195312 65.414062 91.777344 65.171875 C 92.363281 64.929688 92.972656 64.816406 93.605469 64.832031 C 94.1875 64.824219 94.746094 64.933594 95.285156 65.152344 C 95.769531 65.347656 96.195312 65.621094 96.570312 65.980469 C 96.886719 66.285156 97.167969 66.617188 97.410156 66.984375 C 97.605469 67.292969 97.769531 67.613281 97.90625 67.953125 L 98.132812 68.515625 L 91.414062 71.242188 C 91.621094 71.710938 91.949219 72.082031 92.390625 72.355469 C 92.832031 72.628906 93.3125 72.753906 93.832031 72.730469 C 94.335938 72.734375 94.808594 72.613281 95.246094 72.367188 C 95.683594 72.125 96.03125 71.789062 96.292969 71.363281 L 97.972656 72.484375 C 97.539062 73.09375 97 73.597656 96.359375 73.992188 C 95.589844 74.472656 94.746094 74.703125 93.832031 74.6875 Z M 91.027344 69.609375 L 95.496094 67.777344 C 95.351562 67.445312 95.121094 67.195312 94.796875 67.023438 C 94.441406 66.828125 94.058594 66.730469 93.648438 66.734375 C 92.9375 66.753906 92.335938 67.015625 91.84375 67.523438 C 91.238281 68.09375 90.96875 68.789062 91.027344 69.609375 Z M 109.609375 74.6875 C 109.144531 74.695312 108.679688 74.65625 108.222656 74.570312 C 107.765625 74.488281 107.320312 74.359375 106.886719 74.1875 C 106.457031 74.011719 106.046875 73.800781 105.65625 73.546875 C 105.269531 73.289062 104.910156 73 104.582031 72.675781 C 104.253906 72.347656 103.960938 71.992188 103.707031 71.609375 C 103.449219 71.222656 103.234375 70.820312 103.0625 70.390625 C 102.890625 69.964844 102.761719 69.523438 102.679688 69.074219 C 102.597656 68.621094 102.5625 68.164062 102.574219 67.703125 C 102.5625 67.246094 102.597656 66.789062 102.679688 66.335938 C 102.761719 65.882812 102.890625 65.445312 103.0625 65.015625 C 103.234375 64.589844 103.449219 64.183594 103.707031 63.800781 C 103.960938 63.414062 104.253906 63.0625 104.582031 62.734375 C 104.910156 62.410156 105.269531 62.117188 105.65625 61.863281 C 106.046875 61.609375 106.457031 61.394531 106.886719 61.222656 C 107.320312 61.050781 107.765625 60.921875 108.222656 60.835938 C 108.679688 60.753906 109.144531 60.714844 109.609375 60.722656 C 110.5625 60.691406 111.480469 60.871094 112.351562 61.253906 C 113.226562 61.636719 113.96875 62.1875 114.585938 62.910156 L 113.378906 64.070312 C 112.925781 63.503906 112.367188 63.074219 111.703125 62.773438 C 111.042969 62.476562 110.34375 62.339844 109.617188 62.371094 C 108.917969 62.355469 108.246094 62.476562 107.597656 62.730469 C 106.949219 62.988281 106.375 63.359375 105.882812 63.84375 C 105.367188 64.355469 104.976562 64.945312 104.710938 65.617188 C 104.449219 66.289062 104.332031 66.984375 104.359375 67.703125 C 104.332031 68.425781 104.449219 69.121094 104.710938 69.789062 C 104.976562 70.460938 105.367188 71.054688 105.882812 71.5625 C 106.375 72.050781 106.949219 72.421875 107.597656 72.675781 C 108.246094 72.933594 108.917969 73.054688 109.617188 73.039062 C 110.429688 73.046875 111.203125 72.882812 111.941406 72.542969 C 112.675781 72.203125 113.300781 71.722656 113.816406 71.101562 L 115.023438 72.292969 C 114.382812 73.050781 113.609375 73.632812 112.699219 74.039062 C 111.71875 74.488281 110.6875 74.703125 109.609375 74.6875 Z M 118.273438 74.386719 L 116.535156 74.386719 L 116.535156 61.011719 L 118.273438 61.011719 Z M 121.113281 66.335938 C 121.335938 66.117188 121.582031 65.917969 121.847656 65.746094 C 122.109375 65.574219 122.390625 65.425781 122.683594 65.308594 C 122.976562 65.1875 123.28125 65.097656 123.59375 65.035156 C 123.90625 64.976562 124.21875 64.945312 124.535156 64.945312 C 124.855469 64.945312 125.167969 64.976562 125.480469 65.035156 C 125.792969 65.097656 126.097656 65.1875 126.390625 65.308594 C 126.683594 65.425781 126.960938 65.574219 127.226562 65.746094 C 127.492188 65.917969 127.738281 66.117188 127.960938 66.335938 C 128.414062 66.804688 128.753906 67.34375 128.988281 67.945312 C 129.21875 68.546875 129.324219 69.171875 129.304688 69.816406 C 129.324219 70.460938 129.21875 71.085938 128.988281 71.6875 C 128.753906 72.289062 128.414062 72.828125 127.960938 73.296875 C 127.738281 73.515625 127.492188 73.714844 127.226562 73.886719 C 126.960938 74.058594 126.683594 74.207031 126.390625 74.324219 C 126.097656 74.445312 125.792969 74.535156 125.480469 74.597656 C 125.167969 74.65625 124.855469 74.6875 124.535156 74.6875 C 124.21875 74.6875 123.90625 74.65625 123.59375 74.597656 C 123.28125 74.535156 122.976562 74.445312 122.683594 74.324219 C 122.390625 74.207031 122.109375 74.058594 121.847656 73.886719 C 121.582031 73.714844 121.335938 73.515625 121.113281 73.296875 C 120.660156 72.828125 120.320312 72.289062 120.085938 71.6875 C 119.855469 71.085938 119.75 70.460938 119.769531 69.816406 C 119.75 69.171875 119.855469 68.546875 120.085938 67.945312 C 120.320312 67.34375 120.660156 66.804688 121.113281 66.335938 Z M 122.40625 72.21875 C 122.679688 72.507812 123.003906 72.730469 123.375 72.886719 C 123.742188 73.042969 124.128906 73.121094 124.53125 73.121094 C 124.933594 73.121094 125.320312 73.042969 125.691406 72.886719 C 126.0625 72.730469 126.382812 72.507812 126.660156 72.21875 C 127.300781 71.542969 127.601562 70.742188 127.558594 69.816406 C 127.601562 68.890625 127.300781 68.089844 126.660156 67.414062 C 126.382812 67.125 126.0625 66.902344 125.691406 66.746094 C 125.320312 66.589844 124.933594 66.511719 124.53125 66.511719 C 124.128906 66.511719 123.742188 66.589844 123.375 66.746094 C 123.003906 66.902344 122.679688 67.125 122.40625 67.414062 C 121.765625 68.089844 121.464844 68.890625 121.507812 69.816406 C 121.46875 70.738281 121.773438 71.535156 122.414062 72.210938 Z M 138.9375 74.386719 L 137.257812 74.386719 L 137.257812 73.121094 L 137.207031 73.121094 C 136.902344 73.609375 136.492188 73.992188 135.980469 74.265625 C 135.449219 74.566406 134.875 74.71875 134.257812 74.71875 C 133.761719 74.753906 133.28125 74.679688 132.820312 74.496094 C 132.359375 74.3125 131.957031 74.039062 131.625 73.675781 C 130.964844 72.855469 130.664062 71.921875 130.726562 70.875 L 130.726562 65.246094 L 132.460938 65.246094 L 132.460938 70.5625 C 132.460938 72.269531 133.226562 73.121094 134.753906 73.121094 C 135.488281 73.144531 136.074219 72.867188 136.519531 72.292969 C 136.980469 71.710938 137.210938 71.050781 137.199219 70.3125 L 137.199219 65.246094 L 138.9375 65.246094 Z M 144.839844 74.6875 C 144.242188 74.6875 143.671875 74.566406 143.128906 74.324219 C 142.585938 74.078125 142.121094 73.734375 141.730469 73.285156 C 140.828125 72.300781 140.394531 71.144531 140.429688 69.816406 C 140.394531 68.488281 140.828125 67.332031 141.730469 66.347656 C 142.121094 65.898438 142.585938 65.554688 143.128906 65.308594 C 143.671875 65.066406 144.242188 64.945312 144.839844 64.945312 C 145.507812 64.9375 146.140625 65.085938 146.734375 65.394531 C 147.257812 65.652344 147.679688 66.027344 147.996094 66.511719 L 148.070312 66.511719 L 147.996094 65.246094 L 147.996094 61.011719 L 149.734375 61.011719 L 149.734375 74.386719 L 148.054688 74.386719 L 148.054688 73.121094 L 147.980469 73.121094 C 147.660156 73.605469 147.242188 73.980469 146.71875 74.238281 C 146.128906 74.542969 145.503906 74.695312 144.839844 74.6875 Z M 145.125 73.121094 C 145.957031 73.132812 146.652344 72.835938 147.214844 72.226562 C 147.828125 71.535156 148.109375 70.734375 148.054688 69.816406 C 148.109375 68.898438 147.828125 68.097656 147.214844 67.40625 C 146.945312 67.113281 146.628906 66.890625 146.261719 66.730469 C 145.898438 66.570312 145.515625 66.492188 145.117188 66.492188 C 144.714844 66.492188 144.332031 66.570312 143.96875 66.730469 C 143.601562 66.890625 143.285156 67.113281 143.015625 67.40625 C 142.398438 68.09375 142.121094 68.894531 142.175781 69.808594 C 142.121094 70.722656 142.398438 71.523438 143.015625 72.210938 C 143.578125 72.828125 144.28125 73.132812 145.125 73.121094 Z M 145.125 73.121094 " fill-opacity="1" fill-rule="nonzero"/></g></svg>