<svg xmlns="http://www.w3.org/2000/svg" xmlns:xlink="http://www.w3.org/1999/xlink" width="200" zoomAndPan="magnify" viewBox="0 0 150 149.999998" height="200" preserveAspectRatio="xMidYMid meet" version="1.0"><defs><clipPath id="478b5abaad"><path d="M 16.21875 55.367188 L 46 55.367188 L 46 86 L 16.21875 86 Z M 16.21875 55.367188 " clip-rule="nonzero"/></clipPath><clipPath id="1fcd26b381"><path d="M 88 66 L 108 66 L 108 94.367188 L 88 94.367188 Z M 88 66 " clip-rule="nonzero"/></clipPath><clipPath id="f558b59c2d"><path d="M 116 66 L 134.71875 66 L 134.71875 86 L 116 86 Z M 116 66 " clip-rule="nonzero"/></clipPath></defs><g clip-path="url(#478b5abaad)"><path fill="#3780ff" d="M 30.8125 55.417969 L 31.867188 55.417969 C 35.527344 55.5 39.125 56.980469 41.710938 59.597656 C 40.753906 60.578125 39.78125 61.519531 38.847656 62.5 C 37.394531 61.179688 35.644531 60.160156 33.738281 59.800781 C 30.914062 59.199219 27.871094 59.738281 25.503906 61.359375 C 22.921875 63.058594 21.171875 65.9375 20.792969 69.019531 C 20.375 72.058594 21.230469 75.257812 23.199219 77.617188 C 25.085938 79.917969 27.96875 81.359375 30.953125 81.460938 C 33.738281 81.617188 36.640625 80.757812 38.667969 78.800781 C 40.257812 77.417969 40.992188 75.320312 41.230469 73.277344 C 37.929688 73.277344 34.632812 73.300781 31.332031 73.277344 L 31.332031 69.160156 L 45.226562 69.160156 C 45.945312 73.578125 44.910156 78.558594 41.570312 81.71875 C 39.34375 83.960938 36.261719 85.277344 33.121094 85.539062 C 30.078125 85.839844 26.9375 85.257812 24.234375 83.777344 C 20.992188 82.039062 18.40625 79.097656 17.132812 75.640625 C 15.941406 72.460938 15.921875 68.859375 17.035156 65.660156 C 18.050781 62.738281 19.996094 60.160156 22.503906 58.359375 C 24.910156 56.578125 27.832031 55.597656 30.8125 55.417969 Z M 30.8125 55.417969 " fill-opacity="1" fill-rule="nonzero"/></g><path fill="#38b137" d="M 110.542969 56.460938 L 114.796875 56.460938 L 114.796875 85.019531 C 113.386719 85.019531 111.953125 85.039062 110.542969 85 C 110.5625 75.5 110.542969 65.980469 110.542969 56.460938 Z M 110.542969 56.460938 " fill-opacity="1" fill-rule="nonzero"/><path fill="#fa3913" d="M 54.691406 66.359375 C 57.316406 65.859375 60.160156 66.417969 62.328125 68 C 64.296875 69.398438 65.667969 71.597656 66.085938 74 C 66.621094 76.777344 65.945312 79.820312 64.15625 82.019531 C 62.226562 84.480469 59.066406 85.800781 55.984375 85.597656 C 53.160156 85.4375 50.417969 84.019531 48.746094 81.699219 C 46.859375 79.140625 46.402344 75.617188 47.433594 72.617188 C 48.46875 69.398438 51.390625 66.9375 54.691406 66.359375 M 55.289062 70.160156 C 54.214844 70.4375 53.222656 71.058594 52.503906 71.9375 C 50.578125 74.257812 50.695312 78.039062 52.824219 80.199219 C 54.035156 81.4375 55.867188 82.019531 57.554688 81.679688 C 59.125 81.398438 60.5 80.339844 61.253906 78.9375 C 62.566406 76.558594 62.1875 73.277344 60.179688 71.417969 C 58.886719 70.21875 57 69.71875 55.289062 70.160156 Z M 55.289062 70.160156 " fill-opacity="1" fill-rule="nonzero"/><path fill="#fcbd06" d="M 75.769531 66.359375 C 78.769531 65.777344 82.050781 66.621094 84.296875 68.738281 C 87.957031 72.039062 88.355469 78.21875 85.230469 82.019531 C 83.34375 84.417969 80.28125 85.738281 77.257812 85.597656 C 74.375 85.519531 71.53125 84.078125 69.824219 81.699219 C 67.894531 79.078125 67.476562 75.480469 68.570312 72.417969 C 69.664062 69.300781 72.527344 66.917969 75.769531 66.359375 M 76.363281 70.160156 C 75.289062 70.4375 74.296875 71.058594 73.582031 71.917969 C 71.671875 74.199219 71.75 77.917969 73.800781 80.097656 C 75.011719 81.398438 76.902344 82.039062 78.652344 81.679688 C 80.203125 81.378906 81.59375 80.339844 82.347656 78.9375 C 83.640625 76.539062 83.265625 73.257812 81.234375 71.398438 C 79.945312 70.199219 78.054688 69.71875 76.363281 70.160156 Z M 76.363281 70.160156 " fill-opacity="1" fill-rule="nonzero"/><g clip-path="url(#1fcd26b381)"><path fill="#3780ff" d="M 93.640625 67.519531 C 95.929688 66.078125 98.972656 65.679688 101.4375 66.917969 C 102.210938 67.257812 102.847656 67.839844 103.464844 68.417969 C 103.484375 67.878906 103.464844 67.320312 103.484375 66.757812 C 104.816406 66.777344 106.148438 66.757812 107.5 66.777344 L 107.5 84.417969 C 107.480469 87.078125 106.804688 89.898438 104.894531 91.839844 C 102.808594 93.980469 99.605469 94.640625 96.722656 94.199219 C 93.640625 93.738281 90.957031 91.480469 89.765625 88.617188 C 90.957031 88.039062 92.210938 87.578125 93.445312 87.039062 C 94.140625 88.679688 95.550781 90.078125 97.320312 90.398438 C 99.089844 90.71875 101.136719 90.277344 102.292969 88.800781 C 103.523438 87.277344 103.523438 85.199219 103.464844 83.339844 C 102.550781 84.238281 101.496094 85.039062 100.222656 85.339844 C 97.460938 86.117188 94.417969 85.160156 92.289062 83.277344 C 90.144531 81.398438 88.871094 78.5 88.988281 75.617188 C 89.050781 72.359375 90.878906 69.21875 93.640625 67.519531 M 97.757812 70.078125 C 96.546875 70.277344 95.410156 70.960938 94.636719 71.898438 C 92.769531 74.140625 92.769531 77.71875 94.65625 79.917969 C 95.730469 81.21875 97.460938 81.9375 99.128906 81.757812 C 100.699219 81.597656 102.152344 80.597656 102.925781 79.21875 C 104.238281 76.878906 104.019531 73.699219 102.25 71.660156 C 101.15625 70.398438 99.410156 69.777344 97.757812 70.078125 Z M 97.757812 70.078125 " fill-opacity="1" fill-rule="nonzero"/></g><g clip-path="url(#f558b59c2d)"><path fill="#fa3913" d="M 119.90625 68.539062 C 122.292969 66.300781 125.972656 65.539062 129.035156 66.71875 C 131.9375 67.820312 133.785156 70.597656 134.71875 73.460938 C 130.40625 75.257812 126.109375 77.039062 121.796875 78.839844 C 122.394531 79.980469 123.308594 81.019531 124.539062 81.4375 C 126.269531 82.058594 128.335938 81.839844 129.789062 80.679688 C 130.367188 80.238281 130.824219 79.660156 131.261719 79.097656 C 132.355469 79.839844 133.449219 80.558594 134.539062 81.300781 C 132.988281 83.640625 130.386719 85.277344 127.582031 85.539062 C 124.480469 85.917969 121.179688 84.71875 119.171875 82.277344 C 115.871094 78.4375 116.1875 72 119.90625 68.539062 M 122.035156 72.238281 C 121.359375 73.21875 121.082031 74.417969 121.101562 75.597656 C 123.984375 74.398438 126.867188 73.199219 129.75 71.980469 C 129.273438 70.859375 128.117188 70.179688 126.945312 70 C 125.058594 69.660156 123.089844 70.679688 122.035156 72.238281 Z M 122.035156 72.238281 " fill-opacity="1" fill-rule="nonzero"/></g></svg>