<svg xmlns="http://www.w3.org/2000/svg" xmlns:xlink="http://www.w3.org/1999/xlink" width="200" zoomAndPan="magnify" viewBox="0 0 150 149.999998" height="200" preserveAspectRatio="xMidYMid meet" version="1.0"><defs><clipPath id="3733d74c36"><path d="M 1.289062 63.035156 L 149.039062 63.035156 L 149.039062 87 L 1.289062 87 Z M 1.289062 63.035156 " clip-rule="nonzero"/></clipPath></defs><g clip-path="url(#3733d74c36)"><path fill="#3f71c0" d="M 144.828125 65.222656 C 144.828125 64.582031 145.449219 64.308594 146.457031 64.308594 C 147.445312 64.308594 148.085938 64.546875 148.085938 65.222656 C 148.085938 66.046875 147.078125 66.140625 146.457031 66.140625 C 145.449219 66.140625 144.828125 65.882812 144.828125 65.222656 Z M 149.039062 65.222656 C 149.039062 63.960938 148.085938 63.078125 146.457031 63.078125 C 145.285156 63.078125 143.875 63.664062 143.875 65.222656 C 143.875 66.707031 145.121094 67.386719 146.457031 67.386719 C 147.8125 67.386719 149.039062 66.707031 149.039062 65.222656 Z M 144.828125 71.160156 L 144.828125 70.261719 C 144.828125 69.710938 145.175781 69.511719 145.46875 69.511719 C 145.78125 69.511719 146.109375 69.730469 146.109375 70.261719 L 146.109375 71.160156 Z M 146.988281 71.160156 L 146.988281 70.296875 L 148.984375 69.527344 L 148.984375 68.226562 L 146.769531 69.164062 C 146.566406 68.613281 146.035156 68.28125 145.46875 68.28125 C 144.535156 68.28125 143.949219 68.886719 143.949219 70.097656 L 143.949219 72.332031 L 148.984375 72.332031 L 148.984375 71.160156 Z M 145.816406 73.449219 C 144.609375 73.578125 143.875 74.21875 143.875 75.484375 C 143.875 77.003906 145.066406 77.738281 146.457031 77.738281 C 147.828125 77.738281 149.039062 77.003906 149.039062 75.519531 C 149.039062 74.367188 148.359375 73.558594 147.207031 73.449219 L 147.132812 74.585938 C 147.609375 74.660156 148.085938 74.914062 148.085938 75.464844 C 148.085938 76.34375 147.207031 76.4375 146.511719 76.4375 C 145.90625 76.4375 144.808594 76.363281 144.808594 75.519531 C 144.808594 74.878906 145.320312 74.675781 145.890625 74.675781 Z M 148.964844 78.890625 L 143.929688 78.890625 L 143.929688 80.0625 L 148.964844 80.0625 Z M 148.964844 83.949219 L 148.964844 84.753906 L 144.863281 85.964844 L 144.863281 86 L 148.964844 86 L 148.964844 86.988281 L 143.929688 86.988281 L 143.929688 85.140625 L 146.949219 84.257812 L 143.929688 83.34375 L 143.929688 81.492188 L 148.964844 81.492188 L 148.964844 82.664062 L 144.863281 82.664062 L 144.863281 82.703125 Z M 45.339844 86.988281 L 26.296875 86.988281 C 24.816406 81.511719 21.703125 69.949219 21.703125 69.949219 L 21.648438 69.949219 L 21.648438 86.988281 L 13.867188 86.988281 L 13.867188 63.445312 L 27.378906 63.445312 C 28.804688 68.871094 31.789062 80.046875 31.789062 80.046875 L 31.84375 80.046875 L 31.84375 63.445312 L 39.644531 63.445312 L 39.644531 67.019531 C 37.742188 69.035156 36.585938 71.597656 36.585938 74.824219 C 36.585938 79.460938 39.1875 85.195312 45.339844 86.988281 Z M 137.886719 63.445312 L 137.886719 86.988281 L 129.722656 86.988281 L 129.722656 68.558594 L 129.613281 68.558594 L 124.925781 86.988281 L 117.402344 86.988281 L 112.714844 68.558594 L 112.605469 68.558594 L 112.605469 86.988281 L 98.324219 86.988281 L 96.894531 81.914062 L 89.222656 81.914062 L 87.796875 86.988281 L 74.15625 86.988281 C 74.15625 86.988281 73.699219 83.527344 73.570312 82.648438 C 73.167969 79.734375 72.289062 79.019531 70.550781 79.019531 L 68.167969 79.019531 L 68.167969 86.972656 L 54.199219 86.972656 C 58.226562 86.054688 61.851562 84.222656 63.941406 82.976562 L 61.011719 71.855469 L 53.210938 73.90625 L 54.878906 80.210938 C 54.382812 80.558594 52.773438 81.125 51.65625 81.125 C 47.9375 81.125 46.164062 77.390625 46.164062 74.183594 C 46.164062 68.996094 51.433594 67.019531 56.085938 67.019531 C 57.164062 67.019531 58.558594 67.109375 58.757812 67.128906 L 57.808594 63.445312 L 74.066406 63.445312 C 80.5625 63.445312 83.089844 66.523438 83.089844 69.820312 C 83.089844 74.785156 78.347656 75.722656 77.453125 75.886719 C 77.433594 75.886719 77.433594 76.03125 77.453125 76.03125 C 79.335938 76.398438 80.730469 77.316406 81.625 78.910156 C 81.589844 78.835938 86.585938 64.746094 87.046875 63.445312 L 99.53125 63.445312 L 104.804688 78.214844 L 104.878906 78.214844 L 104.878906 63.445312 L 118.316406 63.445312 C 118.316406 63.445312 121.429688 76.34375 121.445312 76.34375 C 122.472656 72.039062 124.503906 63.445312 124.503906 63.445312 Z M 1.289062 63.445312 L 10.332031 63.445312 C 10.332031 63.445312 10.3125 79.09375 10.3125 86.988281 L 1.269531 86.988281 Z M 92.996094 68.503906 L 90.46875 76.269531 L 95.6875 76.269531 L 93.140625 68.503906 Z M 68.207031 73.722656 L 70.898438 73.722656 C 73.09375 73.722656 74.011719 72.589844 74.011719 71.195312 C 74.011719 69.417969 72.488281 68.722656 70.898438 68.722656 L 68.207031 68.722656 L 68.207031 73.722656 " fill-opacity="1" fill-rule="nonzero"/></g></svg>