<svg xmlns="http://www.w3.org/2000/svg" xmlns:xlink="http://www.w3.org/1999/xlink" width="200" zoomAndPan="magnify" viewBox="0 0 150 149.999998" height="200" preserveAspectRatio="xMidYMid meet" version="1.0"><defs><clipPath id="244cec7c24"><path d="M 33.441406 68.742188 L 116.691406 68.742188 L 116.691406 81.226562 L 33.441406 81.226562 Z M 33.441406 68.742188 " clip-rule="nonzero"/></clipPath><clipPath id="212cfa431c"><path d="M 33.441406 33.441406 L 116.691406 33.441406 L 116.691406 116.691406 L 33.441406 116.691406 Z M 33.441406 33.441406 " clip-rule="nonzero"/></clipPath><clipPath id="c66a1f8c1e"><path d="M 33.441406 95.878906 L 116.691406 95.878906 L 116.691406 116.691406 L 33.441406 116.691406 Z M 33.441406 95.878906 " clip-rule="nonzero"/></clipPath><clipPath id="7d9d5f7e0a"><path d="M 33.441406 33.441406 L 116.691406 33.441406 L 116.691406 45.484375 L 33.441406 45.484375 Z M 33.441406 33.441406 " clip-rule="nonzero"/></clipPath></defs><g clip-path="url(#244cec7c24)"><path fill="#717073" d="M 69.234375 80.289062 L 65.597656 70.300781 C 65.550781 70.167969 65.492188 69.972656 65.492188 69.816406 C 65.492188 69.378906 65.855469 68.96875 66.394531 68.96875 C 66.859375 68.96875 67.164062 69.273438 67.296875 69.695312 L 70.308594 78.292969 L 73.339844 69.671875 C 73.476562 69.261719 73.753906 68.96875 74.222656 68.96875 L 74.320312 68.96875 C 74.808594 68.96875 75.101562 69.273438 75.25 69.671875 L 78.253906 78.28125 L 81.3125 69.632812 C 81.4375 69.273438 81.679688 68.945312 82.167969 68.945312 C 82.683594 68.945312 83.050781 69.332031 83.050781 69.769531 C 83.050781 69.925781 82.976562 70.105469 82.9375 70.25 L 79.285156 80.25 C 79.097656 80.769531 78.734375 81.046875 78.304688 81.046875 L 78.230469 81.046875 C 77.765625 81.046875 77.425781 80.769531 77.253906 80.25 L 74.269531 71.769531 L 71.261719 80.25 C 71.105469 80.769531 70.75 81.046875 70.296875 81.046875 L 70.246094 81.046875 C 69.78125 81.082031 69.414062 80.804688 69.234375 80.289062 M 95.691406 69.828125 C 95.691406 69.34375 96.085938 68.933594 96.574219 68.933594 C 97.085938 68.933594 97.480469 69.320312 97.480469 69.828125 L 97.480469 71.855469 C 98.359375 69.886719 100.300781 68.957031 101.597656 68.957031 C 102.136719 68.957031 102.476562 69.34375 102.476562 69.851562 C 102.476562 70.335938 102.148438 70.671875 101.683594 70.746094 C 99.375 71.023438 97.464844 72.738281 97.464844 76.144531 L 97.464844 80.152344 C 97.464844 80.636719 97.101562 81.046875 96.585938 81.046875 C 96.070312 81.046875 95.679688 80.660156 95.679688 80.152344 Z M 108.203125 81.15625 C 104.972656 81.15625 102.34375 78.691406 102.34375 75.070312 L 102.34375 75.019531 C 102.34375 71.652344 104.730469 68.933594 107.96875 68.933594 C 111.441406 68.933594 113.421875 71.761719 113.421875 74.863281 C 113.421875 75.335938 113.03125 75.683594 112.605469 75.683594 L 104.117188 75.683594 C 104.363281 78.222656 106.160156 79.644531 108.25 79.644531 C 109.707031 79.644531 110.769531 79.078125 111.636719 78.28125 C 111.773438 78.171875 111.929688 78.074219 112.140625 78.074219 C 112.566406 78.074219 112.910156 78.414062 112.910156 78.824219 C 112.910156 79.03125 112.824219 79.234375 112.640625 79.390625 C 111.515625 80.441406 110.195312 81.15625 108.203125 81.15625 M 111.675781 74.382812 C 111.492188 72.253906 110.269531 70.394531 107.933594 70.394531 C 105.890625 70.394531 104.347656 72.085938 104.117188 74.382812 Z M 83.035156 77.496094 L 83.035156 77.449219 C 83.035156 74.960938 85.113281 73.644531 88.136719 73.644531 C 89.664062 73.644531 90.742188 73.851562 91.816406 74.152344 L 91.816406 73.738281 C 91.816406 71.617188 90.496094 70.527344 88.257812 70.527344 C 87.058594 70.527344 86.363281 70.683594 85.480469 71.070312 C 85.375 71.121094 85.25 71.144531 85.164062 71.144531 C 84.75 71.144531 84.382812 70.804688 84.382812 70.394531 C 84.382812 70.03125 84.539062 69.804688 84.871094 69.660156 C 86.046875 69.152344 86.9375 68.984375 88.453125 68.984375 C 90.140625 68.984375 91.4375 69.417969 92.304688 70.285156 C 93.113281 71.085938 93.527344 72.230469 93.527344 73.730469 L 93.527344 80.238281 C 93.527344 80.734375 93.164062 81.105469 92.671875 81.105469 C 92.171875 81.105469 91.828125 80.746094 91.828125 80.289062 L 91.828125 79.164062 C 90.996094 80.238281 89.601562 81.191406 87.511719 81.191406 C 85.285156 81.167969 83.035156 79.910156 83.035156 77.496094 M 91.839844 76.578125 L 91.839844 75.445312 C 90.960938 75.191406 89.789062 74.9375 88.332031 74.9375 C 86.09375 74.9375 84.847656 75.890625 84.847656 77.375 L 84.847656 77.421875 C 84.847656 78.910156 86.230469 79.78125 87.855469 79.78125 C 90.042969 79.78125 91.839844 78.449219 91.839844 76.578125 M 36.878906 69.730469 C 36.484375 68.886719 35.519531 68.5 34.613281 68.898438 C 33.710938 69.296875 33.378906 70.285156 33.785156 71.132812 L 37.574219 79.273438 C 38.171875 80.550781 38.796875 81.21875 39.980469 81.21875 C 41.242188 81.21875 41.792969 80.492188 42.390625 79.273438 C 42.390625 79.273438 45.691406 72.160156 45.730469 72.085938 C 45.765625 72.015625 45.863281 71.785156 46.207031 71.785156 C 46.488281 71.785156 46.734375 72.015625 46.734375 72.316406 L 46.734375 79.273438 C 46.734375 80.347656 47.332031 81.226562 48.492188 81.226562 C 49.65625 81.226562 50.277344 80.347656 50.277344 79.273438 L 50.277344 73.582031 C 50.277344 72.484375 51.074219 71.769531 52.160156 71.769531 C 53.25 71.769531 53.972656 72.507812 53.972656 73.582031 L 53.972656 79.273438 C 53.972656 80.347656 54.570312 81.226562 55.734375 81.226562 C 56.894531 81.226562 57.515625 80.347656 57.515625 79.273438 L 57.515625 73.582031 C 57.515625 72.484375 58.3125 71.769531 59.402344 71.769531 C 60.488281 71.769531 61.210938 72.507812 61.210938 73.582031 L 61.210938 79.273438 C 61.210938 80.347656 61.808594 81.226562 62.972656 81.226562 C 64.132812 81.226562 64.753906 80.347656 64.753906 79.273438 L 64.753906 72.800781 C 64.753906 70.417969 62.824219 68.753906 60.488281 68.753906 C 58.164062 68.753906 56.699219 70.347656 56.699219 70.347656 C 55.929688 69.34375 54.851562 68.742188 53.042969 68.742188 C 51.132812 68.742188 49.457031 70.335938 49.457031 70.335938 C 48.6875 69.34375 47.367188 68.742188 46.265625 68.742188 C 44.582031 68.753906 43.234375 69.492188 42.417969 71.335938 L 39.996094 76.976562 Z M 113.558594 70.394531 C 113.558594 69.585938 114.203125 68.921875 115.039062 68.921875 C 115.867188 68.921875 116.515625 69.574219 116.515625 70.371094 L 116.515625 70.382812 C 116.515625 71.179688 115.867188 71.855469 115.039062 71.855469 C 114.203125 71.855469 113.558594 71.191406 113.558594 70.394531 M 116.238281 70.382812 C 116.238281 69.71875 115.722656 69.1875 115.039062 69.1875 C 114.367188 69.1875 113.839844 69.730469 113.839844 70.382812 L 113.839844 70.394531 C 113.839844 71.046875 114.351562 71.589844 115.039062 71.589844 C 115.710938 71.589844 116.238281 71.035156 116.238281 70.382812 " fill-opacity="1" fill-rule="nonzero"/></g><path fill="#717073" d="M 114.472656 69.816406 C 114.472656 69.730469 114.546875 69.660156 114.632812 69.660156 L 115.121094 69.660156 C 115.304688 69.660156 115.453125 69.707031 115.539062 69.804688 C 115.625 69.875 115.660156 69.996094 115.660156 70.128906 C 115.660156 70.347656 115.550781 70.492188 115.378906 70.5625 L 115.597656 70.832031 C 115.625 70.867188 115.648438 70.902344 115.648438 70.953125 C 115.648438 71.035156 115.574219 71.09375 115.5 71.09375 C 115.425781 71.09375 115.378906 71.058594 115.34375 71.011719 L 115.039062 70.625 L 114.78125 70.625 L 114.78125 70.925781 C 114.78125 71.011719 114.707031 71.085938 114.621094 71.085938 C 114.535156 71.085938 114.464844 71.011719 114.464844 70.925781 Z M 115.109375 70.347656 C 115.269531 70.347656 115.34375 70.261719 115.34375 70.140625 C 115.34375 70.007812 115.257812 69.9375 115.097656 69.9375 L 114.78125 69.9375 L 114.78125 70.347656 Z M 115.109375 70.347656 " fill-opacity="1" fill-rule="nonzero"/><g clip-path="url(#212cfa431c)"><path fill="#fff22d" d="M 25.113281 25.113281 L 125.015625 25.113281 L 125.015625 125.015625 L 25.113281 125.015625 Z M 25.113281 25.113281 " fill-opacity="1" fill-rule="nonzero"/></g><path fill="#000000" d="M 96.859375 81.238281 C 96.710938 81.386719 96.648438 81.558594 96.648438 81.773438 C 96.648438 81.992188 96.710938 82.183594 96.859375 82.332031 C 97.011719 82.484375 97.207031 82.570312 97.421875 82.570312 C 97.636719 82.570312 97.804688 82.484375 97.957031 82.332031 C 98.109375 82.183594 98.195312 81.992188 98.195312 81.773438 C 98.195312 81.558594 98.109375 81.386719 97.957031 81.238281 C 97.808594 81.085938 97.636719 81 97.421875 81 C 97.207031 81 97.011719 81.085938 96.859375 81.238281 Z M 98.046875 82.421875 C 97.875 82.597656 97.664062 82.679688 97.421875 82.679688 C 97.164062 82.679688 96.949219 82.59375 96.773438 82.421875 C 96.601562 82.25 96.515625 82.03125 96.515625 81.773438 C 96.515625 81.539062 96.601562 81.324219 96.773438 81.152344 C 96.96875 80.980469 97.164062 80.890625 97.421875 80.890625 C 97.65625 80.890625 97.871094 80.980469 98.046875 81.152344 C 98.238281 81.324219 98.324219 81.539062 98.324219 81.773438 C 98.324219 82.03125 98.238281 82.25 98.046875 82.421875 Z M 97.59375 81.453125 C 97.546875 81.410156 97.464844 81.410156 97.378906 81.410156 L 97.226562 81.410156 L 97.226562 81.773438 L 97.378906 81.773438 C 97.464844 81.773438 97.507812 81.753906 97.546875 81.734375 C 97.613281 81.710938 97.65625 81.667969 97.65625 81.582031 C 97.65625 81.515625 97.636719 81.472656 97.59375 81.453125 Z M 97.398438 81.28125 C 97.527344 81.28125 97.613281 81.300781 97.679688 81.324219 C 97.785156 81.378906 97.835938 81.460938 97.832031 81.582031 C 97.832031 81.667969 97.785156 81.734375 97.722656 81.773438 C 97.699219 81.796875 97.636719 81.796875 97.59375 81.816406 C 97.660156 81.820312 97.707031 81.847656 97.742188 81.90625 C 97.785156 81.96875 97.804688 82.011719 97.804688 82.074219 L 97.804688 82.207031 C 97.804688 82.25 97.804688 82.25 97.832031 82.269531 L 97.65625 82.269531 L 97.65625 82.140625 C 97.65625 82.03125 97.613281 81.949219 97.546875 81.925781 C 97.527344 81.90625 97.464844 81.882812 97.355469 81.882812 L 97.226562 81.882812 L 97.226562 82.269531 L 97.054688 82.269531 L 97.054688 81.28125 Z M 97.398438 81.28125 " fill-opacity="1" fill-rule="evenodd"/><path fill="#94c04e" d="M 98.539062 56.875 C 99.574219 56.808594 100.5625 55.929688 100.714844 54.894531 C 100.886719 53.863281 100.175781 53.0625 99.121094 53.128906 C 98.066406 53.195312 97.074219 54.078125 96.925781 55.109375 C 96.773438 56.140625 97.484375 56.9375 98.539062 56.875 Z M 98.539062 56.875 " fill-opacity="1" fill-rule="evenodd"/><path fill="#0080c0" d="M 114.832031 51.664062 C 107.664062 66.96875 92.773438 66.859375 93.246094 56.464844 C 93.289062 56.011719 93.695312 55.667969 94.148438 55.667969 C 94.644531 55.667969 95.03125 56.078125 95.03125 56.570312 C 95.011719 57.390625 95.289062 58.121094 95.828125 58.636719 C 96.386719 59.175781 97.203125 59.457031 98.109375 59.390625 C 99.3125 59.328125 100.734375 58.574219 101.722656 57.496094 C 103.382812 55.6875 104.4375 53.234375 105.296875 49.234375 C 105.324219 49.117188 105.371094 49.015625 105.4375 48.917969 C 105.503906 48.824219 105.585938 48.746094 105.6875 48.683594 C 105.785156 48.621094 105.894531 48.578125 106.007812 48.558594 C 106.121094 48.539062 106.238281 48.539062 106.351562 48.566406 C 106.824219 48.671875 107.148438 49.144531 107.039062 49.621094 C 106.179688 53.578125 105.105469 56.183594 103.488281 58.164062 C 105.921875 55.582031 107.6875 51.859375 108.65625 47.339844 C 108.738281 46.84375 109.214844 46.542969 109.707031 46.652344 C 109.824219 46.675781 109.929688 46.71875 110.023438 46.789062 C 110.121094 46.855469 110.199219 46.9375 110.261719 47.035156 C 110.328125 47.136719 110.367188 47.246094 110.386719 47.359375 C 110.40625 47.476562 110.402344 47.59375 110.375 47.703125 C 109.472656 51.988281 107.921875 55.496094 105.769531 58.226562 C 107.859375 56.097656 109.945312 52.914062 111.066406 49.234375 C 111.195312 48.761719 111.691406 48.5 112.164062 48.628906 C 112.636719 48.78125 112.894531 49.277344 112.765625 49.726562 C 111.773438 53 110.054688 55.902344 108.226562 58.121094 C 110.25 56.226562 111.90625 53.816406 113.214844 50.933594 C 113.265625 50.828125 113.335938 50.730469 113.421875 50.652344 C 113.507812 50.570312 113.605469 50.507812 113.71875 50.464844 C 113.828125 50.421875 113.941406 50.402344 114.058594 50.40625 C 114.179688 50.410156 114.292969 50.433594 114.398438 50.480469 C 114.851562 50.695312 115.046875 51.214844 114.832031 51.664062 Z M 38.320312 85.433594 L 95.269531 85.433594 C 95.546875 85.433594 95.742188 85.648438 95.742188 85.886719 C 95.742188 86.144531 95.546875 86.339844 95.269531 86.339844 L 38.320312 86.339844 C 38.0625 86.339844 37.847656 86.144531 37.847656 85.886719 C 37.847656 85.648438 38.0625 85.433594 38.320312 85.433594 Z M 38.320312 85.433594 " fill-opacity="1" fill-rule="evenodd"/><path fill="#000000" d="M 44.714844 71.121094 L 44.714844 79.042969 C 44.714844 80.25 44.625 81.152344 43.789062 81.992188 C 43.074219 82.679688 42.085938 82.980469 41.097656 82.980469 C 40.042969 82.980469 39.246094 82.613281 38.707031 82.097656 C 38.171875 81.582031 37.976562 80.980469 37.847656 80.546875 L 38.492188 80.269531 C 38.644531 80.527344 38.773438 80.765625 39.03125 81.023438 C 39.246094 81.238281 39.71875 81.644531 40.472656 81.644531 C 40.902344 81.644531 41.589844 81.515625 42 80.804688 C 42.324219 80.289062 42.390625 79.664062 42.390625 78.398438 L 42.390625 71.121094 Z M 54.398438 78.566406 L 51.015625 78.566406 L 52.675781 74.84375 Z M 47.167969 82.636719 L 49.191406 82.636719 L 50.332031 80.097656 L 55.109375 80.097656 L 56.25 82.636719 L 58.722656 82.636719 L 53.429688 71.121094 L 52.632812 71.121094 Z M 63.71875 72.566406 C 64.082031 72.566406 65.074219 72.542969 65.394531 72.585938 C 66.472656 72.734375 67.007812 73.382812 67.007812 74.285156 C 67.007812 75.167969 66.40625 75.835938 65.460938 76.074219 C 64.921875 76.199219 64.253906 76.199219 63.71875 76.222656 Z M 61.414062 82.636719 L 65.289062 82.636719 C 66.773438 82.636719 67.804688 82.484375 68.6875 81.859375 C 69.140625 81.515625 70.042969 80.65625 70.042969 79.191406 C 70.042969 78.675781 69.894531 77.621094 68.945312 76.976562 C 68.320312 76.523438 67.65625 76.457031 67.160156 76.394531 C 67.589844 76.285156 69.355469 75.789062 69.355469 73.875 C 69.355469 72.90625 68.882812 72.175781 68.238281 71.722656 C 67.375 71.121094 66.429688 71.121094 65.503906 71.121094 L 61.414062 71.121094 Z M 63.71875 77.019531 C 63.953125 77.019531 64.191406 76.996094 64.449219 76.996094 C 65.265625 76.996094 67.699219 76.996094 67.699219 79.105469 C 67.699219 80.054688 67.136719 80.742188 66.386719 81.023438 C 65.871094 81.191406 65.375 81.191406 63.71875 81.191406 Z M 76.027344 72.734375 C 76.328125 72.734375 76.695312 72.714844 76.996094 72.714844 C 77.449219 72.714844 77.984375 72.734375 78.460938 72.992188 C 79.277344 73.445312 79.320312 74.285156 79.320312 74.542969 C 79.320312 75.664062 78.546875 76.222656 77.964844 76.480469 C 77.320312 76.738281 76.671875 76.738281 76.027344 76.761719 Z M 73.703125 82.636719 L 76.027344 82.636719 L 76.027344 77.558594 C 76.695312 77.6875 76.824219 77.6875 77.382812 77.6875 L 80.3125 82.636719 L 82.9375 82.636719 L 79.707031 77.167969 C 80.179688 76.929688 80.722656 76.652344 81.191406 75.941406 C 81.550781 75.414062 81.730469 74.835938 81.730469 74.199219 C 81.730469 73.378906 81.40625 72.328125 80.480469 71.722656 C 79.816406 71.273438 79.019531 71.121094 77.792969 71.121094 L 73.707031 71.121094 L 73.707031 82.636719 Z M 91.050781 78.566406 L 87.671875 78.566406 L 89.328125 74.84375 Z M 83.820312 82.636719 L 85.839844 82.636719 L 86.980469 80.097656 L 91.738281 80.097656 L 92.898438 82.636719 L 95.375 82.636719 L 90.082031 71.121094 L 89.285156 71.121094 Z M 63.007812 89.050781 L 63.566406 89.050781 L 63.566406 93.871094 L 63.007812 93.871094 Z M 62.792969 89.050781 L 62.230469 89.050781 L 62.230469 92.082031 L 60.167969 89.050781 L 59.519531 89.050781 L 62.792969 94.128906 Z M 59.132812 88.898438 L 62.382812 93.871094 L 61.734375 93.871094 L 59.691406 90.859375 L 59.691406 93.871094 L 57.21875 93.871094 C 55.644531 93.871094 54.761719 92.621094 54.761719 91.4375 C 54.761719 90.082031 55.949219 89.050781 57.195312 89.050781 L 58.9375 89.050781 L 58.9375 89.585938 L 57.238281 89.585938 C 56.140625 89.585938 55.300781 90.449219 55.300781 91.4375 C 55.300781 92.386719 55.992188 93.355469 57.171875 93.355469 L 59.132812 93.355469 Z M 59.132812 88.898438 " fill-opacity="1" fill-rule="evenodd"/><path fill="#000000" d="M 58.9375 89.800781 L 57.175781 89.800781 C 56.464844 89.800781 55.519531 90.382812 55.519531 91.460938 C 55.519531 92.472656 56.3125 93.140625 57.261719 93.140625 C 58.207031 93.140625 58.9375 93.117188 58.9375 93.117188 L 58.9375 91.480469 L 58.378906 91.480469 L 58.378906 92.601562 L 57.152344 92.601562 C 56.59375 92.601562 56.054688 92.105469 56.054688 91.414062 C 56.054688 91.136719 56.269531 90.339844 57.304688 90.339844 L 58.9375 90.339844 Z M 64.792969 91.050781 L 65.503906 91.050781 L 66.601562 93.183594 L 66.601562 91.050781 L 67.160156 91.050781 L 67.160156 93.914062 L 66.449219 93.914062 L 65.351562 91.761719 L 65.351562 93.914062 L 64.792969 93.914062 Z M 69.203125 93.785156 C 69.011719 93.890625 68.773438 93.957031 68.472656 93.957031 C 67.785156 93.957031 67.375 93.546875 67.375 92.859375 C 67.375 92.257812 67.699219 91.742188 68.367188 91.742188 C 69.140625 91.742188 69.355469 92.277344 69.355469 93.03125 L 67.890625 93.03125 C 67.933594 93.355469 68.171875 93.546875 68.492188 93.546875 C 68.773438 93.546875 69.011719 93.460938 69.203125 93.332031 Z M 68.839844 92.640625 C 68.816406 92.382812 68.6875 92.148438 68.386719 92.148438 C 68.085938 92.148438 67.9375 92.363281 67.894531 92.640625 Z M 69.742188 92.191406 L 69.335938 92.191406 L 69.335938 91.785156 L 69.742188 91.785156 L 69.742188 91.375 L 70.304688 91.203125 L 70.304688 91.785156 L 70.777344 91.785156 L 70.777344 92.191406 L 70.304688 92.191406 L 70.304688 93.183594 C 70.304688 93.351562 70.34375 93.527344 70.5625 93.527344 C 70.648438 93.527344 70.753906 93.503906 70.796875 93.484375 L 70.820312 93.914062 C 70.683594 93.941406 70.546875 93.957031 70.410156 93.957031 C 69.980469 93.957031 69.746094 93.699219 69.746094 93.269531 L 69.746094 92.191406 Z M 72.371094 92.257812 C 72.253906 92.195312 72.132812 92.167969 72.003906 92.167969 C 71.660156 92.167969 71.445312 92.449219 71.445312 92.835938 C 71.445312 93.222656 71.617188 93.527344 72.003906 93.527344 C 72.175781 93.527344 72.347656 93.480469 72.433594 93.441406 L 72.453125 93.890625 C 72.277344 93.9375 72.097656 93.960938 71.917969 93.957031 C 71.207031 93.957031 70.863281 93.480469 70.863281 92.835938 C 70.863281 92.234375 71.230469 91.738281 71.894531 91.738281 C 72.113281 91.738281 72.261719 91.761719 72.410156 91.804688 Z M 73.574219 91.738281 C 74.199219 91.738281 74.671875 92.167969 74.671875 92.859375 C 74.671875 93.480469 74.261719 93.957031 73.574219 93.957031 C 72.863281 93.957031 72.453125 93.480469 72.453125 92.859375 C 72.453125 92.167969 72.929688 91.738281 73.574219 91.738281 Z M 73.574219 93.527344 C 73.984375 93.527344 74.089844 93.160156 74.089844 92.792969 C 74.089844 92.472656 73.917969 92.167969 73.574219 92.167969 C 73.207031 92.167969 73.035156 92.492188 73.035156 92.792969 C 73.035156 93.160156 73.144531 93.527344 73.574219 93.527344 Z M 74.863281 91.785156 L 75.382812 91.785156 L 75.382812 92.082031 C 75.535156 91.851562 75.75 91.734375 76.027344 91.738281 C 76.308594 91.738281 76.519531 91.847656 76.652344 92.125 C 76.78125 91.867188 77.039062 91.738281 77.296875 91.738281 C 77.835938 91.738281 77.964844 92.105469 77.964844 92.578125 L 77.964844 93.914062 L 77.425781 93.914062 L 77.425781 92.640625 C 77.425781 92.449219 77.425781 92.167969 77.101562 92.167969 C 76.734375 92.167969 76.695312 92.601562 76.695312 92.878906 L 76.695312 93.914062 L 76.136719 93.914062 L 76.136719 92.640625 C 76.136719 92.449219 76.136719 92.167969 75.832031 92.167969 C 75.46875 92.167969 75.425781 92.601562 75.425781 92.878906 L 75.425781 93.914062 L 74.863281 93.914062 Z M 52.761719 92.664062 L 51.902344 92.664062 L 52.332031 91.4375 Z M 50.847656 93.804688 L 51.46875 93.804688 L 51.726562 93.140625 L 52.933594 93.140625 L 53.195312 93.804688 L 53.839844 93.804688 L 52.675781 90.859375 L 52.011719 90.859375 Z M 81.257812 93.957031 C 81.042969 94 80.804688 94.042969 80.570312 94.042969 C 79.621094 94.042969 78.953125 93.570312 78.953125 92.558594 C 78.953125 91.546875 79.578125 90.984375 80.570312 90.984375 C 80.785156 90.984375 81.042969 91.03125 81.257812 91.117188 L 81.214844 91.609375 C 80.980469 91.480469 80.785156 91.460938 80.570312 91.460938 C 79.945312 91.460938 79.578125 91.910156 79.578125 92.515625 C 79.578125 93.117188 79.945312 93.570312 80.570312 93.570312 C 80.804688 93.570312 81.085938 93.527344 81.238281 93.460938 Z M 81.257812 93.957031 " fill-opacity="1" fill-rule="evenodd"/><path fill="#000000" d="M 81.796875 92.859375 C 81.796875 92.515625 81.96875 92.191406 82.332031 92.191406 C 82.722656 92.191406 82.894531 92.515625 82.894531 92.859375 C 82.894531 93.226562 82.785156 93.613281 82.332031 93.613281 C 81.902344 93.613281 81.796875 93.203125 81.796875 92.859375 Z M 81.191406 92.925781 C 81.191406 93.546875 81.621094 94.042969 82.332031 94.042969 C 83.066406 94.042969 83.472656 93.546875 83.472656 92.925781 C 83.472656 92.191406 82.976562 91.761719 82.332031 91.761719 C 81.6875 91.761719 81.191406 92.191406 81.191406 92.925781 Z M 83.625 91.804688 L 84.140625 91.804688 L 84.140625 92.125 L 84.164062 92.125 C 84.304688 91.878906 84.519531 91.757812 84.808594 91.761719 C 85.109375 91.761719 85.324219 91.867188 85.453125 92.148438 C 85.582031 91.890625 85.863281 91.761719 86.144531 91.761719 C 86.679688 91.761719 86.828125 92.125 86.828125 92.621094 L 86.828125 94 L 86.25 94 L 86.25 92.6875 C 86.25 92.492188 86.25 92.191406 85.925781 92.191406 C 85.5625 92.191406 85.496094 92.640625 85.496094 92.945312 L 85.496094 94 L 84.9375 94 L 84.9375 92.6875 C 84.9375 92.492188 84.9375 92.191406 84.613281 92.191406 C 84.226562 92.191406 84.183594 92.640625 84.183594 92.945312 L 84.183594 94 L 83.625 94 Z M 88.1875 92.191406 C 88.554688 92.191406 88.640625 92.601562 88.640625 92.902344 C 88.640625 93.203125 88.53125 93.613281 88.164062 93.613281 C 87.800781 93.613281 87.671875 93.203125 87.671875 92.902344 C 87.671875 92.601562 87.820312 92.191406 88.1875 92.191406 Z M 87.089844 94.882812 L 87.671875 94.882812 L 87.671875 93.742188 C 87.863281 93.976562 88.082031 94.042969 88.316406 94.042969 C 89.003906 94.042969 89.242188 93.503906 89.242188 92.902344 C 89.242188 92.300781 89.003906 91.761719 88.316406 91.761719 C 87.996094 91.761719 87.777344 91.910156 87.648438 92.128906 L 87.648438 91.804688 L 87.089844 91.804688 Z M 89.78125 93.351562 C 89.78125 93.03125 90.167969 92.988281 90.425781 92.988281 L 90.664062 92.988281 C 90.664062 93.160156 90.640625 93.3125 90.554688 93.441406 C 90.449219 93.566406 90.3125 93.632812 90.144531 93.632812 C 89.953125 93.632812 89.78125 93.546875 89.78125 93.351562 Z M 89.5 92.40625 C 89.695312 92.277344 89.929688 92.167969 90.167969 92.167969 C 90.511719 92.167969 90.664062 92.300781 90.664062 92.640625 L 90.363281 92.640625 C 90.125 92.640625 89.84375 92.664062 89.628906 92.773438 C 89.394531 92.878906 89.242188 93.074219 89.242188 93.398438 C 89.242188 93.804688 89.628906 94.042969 90.015625 94.042969 C 90.273438 94.042969 90.554688 93.914062 90.683594 93.675781 C 90.707031 93.742188 90.707031 93.871094 90.726562 94 L 91.222656 94 C 91.199219 93.824219 91.199219 93.675781 91.199219 93.503906 C 91.179688 93.351562 91.179688 93.179688 91.179688 92.964844 L 91.179688 92.6875 C 91.179688 92.039062 90.898438 91.761719 90.253906 91.761719 C 89.996094 91.761719 89.695312 91.824219 89.480469 91.933594 Z M 91.4375 91.804688 L 91.976562 91.804688 L 91.976562 92.105469 L 91.996094 92.105469 C 92.167969 91.867188 92.40625 91.761719 92.707031 91.761719 C 93.222656 91.761719 93.4375 92.125 93.4375 92.621094 L 93.4375 94 L 92.878906 94 L 92.878906 92.835938 C 92.878906 92.554688 92.878906 92.191406 92.515625 92.191406 C 92.105469 92.191406 92.019531 92.640625 92.019531 92.925781 L 92.019531 94 L 91.4375 94 Z M 94.644531 93.398438 L 95.183594 91.804688 L 95.742188 91.804688 L 94.921875 93.976562 C 94.75 94.453125 94.621094 94.945312 94.019531 94.945312 C 93.890625 94.945312 93.761719 94.925781 93.632812 94.882812 L 93.65625 94.453125 C 93.742188 94.472656 93.804688 94.492188 93.957031 94.492188 C 94.191406 94.492188 94.324219 94.34375 94.324219 94.109375 L 93.484375 91.804688 L 94.105469 91.804688 Z M 94.644531 93.398438 " fill-opacity="1" fill-rule="evenodd"/><g clip-path="url(#c66a1f8c1e)"><path fill="#ffffff" d="M 28.800781 95.878906 L 119.335938 95.878906 L 119.335938 120.851562 L 28.800781 120.851562 Z M 28.800781 95.878906 " fill-opacity="1" fill-rule="nonzero"/></g><g clip-path="url(#7d9d5f7e0a)"><path fill="#ffffff" d="M 31.398438 21.394531 L 121.929688 21.394531 L 121.929688 45.589844 L 31.398438 45.589844 Z M 31.398438 21.394531 " fill-opacity="1" fill-rule="nonzero"/></g></svg>