<svg xmlns="http://www.w3.org/2000/svg" xmlns:xlink="http://www.w3.org/1999/xlink" width="200" zoomAndPan="magnify" viewBox="0 0 150 149.999998" height="200" preserveAspectRatio="xMidYMid meet" version="1.0"><defs><clipPath id="e39d1cebc0"><path d="M 0 60.734375 L 150 60.734375 L 150 89.234375 L 0 89.234375 Z M 0 60.734375 " clip-rule="nonzero"/></clipPath></defs><g clip-path="url(#e39d1cebc0)"><path fill="#006d5c" d="M 67.589844 75.070312 C 67.589844 80.742188 64.125 83.425781 59.789062 83.425781 L 57.140625 83.425781 L 57.140625 80.023438 L 59.585938 80.023438 C 62.199219 80.023438 63.941406 78.613281 63.941406 75.070312 C 63.941406 71.566406 62.292969 69.8125 59.507812 69.8125 C 56.824219 69.8125 54.90625 71.460938 54.90625 75.003906 L 54.90625 89.234375 L 51.292969 89.234375 L 51.292969 66.855469 L 54.90625 66.855469 L 54.90625 68.78125 L 55.421875 68.78125 C 56.625 67.164062 58.40625 66.441406 60.261719 66.441406 C 64.253906 66.441406 67.589844 69.328125 67.589844 75.070312 Z M 43.847656 73.59375 L 41.4375 73.351562 C 39.546875 73.179688 38.546875 72.664062 38.546875 71.5625 C 38.546875 70.257812 39.820312 69.5 41.644531 69.5 C 43.535156 69.5 44.742188 70.394531 44.84375 71.667969 L 48.320312 71.667969 C 48.179688 68.4375 45.667969 66.441406 41.679688 66.441406 C 37.652344 66.441406 34.933594 68.574219 34.933594 71.703125 C 34.933594 74.316406 36.585938 76 40.335938 76.378906 L 42.78125 76.617188 C 44.257812 76.753906 45.257812 77.066406 45.257812 78.472656 C 45.257812 79.746094 44.328125 80.675781 41.886719 80.675781 C 39.636719 80.675781 38.527344 79.65625 38.136719 78.289062 L 34.378906 78.289062 C 34.753906 81.414062 37.378906 83.835938 41.886719 83.835938 C 46.117188 83.835938 48.871094 81.601562 48.871094 78.300781 C 48.871094 75.378906 46.941406 73.902344 43.847656 73.59375 Z M 81.582031 78.289062 C 81.015625 79.589844 79.660156 80.570312 77.738281 80.570312 C 75.089844 80.570312 73.128906 78.851562 73.128906 75.140625 C 73.128906 71.597656 74.953125 69.640625 77.773438 69.640625 C 80.285156 69.640625 81.730469 71.152344 81.867188 73.421875 L 75.363281 73.421875 L 75.363281 76.035156 L 85.410156 76.035156 L 85.410156 74.316406 C 85.410156 69.535156 82.246094 66.441406 77.738281 66.441406 C 73.539062 66.441406 69.515625 69.296875 69.515625 75.140625 C 69.515625 80.984375 73.539062 83.835938 77.738281 83.835938 C 81.578125 83.835938 84.316406 81.472656 85.167969 78.289062 Z M 24.628906 66.441406 C 20.671875 66.441406 17.714844 68.503906 17.371094 71.667969 L 21.257812 71.667969 C 21.535156 70.5 22.601562 69.640625 24.628906 69.640625 C 27.246094 69.640625 28.105469 71.015625 28.105469 72.699219 L 28.105469 78.371094 C 26.625 80.054688 24.90625 80.847656 23.183594 80.847656 C 21.394531 80.847656 20.15625 79.988281 20.15625 78.441406 C 20.15625 76.960938 21.121094 76.035156 22.980469 76.035156 L 25.867188 76.035156 L 25.867188 73.421875 L 22.875 73.421875 C 18.746094 73.421875 16.441406 75.484375 16.441406 78.644531 C 16.441406 81.601562 18.675781 83.835938 22.359375 83.835938 C 24.421875 83.835938 26.246094 83.011719 27.589844 82.015625 L 28.105469 82.015625 L 28.105469 83.425781 L 31.71875 83.425781 L 31.71875 72.355469 C 31.71875 68.265625 28.929688 66.441406 24.628906 66.441406 Z M 0.117188 83.425781 L 3.730469 83.425781 L 3.730469 60.734375 L 0.117188 60.734375 Z M 15.292969 66.855469 L 10.886719 66.855469 L 5.621094 73.765625 L 5.621094 75.929688 L 11.023438 83.425781 L 15.496094 83.425781 L 9.167969 74.832031 Z M 145.890625 66.855469 L 142.933594 73.421875 C 142.210938 75.003906 141.523438 76.550781 141.316406 77.582031 L 140.796875 77.582031 C 140.59375 76.550781 139.871094 75.035156 139.148438 73.457031 L 136.1875 66.855469 L 132.195312 66.855469 L 139.148438 81.742188 L 135.707031 89.234375 L 139.558594 89.234375 L 149.882812 66.855469 Z M 131.398438 66.855469 L 126.992188 66.855469 L 121.730469 73.765625 L 121.730469 75.929688 L 127.132812 83.425781 L 131.605469 83.425781 L 125.273438 74.832031 Z M 108.777344 73.59375 L 106.371094 73.351562 C 104.476562 73.179688 103.480469 72.664062 103.480469 71.5625 C 103.480469 70.257812 104.753906 69.5 106.578125 69.5 C 108.46875 69.5 109.671875 70.394531 109.777344 71.667969 L 113.25 71.667969 C 113.113281 68.4375 110.601562 66.441406 106.609375 66.441406 C 102.585938 66.441406 99.867188 68.574219 99.867188 71.703125 C 99.867188 74.316406 101.519531 76 105.269531 76.378906 L 107.710938 76.617188 C 109.191406 76.753906 110.1875 77.066406 110.1875 78.472656 C 110.1875 79.746094 109.261719 80.675781 106.816406 80.675781 C 104.566406 80.675781 103.460938 79.65625 103.070312 78.289062 L 99.3125 78.289062 C 99.683594 81.414062 102.3125 83.835938 106.816406 83.835938 C 111.050781 83.835938 113.800781 81.601562 113.800781 78.300781 C 113.800781 75.378906 111.875 73.902344 108.777344 73.59375 Z M 116.222656 83.425781 L 119.835938 83.425781 L 119.835938 60.734375 L 116.222656 60.734375 Z M 92.402344 68.78125 L 91.886719 68.78125 L 91.886719 66.855469 L 88.273438 66.855469 L 88.273438 83.425781 L 91.886719 83.425781 L 91.886719 74.761719 C 91.886719 71.804688 93.253906 70.085938 95.945312 70.085938 L 98.230469 70.085938 L 98.230469 66.441406 L 96.910156 66.441406 C 94.410156 66.441406 93.347656 67.382812 92.402344 68.78125 Z M 92.402344 68.78125 " fill-opacity="1" fill-rule="nonzero"/></g></svg>