<svg xmlns="http://www.w3.org/2000/svg" xmlns:xlink="http://www.w3.org/1999/xlink" width="200" zoomAndPan="magnify" viewBox="0 0 150 149.999998" height="200" preserveAspectRatio="xMidYMid meet" version="1.0"><defs><clipPath id="40aaf0451d"><path d="M 0 1.941406 L 150 1.941406 L 150 150 L 0 150 Z M 0 1.941406 " clip-rule="nonzero"/></clipPath></defs><g clip-path="url(#40aaf0451d)"><path fill="#ffffff" d="M -2.261719 1.941406 L 152.238281 1.941406 L 152.238281 156.441406 L -2.261719 156.441406 Z M -2.261719 1.941406 " fill-opacity="1" fill-rule="evenodd"/></g><path fill="#cf4037" d="M 95.296875 86.238281 L 90.351562 96.761719 L 85.421875 86.152344 L 90.351562 75.71875 Z M 95.296875 86.238281 " fill-opacity="1" fill-rule="evenodd"/><path fill="#000000" d="M 11.484375 84.6875 L 11.484375 64.824219 C 11.484375 63.644531 12.21875 62.449219 13.679688 62.539062 L 13.679688 61.621094 L 4.441406 61.621094 L 4.441406 62.539062 C 6.082031 62.449219 6.628906 63.910156 6.628906 65.195312 L 6.628906 82.949219 C 6.628906 84.128906 5.816406 85.324219 4.441406 85.234375 L 4.441406 86.148438 L 19.628906 86.148438 L 20.8125 79.554688 L 19.996094 79.554688 C 18.980469 83.496094 15.320312 85.605469 11.484375 84.6875 Z M 38.109375 80.925781 C 36.1875 84.585938 31.613281 85.046875 27.953125 84.777344 L 27.953125 76.910156 C 30.519531 76.910156 32.898438 77.828125 33.355469 80.75 L 34.269531 80.75 L 34.269531 72.425781 L 33.355469 72.425781 C 32.898438 75.347656 30.242188 75.628906 27.953125 75.628906 L 27.953125 67.9375 L 32.527344 67.9375 C 34.902344 67.9375 36.734375 70.046875 37.28125 72.234375 L 38.195312 72.234375 L 38.195312 66.65625 L 20.914062 66.566406 L 20.914062 67.480469 C 22.550781 67.390625 23.011719 69.132812 23.011719 70.226562 L 23.097656 82.757812 C 23.097656 83.582031 22.832031 84.230469 22.375 84.867188 C 21.917969 85.144531 21.371094 85.234375 20.914062 85.234375 L 20.914062 86.152344 L 38.019531 86.152344 L 39.214844 80.925781 Z M 142.878906 83.953125 L 134.734375 74.433594 L 138.953125 70.503906 C 140.046875 69.589844 141.136719 68.574219 142.335938 67.851562 C 142.792969 67.570312 143.335938 67.480469 143.882812 67.480469 L 143.882812 66.566406 L 136.476562 66.65625 L 136.476562 67.660156 L 137.667969 67.660156 C 137.9375 67.660156 138.039062 67.660156 138.214844 67.847656 C 138.496094 68.574219 137.667969 69.132812 137.300781 69.488281 L 130.527344 75.996094 L 137.300781 84.230469 C 137.390625 84.320312 137.480469 84.410156 137.582031 84.496094 L 137.582031 84.777344 L 137.300781 85.042969 C 136.753906 85.234375 136.105469 85.234375 135.558594 85.234375 L 135.558594 86.148438 L 145.535156 86.148438 L 145.535156 85.234375 C 144.339844 85.234375 143.527344 84.777344 142.878906 83.953125 Z M 142.878906 83.953125 " fill-opacity="1" fill-rule="evenodd"/><path fill="#000000" d="M 71.964844 78.742188 L 66.933594 66.65625 L 51.746094 66.65625 L 51.746094 67.480469 C 52.480469 67.480469 53.117188 67.570312 53.753906 67.761719 C 53.753906 68.574219 53.027344 69.3125 52.480469 69.945312 L 49.734375 73.339844 L 46.992188 69.03125 C 46.890625 68.941406 46.621094 68.484375 46.621094 68.117188 C 46.621094 67.390625 48.261719 67.480469 48.71875 67.480469 L 48.71875 66.65625 L 38.933594 66.65625 L 38.933594 67.570312 L 39.847656 67.570312 C 40.585938 67.570312 40.941406 68.21875 41.308594 68.765625 L 46.800781 77 L 41.132812 84.230469 C 40.765625 84.777344 39.761719 85.234375 38.933594 85.234375 L 38.933594 86.148438 L 45.886719 86.148438 L 45.796875 85.234375 C 45.25 85.234375 44.792969 85.234375 44.246094 85.144531 L 43.964844 84.957031 L 43.789062 84.585938 C 43.964844 83.953125 44.335938 83.40625 44.703125 82.949219 L 48.171875 78.742188 L 51.109375 83.316406 C 51.199219 83.40625 51.566406 84.039062 51.65625 84.230469 C 51.65625 84.230469 51.746094 84.410156 51.746094 84.496094 L 51.65625 84.777344 L 51.464844 85.042969 C 50.828125 85.234375 50.195312 85.234375 49.546875 85.234375 L 49.546875 86.148438 L 65.75 86.148438 L 65.75 85.234375 C 65.382812 85.234375 65.011719 85.144531 64.644531 85.042969 L 64.375 84.777344 C 63.917969 84.230469 63.726562 83.492188 63.816406 82.757812 L 63.816406 70.046875 L 70.589844 86.152344 L 71.417969 86.152344 L 78 69.589844 L 78 83.125 C 78 84.320312 77.085938 85.324219 75.902344 85.234375 L 75.902344 86.152344 L 84.316406 86.152344 L 84.316406 85.234375 C 83.03125 85.324219 82.222656 84.230469 82.222656 83.039062 L 82.222656 69.855469 C 82.222656 68.484375 82.855469 67.480469 84.316406 67.480469 L 84.316406 66.65625 L 76.730469 66.65625 Z M 61.632812 82.488281 L 61.632812 82.859375 C 61.53125 83.214844 61.632812 83.582031 61.53125 83.863281 C 61.441406 84.320312 61.074219 84.777344 60.714844 85.046875 C 59.242188 85.605469 57.691406 85.046875 56.957031 83.953125 L 50.917969 75.171875 L 55.582031 69.222656 C 56.597656 68.027344 57.871094 67.480469 59.433594 67.480469 C 60.894531 67.480469 61.632812 68.117188 61.632812 69.59375 Z M 132.726562 67.480469 L 132.726562 66.566406 L 123.574219 66.566406 L 123.484375 67.480469 C 124.859375 67.390625 125.773438 68.574219 125.773438 69.769531 L 125.773438 82.667969 C 125.773438 83.40625 125.492188 84.042969 125.125 84.691406 C 124.210938 85.695312 123.117188 85.046875 122.480469 84.234375 L 116.992188 76.542969 C 118.539062 76.265625 120.09375 75.628906 121.195312 74.34375 C 121.742188 73.609375 122.113281 72.792969 122.113281 71.96875 C 122.113281 68.027344 117.539062 66.65625 114.246094 66.65625 L 104.535156 66.65625 L 104.535156 67.570312 C 105.640625 67.570312 106.648438 68.027344 106.648438 69.3125 L 106.648438 83.671875 C 106.648438 84.589844 106.011719 85.238281 105.09375 85.238281 C 104.179688 85.238281 103.355469 84.5 103.074219 83.671875 L 95.121094 65.371094 L 92.464844 70.964844 L 98.410156 83.953125 C 99.046875 85.324219 97.214844 85.238281 96.402344 85.238281 L 96.402344 86.152344 L 113.6875 86.152344 L 113.6875 85.238281 C 112.3125 85.238281 111.5 84.5 111.5 83.039062 L 111.5 67.851562 C 114.601562 67.851562 117.078125 68.398438 117.078125 72.144531 C 117.078125 75.082031 114.601562 76.632812 111.679688 76.175781 L 118.453125 86.148438 L 132.722656 86.148438 L 132.722656 85.234375 C 132.175781 85.234375 131.632812 85.042969 131.070312 84.6875 C 130.894531 84.230469 130.523438 83.671875 130.523438 83.125 L 130.523438 69.398438 C 130.527344 68.308594 131.632812 67.390625 132.726562 67.480469 Z M 132.726562 67.480469 " fill-opacity="1" fill-rule="evenodd"/></svg>