<svg xmlns="http://www.w3.org/2000/svg" xmlns:xlink="http://www.w3.org/1999/xlink" width="200" zoomAndPan="magnify" viewBox="0 0 150 149.999998" height="200" preserveAspectRatio="xMidYMid meet" version="1.0"><defs><clipPath id="ea44d4cc83"><path d="M 105 54.652344 L 146.542969 54.652344 L 146.542969 95.152344 L 105 95.152344 Z M 105 54.652344 " clip-rule="nonzero"/></clipPath><clipPath id="489b557481"><path d="M 4.042969 56 L 145 56 L 145 94 L 4.042969 94 Z M 4.042969 56 " clip-rule="nonzero"/></clipPath></defs><g clip-path="url(#ea44d4cc83)"><path fill="#231f20" d="M 125.019531 54.652344 L 126.683594 54.652344 C 129.722656 54.78125 132.738281 55.566406 135.421875 56.988281 C 137.789062 58.234375 139.90625 59.9375 141.605469 61.984375 C 143.457031 64.191406 144.820312 66.792969 145.578125 69.5625 C 146.535156 73.0625 146.527344 76.816406 145.550781 80.3125 C 144.164062 85.347656 140.703125 89.773438 136.148438 92.390625 C 133.609375 93.867188 130.738281 94.777344 127.808594 95.050781 C 127.355469 95.097656 126.898438 95.105469 126.449219 95.152344 L 125.117188 95.152344 C 124.835938 95.109375 124.550781 95.097656 124.269531 95.078125 C 121.109375 94.847656 118.011719 93.863281 115.300781 92.234375 C 110.96875 89.660156 107.667969 85.4375 106.253906 80.628906 C 105.148438 76.90625 105.148438 72.867188 106.257812 69.144531 C 107 66.644531 108.242188 64.289062 109.886719 62.253906 C 111.683594 60.023438 113.957031 58.175781 116.515625 56.875 C 119.140625 55.523438 122.070312 54.777344 125.019531 54.652344 M 114.230469 62.753906 C 113.917969 62.859375 113.695312 63.15625 113.675781 63.484375 C 113.613281 64.085938 113.664062 64.699219 113.648438 65.304688 C 113.683594 67.058594 113.660156 68.8125 113.667969 70.566406 L 113.667969 84.183594 C 113.679688 84.871094 113.632812 85.566406 113.707031 86.253906 C 113.730469 86.488281 113.839844 86.738281 114.074219 86.835938 C 114.480469 87.007812 114.933594 86.929688 115.359375 86.949219 C 116.179688 86.984375 117 86.957031 117.820312 86.96875 C 118.179688 86.992188 118.597656 86.941406 118.824219 86.628906 C 119.0625 86.242188 118.992188 85.765625 119.007812 85.332031 C 118.972656 84.191406 118.988281 83.050781 118.984375 81.90625 C 118.984375 77.796875 118.984375 73.683594 118.988281 69.570312 C 118.941406 67.5625 118.980469 65.554688 118.960938 63.546875 C 118.960938 63.167969 118.722656 62.726562 118.292969 62.722656 C 117.441406 62.714844 116.589844 62.722656 115.738281 62.71875 C 115.238281 62.738281 114.726562 62.679688 114.230469 62.753906 M 131.601562 69.023438 C 130.648438 69.152344 129.695312 69.429688 128.894531 69.972656 C 128.472656 70.253906 128.140625 70.640625 127.761719 70.972656 C 127.621094 71.113281 127.367188 71.121094 127.246094 70.957031 C 126.957031 70.628906 126.960938 70.167969 126.84375 69.769531 C 126.710938 69.464844 126.328125 69.410156 126.035156 69.386719 C 125.265625 69.375 124.496094 69.382812 123.730469 69.382812 C 123.414062 69.398438 123.078125 69.382812 122.796875 69.539062 C 122.554688 69.6875 122.457031 69.988281 122.460938 70.257812 C 122.460938 71.019531 122.460938 71.78125 122.460938 72.542969 C 122.425781 76.730469 122.449219 80.917969 122.441406 85.105469 C 122.433594 85.550781 122.367188 86.015625 122.515625 86.449219 C 122.601562 86.707031 122.839844 86.90625 123.117188 86.921875 C 123.675781 86.976562 124.242188 86.9375 124.804688 86.949219 C 125.410156 86.9375 126.019531 86.984375 126.617188 86.890625 C 127.015625 86.8125 127.246094 86.398438 127.242188 86.015625 C 127.246094 84.414062 127.242188 82.816406 127.242188 81.214844 C 127.253906 79.300781 127.179688 77.375 127.476562 75.472656 C 127.640625 74.644531 128.089844 73.863281 128.761719 73.339844 C 129.332031 72.886719 130.066406 72.664062 130.789062 72.644531 C 131.59375 72.617188 132.449219 72.785156 133.070312 73.324219 C 133.628906 73.792969 133.9375 74.492188 134.0625 75.199219 C 134.167969 75.90625 134.183594 76.625 134.214844 77.339844 C 134.21875 79.46875 134.210938 81.601562 134.214844 83.730469 C 134.257812 84.539062 134.21875 85.351562 134.238281 86.164062 C 134.238281 86.542969 134.535156 86.90625 134.929688 86.917969 C 136.007812 86.964844 137.085938 86.96875 138.164062 86.933594 C 138.425781 86.9375 138.722656 86.871094 138.867188 86.628906 C 139.074219 86.28125 138.972656 85.863281 138.996094 85.484375 C 139.027344 82.082031 139.011719 78.683594 139.015625 75.28125 C 138.996094 74.222656 138.824219 73.160156 138.445312 72.167969 C 138 70.996094 137.050781 70.039062 135.910156 69.519531 C 134.566406 68.929688 133.042969 68.84375 131.601562 69.023438 Z M 143.117188 55.917969 C 144.203125 55.621094 145.433594 56.257812 145.804688 57.304688 C 146.210938 58.316406 145.75 59.566406 144.78125 60.070312 C 144.023438 60.503906 143.007812 60.433594 142.316406 59.902344 C 141.722656 59.46875 141.363281 58.734375 141.414062 58 C 141.429688 57.03125 142.171875 56.140625 143.117188 55.917969 M 143.191406 56.292969 C 142.496094 56.476562 141.933594 57.078125 141.816406 57.78125 C 141.695312 58.425781 141.957031 59.117188 142.464844 59.535156 C 142.800781 59.824219 143.25 59.976562 143.699219 59.980469 C 144.292969 59.96875 144.878906 59.667969 145.21875 59.183594 C 145.597656 58.671875 145.675781 57.957031 145.417969 57.371094 C 145.074219 56.535156 144.070312 56.035156 143.191406 56.292969 Z M 143.191406 56.292969 " fill-opacity="1" fill-rule="nonzero"/></g><g clip-path="url(#489b557481)"><path fill="#231f20" d="M 142.953125 56.996094 C 143.277344 56.957031 143.605469 56.972656 143.933594 56.972656 C 144.160156 56.972656 144.402344 57.046875 144.535156 57.238281 C 144.679688 57.472656 144.675781 57.804688 144.492188 58.023438 C 144.386719 58.140625 144.230469 58.191406 144.097656 58.265625 C 144.226562 58.582031 144.476562 58.832031 144.613281 59.144531 C 144.566406 59.292969 144.367188 59.253906 144.273438 59.183594 C 144.050781 58.90625 143.90625 58.574219 143.671875 58.304688 C 143.566406 58.230469 143.4375 58.289062 143.324219 58.296875 C 143.3125 58.601562 143.328125 58.910156 143.292969 59.214844 C 143.179688 59.222656 143.070312 59.222656 142.960938 59.21875 C 142.9375 58.480469 142.957031 57.738281 142.953125 56.996094 M 143.316406 57.304688 C 143.300781 57.515625 143.296875 57.722656 143.324219 57.933594 C 143.570312 57.96875 143.835938 58 144.074219 57.90625 C 144.3125 57.816406 144.324219 57.425781 144.085938 57.328125 C 143.839844 57.238281 143.5625 57.226562 143.316406 57.304688 Z M 5.203125 62.453125 C 6.285156 62.472656 7.367188 62.402344 8.449219 62.445312 C 8.652344 62.460938 8.878906 62.433594 9.0625 62.550781 C 9.316406 62.71875 9.398438 63.042969 9.390625 63.328125 C 9.390625 68.023438 9.390625 72.714844 9.390625 77.410156 C 9.394531 78.449219 9.375 79.492188 9.421875 80.53125 C 9.449219 80.957031 9.382812 81.40625 9.527344 81.816406 C 9.675781 82.15625 10.078125 82.269531 10.421875 82.28125 C 11.0625 82.292969 11.707031 82.289062 12.351562 82.265625 C 14.21875 82.265625 16.085938 82.265625 17.953125 82.265625 C 18.296875 82.273438 18.648438 82.300781 18.976562 82.421875 C 19.257812 82.523438 19.347656 82.851562 19.339844 83.125 C 19.339844 84.035156 19.328125 84.949219 19.359375 85.863281 C 19.40625 86.339844 18.957031 86.746094 18.492188 86.734375 C 17.339844 86.738281 16.1875 86.753906 15.039062 86.71875 C 12.808594 86.71875 10.582031 86.722656 8.351562 86.71875 C 7.152344 86.667969 5.949219 86.734375 4.746094 86.679688 C 4.382812 86.679688 4.101562 86.367188 4.050781 86.023438 L 4.050781 63.316406 C 4.070312 63.066406 4.125 62.785156 4.339844 62.625 C 4.578125 62.425781 4.910156 62.453125 5.203125 62.453125 Z M 62.296875 62.441406 C 63.339844 62.421875 64.382812 62.441406 65.425781 62.433594 C 65.777344 62.425781 66.15625 62.488281 66.421875 62.730469 C 66.664062 62.941406 66.714844 63.277344 66.820312 63.5625 C 68.445312 68.292969 70.066406 73.019531 71.707031 77.742188 C 71.824219 77.996094 71.890625 78.347656 72.191406 78.441406 C 72.460938 78.386719 72.566406 78.105469 72.644531 77.878906 C 74.230469 73.117188 75.777344 68.347656 77.339844 63.578125 C 77.460938 63.296875 77.515625 62.96875 77.738281 62.742188 C 77.917969 62.570312 78.148438 62.429688 78.40625 62.433594 C 80.433594 62.433594 82.460938 62.433594 84.484375 62.433594 C 84.914062 62.4375 85.289062 62.824219 85.261719 63.253906 C 85.265625 70.484375 85.261719 77.714844 85.265625 84.945312 C 85.265625 85.355469 85.265625 85.769531 85.226562 86.175781 C 85.171875 86.523438 84.804688 86.730469 84.476562 86.71875 C 83.398438 86.707031 82.328125 86.75 81.253906 86.738281 C 80.941406 86.734375 80.589844 86.648438 80.414062 86.371094 C 80.261719 86.15625 80.292969 85.882812 80.289062 85.636719 C 80.308594 83.148438 80.265625 80.664062 80.269531 78.175781 C 80.28125 76.070312 80.238281 73.960938 80.253906 71.855469 C 80.246094 71.597656 80.28125 71.324219 80.183594 71.078125 C 80.074219 70.933594 79.882812 71.074219 79.765625 71.140625 C 79.453125 71.542969 79.328125 72.046875 79.136719 72.507812 C 77.894531 75.925781 76.765625 79.378906 75.570312 82.816406 C 75.179688 83.9375 74.800781 85.066406 74.367188 86.175781 C 74.269531 86.445312 74.050781 86.742188 73.726562 86.71875 C 72.703125 86.753906 71.671875 86.734375 70.648438 86.734375 C 70.1875 86.730469 69.886719 86.316406 69.746094 85.929688 C 68.09375 81.335938 66.46875 76.738281 64.820312 72.144531 C 64.6875 71.832031 64.582031 71.449219 64.265625 71.261719 C 64.097656 71.179688 63.941406 71.324219 63.921875 71.484375 C 63.859375 71.859375 63.902344 72.238281 63.890625 72.617188 C 63.90625 77.007812 63.859375 81.398438 63.875 85.792969 C 63.894531 86.101562 63.789062 86.453125 63.5 86.609375 C 63.261719 86.710938 62.996094 86.757812 62.734375 86.757812 C 61.941406 86.714844 61.148438 86.761719 60.355469 86.71875 C 59.949219 86.699219 59.488281 86.804688 59.140625 86.542969 C 58.855469 86.304688 58.882812 85.898438 58.859375 85.5625 C 58.859375 78.378906 58.859375 71.199219 58.859375 64.015625 C 58.855469 63.671875 58.847656 63.324219 58.925781 62.988281 C 58.988281 62.65625 59.34375 62.46875 59.660156 62.457031 C 60.539062 62.441406 61.417969 62.46875 62.296875 62.441406 Z M 45.960938 68.722656 C 47.265625 68.601562 48.644531 68.667969 49.835938 69.257812 C 50.472656 69.558594 51 70.03125 51.515625 70.496094 C 51.671875 70.648438 51.9375 70.695312 52.109375 70.535156 C 52.375 70.28125 52.367188 69.894531 52.449219 69.566406 C 52.554688 69.214844 52.972656 69.160156 53.285156 69.164062 C 54.234375 69.148438 55.1875 69.140625 56.136719 69.171875 C 56.53125 69.15625 56.921875 69.46875 56.914062 69.878906 C 56.929688 71.90625 56.914062 73.9375 56.917969 75.964844 C 56.960938 79.035156 56.929688 82.105469 56.941406 85.175781 C 56.941406 86.675781 56.722656 88.210938 56.027344 89.558594 C 55.449219 90.707031 54.503906 91.660156 53.367188 92.269531 C 51.914062 93.058594 50.242188 93.347656 48.605469 93.40625 C 46.710938 93.488281 44.75 93.242188 43.066406 92.335938 C 41.691406 91.605469 40.519531 90.382812 40.109375 88.867188 C 40.042969 88.601562 39.988281 88.261719 40.21875 88.050781 C 40.433594 87.820312 40.773438 87.78125 41.074219 87.785156 C 41.894531 87.789062 42.710938 87.769531 43.527344 87.804688 C 43.933594 87.800781 44.4375 87.75 44.714844 88.117188 C 44.945312 88.484375 45.175781 88.867188 45.5 89.167969 C 46.144531 89.832031 47.074219 90.179688 47.996094 90.207031 C 48.949219 90.242188 49.953125 90.070312 50.734375 89.5 C 51.382812 89.050781 51.828125 88.355469 52.0625 87.617188 C 52.242188 87.078125 52.265625 86.503906 52.324219 85.945312 C 52.355469 85.566406 52.410156 85.183594 52.378906 84.800781 C 52.367188 84.535156 52.109375 84.296875 51.839844 84.371094 C 51.457031 84.433594 51.273438 84.816406 50.960938 85.003906 C 49.90625 85.71875 48.652344 86.136719 47.378906 86.242188 C 45.761719 86.332031 44.085938 85.957031 42.726562 85.058594 C 41.617188 84.335938 40.765625 83.261719 40.222656 82.066406 C 39.570312 80.632812 39.320312 79.050781 39.304688 77.488281 C 39.265625 75.5 39.804688 73.5 40.890625 71.828125 C 41.546875 70.84375 42.425781 69.992188 43.488281 69.453125 C 44.257812 69.054688 45.101562 68.816406 45.960938 68.722656 M 47.339844 72.363281 C 46.085938 72.609375 45.050781 73.558594 44.589844 74.726562 C 44.046875 76.058594 44.09375 77.546875 44.335938 78.941406 C 44.546875 80.066406 45.035156 81.214844 45.984375 81.921875 C 47 82.675781 48.410156 82.785156 49.578125 82.339844 C 50.542969 81.96875 51.289062 81.167969 51.707031 80.242188 C 52.226562 79.101562 52.371094 77.820312 52.300781 76.578125 C 52.210938 75.1875 51.523438 73.8125 50.347656 73.019531 C 49.488281 72.414062 48.378906 72.140625 47.339844 72.363281 Z M 94.507812 68.722656 C 96.425781 68.523438 98.453125 68.816406 100.113281 69.835938 C 102.167969 71.066406 103.519531 73.234375 104.054688 75.523438 C 104.269531 76.460938 104.363281 77.4375 104.25 78.394531 C 104.222656 78.679688 104.019531 78.925781 103.738281 78.988281 C 103.015625 79.171875 102.265625 79.085938 101.53125 79.105469 C 98.691406 79.097656 95.847656 79.125 93.007812 79.085938 C 92.660156 79.101562 92.28125 79.03125 91.957031 79.195312 C 91.667969 79.34375 91.484375 79.675781 91.507812 80 C 91.558594 81.242188 92.316406 82.417969 93.421875 83.003906 C 94.398438 83.523438 95.554688 83.667969 96.648438 83.523438 C 97.75 83.375 98.726562 82.722656 99.40625 81.863281 C 99.632812 81.550781 99.964844 81.257812 100.378906 81.277344 C 101.328125 81.28125 102.273438 81.269531 103.21875 81.28125 C 103.429688 81.277344 103.554688 81.484375 103.585938 81.664062 C 103.683594 81.980469 103.542969 82.292969 103.421875 82.578125 C 102.773438 84.066406 101.621094 85.339844 100.1875 86.125 C 98.824219 86.878906 97.246094 87.191406 95.695312 87.175781 C 94.097656 87.191406 92.472656 86.914062 91.046875 86.1875 C 89.851562 85.589844 88.839844 84.65625 88.125 83.539062 C 87.472656 82.519531 87.042969 81.375 86.796875 80.195312 C 86.578125 79.105469 86.476562 77.980469 86.617188 76.875 C 86.871094 74.828125 87.730469 72.835938 89.148438 71.316406 C 90.523438 69.824219 92.484375 68.917969 94.507812 68.722656 M 94.8125 72.296875 C 93.609375 72.484375 92.515625 73.238281 91.929688 74.292969 C 91.714844 74.695312 91.511719 75.171875 91.65625 75.628906 C 91.78125 75.992188 92.214844 76.058594 92.546875 76.074219 C 93.160156 76.085938 93.773438 76.085938 94.386719 76.0625 C 95.667969 76.0625 96.949219 76.0625 98.230469 76.0625 C 98.515625 76.054688 98.859375 76.039062 99.050781 75.792969 C 99.246094 75.550781 99.210938 75.207031 99.113281 74.929688 C 98.761719 73.953125 98.105469 73.027344 97.136719 72.570312 C 96.421875 72.210938 95.589844 72.171875 94.8125 72.296875 Z M 27.144531 68.792969 C 29.175781 68.566406 31.316406 68.726562 33.171875 69.640625 C 34.789062 70.410156 36.09375 71.753906 36.90625 73.332031 C 37.511719 74.5 37.890625 75.789062 37.980469 77.101562 C 38.03125 78.4375 37.9375 79.796875 37.558594 81.089844 C 37.167969 82.441406 36.457031 83.710938 35.445312 84.699219 C 34.277344 85.867188 32.734375 86.628906 31.121094 86.980469 C 29.417969 87.347656 27.625 87.320312 25.9375 86.882812 C 24.113281 86.410156 22.460938 85.304688 21.355469 83.789062 C 20.101562 82.144531 19.519531 80.0625 19.53125 78.019531 C 19.535156 76.335938 19.910156 74.640625 20.695312 73.140625 C 21.421875 71.730469 22.5625 70.511719 23.976562 69.761719 C 24.953125 69.238281 26.042969 68.929688 27.144531 68.792969 M 28.214844 72.378906 C 27.113281 72.523438 26.078125 73.113281 25.433594 74.015625 C 24.617188 75.152344 24.382812 76.585938 24.367188 77.949219 C 24.371094 79.335938 24.621094 80.78125 25.441406 81.933594 C 26.109375 82.898438 27.222656 83.5625 28.410156 83.621094 C 29.582031 83.675781 30.808594 83.296875 31.644531 82.453125 C 32.46875 81.660156 32.867188 80.535156 33.03125 79.429688 C 33.203125 78.144531 33.167969 76.8125 32.792969 75.566406 C 32.457031 74.453125 31.785156 73.386719 30.746094 72.796875 C 29.988281 72.347656 29.074219 72.246094 28.214844 72.378906 Z M 28.214844 72.378906 " fill-opacity="1" fill-rule="nonzero"/></g></svg>