<svg xmlns="http://www.w3.org/2000/svg" xmlns:xlink="http://www.w3.org/1999/xlink" width="200" zoomAndPan="magnify" viewBox="0 0 150 149.999998" height="200" preserveAspectRatio="xMidYMid meet" version="1.0"><defs><clipPath id="766ad47aca"><path d="M 0 58.96875 L 16 58.96875 L 16 75 L 0 75 Z M 0 58.96875 " clip-rule="nonzero"/></clipPath><clipPath id="cb80434be7"><path d="M 16 58.96875 L 33 58.96875 L 33 75 L 16 75 Z M 16 58.96875 " clip-rule="nonzero"/></clipPath><clipPath id="6163538959"><path d="M 0 75 L 16 75 L 16 91.21875 L 0 91.21875 Z M 0 75 " clip-rule="nonzero"/></clipPath><clipPath id="b6057bd847"><path d="M 16 75 L 33 75 L 33 91.21875 L 16 91.21875 Z M 16 75 " clip-rule="nonzero"/></clipPath></defs><path fill="#706d6e" d="M 150 73.5625 L 150 70.90625 L 146.722656 70.90625 L 146.722656 66.78125 L 146.613281 66.8125 L 143.535156 67.761719 L 143.476562 67.78125 L 143.476562 70.90625 L 138.621094 70.90625 L 138.621094 69.164062 C 138.621094 68.351562 138.800781 67.734375 139.15625 67.320312 C 139.507812 66.910156 140.011719 66.703125 140.65625 66.703125 C 141.117188 66.703125 141.597656 66.8125 142.078125 67.027344 L 142.199219 67.082031 L 142.199219 64.285156 L 142.144531 64.265625 C 141.695312 64.101562 141.082031 64.019531 140.324219 64.019531 C 139.367188 64.019531 138.5 64.230469 137.742188 64.644531 C 136.984375 65.058594 136.390625 65.652344 135.972656 66.40625 C 135.554688 67.160156 135.34375 68.027344 135.34375 68.992188 L 135.34375 70.90625 L 133.0625 70.90625 L 133.0625 73.5625 L 135.34375 73.5625 L 135.34375 84.742188 L 138.621094 84.742188 L 138.621094 73.5625 L 143.476562 73.5625 L 143.476562 80.667969 C 143.476562 83.59375 144.847656 85.078125 147.554688 85.078125 C 148 85.078125 148.464844 85.023438 148.945312 84.921875 C 149.429688 84.816406 149.761719 84.710938 149.957031 84.597656 L 150 84.574219 L 150 81.894531 L 149.867188 81.984375 C 149.6875 82.101562 149.46875 82.199219 149.207031 82.269531 C 148.949219 82.34375 148.730469 82.382812 148.5625 82.382812 C 147.929688 82.382812 147.457031 82.210938 147.167969 81.871094 C 146.875 81.527344 146.722656 80.929688 146.722656 80.09375 L 146.722656 73.5625 Z M 125.75 82.382812 C 124.5625 82.382812 123.625 81.984375 122.964844 81.203125 C 122.300781 80.417969 121.964844 79.300781 121.964844 77.878906 C 121.964844 76.410156 122.300781 75.261719 122.964844 74.464844 C 123.625 73.671875 124.554688 73.265625 125.726562 73.265625 C 126.859375 73.265625 127.765625 73.652344 128.410156 74.410156 C 129.0625 75.175781 129.390625 76.3125 129.390625 77.796875 C 129.390625 79.300781 129.082031 80.453125 128.46875 81.226562 C 127.863281 81.992188 126.945312 82.382812 125.75 82.382812 M 125.898438 70.574219 C 123.628906 70.574219 121.828125 71.242188 120.542969 72.558594 C 119.261719 73.878906 118.609375 75.703125 118.609375 77.984375 C 118.609375 80.152344 119.246094 81.894531 120.5 83.164062 C 121.75 84.433594 123.457031 85.078125 125.566406 85.078125 C 127.761719 85.078125 129.527344 84.398438 130.8125 83.0625 C 132.097656 81.726562 132.746094 79.917969 132.746094 77.691406 C 132.746094 75.492188 132.136719 73.734375 130.933594 72.472656 C 129.726562 71.210938 128.035156 70.574219 125.898438 70.574219 M 113.332031 70.574219 C 111.789062 70.574219 110.511719 70.96875 109.539062 71.753906 C 108.558594 72.539062 108.058594 73.574219 108.058594 74.824219 C 108.058594 75.472656 108.167969 76.050781 108.378906 76.539062 C 108.589844 77.03125 108.921875 77.460938 109.355469 77.824219 C 109.789062 78.183594 110.460938 78.5625 111.347656 78.945312 C 112.09375 79.253906 112.648438 79.515625 113.003906 79.722656 C 113.347656 79.921875 113.59375 80.125 113.730469 80.324219 C 113.867188 80.515625 113.933594 80.78125 113.933594 81.105469 C 113.933594 82.035156 113.242188 82.488281 111.820312 82.488281 C 111.289062 82.488281 110.6875 82.378906 110.027344 82.160156 C 109.371094 81.941406 108.757812 81.632812 108.195312 81.222656 L 108.058594 81.125 L 108.058594 84.296875 L 108.109375 84.320312 C 108.574219 84.535156 109.15625 84.71875 109.84375 84.859375 C 110.53125 85.003906 111.15625 85.078125 111.699219 85.078125 C 113.375 85.078125 114.722656 84.679688 115.703125 83.890625 C 116.695312 83.097656 117.195312 82.039062 117.195312 80.746094 C 117.195312 79.816406 116.925781 79.015625 116.394531 78.371094 C 115.863281 77.730469 114.949219 77.144531 113.667969 76.625 C 112.648438 76.210938 111.996094 75.871094 111.726562 75.609375 C 111.464844 75.355469 111.335938 74.996094 111.335938 74.542969 C 111.335938 74.140625 111.496094 73.816406 111.832031 73.554688 C 112.167969 73.292969 112.636719 73.160156 113.226562 73.160156 C 113.769531 73.160156 114.328125 73.246094 114.882812 73.417969 C 115.4375 73.585938 115.925781 73.816406 116.332031 74.09375 L 116.464844 74.183594 L 116.464844 71.175781 L 116.414062 71.152344 C 116.039062 70.992188 115.546875 70.851562 114.945312 70.742188 C 114.34375 70.628906 113.804688 70.574219 113.332031 70.574219 M 99.523438 82.382812 C 98.335938 82.382812 97.398438 81.984375 96.738281 81.203125 C 96.074219 80.417969 95.738281 79.300781 95.738281 77.878906 C 95.738281 76.410156 96.074219 75.261719 96.738281 74.464844 C 97.398438 73.671875 98.328125 73.265625 99.496094 73.265625 C 100.632812 73.265625 101.535156 73.652344 102.183594 74.410156 C 102.835938 75.175781 103.164062 76.3125 103.164062 77.796875 C 103.164062 79.300781 102.855469 80.453125 102.242188 81.226562 C 101.632812 81.992188 100.71875 82.382812 99.523438 82.382812 M 99.667969 70.574219 C 97.402344 70.574219 95.601562 71.242188 94.316406 72.558594 C 93.035156 73.878906 92.382812 75.703125 92.382812 77.984375 C 92.382812 80.152344 93.019531 81.894531 94.269531 83.164062 C 95.523438 84.433594 97.226562 85.078125 99.335938 85.078125 C 101.535156 85.078125 103.300781 84.398438 104.585938 83.0625 C 105.867188 81.726562 106.519531 79.917969 106.519531 77.691406 C 106.519531 75.492188 105.90625 73.734375 104.703125 72.472656 C 103.5 71.210938 101.804688 70.574219 99.667969 70.574219 M 87.410156 73.300781 L 87.410156 70.90625 L 84.175781 70.90625 L 84.175781 84.742188 L 87.410156 84.742188 L 87.410156 77.664062 C 87.410156 76.460938 87.683594 75.472656 88.21875 74.726562 C 88.746094 73.988281 89.449219 73.613281 90.308594 73.613281 C 90.601562 73.613281 90.929688 73.664062 91.28125 73.757812 C 91.632812 73.851562 91.886719 73.957031 92.035156 74.066406 L 92.171875 74.164062 L 92.171875 70.882812 L 92.121094 70.859375 C 91.820312 70.730469 91.394531 70.667969 90.855469 70.667969 C 90.039062 70.667969 89.3125 70.929688 88.691406 71.445312 C 88.144531 71.902344 87.75 72.523438 87.445312 73.300781 Z M 78.382812 70.574219 C 76.898438 70.574219 75.578125 70.894531 74.449219 71.523438 C 73.324219 72.15625 72.449219 73.058594 71.855469 74.207031 C 71.265625 75.355469 70.964844 76.691406 70.964844 78.183594 C 70.964844 79.492188 71.257812 80.691406 71.832031 81.75 C 72.40625 82.808594 73.222656 83.636719 74.25 84.210938 C 75.28125 84.785156 76.472656 85.078125 77.789062 85.078125 C 79.324219 85.078125 80.636719 84.765625 81.691406 84.15625 L 81.734375 84.132812 L 81.734375 81.152344 L 81.597656 81.25 C 81.121094 81.601562 80.585938 81.878906 80.015625 82.082031 C 79.441406 82.28125 78.921875 82.382812 78.464844 82.382812 C 77.195312 82.382812 76.175781 81.984375 75.4375 81.195312 C 74.695312 80.40625 74.320312 79.296875 74.320312 77.90625 C 74.320312 76.5 74.710938 75.367188 75.484375 74.527344 C 76.253906 73.691406 77.273438 73.265625 78.519531 73.265625 C 79.582031 73.265625 80.617188 73.628906 81.597656 74.34375 L 81.734375 74.445312 L 81.734375 71.300781 L 81.6875 71.277344 C 81.320312 71.070312 80.816406 70.898438 80.191406 70.769531 C 79.570312 70.636719 78.960938 70.574219 78.382812 70.574219 M 68.738281 70.90625 L 65.503906 70.90625 L 65.503906 84.742188 L 68.738281 84.742188 Z M 67.152344 65.011719 C 66.621094 65.011719 66.15625 65.195312 65.773438 65.554688 C 65.390625 65.917969 65.199219 66.375 65.199219 66.914062 C 65.199219 67.441406 65.390625 67.890625 65.769531 68.242188 C 66.144531 68.59375 66.613281 68.773438 67.152344 68.773438 C 67.695312 68.773438 68.164062 68.59375 68.542969 68.242188 C 68.929688 67.890625 69.121094 67.441406 69.121094 66.914062 C 69.121094 66.394531 68.933594 65.941406 68.558594 65.570312 C 68.1875 65.199219 67.714844 65.011719 67.152344 65.011719 M 59.082031 69.886719 L 59.082031 84.742188 L 62.382812 84.742188 L 62.382812 65.433594 L 57.816406 65.433594 L 52.007812 79.777344 L 46.371094 65.433594 L 41.617188 65.433594 L 41.617188 84.742188 L 44.71875 84.742188 L 44.71875 69.882812 L 44.824219 69.882812 L 50.777344 84.742188 L 53.117188 84.742188 L 58.976562 69.886719 Z M 59.082031 69.886719 " fill-opacity="1" fill-rule="nonzero"/><g clip-path="url(#766ad47aca)"><path fill="#f1511b" d="M 0 58.984375 L 15.214844 58.984375 L 15.214844 74.296875 L 0 74.296875 Z M 0 58.984375 " fill-opacity="1" fill-rule="nonzero"/></g><g clip-path="url(#cb80434be7)"><path fill="#80cc28" d="M 32.019531 74.296875 L 16.800781 74.296875 L 16.800781 58.984375 L 32.019531 58.984375 Z M 32.019531 74.296875 " fill-opacity="1" fill-rule="nonzero"/></g><g clip-path="url(#6163538959)"><path fill="#00adef" d="M 0 75.894531 L 15.214844 75.894531 L 15.214844 91.207031 L 0 91.207031 Z M 0 75.894531 " fill-opacity="1" fill-rule="nonzero"/></g><g clip-path="url(#b6057bd847)"><path fill="#fbbc09" d="M 32.019531 91.207031 L 16.800781 91.207031 L 16.800781 75.894531 L 32.019531 75.894531 Z M 32.019531 91.207031 " fill-opacity="1" fill-rule="nonzero"/></g></svg>