<svg xmlns="http://www.w3.org/2000/svg" xmlns:xlink="http://www.w3.org/1999/xlink" width="200" zoomAndPan="magnify" viewBox="0 0 150 149.999998" height="200" preserveAspectRatio="xMidYMid meet" version="1.0"><defs><clipPath id="5f2f53a8c5"><path d="M 0 64.667969 L 150 64.667969 L 150 85.667969 L 0 85.667969 Z M 0 64.667969 " clip-rule="nonzero"/></clipPath><clipPath id="019e555ab9"><path d="M 90 64.667969 L 111 64.667969 L 111 85.667969 L 90 85.667969 Z M 90 64.667969 " clip-rule="nonzero"/></clipPath><clipPath id="6155783309"><path d="M 146 81 L 150 81 L 150 85.667969 L 146 85.667969 Z M 146 81 " clip-rule="nonzero"/></clipPath></defs><g clip-path="url(#5f2f53a8c5)"><path fill="#54565a" d="M 15.644531 64.753906 L 14.394531 64.753906 C 13.617188 64.753906 13.230469 65.191406 13.230469 65.933594 L 13.230469 78.726562 L 4.660156 65.539062 C 4.359375 64.972656 3.925781 64.753906 3.238281 64.753906 L 1.730469 64.753906 C 0.957031 64.753906 0.566406 65.191406 0.566406 65.933594 L 0.566406 84.050781 C 0.566406 84.835938 0.957031 85.230469 1.730469 85.230469 L 3.023438 85.230469 C 3.796875 85.230469 4.1875 84.835938 4.1875 84.050781 L 4.1875 70.996094 L 12.800781 84.488281 C 13.101562 85.054688 13.574219 85.273438 14.179688 85.273438 L 15.6875 85.273438 C 16.460938 85.273438 16.851562 84.882812 16.851562 84.09375 L 16.851562 65.976562 C 16.804688 65.191406 16.375 64.753906 15.644531 64.753906 Z M 32.875 82.085938 L 24.429688 82.085938 L 24.429688 76.367188 L 30.417969 76.367188 C 31.195312 76.367188 31.582031 75.976562 31.582031 75.1875 L 31.582031 74.402344 C 31.582031 73.617188 31.148438 73.222656 30.417969 73.222656 L 24.429688 73.222656 L 24.429688 67.941406 L 32.441406 67.941406 C 33.21875 67.941406 33.605469 67.546875 33.605469 66.761719 L 33.605469 65.976562 C 33.605469 65.191406 33.175781 64.796875 32.441406 64.796875 L 21.976562 64.796875 C 21.199219 64.796875 20.8125 65.234375 20.8125 65.976562 L 20.8125 84.09375 C 20.8125 84.882812 21.199219 85.273438 21.976562 85.273438 L 32.875 85.273438 C 33.648438 85.273438 34.035156 84.882812 34.035156 84.09375 L 34.035156 83.308594 C 34.035156 82.480469 33.605469 82.085938 32.875 82.085938 Z M 52.34375 64.753906 L 38.042969 64.753906 C 37.265625 64.753906 36.878906 65.191406 36.878906 65.933594 L 36.878906 66.71875 C 36.878906 67.503906 37.265625 67.898438 38.042969 67.898438 L 43.382812 67.898438 L 43.382812 84.050781 C 43.382812 84.835938 43.769531 85.230469 44.546875 85.230469 L 45.796875 85.230469 C 46.570312 85.230469 46.957031 84.835938 46.957031 84.050781 L 46.957031 67.898438 L 52.300781 67.898438 C 53.074219 67.898438 53.460938 67.503906 53.460938 66.71875 L 53.460938 65.933594 C 53.507812 65.191406 53.117188 64.753906 52.34375 64.753906 Z M 59.105469 70.429688 C 59.105469 69.078125 60.269531 68.160156 62.121094 68.160156 C 63.671875 68.160156 64.75 68.769531 65.566406 69.25 C 66.167969 69.558594 66.730469 69.6875 67.160156 68.859375 L 67.675781 67.898438 C 68.023438 67.285156 67.9375 66.71875 67.332031 66.28125 C 66.472656 65.671875 64.53125 64.753906 62.207031 64.753906 C 58.417969 64.753906 55.488281 67.070312 55.488281 70.605469 C 55.488281 76.890625 64.792969 76.105469 64.792969 79.949219 C 64.792969 81.300781 63.671875 82.261719 61.820312 82.261719 C 59.835938 82.261719 58.417969 81.257812 57.769531 80.777344 C 57.082031 80.382812 56.605469 80.429688 56.132812 81.039062 L 55.53125 81.957031 C 54.96875 82.742188 55.230469 83.222656 55.703125 83.617188 C 56.695312 84.402344 58.976562 85.667969 61.820312 85.667969 C 65.996094 85.667969 68.410156 82.960938 68.410156 79.6875 C 68.410156 73.222656 59.105469 74.183594 59.105469 70.429688 Z M 87.578125 80.691406 C 87.148438 80.035156 86.585938 80.035156 85.941406 80.472656 C 84.992188 81.171875 83.3125 82.21875 81.074219 82.21875 C 76.765625 82.21875 74.355469 78.769531 74.355469 74.972656 C 74.355469 71.261719 76.679688 68.027344 81.03125 68.027344 C 83.097656 68.027344 84.648438 68.902344 85.511719 69.46875 C 86.199219 69.90625 86.714844 69.820312 87.105469 69.164062 L 87.621094 68.335938 C 88.007812 67.722656 87.964844 67.15625 87.40625 66.675781 C 86.328125 65.890625 84.132812 64.667969 80.902344 64.667969 C 74.871094 64.667969 70.605469 69.164062 70.605469 75.015625 C 70.605469 80.953125 74.65625 85.535156 80.902344 85.535156 C 84.433594 85.535156 86.84375 83.964844 87.964844 83.046875 C 88.523438 82.566406 88.570312 81.957031 88.136719 81.390625 Z M 128.757812 64.753906 L 127.464844 64.753906 C 126.6875 64.753906 126.300781 65.191406 126.300781 65.933594 L 126.300781 77.984375 C 126.300781 80.734375 124.535156 82.261719 121.863281 82.261719 C 119.195312 82.261719 117.472656 80.734375 117.472656 77.984375 L 117.472656 65.933594 C 117.472656 65.148438 117.082031 64.753906 116.308594 64.753906 L 115.058594 64.753906 C 114.285156 64.753906 113.894531 65.191406 113.894531 65.933594 L 113.894531 78.027344 C 113.894531 82.566406 117.082031 85.625 121.90625 85.625 C 126.6875 85.625 129.917969 82.566406 129.917969 78.027344 L 129.917969 65.933594 C 129.875 65.191406 129.488281 64.753906 128.757812 64.753906 Z M 148.054688 64.753906 L 133.753906 64.753906 C 132.976562 64.753906 132.589844 65.191406 132.589844 65.933594 L 132.589844 66.71875 C 132.589844 67.503906 132.976562 67.898438 133.753906 67.898438 L 139.09375 67.898438 L 139.09375 84.050781 C 139.09375 84.835938 139.480469 85.230469 140.257812 85.230469 L 141.507812 85.230469 C 142.28125 85.230469 142.667969 84.835938 142.667969 84.050781 L 142.667969 67.898438 L 148.011719 67.898438 C 148.785156 67.898438 149.175781 67.503906 149.175781 66.71875 L 149.175781 65.933594 C 149.21875 65.191406 148.828125 64.753906 148.054688 64.753906 Z M 148.054688 64.753906 " fill-opacity="1" fill-rule="nonzero"/></g><g clip-path="url(#019e555ab9)"><path fill="#93d500" d="M 100.328125 64.753906 L 92.53125 64.753906 C 91.625 64.753906 90.851562 65.496094 90.851562 66.457031 C 90.851562 67.375 91.582031 68.160156 92.53125 68.160156 L 99.984375 68.160156 L 99.898438 68.160156 L 100.371094 68.160156 C 104.203125 68.160156 106.960938 71.171875 106.960938 75.101562 C 106.960938 79.207031 104.203125 82.347656 100.371094 82.347656 C 96.539062 82.347656 93.78125 79.207031 93.78125 75.101562 C 93.78125 72.65625 94.855469 70.5625 96.582031 69.339844 C 96.539062 69.339844 96.539062 69.382812 96.492188 69.382812 L 94.167969 69.382812 C 93.394531 69.382812 92.789062 68.859375 92.574219 68.160156 C 90.980469 69.992188 90.03125 72.394531 90.03125 75.101562 C 90.03125 81.039062 94.296875 85.667969 100.328125 85.667969 C 106.359375 85.667969 110.621094 81.039062 110.621094 75.101562 C 110.621094 69.25 106.359375 64.753906 100.328125 64.753906 Z M 100.328125 64.753906 " fill-opacity="1" fill-rule="nonzero"/></g><path fill="#789c4a" d="M 94.125 69.339844 L 96.449219 69.339844 C 96.492188 69.339844 96.492188 69.296875 96.539062 69.296875 C 97.484375 68.640625 98.605469 68.203125 99.855469 68.160156 L 99.941406 68.160156 L 92.53125 68.160156 C 92.746094 68.816406 93.394531 69.339844 94.125 69.339844 Z M 94.125 69.339844 " fill-opacity="1" fill-rule="nonzero"/><g clip-path="url(#6155783309)"><path fill="#54565a" d="M 146.160156 83.527344 C 146.160156 83.222656 146.246094 82.960938 146.375 82.699219 C 146.503906 82.4375 146.71875 82.21875 146.976562 82.085938 C 147.234375 81.957031 147.492188 81.867188 147.796875 81.867188 C 148.097656 81.867188 148.355469 81.957031 148.613281 82.085938 C 148.871094 82.21875 149.085938 82.4375 149.21875 82.699219 C 149.347656 82.960938 149.433594 83.222656 149.433594 83.527344 C 149.433594 83.832031 149.347656 84.09375 149.21875 84.359375 C 149.089844 84.621094 148.871094 84.835938 148.613281 84.96875 C 148.355469 85.144531 148.097656 85.1875 147.753906 85.1875 C 147.449219 85.1875 147.148438 85.101562 146.890625 84.96875 C 146.632812 84.792969 146.417969 84.621094 146.289062 84.359375 C 146.246094 84.09375 146.160156 83.789062 146.160156 83.527344 Z M 146.375 83.527344 C 146.375 83.789062 146.417969 84.007812 146.546875 84.269531 C 146.675781 84.53125 146.847656 84.664062 147.0625 84.792969 C 147.277344 84.925781 147.539062 84.96875 147.753906 84.96875 C 148.011719 84.96875 148.226562 84.925781 148.484375 84.792969 C 148.699219 84.664062 148.871094 84.488281 149 84.269531 C 149.132812 84.050781 149.175781 83.789062 149.175781 83.527344 C 149.175781 83.265625 149.132812 83.046875 149 82.785156 C 148.871094 82.566406 148.699219 82.394531 148.484375 82.261719 C 148.269531 82.132812 148.011719 82.085938 147.753906 82.085938 C 147.492188 82.085938 147.277344 82.132812 147.019531 82.261719 C 146.804688 82.394531 146.632812 82.566406 146.503906 82.785156 C 146.460938 83.003906 146.375 83.222656 146.375 83.527344 Z M 148.484375 83.089844 C 148.484375 83.222656 148.441406 83.308594 148.398438 83.398438 C 148.355469 83.484375 148.269531 83.570312 148.140625 83.617188 L 148.65625 84.488281 L 148.269531 84.488281 L 147.796875 83.703125 L 147.492188 83.703125 L 147.492188 84.488281 L 147.148438 84.488281 L 147.148438 82.480469 L 147.710938 82.480469 C 147.96875 82.480469 148.140625 82.523438 148.226562 82.609375 C 148.441406 82.742188 148.484375 82.917969 148.484375 83.089844 Z M 147.539062 83.441406 L 147.796875 83.441406 C 147.925781 83.441406 148.011719 83.398438 148.097656 83.351562 C 148.183594 83.308594 148.183594 83.222656 148.183594 83.136719 C 148.183594 83.003906 148.140625 82.960938 148.097656 82.917969 C 148.054688 82.875 147.925781 82.828125 147.796875 82.828125 L 147.582031 82.828125 L 147.582031 83.441406 Z M 147.539062 83.441406 " fill-opacity="1" fill-rule="nonzero"/></g></svg>