<svg xmlns="http://www.w3.org/2000/svg" xmlns:xlink="http://www.w3.org/1999/xlink" width="200" zoomAndPan="magnify" viewBox="0 0 150 149.999998" height="200" preserveAspectRatio="xMidYMid meet" version="1.0"><defs><clipPath id="008ac92540"><path d="M 11 52 L 142.5 52 L 142.5 97 L 11 97 Z M 11 52 " clip-rule="nonzero"/></clipPath></defs><g clip-path="url(#008ac92540)"><path fill="#000048" d="M 31.679688 52.851562 C 30.386719 52.863281 29.144531 53.125 27.957031 53.636719 C 25.597656 54.65625 23.6875 56.671875 22.820312 59.054688 C 22.757812 59.230469 22.699219 59.351562 22.675781 59.351562 C 22.65625 59.351562 22.5 59.328125 22.328125 59.296875 C 21.375 59.132812 20.375 59.121094 19.351562 59.269531 C 15.550781 59.824219 12.453125 62.613281 11.515625 66.320312 C 11.296875 67.183594 11.222656 67.894531 11.246094 68.855469 C 11.269531 69.800781 11.398438 70.578125 11.683594 71.480469 C 12.066406 72.648438 12.648438 73.707031 13.441406 74.652344 C 13.554688 74.789062 13.652344 74.90625 13.652344 74.914062 C 13.652344 74.921875 13.550781 75.050781 13.429688 75.195312 C 12.304688 76.546875 11.601562 78.109375 11.332031 79.871094 C 11.246094 80.433594 11.210938 81.445312 11.261719 82.015625 C 11.347656 83.015625 11.585938 83.976562 11.980469 84.902344 C 12.375 85.824219 12.902344 86.664062 13.566406 87.421875 C 14.230469 88.175781 14.996094 88.8125 15.863281 89.328125 C 16.730469 89.839844 17.65625 90.207031 18.640625 90.429688 C 19.820312 90.699219 21.167969 90.738281 22.308594 90.539062 C 22.742188 90.460938 22.726562 90.464844 22.726562 90.5 C 22.726562 90.515625 22.78125 90.679688 22.851562 90.863281 C 23.015625 91.300781 23.355469 91.996094 23.605469 92.402344 C 25.15625 94.941406 27.78125 96.609375 30.726562 96.929688 C 31.195312 96.980469 32.277344 96.980469 32.757812 96.929688 C 34.214844 96.777344 35.5625 96.316406 36.804688 95.542969 C 38.09375 94.734375 39.132812 93.683594 39.925781 92.386719 C 40.230469 91.882812 40.644531 90.992188 40.765625 90.589844 C 40.785156 90.523438 40.808594 90.472656 40.816406 90.472656 C 40.824219 90.472656 41.003906 90.503906 41.21875 90.539062 C 41.824219 90.644531 42.328125 90.675781 43.039062 90.65625 C 43.71875 90.636719 44.210938 90.578125 44.828125 90.445312 C 45.820312 90.226562 46.75 89.859375 47.625 89.34375 C 48.496094 88.832031 49.265625 88.195312 49.933594 87.4375 C 50.601562 86.679688 51.132812 85.839844 51.53125 84.910156 C 51.929688 83.984375 52.167969 83.019531 52.253906 82.015625 C 52.304688 81.425781 52.273438 80.414062 52.1875 79.855469 C 51.910156 78.09375 51.191406 76.503906 50.0625 75.160156 C 49.992188 75.082031 49.925781 75 49.867188 74.914062 C 49.867188 74.90625 49.960938 74.789062 50.078125 74.648438 C 51.183594 73.34375 51.90625 71.75 52.1875 69.984375 C 52.273438 69.445312 52.304688 68.378906 52.253906 67.808594 C 52.070312 65.746094 51.25 63.863281 49.851562 62.300781 C 47.714844 59.914062 44.339844 58.746094 41.1875 59.296875 C 41.015625 59.328125 40.859375 59.351562 40.839844 59.351562 C 40.816406 59.351562 40.785156 59.300781 40.765625 59.234375 C 40.085938 57.285156 38.894531 55.722656 37.191406 54.542969 C 35.570312 53.421875 33.777344 52.859375 31.804688 52.851562 Z M 31.753906 55.320312 C 32.117188 55.320312 32.476562 55.332031 32.660156 55.355469 C 34.066406 55.535156 35.277344 56.039062 36.378906 56.898438 C 36.707031 57.15625 37.417969 57.859375 37.65625 58.164062 C 38.046875 58.652344 38.386719 59.171875 38.675781 59.726562 L 38.824219 60.011719 L 38.550781 60.144531 C 37.046875 60.890625 36.199219 61.480469 35.242188 62.453125 C 34.792969 62.898438 34.394531 63.382812 34.042969 63.910156 C 33.617188 64.542969 33.300781 65.226562 33.09375 65.957031 C 32.699219 67.3125 32.867188 68.574219 33.550781 69.484375 C 33.738281 69.734375 34.109375 70.09375 34.335938 70.242188 C 34.671875 70.464844 35.148438 70.617188 35.671875 70.671875 C 37.003906 70.816406 38.421875 70.046875 39.539062 68.570312 C 40.472656 67.335938 41.09375 65.582031 41.265625 63.703125 C 41.296875 63.335938 41.285156 61.773438 41.246094 61.511719 L 41.230469 61.398438 L 41.652344 61.378906 C 42.675781 61.328125 43.878906 61.488281 44.789062 61.800781 C 46.652344 62.433594 48.042969 63.597656 48.980469 65.304688 C 49.375 66.023438 49.636719 66.777344 49.789062 67.65625 C 49.839844 67.933594 49.847656 68.105469 49.851562 68.730469 C 49.851562 69.539062 49.832031 69.746094 49.695312 70.378906 C 49.476562 71.382812 49.0625 72.355469 48.453125 73.289062 L 48.292969 73.53125 L 48.101562 73.40625 C 46.609375 72.410156 45.3125 71.839844 43.871094 71.550781 C 43.144531 71.40625 42.839844 71.378906 42.054688 71.375 C 41.265625 71.375 40.996094 71.402344 40.359375 71.550781 C 38.992188 71.878906 37.988281 72.574219 37.484375 73.550781 C 37.058594 74.371094 37.019531 75.203125 37.359375 76.015625 C 37.910156 77.328125 39.152344 78.132812 41.070312 78.410156 C 42.789062 78.660156 45.09375 78.175781 46.847656 77.195312 C 47.261719 76.957031 47.667969 76.710938 48.070312 76.449219 C 48.15625 76.390625 48.246094 76.335938 48.265625 76.328125 C 48.292969 76.320312 48.359375 76.402344 48.46875 76.570312 C 49.1875 77.683594 49.597656 78.746094 49.800781 80.007812 C 49.878906 80.5 49.871094 81.707031 49.789062 82.195312 C 49.605469 83.234375 49.257812 84.132812 48.691406 85.019531 C 47.492188 86.898438 45.523438 88.101562 43.175781 88.394531 C 42.722656 88.449219 41.96875 88.476562 41.558594 88.449219 L 41.226562 88.429688 L 41.246094 88.289062 C 41.285156 87.964844 41.296875 86.542969 41.265625 86.164062 C 41.199219 85.320312 41.03125 84.5 40.765625 83.699219 C 40.289062 82.277344 39.699219 81.304688 38.773438 80.421875 C 38.109375 79.78125 37.523438 79.4375 36.777344 79.246094 C 36.496094 79.171875 36.441406 79.167969 35.949219 79.167969 C 35.464844 79.171875 35.402344 79.175781 35.144531 79.246094 C 34.597656 79.394531 34.1875 79.640625 33.796875 80.054688 C 32.71875 81.203125 32.589844 82.878906 33.433594 84.828125 C 34.039062 86.230469 35.382812 87.753906 36.90625 88.765625 C 37.316406 89.035156 37.515625 89.148438 38.230469 89.523438 L 38.816406 89.828125 L 38.65625 90.128906 C 37.992188 91.398438 37.117188 92.421875 36.054688 93.171875 C 35.023438 93.902344 33.921875 94.320312 32.605469 94.480469 C 31.914062 94.5625 30.945312 94.519531 30.21875 94.371094 C 28.972656 94.117188 27.730469 93.488281 26.761719 92.613281 C 26.007812 91.933594 25.382812 91.121094 24.859375 90.128906 L 24.699219 89.828125 L 25.148438 89.597656 C 26.59375 88.855469 27.308594 88.351562 28.222656 87.445312 C 29.101562 86.570312 29.785156 85.582031 30.15625 84.660156 C 30.527344 83.738281 30.65625 83.074219 30.625 82.277344 C 30.589844 81.375 30.289062 80.644531 29.703125 80.035156 C 29.308594 79.625 28.917969 79.394531 28.371094 79.246094 C 28.117188 79.175781 28.054688 79.171875 27.566406 79.167969 C 27.074219 79.167969 27.019531 79.171875 26.734375 79.246094 C 25.949219 79.449219 25.292969 79.855469 24.597656 80.5625 C 23.765625 81.410156 23.238281 82.292969 22.785156 83.597656 C 22.523438 84.347656 22.351562 85.136719 22.265625 86.011719 C 22.226562 86.378906 22.222656 86.628906 22.238281 87.332031 C 22.246094 87.808594 22.261719 88.25 22.273438 88.316406 L 22.289062 88.429688 L 21.957031 88.449219 C 21.554688 88.472656 20.792969 88.449219 20.367188 88.394531 C 19.015625 88.226562 17.753906 87.753906 16.746094 87.035156 C 15.277344 85.980469 14.320312 84.585938 13.875 82.84375 C 13.726562 82.269531 13.679688 81.90625 13.660156 81.300781 C 13.625 80.085938 13.839844 79.019531 14.359375 77.832031 C 14.59375 77.285156 15.179688 76.300781 15.25 76.328125 C 15.273438 76.335938 15.359375 76.390625 15.449219 76.449219 C 15.535156 76.507812 15.824219 76.691406 16.09375 76.855469 C 17.753906 77.878906 19.375 78.386719 21.269531 78.480469 C 22.050781 78.519531 23.03125 78.363281 23.839844 78.082031 C 25.050781 77.652344 25.921875 76.808594 26.257812 75.753906 C 26.480469 75.046875 26.417969 74.339844 26.070312 73.628906 C 25.890625 73.257812 25.648438 72.929688 25.339844 72.648438 C 24.667969 72.015625 23.742188 71.617188 22.503906 71.421875 C 22.066406 71.355469 20.898438 71.355469 20.394531 71.425781 C 19.03125 71.613281 17.679688 72.058594 16.578125 72.6875 C 16.328125 72.832031 15.625 73.265625 15.421875 73.402344 C 15.335938 73.460938 15.25 73.507812 15.238281 73.507812 C 15.210938 73.507812 14.941406 73.105469 14.769531 72.804688 C 14.316406 72.019531 13.976562 71.132812 13.804688 70.292969 C 13.679688 69.671875 13.664062 69.503906 13.667969 68.742188 C 13.667969 67.957031 13.703125 67.660156 13.863281 67.023438 C 14.105469 66.050781 14.558594 65.128906 15.207031 64.28125 C 16.300781 62.851562 17.910156 61.886719 19.785156 61.53125 C 20.402344 61.414062 20.769531 61.382812 21.523438 61.378906 C 21.925781 61.378906 22.257812 61.386719 22.265625 61.390625 C 22.273438 61.398438 22.265625 61.691406 22.25 62.039062 C 22.1875 63.347656 22.265625 64.269531 22.515625 65.316406 C 22.765625 66.34375 23.25 67.496094 23.730469 68.21875 C 24.113281 68.792969 24.707031 69.441406 25.195312 69.816406 C 25.972656 70.410156 26.710938 70.679688 27.554688 70.679688 C 28.320312 70.679688 28.964844 70.460938 29.464844 70.027344 C 30.03125 69.539062 30.40625 68.898438 30.570312 68.136719 C 30.609375 67.953125 30.621094 67.785156 30.621094 67.339844 C 30.617188 66.835938 30.609375 66.734375 30.542969 66.429688 C 30.203125 64.835938 29.355469 63.4375 27.90625 62.085938 C 27.179688 61.40625 26.488281 60.9375 25.378906 60.363281 C 25.160156 60.25 24.941406 60.136719 24.722656 60.019531 C 24.699219 60 25.082031 59.289062 25.296875 58.953125 C 26.125 57.671875 27.207031 56.683594 28.46875 56.066406 C 29.238281 55.6875 29.96875 55.472656 30.855469 55.355469 C 31.035156 55.332031 31.394531 55.320312 31.753906 55.320312 Z M 39.414062 61.734375 C 39.421875 61.734375 39.425781 61.734375 39.425781 61.738281 C 39.453125 61.757812 39.570312 62.359375 39.601562 62.644531 C 39.660156 63.152344 39.652344 64.65625 39.589844 65.164062 C 39.464844 66.167969 39.242188 66.945312 38.882812 67.640625 C 38.1875 68.988281 37.183594 69.9375 36.242188 70.132812 C 35.964844 70.191406 35.554688 70.183594 35.296875 70.117188 C 34.65625 69.953125 34.066406 69.488281 33.796875 68.941406 C 33.351562 68.027344 33.640625 66.546875 34.535156 65.175781 C 35.265625 64.054688 36.523438 63.039062 38.203125 62.210938 C 38.59375 62.015625 39.296875 61.742188 39.414062 61.734375 Z M 24.121094 61.75 C 24.222656 61.75 24.828125 61.976562 25.207031 62.160156 C 26.699219 62.871094 27.921875 63.785156 28.683594 64.75 C 29.167969 65.367188 29.609375 66.25 29.796875 66.980469 C 30.058594 67.976562 29.945312 68.75 29.457031 69.351562 C 29.179688 69.691406 28.671875 70 28.207031 70.121094 C 27.746094 70.238281 27.203125 70.171875 26.734375 69.941406 C 25.675781 69.417969 24.617188 67.992188 24.199219 66.523438 C 23.964844 65.699219 23.878906 64.996094 23.878906 63.871094 C 23.878906 62.980469 23.910156 62.527344 24.003906 62.09375 C 24.078125 61.769531 24.082031 61.75 24.121094 61.75 Z M 22.191406 72.433594 C 24.191406 72.433594 25.523438 73.132812 25.824219 74.347656 C 25.898438 74.648438 25.894531 75.246094 25.8125 75.527344 C 25.660156 76.054688 25.378906 76.429688 24.902344 76.746094 C 24.449219 77.046875 23.824219 77.253906 23.101562 77.347656 C 22.703125 77.402344 22.066406 77.421875 21.699219 77.390625 C 20.394531 77.289062 18.855469 76.679688 17.359375 75.675781 C 16.964844 75.40625 16.414062 74.957031 16.433594 74.910156 C 16.460938 74.828125 17.015625 74.390625 17.449219 74.101562 C 18.210938 73.601562 18.824219 73.273438 19.53125 72.984375 C 20.507812 72.589844 21.25 72.433594 22.191406 72.433594 Z M 41.328125 72.433594 C 42.390625 72.433594 43.246094 72.640625 44.414062 73.171875 C 45.3125 73.582031 46.390625 74.253906 46.898438 74.722656 L 47.105469 74.914062 L 46.882812 75.121094 C 46.398438 75.570312 45.457031 76.164062 44.527344 76.605469 C 43.542969 77.074219 42.671875 77.324219 41.820312 77.390625 C 41.320312 77.425781 41.039062 77.421875 40.515625 77.363281 C 38.972656 77.183594 37.984375 76.539062 37.707031 75.527344 C 37.660156 75.359375 37.648438 75.226562 37.644531 74.941406 C 37.644531 74.5625 37.667969 74.402344 37.773438 74.113281 C 38.15625 73.046875 39.457031 72.433594 41.328125 72.433594 Z M 27.707031 79.664062 C 28.09375 79.664062 28.28125 79.703125 28.632812 79.871094 C 30.066406 80.546875 30.332031 82.070312 29.351562 84.015625 C 28.867188 84.972656 28.222656 85.722656 27.238281 86.460938 C 26.398438 87.09375 25.121094 87.789062 24.40625 88.007812 C 24.3125 88.035156 24.222656 88.0625 24.128906 88.09375 C 24.085938 88.109375 24.082031 88.105469 24.003906 87.746094 C 23.917969 87.351562 23.890625 87.03125 23.871094 86.285156 C 23.847656 85.300781 23.917969 84.480469 24.101562 83.6875 C 24.472656 82.03125 25.585938 80.4375 26.761719 79.882812 C 27.128906 79.707031 27.316406 79.667969 27.707031 79.664062 Z M 35.808594 79.664062 C 36.203125 79.667969 36.386719 79.707031 36.753906 79.882812 C 37.5625 80.265625 38.359375 81.148438 38.917969 82.277344 C 39.453125 83.359375 39.6875 84.644531 39.644531 86.273438 C 39.625 87.132812 39.570312 87.605469 39.441406 88.054688 C 39.425781 88.113281 39.449219 88.117188 39.113281 88.007812 C 38.308594 87.746094 37.046875 87.050781 36.210938 86.410156 C 35.695312 86.011719 35.222656 85.566406 34.894531 85.160156 C 34.320312 84.441406 33.835938 83.445312 33.65625 82.59375 C 33.570312 82.191406 33.570312 81.605469 33.65625 81.289062 C 33.828125 80.648438 34.238281 80.175781 34.882812 79.871094 C 35.234375 79.703125 35.421875 79.664062 35.808594 79.664062 Z M 129.121094 66.4375 C 128.550781 66.441406 127.902344 66.507812 127.234375 66.640625 C 126.070312 66.871094 124.855469 67.535156 124.003906 68.417969 C 123.230469 69.214844 122.773438 70.113281 122.65625 71.089844 C 122.613281 71.410156 122.636719 71.523438 122.75 71.652344 C 122.902344 71.828125 122.914062 71.828125 123.980469 71.828125 C 124.898438 71.828125 124.949219 71.824219 125.0625 71.769531 C 125.253906 71.679688 125.285156 71.621094 125.378906 71.152344 C 125.550781 70.28125 126.234375 69.480469 127.183594 69.035156 C 128.046875 68.628906 128.96875 68.53125 130.023438 68.734375 C 130.726562 68.867188 131.375 69.191406 131.800781 69.617188 C 132.269531 70.089844 132.570312 70.761719 132.613281 71.441406 C 132.632812 71.792969 132.597656 71.910156 132.421875 72.082031 C 132.265625 72.230469 132.140625 72.300781 131.742188 72.457031 C 131.132812 72.695312 130.734375 72.8125 128.664062 73.367188 C 126.714844 73.886719 126.1875 74.066406 125.28125 74.507812 C 124.285156 74.992188 123.625 75.46875 123.011719 76.144531 C 122.488281 76.722656 122.210938 77.277344 122.054688 78.066406 C 121.988281 78.410156 121.988281 79.339844 122.054688 79.691406 C 122.316406 81.070312 123.375 82.371094 124.773438 83.046875 C 125.265625 83.289062 125.78125 83.445312 126.324219 83.519531 C 126.757812 83.578125 127.671875 83.554688 128.253906 83.464844 C 129.914062 83.210938 131.296875 82.597656 132.371094 81.636719 L 132.632812 81.402344 L 132.660156 81.523438 C 132.84375 82.484375 133.171875 82.871094 133.957031 83.039062 C 134.179688 83.089844 134.34375 83.097656 135.105469 83.109375 C 136.058594 83.121094 136.074219 83.121094 136.179688 82.980469 C 136.246094 82.890625 136.25 82.710938 136.1875 82.613281 C 136.160156 82.574219 136.066406 82.496094 135.976562 82.441406 C 135.59375 82.210938 135.480469 81.957031 135.390625 81.136719 C 135.367188 80.910156 135.351562 79.492188 135.339844 76.136719 L 135.324219 71.457031 L 135.25 71.046875 C 135.054688 70.003906 134.929688 69.636719 134.597656 69.128906 C 133.621094 67.632812 131.980469 66.714844 129.84375 66.472656 C 129.605469 66.445312 129.363281 66.433594 129.121094 66.4375 Z M 132.582031 74.511719 C 132.621094 74.511719 132.621094 74.703125 132.613281 76.445312 L 132.605469 78.394531 L 132.460938 78.679688 C 132.277344 79.050781 132.039062 79.382812 131.746094 79.671875 C 131.289062 80.144531 130.867188 80.445312 130.246094 80.738281 C 129.644531 81.023438 129.054688 81.199219 128.367188 81.285156 C 127.171875 81.441406 126.101562 81.140625 125.40625 80.449219 C 125.019531 80.066406 124.855469 79.714844 124.796875 79.160156 C 124.703125 78.253906 125.015625 77.589844 125.804688 77.019531 C 126.820312 76.289062 128.023438 75.8125 130.480469 75.160156 C 131.234375 74.960938 132.304688 74.628906 132.570312 74.515625 C 132.574219 74.511719 132.578125 74.511719 132.582031 74.511719 Z M 68.320312 66.585938 C 67.414062 66.585938 67.128906 66.609375 66.449219 66.75 C 64.917969 67.066406 63.5625 67.796875 62.4375 68.910156 C 60.808594 70.515625 59.929688 72.449219 59.832031 74.652344 C 59.71875 77.234375 60.628906 79.488281 62.539062 81.332031 C 63.574219 82.332031 64.835938 83 66.296875 83.320312 C 66.621094 83.394531 67.34375 83.496094 67.640625 83.511719 C 70.886719 83.691406 73.410156 82.535156 75.222656 80.03125 C 76.03125 78.917969 76.523438 77.695312 76.730469 76.289062 C 76.785156 75.925781 76.792969 75.75 76.792969 75.089844 C 76.792969 74.441406 76.785156 74.25 76.734375 73.878906 C 76.496094 72.203125 75.878906 70.832031 74.769531 69.511719 C 73.566406 68.078125 71.980469 67.121094 70.195312 66.75 C 69.511719 66.609375 69.226562 66.585938 68.320312 66.585938 Z M 68.320312 69.226562 C 69.113281 69.226562 69.582031 69.308594 70.273438 69.554688 C 71.222656 69.894531 72.195312 70.648438 72.882812 71.566406 C 73.5 72.390625 73.84375 73.234375 73.996094 74.296875 C 74.046875 74.664062 74.054688 75.46875 74.011719 75.835938 C 73.828125 77.3125 73.117188 78.679688 72.066406 79.578125 C 71.214844 80.300781 70.238281 80.734375 69.128906 80.871094 C 68.773438 80.914062 68.289062 80.9375 68.027344 80.925781 C 65.863281 80.8125 64.085938 79.644531 63.171875 77.734375 C 62.570312 76.488281 62.425781 75.035156 62.753906 73.644531 C 63.058594 72.367188 63.820312 71.21875 64.949219 70.335938 C 65.542969 69.878906 66.203125 69.558594 66.933594 69.378906 C 67.425781 69.257812 67.699219 69.226562 68.320312 69.226562 Z M 86.320312 66.574219 C 85.410156 66.578125 84.679688 66.691406 83.839844 66.941406 C 82.386719 67.378906 81.042969 68.289062 79.992188 69.539062 C 78.867188 70.886719 78.261719 72.253906 78.03125 73.960938 C 77.949219 74.59375 77.949219 75.570312 78.035156 76.207031 C 78.296875 78.152344 79.160156 79.847656 80.628906 81.285156 C 81.605469 82.230469 82.75 82.878906 84.070312 83.234375 C 84.597656 83.371094 85.136719 83.457031 85.832031 83.515625 C 86.117188 83.539062 87.308594 83.503906 87.632812 83.464844 C 89.132812 83.273438 90.367188 82.792969 91.472656 81.976562 C 93.070312 80.792969 94.28125 78.976562 94.722656 77.09375 C 94.894531 76.367188 94.941406 75.9375 94.941406 75.089844 C 94.941406 74.246094 94.894531 73.789062 94.726562 73.054688 C 94.15625 70.578125 92.316406 68.328125 90.023438 67.296875 C 88.972656 66.824219 87.980469 66.609375 86.71875 66.578125 C 86.582031 66.574219 86.449219 66.574219 86.320312 66.574219 Z M 86.457031 69.226562 C 87.066406 69.226562 87.339844 69.257812 87.835938 69.378906 C 88.234375 69.476562 88.390625 69.535156 88.789062 69.714844 C 89.390625 69.992188 89.894531 70.351562 90.4375 70.890625 C 91.421875 71.867188 91.972656 72.988281 92.148438 74.363281 C 92.203125 74.800781 92.1875 75.710938 92.121094 76.097656 C 91.828125 77.773438 90.925781 79.183594 89.605469 80.03125 C 88.863281 80.5 88.050781 80.785156 87.175781 80.886719 C 85.371094 81.082031 83.726562 80.554688 82.503906 79.386719 C 82.019531 78.925781 81.667969 78.4375 81.347656 77.789062 C 80.894531 76.886719 80.691406 75.933594 80.734375 74.925781 C 80.761719 74.214844 80.851562 73.707031 81.070312 73.082031 C 81.34375 72.28125 81.832031 71.527344 82.488281 70.878906 C 83.289062 70.082031 84.078125 69.625 85.078125 69.378906 C 85.574219 69.257812 85.847656 69.226562 86.457031 69.226562 Z M 96.660156 83.089844 C 96.476562 82.980469 96.488281 83.5 96.488281 76.339844 C 96.488281 69.832031 96.476562 68.804688 96.390625 68.234375 C 96.308594 67.691406 96.195312 67.488281 95.84375 67.261719 C 95.609375 67.109375 95.539062 66.976562 95.609375 66.808594 C 95.664062 66.675781 95.773438 66.601562 95.945312 66.582031 C 96.164062 66.554688 97.609375 66.617188 97.835938 66.664062 C 98.242188 66.75 98.472656 66.859375 98.6875 67.070312 C 99 67.382812 99.148438 67.824219 99.222656 68.695312 L 99.242188 68.910156 L 99.578125 68.5625 C 100.167969 67.949219 100.652344 67.582031 101.289062 67.269531 C 102.300781 66.765625 103.304688 66.539062 104.378906 66.574219 C 105.085938 66.601562 105.617188 66.703125 106.242188 66.929688 C 107.023438 67.21875 107.605469 67.597656 108.1875 68.199219 C 108.523438 68.542969 108.773438 68.90625 109.046875 69.453125 L 109.246094 69.847656 L 109.371094 69.660156 C 110.417969 68.09375 111.953125 67.03125 113.644531 66.691406 C 114.597656 66.503906 115.671875 66.535156 116.515625 66.777344 C 117.820312 67.148438 118.824219 67.90625 119.527344 69.054688 C 120.109375 70 120.386719 71.066406 120.527344 72.914062 C 120.554688 73.277344 120.5625 74.460938 120.554688 78.144531 C 120.550781 83.410156 120.566406 82.976562 120.375 83.09375 C 120.289062 83.144531 120.238281 83.148438 119.15625 83.140625 L 118.027344 83.132812 L 117.941406 83.050781 C 117.890625 83 117.851562 82.941406 117.828125 82.871094 C 117.8125 82.808594 117.800781 81.132812 117.800781 78.21875 C 117.800781 75.59375 117.789062 73.4375 117.773438 73.136719 C 117.699219 71.691406 117.546875 71.042969 117.160156 70.476562 C 116.753906 69.878906 116.058594 69.441406 115.25 69.277344 C 114.910156 69.207031 114.078125 69.207031 113.738281 69.277344 C 113.039062 69.417969 112.40625 69.707031 111.847656 70.144531 C 111.285156 70.582031 110.855469 71.121094 110.554688 71.765625 C 110.242188 72.421875 110.082031 73.101562 109.964844 74.308594 C 109.882812 75.128906 109.863281 76.003906 109.863281 79.410156 C 109.863281 83.191406 109.875 82.980469 109.691406 83.089844 C 109.605469 83.144531 109.554688 83.148438 108.503906 83.148438 C 107.464844 83.148438 107.402344 83.144531 107.320312 83.09375 C 107.132812 82.980469 107.144531 83.332031 107.144531 78.488281 C 107.144531 73.515625 107.125 72.726562 106.964844 71.808594 C 106.828125 71.03125 106.546875 70.476562 106.058594 70.023438 C 105.441406 69.453125 104.617188 69.175781 103.648438 69.21875 C 102.117188 69.285156 100.691406 70.230469 99.945312 71.671875 C 99.535156 72.472656 99.320312 73.472656 99.238281 75.035156 C 99.222656 75.308594 99.207031 77.171875 99.207031 79.1875 C 99.207031 83.214844 99.21875 82.980469 99.035156 83.089844 C 98.949219 83.144531 98.898438 83.148438 97.847656 83.148438 C 96.796875 83.148438 96.75 83.144531 96.660156 83.089844 Z M 137.339844 62.050781 L 137.339844 60.59375 L 136.199219 60.59375 L 136.199219 60.207031 L 138.917969 60.207031 L 138.917969 60.59375 L 137.78125 60.59375 L 137.78125 63.511719 L 137.339844 63.511719 Z M 139.308594 61.859375 L 139.308594 60.203125 L 139.957031 60.21875 L 140.429688 61.601562 C 140.691406 62.363281 140.90625 62.980469 140.910156 62.976562 C 140.914062 62.972656 141.128906 62.351562 141.386719 61.59375 L 141.855469 60.21875 L 142.179688 60.210938 L 142.5 60.203125 L 142.5 63.511719 L 142.054688 63.511719 L 142.054688 60.742188 L 141.589844 62.128906 L 141.128906 63.511719 L 140.679688 63.511719 L 140.21875 62.128906 L 139.753906 60.742188 L 139.753906 63.511719 L 139.308594 63.511719 Z M 139.308594 61.859375 " fill-opacity="1" fill-rule="nonzero"/></g></svg>