<svg xmlns="http://www.w3.org/2000/svg" xmlns:xlink="http://www.w3.org/1999/xlink" width="200" zoomAndPan="magnify" viewBox="0 0 150 149.999998" height="200" preserveAspectRatio="xMidYMid meet" version="1.0"><defs><clipPath id="46d99351c8"><path d="M 0 61.273438 L 35 61.273438 L 35 87 L 0 87 Z M 0 61.273438 " clip-rule="nonzero"/></clipPath><clipPath id="a1c89fd255"><path d="M 40 61.273438 L 149 61.273438 L 149 87 L 40 87 Z M 40 61.273438 " clip-rule="nonzero"/></clipPath><clipPath id="85210d91b0"><path d="M 79 61.273438 L 150 61.273438 L 150 89.023438 L 79 89.023438 Z M 79 61.273438 " clip-rule="nonzero"/></clipPath></defs><path fill="#000000" d="M 63.730469 66.371094 C 61.792969 66.371094 59.777344 66.902344 57.289062 68.253906 L 58.671875 71.710938 C 60.835938 70.492188 62.621094 69.957031 63.929688 69.957031 C 65.414062 69.957031 66.070312 70.515625 66.070312 71.253906 L 66.070312 71.304688 C 66.070312 71.8125 65.667969 72.09375 64.683594 72.195312 L 62.976562 72.375 C 58.699219 72.832031 56.9375 74.714844 56.9375 77.308594 L 56.9375 77.484375 C 56.9375 79.953125 58.949219 81.886719 61.792969 81.886719 C 63.664062 81.886719 65.289062 81.089844 66.277344 79.679688 L 66.597656 81.632812 L 70.472656 81.632812 L 70.472656 72.753906 C 70.472656 68.558594 68.082031 66.371094 63.730469 66.371094 M 63.351562 78.503906 C 61.917969 78.503906 61.238281 77.945312 61.238281 77.078125 L 61.238281 77.027344 C 61.238281 76.265625 61.664062 75.707031 63.226562 75.476562 L 63.90625 75.375 C 64.898438 75.234375 65.507812 75.050781 66.070312 74.707031 L 66.070312 75.832031 C 66.070312 77.539062 65.011719 78.503906 63.351562 78.503906 " fill-opacity="1" fill-rule="nonzero"/><g clip-path="url(#46d99351c8)"><path fill="#f04e23" d="M 27.296875 66.472656 L 22.34375 61.460938 L 17.386719 66.472656 L 19.851562 68.964844 L 7.421875 81.53125 L 12.378906 86.542969 L 17.335938 81.53125 L 14.871094 79.039062 Z M 0 74.027344 L 12.429688 61.460938 L 17.386719 66.472656 L 4.957031 79.039062 Z M 17.335938 81.53125 L 29.761719 68.964844 L 34.71875 73.976562 L 22.292969 86.542969 Z M 17.335938 81.53125 " fill-opacity="1" fill-rule="nonzero"/></g><g clip-path="url(#a1c89fd255)"><path fill="#000000" d="M 72.988281 61.28125 L 77.390625 61.28125 L 77.390625 81.632812 L 72.988281 81.632812 Z M 49.539062 66.371094 C 47.539062 66.371094 45.929688 67.265625 45.046875 68.667969 L 44.710938 66.625 L 40.835938 66.625 L 40.835938 86.71875 L 45.238281 86.71875 L 45.238281 79.753906 C 46.074219 81.058594 47.660156 81.886719 49.539062 81.886719 C 53.0625 81.886719 55.929688 78.730469 55.929688 74.382812 L 55.929688 73.871094 C 55.929688 69.523438 53.0625 66.371094 49.539062 66.371094 M 51.402344 74.257812 C 51.402344 76.546875 50.21875 78.199219 48.257812 78.199219 C 46.292969 78.199219 45.109375 76.546875 45.109375 74.257812 L 45.109375 74 C 45.109375 71.710938 46.292969 70.058594 48.257812 70.058594 C 50.21875 70.058594 51.402344 71.710938 51.402344 74 Z M 136.792969 66.371094 C 132.289062 66.371094 129.117188 69.523438 129.117188 73.875 L 129.117188 74.382812 C 129.117188 78.734375 132.289062 81.886719 136.792969 81.886719 C 141.292969 81.886719 144.464844 78.734375 144.464844 74.382812 L 144.464844 73.875 C 144.464844 69.523438 141.292969 66.371094 136.792969 66.371094 M 139.9375 74.257812 C 139.9375 76.546875 138.753906 78.199219 136.792969 78.199219 C 134.828125 78.199219 133.644531 76.546875 133.644531 74.257812 L 133.644531 74 C 133.644531 71.710938 134.828125 70.058594 136.792969 70.058594 C 138.753906 70.058594 139.9375 71.710938 139.9375 74 Z M 148.617188 67.285156 L 148.617188 67.210938 C 148.617188 66.777344 148.289062 66.472656 147.710938 66.472656 L 146.703125 66.472656 L 146.703125 68.8125 L 147.183594 68.8125 L 147.183594 68.023438 L 147.714844 68.023438 L 148.113281 68.8125 L 148.640625 68.8125 L 148.148438 67.886719 C 148.449219 67.792969 148.617188 67.566406 148.617188 67.285156 M 147.179688 66.90625 L 147.710938 66.90625 C 148.011719 66.90625 148.136719 67.007812 148.136719 67.234375 L 148.136719 67.261719 C 148.136719 67.464844 148.011719 67.589844 147.710938 67.589844 L 147.179688 67.589844 Z M 147.179688 66.90625 " fill-opacity="1" fill-rule="nonzero"/></g><g clip-path="url(#85210d91b0)"><path fill="#000000" d="M 147.609375 65.226562 C 146.25 65.226562 145.21875 66.269531 145.21875 67.640625 C 145.21875 69.015625 146.25 70.058594 147.609375 70.058594 C 148.96875 70.058594 150 69.015625 150 67.640625 C 150 66.269531 148.96875 65.226562 147.609375 65.226562 M 147.609375 69.726562 C 146.425781 69.726562 145.570312 68.863281 145.570312 67.640625 C 145.570312 66.417969 146.425781 65.554688 147.609375 65.554688 C 148.792969 65.554688 149.648438 66.417969 149.648438 67.640625 C 149.648438 68.863281 148.792969 69.726562 147.609375 69.726562 M 111.757812 61.28125 L 116.160156 61.28125 L 116.160156 81.632812 L 111.757812 81.632812 Z M 124.839844 78.199219 C 123.558594 78.199219 123.078125 77.5625 123.078125 76.191406 L 123.078125 70.058594 L 128.261719 70.058594 L 128.261719 66.625 L 123.078125 66.625 L 123.078125 63.191406 L 118.675781 63.851562 L 118.675781 76.621094 C 118.675781 80.105469 120.4375 81.886719 123.960938 81.886719 C 125.519531 81.886719 127.355469 81.402344 128.867188 80.539062 L 127.609375 77.382812 C 126.726562 77.867188 125.496094 78.199219 124.839844 78.199219 M 102.5 66.371094 C 100.5625 66.371094 98.550781 66.902344 96.058594 68.253906 L 97.441406 71.710938 C 99.605469 70.492188 101.390625 69.957031 102.699219 69.957031 C 104.183594 69.957031 104.839844 70.515625 104.839844 71.253906 L 104.839844 71.304688 C 104.839844 71.8125 104.4375 72.09375 103.457031 72.195312 L 101.746094 72.375 C 97.46875 72.832031 95.707031 74.714844 95.707031 77.308594 L 95.707031 77.484375 C 95.707031 79.953125 97.71875 81.886719 100.5625 81.886719 C 102.433594 81.886719 104.058594 81.089844 105.050781 79.679688 L 105.367188 81.632812 L 109.242188 81.632812 L 109.242188 72.753906 C 109.242188 68.558594 106.851562 66.371094 102.5 66.371094 M 102.121094 78.503906 C 100.6875 78.503906 100.007812 77.945312 100.007812 77.078125 L 100.007812 77.027344 C 100.007812 76.265625 100.4375 75.707031 101.996094 75.476562 L 102.675781 75.375 C 103.667969 75.234375 104.277344 75.050781 104.839844 74.707031 L 104.839844 75.832031 C 104.839844 77.539062 103.78125 78.503906 102.121094 78.503906 M 87.027344 66.371094 C 82.523438 66.371094 79.351562 69.523438 79.351562 73.875 L 79.351562 74.382812 C 79.351562 78.734375 82.523438 81.886719 87.027344 81.886719 C 91.53125 81.886719 94.699219 78.734375 94.699219 74.382812 L 94.699219 73.875 C 94.699219 69.523438 91.53125 66.371094 87.027344 66.371094 M 90.171875 74.257812 C 90.171875 76.546875 88.988281 78.199219 87.027344 78.199219 C 85.0625 78.199219 83.878906 76.546875 83.878906 74.257812 L 83.878906 74 C 83.878906 71.710938 85.0625 70.058594 87.027344 70.058594 C 88.988281 70.058594 90.171875 71.710938 90.171875 74 Z M 105.046875 85.242188 L 106.175781 85.242188 L 107.734375 87.316406 L 107.75 87.316406 L 107.75 85.242188 L 108.785156 85.242188 L 108.785156 88.902344 L 107.691406 88.902344 L 106.097656 86.773438 L 106.082031 86.773438 L 106.082031 88.902344 L 105.046875 88.902344 Z M 110.160156 85.242188 L 113.324219 85.242188 L 113.367188 86.128906 L 111.242188 86.128906 L 111.242188 86.632812 L 112.910156 86.632812 L 112.910156 87.445312 L 111.242188 87.445312 L 111.242188 88.015625 L 113.429688 88.015625 L 113.386719 88.902344 L 110.160156 88.902344 Z M 115.632812 86.183594 L 114.367188 86.183594 L 114.40625 85.242188 L 117.949219 85.242188 L 117.992188 86.183594 L 116.726562 86.183594 L 116.726562 88.902344 L 115.632812 88.902344 Z M 118.867188 85.242188 L 120.027344 85.242188 L 120.617188 87.785156 L 120.671875 87.785156 L 121.4375 85.242188 L 122.5 85.242188 L 123.25 87.785156 L 123.308594 87.785156 L 123.886719 85.242188 L 124.992188 85.242188 L 124.039062 88.902344 L 122.617188 88.902344 L 121.957031 86.695312 L 121.925781 86.695312 L 121.253906 88.902344 L 119.824219 88.902344 Z M 125.789062 87.074219 C 125.789062 85.878906 126.589844 85.132812 127.859375 85.132812 C 129.125 85.132812 129.929688 85.878906 129.929688 87.074219 C 129.929688 88.265625 129.128906 89.015625 127.859375 89.015625 C 126.589844 89.015625 125.789062 88.265625 125.789062 87.074219 M 128.847656 87.074219 C 128.847656 86.441406 128.484375 86.0625 127.859375 86.0625 C 127.230469 86.0625 126.871094 86.441406 126.871094 87.074219 C 126.871094 87.707031 127.230469 88.082031 127.851562 88.082031 C 128.480469 88.082031 128.847656 87.707031 128.847656 87.074219 M 131.101562 85.242188 L 133.214844 85.242188 C 134.175781 85.242188 134.648438 85.703125 134.648438 86.554688 C 134.648438 87.140625 134.410156 87.539062 133.945312 87.726562 L 134.804688 88.902344 L 133.570312 88.902344 L 132.90625 87.941406 L 132.191406 87.941406 L 132.191406 88.902344 L 131.101562 88.902344 Z M 133.074219 87.082031 C 133.4375 87.082031 133.566406 86.878906 133.566406 86.601562 C 133.566406 86.324219 133.4375 86.125 133.074219 86.125 L 132.1875 86.125 L 132.1875 87.082031 Z M 136.058594 85.242188 L 137.144531 85.242188 L 137.144531 86.589844 L 137.589844 86.589844 L 138.652344 85.242188 L 139.871094 85.242188 L 139.878906 85.246094 L 138.492188 87 L 139.953125 88.898438 L 139.949219 88.902344 L 138.683594 88.902344 L 137.585938 87.496094 L 137.144531 87.496094 L 137.144531 88.902344 L 136.058594 88.902344 Z M 140.789062 88.664062 L 140.789062 87.660156 L 140.792969 87.660156 C 141.398438 87.96875 141.988281 88.117188 142.5 88.117188 C 142.886719 88.117188 143.085938 88.023438 143.085938 87.839844 C 143.085938 87.65625 142.953125 87.609375 142.179688 87.484375 C 141.332031 87.347656 140.765625 87.09375 140.765625 86.355469 C 140.765625 85.667969 141.363281 85.140625 142.527344 85.140625 C 142.992188 85.140625 143.476562 85.242188 143.929688 85.433594 L 143.929688 86.429688 L 143.921875 86.433594 C 143.492188 86.183594 142.914062 86.023438 142.449219 86.023438 C 142.035156 86.023438 141.867188 86.125 141.867188 86.292969 C 141.867188 86.507812 142.121094 86.527344 142.757812 86.636719 C 143.605469 86.785156 144.171875 87.023438 144.171875 87.800781 C 144.171875 88.402344 143.726562 89.003906 142.449219 89.003906 C 141.816406 89.003906 141.316406 88.871094 140.789062 88.664062 " fill-opacity="1" fill-rule="nonzero"/></g></svg>