<svg xmlns="http://www.w3.org/2000/svg" xmlns:xlink="http://www.w3.org/1999/xlink" width="200" zoomAndPan="magnify" viewBox="0 0 150 149.999998" height="200" preserveAspectRatio="xMidYMid meet" version="1.0"><rect x="-15" width="180" fill="#ffffff" y="-15" height="179.999997" fill-opacity="1"/><path fill="#000000" d="M 26.648438 81.105469 L 26.578125 81.105469 L 25.296875 84.671875 L 24.796875 84.671875 C 24.722656 84.078125 24.648438 83.484375 24.582031 82.886719 C 24.511719 82.316406 24.441406 81.746094 24.300781 81.105469 C 24.226562 80.75 24.15625 80.679688 23.800781 80.679688 L 23.871094 80.464844 L 25.296875 80.464844 L 25.296875 80.679688 L 24.941406 80.679688 C 24.796875 80.824219 24.871094 81.035156 24.871094 81.179688 L 25.226562 84.171875 C 25.722656 82.960938 26.152344 81.675781 26.578125 80.464844 L 27.078125 80.464844 L 27.578125 84.171875 C 27.933594 83.246094 28.289062 82.316406 28.574219 81.394531 C 28.574219 81.25 28.648438 81.035156 28.648438 80.894531 C 28.648438 80.679688 28.503906 80.679688 28.289062 80.679688 L 28.289062 80.464844 L 29.429688 80.464844 L 29.429688 80.679688 C 29.144531 80.679688 29.074219 80.75 28.929688 81.175781 L 27.578125 84.667969 L 27.078125 84.667969 Z M 31.851562 82.746094 C 31.992188 83.886719 31.425781 84.738281 30.355469 84.738281 C 29.640625 84.738281 29.214844 84.457031 29.144531 83.742188 C 29 82.675781 29.640625 81.746094 30.640625 81.746094 C 31.28125 81.746094 31.851562 82.105469 31.851562 82.746094 Z M 29.640625 83.816406 C 29.640625 84.3125 29.925781 84.527344 30.355469 84.527344 C 31.210938 84.527344 31.425781 83.386719 31.351562 82.675781 C 31.351562 82.246094 31.140625 82.035156 30.640625 82.035156 C 29.785156 82.035156 29.570312 83.246094 29.640625 83.816406 Z M 33.417969 82.316406 C 33.632812 82.035156 33.84375 81.746094 34.203125 81.746094 C 34.417969 81.746094 34.628906 81.890625 34.628906 82.105469 C 34.699219 82.246094 34.699219 82.53125 34.558594 82.605469 L 34.34375 82.605469 C 34.203125 82.605469 34.203125 82.53125 34.203125 82.460938 C 34.203125 82.246094 34.273438 82.035156 33.988281 82.035156 C 33.703125 82.035156 33.417969 82.53125 33.417969 82.816406 L 33.277344 84.027344 L 33.277344 84.3125 C 33.347656 84.527344 33.703125 84.527344 33.773438 84.527344 L 33.773438 84.738281 C 33.5625 84.667969 33.277344 84.667969 33.0625 84.667969 C 32.847656 84.667969 32.5625 84.667969 32.347656 84.738281 L 32.347656 84.527344 C 32.777344 84.527344 32.777344 84.457031 32.847656 84.027344 L 32.992188 82.675781 L 32.992188 82.246094 C 32.992188 81.960938 32.847656 82.035156 32.5625 82.035156 L 32.5625 81.820312 L 33.488281 81.820312 Z M 36.199219 80.109375 L 35.839844 83.742188 C 35.769531 84.097656 35.839844 84.3125 35.839844 84.382812 C 35.914062 84.527344 35.984375 84.527344 36.269531 84.527344 L 36.199219 84.738281 C 35.984375 84.667969 35.769531 84.667969 35.484375 84.667969 C 35.269531 84.667969 35.054688 84.667969 34.84375 84.738281 L 34.84375 84.527344 C 35.269531 84.527344 35.269531 84.382812 35.34375 84.097656 L 35.34375 83.742188 L 35.769531 80.75 C 35.769531 80.394531 35.625 80.324219 35.269531 80.324219 L 34.988281 80.109375 Z M 39.332031 80.75 C 39.402344 80.324219 39.261719 80.324219 38.90625 80.324219 L 38.621094 80.109375 L 39.832031 80.109375 C 39.761719 80.679688 39.476562 83.816406 39.476562 83.816406 C 39.40625 84.527344 39.40625 84.457031 39.832031 84.527344 L 39.832031 84.742188 C 39.691406 84.742188 39.546875 84.742188 39.40625 84.671875 C 39.261719 84.742188 39.121094 84.742188 38.90625 84.742188 L 38.976562 84.242188 C 38.691406 84.597656 38.40625 84.742188 37.910156 84.742188 C 37.339844 84.742188 36.984375 84.386719 36.910156 83.816406 C 36.839844 82.886719 37.265625 81.75 38.335938 81.75 C 38.621094 81.75 38.976562 81.890625 39.191406 82.175781 Z M 38.121094 84.527344 C 38.976562 84.527344 39.191406 83.386719 39.121094 82.675781 C 39.046875 82.246094 38.835938 82.035156 38.40625 82.035156 C 37.550781 82.035156 37.410156 83.316406 37.480469 83.957031 C 37.480469 84.3125 37.765625 84.527344 38.121094 84.527344 Z M 41.828125 84.527344 C 42.398438 84.527344 42.398438 84.3125 42.398438 83.816406 L 42.683594 81.390625 C 42.753906 81.105469 42.753906 81.035156 42.753906 80.894531 C 42.683594 80.679688 42.46875 80.679688 42.253906 80.679688 L 42.253906 80.464844 L 43.894531 80.464844 L 43.824219 80.679688 C 43.253906 80.679688 43.324219 80.820312 43.253906 81.390625 L 42.898438 84.457031 L 43.964844 84.457031 C 44.535156 84.457031 44.605469 84.171875 44.75 83.457031 L 45.035156 83.457031 C 45.035156 83.886719 44.964844 84.3125 44.964844 84.738281 C 44.25 84.738281 43.609375 84.738281 42.898438 84.667969 C 42.542969 84.738281 42.183594 84.738281 41.828125 84.738281 Z M 46.316406 83.246094 C 46.246094 83.457031 46.246094 83.671875 46.246094 83.957031 C 46.316406 84.3125 46.53125 84.597656 46.957031 84.597656 C 47.386719 84.597656 47.601562 84.3125 47.671875 83.957031 C 47.742188 83.816406 47.742188 83.886719 47.8125 83.816406 L 48.027344 83.816406 C 48.097656 83.816406 48.097656 83.816406 48.097656 83.957031 C 47.957031 84.527344 47.386719 84.742188 46.886719 84.742188 C 46.175781 84.742188 45.816406 84.457031 45.746094 83.742188 C 45.746094 83.316406 45.820312 82.746094 46.105469 82.390625 C 46.316406 81.960938 46.746094 81.820312 47.171875 81.820312 C 47.742188 81.820312 48.242188 81.964844 48.242188 82.605469 C 48.3125 82.746094 48.242188 82.960938 48.242188 83.101562 L 48.242188 83.246094 Z M 47.8125 83.03125 L 47.8125 82.601562 C 47.8125 82.246094 47.597656 81.960938 47.242188 81.960938 C 46.601562 81.960938 46.460938 82.460938 46.316406 83.03125 Z M 51.089844 81.820312 L 51.589844 81.820312 L 51.304688 84.242188 C 51.304688 84.457031 51.304688 84.457031 51.734375 84.527344 L 51.734375 84.738281 C 51.589844 84.738281 51.375 84.738281 51.234375 84.667969 C 51.09375 84.738281 50.949219 84.738281 50.808594 84.738281 L 50.878906 84.3125 L 50.808594 84.3125 C 50.59375 84.667969 50.308594 84.738281 49.882812 84.738281 C 49.3125 84.738281 48.953125 84.382812 48.953125 83.816406 C 48.882812 83.101562 49.167969 81.746094 50.308594 81.820312 C 50.59375 81.820312 50.878906 81.890625 51.09375 82.175781 L 51.09375 81.820312 Z M 49.453125 83.816406 C 49.453125 84.171875 49.59375 84.527344 50.023438 84.527344 C 50.878906 84.527344 51.019531 83.171875 50.949219 82.601562 C 50.949219 82.246094 50.734375 81.960938 50.378906 81.960938 C 49.59375 81.960938 49.382812 83.171875 49.453125 83.816406 Z M 54.726562 80.75 C 54.796875 80.394531 54.65625 80.324219 54.296875 80.324219 L 54.011719 80.109375 L 55.226562 80.109375 C 55.226562 80.609375 55.152344 81.105469 55.082031 81.535156 L 54.867188 83.816406 C 54.796875 84.527344 54.796875 84.457031 55.226562 84.527344 L 55.226562 84.742188 C 55.082031 84.742188 54.9375 84.742188 54.796875 84.671875 C 54.65625 84.742188 54.511719 84.742188 54.371094 84.742188 L 54.441406 84.242188 L 54.371094 84.242188 C 54.15625 84.597656 53.800781 84.742188 53.300781 84.742188 C 52.730469 84.742188 52.375 84.386719 52.375 83.816406 C 52.230469 82.886719 52.660156 81.820312 53.726562 81.820312 C 54.011719 81.820312 54.371094 81.890625 54.582031 82.175781 Z M 53.515625 84.527344 C 54.371094 84.527344 54.582031 83.386719 54.511719 82.675781 C 54.441406 82.246094 54.226562 82.035156 53.800781 82.035156 C 52.945312 82.035156 52.800781 83.316406 52.875 83.957031 C 52.875 84.3125 53.160156 84.527344 53.515625 84.527344 Z M 56.292969 83.246094 L 56.292969 83.957031 C 56.292969 84.3125 56.578125 84.597656 56.933594 84.597656 C 57.363281 84.597656 57.578125 84.3125 57.71875 83.957031 C 57.789062 83.816406 57.71875 83.886719 57.789062 83.816406 L 58.003906 83.816406 C 58.074219 83.816406 58.074219 83.886719 58.074219 83.957031 C 58.003906 84.527344 57.363281 84.742188 56.863281 84.742188 C 56.152344 84.742188 55.867188 84.457031 55.792969 83.742188 C 55.722656 83.316406 55.867188 82.746094 56.078125 82.390625 C 56.292969 81.960938 56.71875 81.820312 57.21875 81.820312 C 57.789062 81.820312 58.21875 81.964844 58.289062 82.605469 C 58.289062 82.746094 58.289062 82.960938 58.21875 83.101562 L 58.21875 83.246094 Z M 57.789062 83.03125 C 57.789062 82.886719 57.859375 82.746094 57.789062 82.601562 C 57.789062 82.246094 57.648438 81.960938 57.292969 81.960938 C 56.648438 81.960938 56.4375 82.460938 56.367188 83.03125 Z M 59.714844 82.316406 L 59.785156 82.316406 C 59.929688 82.035156 60.140625 81.820312 60.496094 81.820312 C 60.78125 81.820312 60.996094 81.890625 60.996094 82.105469 C 60.996094 82.246094 60.996094 82.601562 60.855469 82.601562 L 60.640625 82.601562 C 60.496094 82.601562 60.496094 82.53125 60.496094 82.460938 C 60.570312 82.246094 60.640625 82.03125 60.355469 82.03125 C 60 82.03125 59.785156 82.53125 59.785156 82.816406 L 59.640625 84.027344 L 59.640625 84.3125 C 59.640625 84.527344 60 84.527344 60.140625 84.527344 L 60.140625 84.738281 L 58.644531 84.738281 L 58.644531 84.527344 C 59.070312 84.527344 59.070312 84.453125 59.144531 84.027344 L 59.285156 82.671875 C 59.359375 82.460938 59.359375 82.316406 59.359375 82.246094 C 59.285156 81.960938 59.144531 82.03125 58.859375 82.03125 L 58.859375 81.820312 L 59.855469 81.820312 Z M 63.632812 81.820312 L 63.277344 84.3125 C 63.277344 84.457031 63.492188 84.527344 63.777344 84.527344 L 63.707031 84.738281 L 62.28125 84.738281 L 62.351562 84.527344 C 62.707031 84.527344 62.777344 84.527344 62.851562 84.097656 L 63.0625 82.460938 C 63.0625 82.316406 63.0625 82.175781 62.992188 82.105469 C 62.921875 82.035156 62.707031 82.035156 62.566406 82.035156 L 62.566406 81.820312 Z M 63.136719 80.894531 C 63.136719 80.679688 63.207031 80.394531 63.492188 80.394531 C 63.632812 80.394531 63.777344 80.535156 63.777344 80.679688 C 63.847656 80.890625 63.707031 81.175781 63.492188 81.175781 C 63.277344 81.175781 63.136719 81.035156 63.136719 80.894531 Z M 65.558594 82.316406 C 65.773438 81.960938 66.199219 81.820312 66.625 81.820312 C 66.984375 81.820312 67.484375 81.960938 67.410156 82.601562 L 67.199219 84.097656 L 67.199219 84.382812 C 67.199219 84.527344 67.339844 84.527344 67.625 84.527344 L 67.625 84.738281 L 66.628906 84.738281 L 66.914062 82.460938 C 66.914062 82.246094 66.628906 82.105469 66.414062 82.105469 C 66.058594 82.105469 65.558594 82.316406 65.488281 82.816406 L 65.34375 84.097656 L 65.34375 84.3125 C 65.414062 84.527344 65.628906 84.527344 65.773438 84.527344 L 65.773438 84.738281 L 64.347656 84.738281 L 64.347656 84.527344 L 64.488281 84.527344 C 64.84375 84.527344 64.84375 84.382812 64.917969 84.097656 L 65.058594 82.457031 C 65.128906 82.101562 64.988281 82.03125 64.632812 82.03125 L 64.632812 81.816406 L 65.628906 81.816406 Z M 72.828125 84.527344 C 72.542969 84.671875 71.613281 84.738281 71.328125 84.738281 C 70.261719 84.738281 69.691406 84.3125 69.621094 83.242188 C 69.546875 82.675781 69.621094 81.890625 69.90625 81.390625 C 70.332031 80.679688 70.902344 80.394531 71.757812 80.394531 C 72.328125 80.394531 72.683594 80.464844 73.253906 80.605469 L 73.183594 81.605469 L 72.828125 81.605469 C 72.753906 81.175781 72.96875 80.605469 71.902344 80.605469 C 71.257812 80.605469 70.761719 80.820312 70.476562 81.390625 C 70.261719 81.890625 70.117188 82.816406 70.191406 83.386719 C 70.261719 84.167969 70.6875 84.527344 71.472656 84.527344 C 72.257812 84.527344 72.542969 84.167969 72.613281 83.457031 L 72.96875 83.457031 Z M 76.390625 82.746094 C 76.460938 83.886719 75.960938 84.738281 74.820312 84.738281 C 74.179688 84.738281 73.683594 84.457031 73.609375 83.742188 C 73.539062 82.675781 74.109375 81.820312 75.179688 81.820312 C 75.75 81.820312 76.316406 82.105469 76.390625 82.746094 Z M 74.109375 83.816406 C 74.179688 84.3125 74.394531 84.597656 74.820312 84.597656 C 75.675781 84.597656 75.960938 83.386719 75.890625 82.746094 C 75.820312 82.246094 75.605469 82.035156 75.179688 82.035156 C 74.253906 82.035156 74.039062 83.316406 74.109375 83.816406 Z M 77.957031 82.246094 L 77.957031 82.316406 C 78.171875 81.960938 78.527344 81.820312 78.957031 81.820312 C 79.238281 81.820312 79.597656 81.890625 79.667969 82.246094 C 79.953125 81.960938 80.382812 81.820312 80.738281 81.820312 C 81.164062 81.820312 81.519531 81.960938 81.449219 82.53125 L 81.304688 84.097656 L 81.304688 84.3125 C 81.304688 84.527344 81.519531 84.527344 81.734375 84.527344 L 81.734375 84.738281 L 80.734375 84.738281 L 80.949219 82.886719 C 81.019531 82.53125 81.019531 82.03125 80.519531 82.03125 C 79.953125 82.03125 79.738281 82.386719 79.667969 82.886719 L 79.523438 84.097656 L 79.523438 84.3125 C 79.59375 84.527344 79.734375 84.527344 79.949219 84.527344 L 79.949219 84.738281 L 78.523438 84.738281 L 78.523438 84.527344 C 78.953125 84.527344 78.953125 84.453125 79.027344 84.097656 L 79.167969 82.957031 C 79.238281 82.601562 79.382812 82.03125 78.738281 82.03125 C 78.171875 82.03125 77.957031 82.457031 77.886719 82.957031 L 77.742188 84.097656 L 77.742188 84.3125 C 77.8125 84.597656 78.027344 84.523438 78.167969 84.523438 L 78.167969 84.738281 L 76.742188 84.738281 L 76.742188 84.523438 C 77.171875 84.523438 77.242188 84.453125 77.3125 84.097656 L 77.457031 82.457031 C 77.527344 82.101562 77.3125 82.03125 77.03125 82.03125 L 77.03125 81.816406 L 77.953125 81.816406 L 77.953125 82.246094 Z M 83.515625 82.246094 L 83.515625 82.316406 C 83.730469 81.960938 84.15625 81.820312 84.511719 81.820312 C 84.867188 81.820312 85.15625 81.890625 85.296875 82.246094 C 85.511719 81.960938 85.9375 81.820312 86.292969 81.820312 C 86.722656 81.820312 87.078125 81.960938 87.078125 82.53125 L 86.863281 84.097656 L 86.863281 84.3125 C 86.863281 84.527344 87.078125 84.527344 87.292969 84.527344 L 87.292969 84.738281 L 86.292969 84.738281 L 86.507812 82.886719 C 86.582031 82.53125 86.648438 82.03125 86.078125 82.03125 C 85.507812 82.03125 85.296875 82.386719 85.226562 82.886719 L 85.082031 84.097656 L 85.082031 84.3125 C 85.152344 84.527344 85.296875 84.527344 85.507812 84.527344 L 85.507812 84.738281 L 84.085938 84.738281 L 84.15625 84.527344 C 84.511719 84.527344 84.585938 84.453125 84.65625 84.097656 L 84.726562 82.957031 C 84.796875 82.601562 84.941406 82.03125 84.371094 82.03125 C 83.730469 82.03125 83.515625 82.457031 83.445312 82.957031 L 83.375 84.097656 C 83.300781 84.167969 83.300781 84.238281 83.300781 84.3125 C 83.375 84.597656 83.585938 84.523438 83.730469 84.523438 L 83.730469 84.738281 L 82.304688 84.738281 L 82.375 84.523438 C 82.730469 84.523438 82.804688 84.453125 82.875 84.097656 L 83.085938 82.457031 C 83.085938 82.101562 82.875 82.03125 82.589844 82.03125 L 82.589844 81.886719 L 83.585938 81.886719 Z M 88.644531 83.816406 L 88.644531 84.097656 C 88.644531 84.382812 88.933594 84.527344 89.144531 84.527344 C 89.785156 84.527344 90 84.171875 90.070312 83.527344 L 90.214844 82.316406 C 90.214844 82.035156 89.929688 82.035156 89.714844 82.035156 L 89.785156 81.820312 C 89.929688 81.820312 90.070312 81.820312 90.214844 81.890625 C 90.425781 81.820312 90.570312 81.820312 90.714844 81.820312 L 90.429688 84.242188 C 90.429688 84.597656 90.714844 84.527344 90.929688 84.527344 L 90.929688 84.738281 L 89.929688 84.738281 L 90 84.242188 C 89.785156 84.597656 89.359375 84.738281 88.859375 84.738281 C 88.574219 84.738281 88.21875 84.667969 88.148438 84.242188 C 88.148438 84.027344 88.148438 83.957031 88.21875 83.742188 L 88.363281 82.246094 C 88.363281 82.03125 88.148438 82.03125 87.933594 82.03125 L 87.933594 81.820312 C 88.078125 81.820312 88.21875 81.820312 88.433594 81.890625 C 88.578125 81.820312 88.71875 81.820312 88.933594 81.820312 Z M 92.636719 82.316406 C 92.851562 81.960938 93.277344 81.820312 93.707031 81.820312 C 94.0625 81.820312 94.5625 81.960938 94.492188 82.601562 L 94.277344 84.097656 L 94.277344 84.382812 C 94.277344 84.527344 94.417969 84.527344 94.707031 84.527344 L 94.707031 84.738281 L 93.707031 84.738281 L 93.992188 82.460938 C 93.992188 82.246094 93.707031 82.105469 93.492188 82.105469 C 93.136719 82.105469 92.636719 82.316406 92.566406 82.816406 L 92.421875 84.097656 L 92.421875 84.3125 C 92.496094 84.527344 92.707031 84.527344 92.851562 84.527344 L 92.851562 84.738281 L 91.425781 84.738281 L 91.425781 84.527344 L 91.570312 84.527344 C 91.925781 84.527344 91.925781 84.382812 91.996094 84.097656 L 92.140625 82.457031 C 92.210938 82.101562 92.066406 82.03125 91.710938 82.03125 L 91.710938 81.886719 L 92.710938 81.886719 Z M 96.484375 81.890625 L 96.199219 84.3125 C 96.199219 84.527344 96.34375 84.527344 96.628906 84.527344 L 96.628906 84.738281 L 95.203125 84.738281 L 95.203125 84.527344 C 95.628906 84.527344 95.703125 84.527344 95.773438 84.097656 L 95.917969 82.460938 C 95.917969 82.316406 95.984375 82.246094 95.917969 82.105469 C 95.773438 82.03125 95.628906 82.03125 95.488281 82.03125 L 95.488281 81.890625 Z M 96.058594 80.894531 C 96.058594 80.679688 96.128906 80.394531 96.414062 80.394531 C 96.558594 80.394531 96.699219 80.535156 96.699219 80.679688 C 96.699219 80.890625 96.628906 81.175781 96.34375 81.175781 C 96.164062 81.164062 96.070312 81.070312 96.058594 80.894531 Z M 99.40625 82.746094 L 99.40625 82.460938 C 99.40625 82.246094 99.335938 82.035156 98.835938 82.035156 C 97.910156 81.960938 97.769531 83.101562 97.769531 83.816406 C 97.839844 84.242188 97.910156 84.597656 98.480469 84.597656 C 98.910156 84.597656 99.121094 84.3125 99.265625 83.957031 C 99.265625 83.886719 99.335938 83.816406 99.335938 83.816406 L 99.550781 83.816406 C 99.621094 83.816406 99.621094 83.886719 99.621094 83.957031 C 99.40625 84.527344 99.050781 84.8125 98.410156 84.8125 C 97.769531 84.8125 97.339844 84.527344 97.269531 83.886719 C 97.269531 83.53125 97.269531 83.175781 97.339844 82.816406 C 97.554688 82.105469 98.054688 81.820312 98.835938 81.820312 C 99.121094 81.820312 99.480469 81.890625 99.835938 82.035156 L 99.691406 82.746094 Z M 102.542969 81.890625 L 102.96875 81.890625 L 102.683594 84.242188 C 102.683594 84.453125 102.757812 84.527344 103.183594 84.527344 L 103.113281 84.738281 L 102.1875 84.738281 L 102.257812 84.3125 C 102.042969 84.667969 101.757812 84.8125 101.332031 84.8125 C 100.691406 84.8125 100.40625 84.453125 100.335938 83.8125 C 100.261719 83.101562 100.617188 81.746094 101.6875 81.820312 C 102.042969 81.820312 102.257812 81.890625 102.472656 82.175781 Z M 100.832031 83.816406 C 100.902344 84.171875 101.046875 84.597656 101.472656 84.597656 C 102.328125 84.597656 102.398438 83.246094 102.398438 82.605469 C 102.328125 82.246094 102.1875 82.035156 101.757812 82.035156 C 100.976562 82.035156 100.761719 83.171875 100.832031 83.816406 Z M 105.535156 81.890625 L 105.535156 82.105469 L 104.824219 82.105469 L 104.609375 83.957031 C 104.609375 84.167969 104.609375 84.457031 104.894531 84.457031 C 105.109375 84.457031 105.25 84.242188 105.394531 84.097656 L 105.464844 84.242188 C 105.253906 84.597656 104.894531 84.8125 104.539062 84.8125 C 104.324219 84.8125 104.183594 84.667969 104.113281 84.457031 C 104.113281 84.382812 104.113281 84.171875 104.183594 84.027344 L 104.394531 82.105469 L 103.828125 82.105469 L 103.828125 81.890625 L 104.394531 81.890625 L 104.539062 80.894531 L 105.039062 80.75 L 104.894531 81.890625 Z M 107.316406 81.890625 L 107.03125 84.3125 C 107.03125 84.527344 107.175781 84.527344 107.460938 84.527344 L 107.460938 84.738281 L 106.035156 84.738281 L 106.035156 84.527344 C 106.390625 84.527344 106.535156 84.527344 106.535156 84.097656 L 106.746094 82.460938 C 106.746094 82.316406 106.746094 82.246094 106.675781 82.105469 C 106.605469 82.03125 106.390625 82.03125 106.25 82.03125 L 106.320312 81.890625 Z M 106.820312 80.894531 C 106.820312 80.679688 106.960938 80.464844 107.175781 80.464844 C 107.316406 80.464844 107.460938 80.535156 107.53125 80.679688 C 107.53125 80.890625 107.386719 81.175781 107.175781 81.175781 C 107.03125 81.175781 106.890625 81.035156 106.820312 80.894531 Z M 110.878906 82.746094 C 110.953125 83.886719 110.453125 84.8125 109.382812 84.8125 C 108.671875 84.8125 108.171875 84.457031 108.101562 83.742188 C 108.03125 82.746094 108.601562 81.820312 109.667969 81.820312 C 110.238281 81.820312 110.808594 82.105469 110.878906 82.746094 Z M 108.601562 83.816406 C 108.671875 84.3125 108.886719 84.597656 109.382812 84.597656 C 110.167969 84.597656 110.453125 83.386719 110.382812 82.746094 C 110.3125 82.246094 110.097656 82.035156 109.667969 82.035156 C 108.742188 82.035156 108.53125 83.316406 108.601562 83.816406 Z M 112.449219 82.316406 C 112.734375 81.960938 113.089844 81.820312 113.589844 81.820312 C 113.945312 81.820312 114.371094 81.960938 114.300781 82.601562 L 114.15625 84.097656 L 114.15625 84.382812 C 114.15625 84.597656 114.300781 84.527344 114.585938 84.527344 L 114.585938 84.738281 L 113.585938 84.738281 L 113.871094 82.460938 C 113.871094 82.246094 113.585938 82.105469 113.304688 82.105469 C 113.015625 82.105469 112.519531 82.316406 112.445312 82.816406 L 112.304688 84.097656 L 112.304688 84.3125 C 112.375 84.597656 112.589844 84.527344 112.734375 84.527344 L 112.734375 84.738281 L 111.308594 84.738281 L 111.308594 84.527344 L 111.449219 84.527344 C 111.804688 84.527344 111.804688 84.382812 111.878906 84.097656 L 112.019531 82.457031 C 112.09375 82.101562 111.949219 82.03125 111.59375 82.03125 L 111.59375 81.886719 L 112.589844 81.886719 Z M 122.851562 82.246094 L 122.925781 81.320312 C 122.996094 81.035156 122.996094 80.964844 122.996094 80.820312 C 122.996094 80.609375 122.710938 80.609375 122.496094 80.609375 L 122.496094 80.394531 L 124.136719 80.394531 L 124.136719 80.609375 C 123.566406 80.609375 123.566406 80.75 123.496094 81.320312 L 123.210938 83.671875 L 123.210938 84.171875 C 123.210938 84.382812 123.421875 84.382812 123.707031 84.457031 L 123.707031 84.667969 C 123.425781 84.667969 123.136719 84.667969 122.855469 84.597656 C 122.566406 84.667969 122.351562 84.667969 122.070312 84.667969 L 122.070312 84.457031 C 122.640625 84.382812 122.640625 84.242188 122.710938 83.671875 L 122.78125 82.53125 L 120.644531 82.53125 L 120.5 83.671875 C 120.429688 83.957031 120.429688 84.097656 120.429688 84.171875 C 120.5 84.382812 120.714844 84.382812 121 84.457031 L 120.929688 84.667969 C 120.644531 84.667969 120.429688 84.667969 120.144531 84.597656 C 119.859375 84.667969 119.574219 84.667969 119.289062 84.667969 L 119.359375 84.457031 C 119.929688 84.382812 119.859375 84.242188 119.929688 83.671875 L 120.214844 81.320312 C 120.285156 81.035156 120.285156 80.964844 120.285156 80.820312 C 120.214844 80.609375 120 80.609375 119.71875 80.609375 L 119.789062 80.394531 L 121.425781 80.394531 L 121.355469 80.609375 C 120.785156 80.609375 120.855469 80.75 120.785156 81.320312 L 120.644531 82.246094 Z M 124.847656 83.171875 C 124.847656 83.386719 124.777344 83.601562 124.847656 83.816406 C 124.847656 84.242188 125.0625 84.527344 125.488281 84.527344 C 125.917969 84.527344 126.128906 84.242188 126.273438 83.886719 C 126.273438 83.742188 126.273438 83.816406 126.34375 83.742188 L 126.558594 83.742188 C 126.628906 83.742188 126.628906 83.742188 126.628906 83.886719 C 126.558594 84.457031 125.917969 84.671875 125.417969 84.671875 C 124.707031 84.671875 124.421875 84.386719 124.347656 83.671875 C 124.277344 83.246094 124.421875 82.675781 124.632812 82.316406 C 124.847656 81.890625 125.277344 81.675781 125.773438 81.675781 C 126.273438 81.675781 126.769531 81.890625 126.84375 82.53125 C 126.84375 82.675781 126.84375 82.886719 126.769531 83.03125 L 126.769531 83.175781 L 124.847656 83.175781 Z M 126.34375 82.957031 L 126.34375 82.53125 C 126.34375 82.175781 126.199219 81.890625 125.773438 81.890625 C 125.203125 81.890625 124.988281 82.390625 124.917969 82.957031 Z M 129.550781 81.746094 L 129.980469 81.746094 L 129.695312 84.171875 C 129.695312 84.382812 129.765625 84.382812 130.195312 84.457031 L 130.121094 84.667969 C 129.980469 84.667969 129.835938 84.667969 129.695312 84.597656 C 129.550781 84.667969 129.335938 84.667969 129.195312 84.667969 L 129.265625 84.242188 C 129.054688 84.597656 128.765625 84.667969 128.339844 84.667969 C 127.699219 84.667969 127.414062 84.3125 127.34375 83.742188 C 127.269531 83.03125 127.628906 81.675781 128.695312 81.675781 C 129.054688 81.675781 129.265625 81.820312 129.480469 82.105469 Z M 127.839844 83.742188 C 127.914062 84.097656 128.054688 84.457031 128.480469 84.457031 C 129.335938 84.457031 129.40625 83.101562 129.40625 82.53125 C 129.335938 82.175781 129.195312 81.890625 128.765625 81.890625 C 127.984375 81.890625 127.769531 83.101562 127.839844 83.742188 Z M 134.539062 83.742188 L 134.824219 83.742188 L 134.824219 84.097656 C 134.894531 84.382812 135.109375 84.527344 135.394531 84.527344 C 135.75 84.527344 136.105469 84.3125 136.035156 83.886719 C 136.035156 83.527344 135.75 83.457031 135.464844 83.457031 C 135.039062 83.316406 134.683594 83.171875 134.683594 82.675781 C 134.609375 82.035156 135.179688 81.746094 135.75 81.746094 C 136.035156 81.746094 136.320312 81.746094 136.605469 81.890625 C 136.535156 82.105469 136.535156 82.316406 136.535156 82.605469 L 136.179688 82.605469 C 136.25 82.460938 136.25 82.390625 136.25 82.246094 C 136.179688 82.035156 135.894531 81.890625 135.679688 81.890625 C 135.394531 81.890625 135.039062 82.105469 135.109375 82.460938 C 135.183594 83.246094 136.394531 82.746094 136.464844 83.742188 C 136.535156 84.457031 135.894531 84.667969 135.324219 84.667969 C 135.039062 84.667969 134.683594 84.667969 134.46875 84.527344 Z M 137.746094 83.171875 C 137.675781 83.386719 137.675781 83.601562 137.675781 83.886719 C 137.746094 84.242188 137.960938 84.527344 138.386719 84.527344 C 138.816406 84.527344 138.957031 84.242188 139.101562 83.886719 C 139.171875 83.742188 139.101562 83.816406 139.171875 83.742188 L 139.382812 83.742188 C 139.457031 83.742188 139.527344 83.816406 139.457031 83.886719 C 139.382812 84.457031 138.816406 84.671875 138.246094 84.671875 C 137.53125 84.671875 137.246094 84.386719 137.175781 83.671875 C 137.105469 83.246094 137.246094 82.675781 137.460938 82.316406 C 137.746094 81.890625 138.101562 81.75 138.601562 81.75 C 139.171875 81.75 139.597656 81.890625 139.671875 82.53125 L 139.671875 83.175781 L 137.746094 83.175781 Z M 139.171875 82.957031 C 139.171875 82.816406 139.242188 82.675781 139.242188 82.53125 C 139.171875 82.175781 139.03125 81.890625 138.671875 81.890625 C 138.03125 81.890625 137.816406 82.390625 137.746094 82.957031 Z M 141.878906 81.746094 L 141.808594 82.035156 L 141.167969 82.035156 L 140.953125 83.886719 C 140.953125 84.097656 140.882812 84.386719 141.167969 84.386719 C 141.378906 84.386719 141.59375 84.171875 141.664062 84.027344 L 141.808594 84.171875 C 141.59375 84.527344 141.238281 84.671875 140.8125 84.671875 C 140.597656 84.671875 140.453125 84.601562 140.453125 84.3125 C 140.382812 84.242188 140.453125 84.03125 140.453125 83.957031 L 140.667969 82.035156 L 140.097656 82.035156 L 140.171875 81.75 L 140.667969 81.75 L 140.8125 80.824219 L 141.3125 80.679688 L 141.167969 81.75 L 141.878906 81.75 Z M 142.308594 83.742188 L 142.589844 83.742188 L 142.589844 84.097656 C 142.664062 84.382812 142.949219 84.527344 143.160156 84.527344 C 143.589844 84.527344 143.875 84.3125 143.800781 83.886719 C 143.800781 83.527344 143.519531 83.457031 143.234375 83.457031 C 142.804688 83.316406 142.449219 83.171875 142.449219 82.675781 C 142.375 82.035156 142.949219 81.746094 143.519531 81.746094 C 143.800781 81.746094 144.089844 81.746094 144.371094 81.890625 C 144.371094 82.105469 144.300781 82.316406 144.300781 82.605469 L 144.015625 82.605469 L 144.015625 82.246094 C 144.015625 82.035156 143.730469 81.890625 143.519531 81.890625 C 143.160156 81.890625 142.878906 82.105469 142.878906 82.53125 C 142.949219 83.246094 144.160156 82.746094 144.300781 83.742188 C 144.300781 84.457031 143.660156 84.671875 143.089844 84.671875 C 142.878906 84.671875 142.449219 84.671875 142.234375 84.527344 Z M 115.300781 83.742188 L 115.582031 83.742188 L 115.582031 84.171875 C 115.582031 84.457031 115.867188 84.597656 116.152344 84.597656 C 116.332031 84.601562 116.480469 84.539062 116.605469 84.410156 C 116.734375 84.285156 116.792969 84.136719 116.792969 83.957031 C 116.722656 83.601562 116.4375 83.527344 116.152344 83.457031 C 115.796875 83.386719 115.441406 83.246094 115.371094 82.746094 C 115.371094 82.105469 115.867188 81.746094 116.4375 81.746094 C 116.722656 81.746094 117.007812 81.820312 117.292969 81.890625 C 117.292969 82.175781 117.222656 82.390625 117.222656 82.675781 L 116.9375 82.675781 L 116.9375 82.316406 C 116.9375 82.035156 116.652344 81.960938 116.4375 81.960938 C 116.082031 81.960938 115.796875 82.175781 115.796875 82.53125 C 115.867188 83.316406 117.152344 82.816406 117.222656 83.742188 C 117.292969 84.457031 116.652344 84.742188 116.011719 84.742188 C 115.796875 84.742188 115.371094 84.742188 115.15625 84.597656 Z M 133.183594 80.679688 C 133.257812 80.324219 133.113281 80.253906 132.757812 80.253906 L 132.472656 80.039062 L 133.683594 80.039062 C 133.613281 80.609375 133.613281 81.035156 133.542969 81.464844 L 133.328125 83.742188 C 133.257812 84.457031 133.257812 84.386719 133.683594 84.457031 L 133.683594 84.671875 L 132.757812 84.671875 L 132.828125 84.171875 C 132.542969 84.527344 132.257812 84.671875 131.757812 84.671875 C 131.191406 84.671875 130.835938 84.3125 130.761719 83.742188 C 130.691406 82.816406 131.046875 81.75 132.117188 81.75 C 132.472656 81.75 132.828125 81.820312 133.042969 82.105469 Z M 131.902344 84.457031 C 132.828125 84.457031 132.972656 83.316406 132.972656 82.601562 C 132.902344 82.246094 132.617188 81.960938 132.257812 81.960938 C 131.402344 81.960938 131.261719 83.242188 131.261719 83.886719 C 131.332031 84.242188 131.617188 84.457031 131.902344 84.457031 Z M 2.207031 83.386719 C 3.84375 84.097656 5.625 84.457031 7.550781 84.457031 C 15.175781 84.457031 21.304688 78.328125 21.304688 70.773438 C 21.304688 68.847656 20.875 66.996094 20.164062 65.355469 L 11.328125 65.355469 C 13.039062 66.566406 14.105469 68.492188 14.105469 70.773438 C 14.105469 74.335938 11.183594 77.328125 7.550781 77.328125 C 5.339844 77.328125 3.417969 76.1875 2.207031 74.550781 Z M 2.207031 83.386719 " fill-opacity="1" fill-rule="evenodd"/><path fill="#58a8d2" d="M 7.550781 76.117188 C 4.628906 76.117188 2.207031 73.695312 2.207031 70.773438 C 2.207031 67.78125 4.628906 65.355469 7.550781 65.355469 C 10.542969 65.355469 12.894531 67.78125 12.894531 70.773438 C 12.894531 73.695312 10.542969 76.117188 7.550781 76.117188 Z M 7.550781 76.117188 " fill-opacity="1" fill-rule="evenodd"/><path fill="#000000" d="M 30.710938 65.359375 L 26.007812 65.359375 L 24.15625 77.328125 L 27.433594 77.328125 L 28.003906 73.480469 L 29.570312 73.480469 C 32.351562 73.480469 33.988281 72.054688 34.417969 69.347656 C 34.558594 68.136719 34.628906 65.359375 30.710938 65.359375 Z M 28.859375 68.066406 L 29.710938 68.066406 C 30.78125 68.066406 31.136719 68.421875 30.996094 69.277344 C 30.851562 70.558594 30.140625 70.773438 29.285156 70.773438 L 28.429688 70.773438 Z M 38.691406 74.480469 L 40.117188 65.359375 L 36.839844 65.359375 L 34.988281 77.328125 L 41.828125 77.328125 L 42.253906 74.480469 Z M 52.730469 65.359375 L 49.238281 65.359375 L 42.898438 77.328125 L 46.316406 77.328125 L 47.242188 75.546875 L 51.449219 75.546875 L 51.804688 77.328125 L 55.296875 77.328125 Z M 50.949219 72.984375 L 48.597656 72.984375 L 50.308594 69.492188 Z M 71.757812 65.359375 L 71.328125 68.207031 L 73.824219 68.207031 L 72.398438 77.328125 L 75.605469 77.328125 L 77.03125 68.207031 L 79.523438 68.207031 L 79.953125 65.359375 Z M 90.714844 69.132812 C 90.855469 67.992188 90.714844 65.355469 87.152344 65.355469 L 82.589844 65.355469 L 80.664062 77.328125 L 83.945312 77.328125 L 84.585938 73.125 L 86.648438 77.328125 L 90.640625 77.328125 L 87.71875 72.484375 C 89.289062 72.128906 90.425781 70.84375 90.714844 69.132812 Z M 85.4375 67.992188 L 86.011719 67.992188 C 87.292969 67.992188 87.507812 68.5625 87.363281 69.277344 C 87.222656 70.488281 86.292969 70.628906 85.511719 70.628906 L 85.011719 70.628906 Z M 121.640625 65.359375 L 119.789062 77.328125 L 123.066406 77.328125 L 124.917969 65.359375 Z M 142.664062 68.066406 C 144.015625 68.28125 144.515625 68.992188 144.515625 68.992188 L 146.226562 66.710938 C 146.226562 66.710938 144.445312 65.285156 142.734375 65.214844 C 140.382812 65 138.53125 66.570312 138.03125 68.921875 C 137.675781 70.773438 138.886719 71.769531 140.667969 72.484375 C 141.453125 72.769531 142.164062 73.125 142.09375 73.765625 C 141.949219 74.480469 141.238281 74.761719 140.597656 74.691406 C 139.171875 74.480469 138.175781 73.265625 138.175781 73.265625 L 136.394531 75.691406 C 136.394531 75.691406 138.246094 77.328125 140.3125 77.542969 C 141.453125 77.6875 142.664062 77.328125 143.734375 76.617188 C 144.660156 75.976562 145.230469 74.976562 145.441406 73.625 C 145.800781 71.84375 144.375 70.632812 143.160156 70.132812 L 142.449219 69.847656 C 142.023438 69.632812 141.308594 69.347656 141.378906 68.777344 C 141.523438 68.28125 142.234375 68.066406 142.664062 68.066406 Z M 133.542969 65.214844 C 131.902344 65.074219 130.191406 65.5 128.839844 66.570312 C 127.554688 67.566406 126.699219 69.0625 126.414062 70.632812 C 126.128906 72.484375 126.488281 73.980469 127.554688 75.265625 C 128.550781 76.546875 129.976562 77.402344 131.546875 77.542969 C 133.257812 77.6875 134.398438 77.117188 134.398438 77.117188 L 134.964844 73.480469 C 134.964844 73.480469 133.753906 74.550781 132.117188 74.40625 C 131.332031 74.265625 130.621094 73.910156 130.191406 73.339844 C 129.765625 72.769531 129.621094 71.914062 129.765625 71.058594 C 130.050781 69.277344 131.472656 68.207031 133.113281 68.351562 C 134.964844 68.5625 135.605469 69.917969 135.605469 69.917969 L 136.25 66.140625 C 136.25 66.140625 134.894531 65.359375 133.542969 65.214844 Z M 115.511719 65.359375 L 114.585938 72.269531 L 110.808594 65.359375 L 107.957031 65.359375 L 106.320312 77.328125 L 109.242188 77.328125 L 110.167969 70.417969 L 113.945312 77.328125 L 116.792969 77.328125 L 118.507812 65.359375 Z M 103.539062 67.066406 C 102.472656 65.855469 100.832031 65.214844 99.191406 65.214844 C 95.703125 65.214844 92.710938 67.851562 92.421875 71.128906 C 92.210938 72.984375 92.710938 74.621094 93.777344 75.761719 C 94.847656 76.902344 96.34375 77.542969 98.054688 77.542969 C 101.6875 77.542969 104.539062 74.835938 104.894531 71.128906 C 105.039062 69.632812 104.539062 68.136719 103.539062 67.066406 Z M 95.628906 71.199219 C 95.773438 69.632812 97.339844 68.28125 98.910156 68.28125 C 99.695312 68.28125 100.40625 68.636719 100.976562 69.207031 C 101.476562 69.703125 101.6875 70.417969 101.617188 71.128906 C 101.472656 72.980469 100.046875 74.40625 98.339844 74.40625 C 97.554688 74.40625 96.839844 74.121094 96.34375 73.550781 C 95.84375 72.980469 95.558594 72.128906 95.628906 71.199219 Z M 66.269531 65.359375 L 65.273438 72.269531 L 61.496094 65.359375 L 58.644531 65.359375 L 57.007812 77.328125 L 59.929688 77.328125 L 60.925781 70.417969 L 64.632812 77.328125 L 67.554688 77.328125 L 69.191406 65.359375 Z M 145.441406 76.332031 C 145.441406 75.691406 146.011719 75.121094 146.582031 75.121094 C 147.222656 75.121094 147.792969 75.691406 147.792969 76.332031 C 147.792969 76.902344 147.226562 77.472656 146.582031 77.472656 C 146.011719 77.472656 145.441406 76.902344 145.441406 76.332031 Z M 147.578125 76.332031 C 147.578125 75.761719 147.152344 75.265625 146.582031 75.265625 C 146.085938 75.265625 145.65625 75.761719 145.65625 76.332031 C 145.65625 76.832031 146.085938 77.328125 146.582031 77.328125 C 147.152344 77.328125 147.578125 76.832031 147.578125 76.332031 Z M 147.222656 76.972656 L 147.011719 76.972656 L 146.65625 76.332031 L 146.367188 76.332031 L 146.367188 76.972656 L 146.15625 76.972656 L 146.15625 75.621094 L 146.722656 75.621094 C 147.082031 75.621094 147.226562 75.761719 147.226562 75.976562 C 147.226562 76.261719 147.011719 76.332031 146.796875 76.332031 Z M 146.582031 76.1875 C 146.796875 76.1875 147.011719 76.261719 147.011719 75.976562 C 147.011719 75.761719 146.867188 75.761719 146.722656 75.761719 L 146.367188 75.761719 L 146.367188 76.191406 L 146.582031 76.191406 Z M 146.582031 76.1875 " fill-opacity="1" fill-rule="evenodd"/></svg>