<svg xmlns="http://www.w3.org/2000/svg" xmlns:xlink="http://www.w3.org/1999/xlink" width="200" zoomAndPan="magnify" viewBox="0 0 150 149.999998" height="200" preserveAspectRatio="xMidYMid meet" version="1.0"><defs><clipPath id="a82a657123"><path d="M 18.492188 46.539062 L 131.742188 46.539062 L 131.742188 103.539062 L 18.492188 103.539062 Z M 18.492188 46.539062 " clip-rule="nonzero"/></clipPath></defs><g clip-path="url(#a82a657123)"><path fill="#d9222a" d="M 18.902344 46.777344 L 18.902344 103.128906 L 98.394531 103.128906 L 104.957031 88.957031 L 111.625 103.234375 L 131.507812 103.234375 L 131.507812 46.773438 L 18.902344 46.777344 " fill-opacity="1" fill-rule="nonzero"/></g><path fill="#ffffff" d="M 121.414062 88.945312 L 107.753906 57.78125 L 107.757812 57.777344 L 107.753906 57.777344 L 107.753906 57.773438 L 107.75 57.777344 L 102.265625 57.777344 L 88.914062 88.957031 L 94.796875 88.957031 L 104.960938 64.507812 L 115.5625 88.957031 L 121.414062 88.945312 M 50.042969 75.601562 C 54.332031 74 56.382812 70.460938 56.332031 66.855469 C 56.253906 61.382812 51.960938 57.5625 45.882812 57.5625 L 32.746094 57.5625 L 32.746094 88.90625 L 37.53125 88.90625 L 37.53125 62.140625 L 45.609375 62.140625 C 48.320312 62.140625 51.230469 63.546875 51.277344 66.921875 C 51.316406 69.929688 49.070312 71.804688 45.269531 71.96875 L 45.195312 71.96875 L 42.292969 71.996094 L 51.945312 88.957031 L 57.597656 88.945312 C 57.597656 88.945312 52.957031 80.746094 50.042969 75.601562 M 62.816406 65.65625 C 62.816406 71.898438 69.015625 73.65625 73.835938 75.015625 C 78.855469 76.433594 80.601562 78.03125 80.601562 80.457031 C 80.601562 84.5 76.5 85.128906 73.960938 85.128906 C 70.476562 85.128906 67.601562 84.15625 64.789062 82.421875 L 62.390625 86.488281 C 65.9375 88.675781 69.617188 89.691406 73.960938 89.691406 C 81.222656 89.691406 86.042969 85.933594 86.042969 80.117188 C 86.042969 73.621094 80.175781 71.824219 75.246094 70.429688 C 70.222656 69.011719 68.257812 67.8125 68.257812 65.386719 C 68.257812 61.714844 72.753906 61.359375 74.363281 61.359375 C 76.898438 61.359375 80.121094 62.207031 82.027344 63.191406 L 84.046875 59.21875 C 81.472656 57.886719 77.53125 56.996094 74.230469 56.996094 C 67.210938 56.996094 62.816406 60.191406 62.816406 65.65625 " fill-opacity="1" fill-rule="nonzero"/></svg>