<svg xmlns="http://www.w3.org/2000/svg" xmlns:xlink="http://www.w3.org/1999/xlink" width="200" zoomAndPan="magnify" viewBox="0 0 150 149.999998" height="200" preserveAspectRatio="xMidYMid meet" version="1.0"><defs><clipPath id="af36a8ee48"><path d="M 4.585938 55.246094 L 120 55.246094 L 120 94.246094 L 4.585938 94.246094 Z M 4.585938 55.246094 " clip-rule="nonzero"/></clipPath><clipPath id="f898f7e3a3"><path d="M 125 62 L 146.335938 62 L 146.335938 86 L 125 86 Z M 125 62 " clip-rule="nonzero"/></clipPath></defs><g clip-path="url(#af36a8ee48)"><path fill="#212121" d="M 45.109375 55.246094 L 45.308594 85.246094 L 49.828125 85.246094 L 49.828125 55.246094 Z M 101.058594 55.246094 L 101.058594 85.261719 L 106.496094 85.261719 C 106.496094 85.261719 106.542969 74.429688 106.601562 74.441406 C 106.664062 74.441406 114.710938 85.671875 114.785156 85.632812 C 114.863281 85.609375 119.609375 83.914062 119.609375 83.863281 C 119.609375 83.828125 111.523438 73.542969 111.523438 73.53125 C 111.523438 73.507812 118.304688 65.992188 118.242188 65.933594 C 118.054688 65.761719 114.382812 64.179688 114.277344 64.234375 C 114.230469 64.273438 106.496094 72.625 106.496094 72.625 L 106.496094 55.246094 Z M 10.949219 64.398438 C 8.992188 64.808594 7.15625 66.054688 6.402344 67.492188 C 6.058594 68.199219 5.886719 68.945312 5.890625 69.730469 C 5.894531 70.511719 6.074219 71.257812 6.429688 71.957031 C 6.910156 72.886719 8.3125 74.175781 10.488281 75.695312 C 12.84375 77.359375 13.734375 78.191406 13.960938 78.976562 C 14.300781 80.140625 13.785156 81.226562 12.652344 81.769531 C 12.089844 82.039062 11.839844 82.070312 10.839844 82.027344 C 9.535156 81.964844 8.640625 81.636719 7.3125 80.6875 C 6.886719 80.398438 6.496094 80.183594 6.449219 80.230469 C 6.402344 80.28125 5.980469 80.914062 5.507812 81.640625 L 4.660156 82.9375 L 4.976562 83.183594 C 5.167969 83.3125 5.730469 83.65625 6.25 83.945312 C 9.832031 85.925781 15.125 85.609375 17.808594 83.257812 C 18.523438 82.648438 19.042969 81.902344 19.363281 81.023438 C 19.6875 80.144531 19.773438 79.246094 19.625 78.320312 C 19.363281 76.574219 18.398438 75.429688 15.359375 73.234375 C 12.972656 71.515625 11.84375 70.566406 11.585938 70.0625 C 11.078125 69.074219 11.429688 68.125 12.5 67.574219 C 13.042969 67.296875 13.265625 67.273438 14.339844 67.316406 C 15.382812 67.351562 15.703125 67.4375 16.574219 67.84375 L 17.585938 68.335938 L 18.375 67.105469 C 18.808594 66.429688 19.125 65.828125 19.09375 65.773438 C 18.953125 65.5625 17.292969 64.867188 16.253906 64.601562 C 14.878906 64.234375 12.21875 64.132812 10.949219 64.402344 Z M 34.855469 67.050781 C 37.234375 68.160156 38.503906 71.640625 37.988281 75.601562 C 37.808594 77.011719 37.304688 78.707031 36.835938 79.492188 C 36.359375 80.304688 35.445312 81.183594 34.710938 81.523438 C 33.371094 82.152344 31.382812 81.910156 30.121094 80.957031 C 28.382812 79.636719 27.425781 76.390625 27.789062 73.015625 C 28.132812 69.921875 29.253906 67.960938 31.203125 67.058594 C 32.21875 66.589844 33.855469 66.589844 34.855469 67.050781 Z M 32.6875 63.601562 C 31.265625 63.921875 30.136719 64.554688 28.910156 65.710938 L 27.800781 66.769531 L 27.800781 64.246094 L 22.707031 64.246094 L 22.707031 94.246094 L 27.800781 94.246094 L 27.800781 82.015625 L 28.78125 82.960938 C 30.570312 84.707031 32.667969 85.414062 35.113281 85.070312 C 36.714844 84.847656 37.84375 84.441406 39.035156 83.644531 C 42.378906 81.417969 44.226562 76.972656 43.71875 72.332031 C 43.238281 67.929688 40.964844 64.882812 37.300781 63.722656 C 36.359375 63.417969 33.796875 63.355469 32.691406 63.601562 Z M 53.621094 64.246094 C 53.621094 64.246094 53.785156 80.101562 53.890625 80.5625 C 54.300781 82.308594 55.476562 83.96875 56.796875 84.6875 C 58.011719 85.339844 58.984375 85.542969 60.8125 85.542969 C 63.414062 85.53125 64.988281 84.910156 66.921875 83.140625 L 67.910156 82.246094 L 67.910156 85.246094 L 73.160156 85.246094 L 73.089844 64.246094 L 67.910156 64.246094 C 67.910156 64.246094 67.976562 77.292969 67.910156 77.746094 C 67.601562 79.578125 66.179688 81.078125 64.730469 81.558594 C 63.871094 81.847656 62.363281 82.082031 61.457031 81.941406 C 60.527344 81.792969 58.960938 80.773438 58.867188 79.246094 L 58.867188 64.316406 Z M 97.265625 85.246094 C 97.265625 85.246094 97.101562 69.394531 96.996094 68.933594 C 96.585938 67.1875 95.40625 65.527344 94.085938 64.808594 C 92.875 64.15625 91.898438 63.953125 90.074219 63.953125 C 87.472656 63.964844 85.898438 64.585938 83.964844 66.355469 L 82.976562 67.246094 L 82.976562 64.246094 L 77.726562 64.246094 L 77.796875 85.246094 L 82.976562 85.246094 C 82.976562 85.246094 82.90625 72.203125 82.976562 71.746094 C 83.285156 69.917969 84.707031 68.417969 86.15625 67.9375 C 87.015625 67.648438 88.144531 67.425781 89.429688 67.554688 C 90.710938 67.691406 92.109375 68.851562 92.015625 70.246094 L 92.015625 85.179688 Z M 97.265625 85.246094 " fill-opacity="1" fill-rule="nonzero"/></g><g clip-path="url(#f898f7e3a3)"><path fill="#77b539" d="M 125.164062 62.746094 L 125.164062 67.246094 L 143.246094 73.246094 L 125.164062 81.054688 L 125.164062 85.246094 L 146.257812 76.246094 L 146.257812 70.246094 Z M 125.164062 62.746094 " fill-opacity="1" fill-rule="evenodd"/></g></svg>