<svg xmlns="http://www.w3.org/2000/svg" xmlns:xlink="http://www.w3.org/1999/xlink" width="200" zoomAndPan="magnify" viewBox="0 0 150 149.999998" height="200" preserveAspectRatio="xMidYMid meet" version="1.0"><defs><clipPath id="c413827738"><path d="M 7.5 7.5 L 142.5 7.5 L 142.5 142.5 L 7.5 142.5 Z M 7.5 7.5 " clip-rule="nonzero"/></clipPath></defs><g clip-path="url(#c413827738)"><path fill="#ffffff" d="M 7.5 7.5 L 142.5 7.5 L 142.5 142.5 L 7.5 142.5 Z M 7.5 7.5 " fill-opacity="1" fill-rule="evenodd"/></g><path fill="#34549c" d="M 9.484375 58.484375 L 140.515625 58.484375 L 140.515625 91.515625 L 9.484375 91.515625 Z M 9.484375 58.484375 " fill-opacity="1" fill-rule="evenodd"/><path fill="#ffffff" d="M 17.851562 67.785156 L 14.585938 67.785156 L 14.585938 64.15625 L 26.871094 64.15625 L 26.871094 67.785156 L 23.035156 67.785156 L 23.035156 76.390625 L 17.851562 79.292969 Z M 17.851562 67.785156 " fill-opacity="1" fill-rule="evenodd"/><path fill="#ffffff" d="M 17.851562 80.433594 L 17.851562 87.121094 C 17.851562 87.121094 30.96875 77.480469 31.796875 76.855469 C 32.628906 76.234375 33.40625 74.835938 33.40625 72.5 L 33.40625 65.96875 C 33.40625 65.089844 32.988281 64.15625 31.953125 64.15625 L 27.960938 64.15625 L 27.960938 67.785156 L 28.53125 67.785156 C 29.152344 67.785156 29.308594 67.992188 29.308594 69.027344 L 29.308594 72.449219 C 29.308594 73.175781 29.152344 73.644531 28.6875 74.007812 C 28.21875 74.367188 17.851562 80.433594 17.851562 80.433594 Z M 53 63.734375 C 52.796875 64.660156 52.640625 65.550781 52.433594 66.277344 C 52.226562 67.003906 51.550781 67.261719 50.929688 67.261719 L 48.234375 67.261719 L 45.277344 78.667969 C 44.964844 79.964844 44.964844 80.585938 45.378906 80.84375 C 45.796875 81.105469 45.484375 81.257812 45.070312 81.257812 L 41.441406 81.257812 C 40.921875 81.257812 40.609375 80.949219 40.871094 80.066406 C 41.128906 79.183594 44.03125 67.3125 44.03125 67.3125 L 41.542969 67.3125 C 41.078125 67.3125 40.507812 67.417969 40.144531 67.933594 C 39.78125 68.453125 39.625 68.144531 39.78125 67.625 C 39.9375 67.105469 40.300781 65.964844 40.402344 65.445312 C 40.507812 64.929688 41.078125 64.460938 41.855469 64.460938 L 51.1875 64.460938 C 51.550781 64.460938 51.914062 64.460938 52.273438 64.097656 C 52.640625 63.734375 53.105469 63.269531 53 63.734375 Z M 53 63.734375 " fill-opacity="1" fill-rule="evenodd"/><path fill="#ffffff" d="M 53.3125 78.5625 C 56.007812 78.5625 56.527344 77.734375 56.785156 77.421875 C 57.046875 77.113281 57.460938 76.800781 57.304688 77.628906 C 56.722656 80.738281 55.699219 81.519531 52.226562 81.519531 C 46.625 81.519531 46.3125 78.304688 46.882812 75.972656 C 47.453125 73.636719 47.921875 72.5 48.957031 70.269531 C 49.996094 68.039062 52.171875 67.730469 53.726562 67.730469 L 55.75 67.730469 C 58.859375 67.730469 59.273438 69.59375 59.066406 71.304688 C 58.980469 72.035156 58.808594 72.914062 58.550781 74.054688 C 58.289062 75.191406 57.617188 75.402344 56.992188 75.402344 L 50.410156 75.402344 C 49.632812 77.992188 50.617188 78.5625 53.3125 78.5625 Z M 51.292969 72.707031 L 55.699219 72.707031 C 56.214844 71.511719 55.851562 70.269531 54.351562 70.269531 C 52.847656 70.269531 51.859375 71.253906 51.292969 72.707031 Z M 69.746094 67.730469 L 65.289062 67.730469 C 62.75 67.730469 60.675781 68.507812 59.691406 71.566406 C 58.609375 74.921875 58.449219 75.902344 58.394531 76.59375 C 58.082031 80.484375 59.949219 81.621094 64.199219 81.621094 C 66.792969 81.621094 68.035156 81.0625 68.554688 77.941406 C 68.660156 77.320312 68.660156 76.90625 68.089844 77.371094 C 67.519531 77.839844 66.535156 78.511719 64.40625 78.511719 C 62.28125 78.511719 61.554688 77.789062 62.4375 74.3125 C 63.320312 70.839844 64.355469 70.527344 66.171875 70.527344 C 67.984375 70.527344 69.171875 70.734375 69.539062 69.441406 C 69.746094 68.714844 69.800781 68.195312 69.746094 67.730469 Z M 68.503906 81.257812 L 72.597656 81.257812 C 72.859375 81.257812 72.703125 81.105469 72.546875 80.949219 C 72.390625 80.792969 72.339844 80.535156 72.445312 80.066406 C 72.546875 79.601562 74 72.859375 74.101562 72.394531 C 74.207031 71.925781 74.414062 70.632812 76.332031 70.632812 C 77.367188 70.632812 77.9375 70.941406 77.679688 72.132812 C 77.421875 73.328125 75.917969 79.804688 75.8125 80.429688 C 75.710938 81.050781 75.867188 81.257812 76.023438 81.257812 L 79.652344 81.257812 C 79.960938 81.257812 79.804688 81.105469 79.652344 80.949219 C 79.496094 80.792969 79.546875 80.585938 79.597656 80.324219 C 79.652344 80.066406 81.425781 72.125 81.726562 70.785156 C 82.140625 68.921875 81.515625 67.933594 78.925781 67.933594 L 77.265625 67.933594 C 76.023438 67.933594 75.605469 68.144531 74.933594 69.128906 C 74.933594 69.128906 75.605469 66.277344 75.761719 65.757812 C 75.917969 65.238281 75.917969 64.667969 75.140625 64.667969 L 71.769531 64.667969 C 71.40625 64.667969 71.355469 64.980469 71.613281 65.136719 C 71.875 65.289062 71.976562 65.652344 71.875 66.070312 C 71.769531 66.484375 68.503906 81.257812 68.503906 81.257812 Z M 88.878906 64.152344 L 97.015625 64.152344 C 99.246094 64.152344 101.527344 66.277344 100.800781 69.855469 C 100.074219 73.429688 99.558594 75.503906 98.726562 77.578125 C 97.898438 79.652344 96.550781 81.261719 93.492188 81.261719 L 86.59375 81.261719 C 85.507812 81.261719 84.832031 81 85.300781 79.1875 C 85.765625 77.371094 88.773438 65.808594 88.875 65.449219 C 88.980469 65.085938 88.875 64.722656 88.667969 64.566406 C 88.464844 64.410156 88.410156 64.152344 88.878906 64.152344 Z M 89.601562 78.304688 L 92.921875 78.304688 C 94.371094 78.304688 94.890625 77.785156 95.410156 76.179688 C 95.851562 74.804688 96.964844 70.011719 97.226562 68.816406 C 97.484375 67.625 96.601562 66.898438 95.515625 66.898438 L 92.507812 66.898438 Z M 112.050781 70.785156 C 111.636719 72.601562 110.132812 79.339844 110.03125 79.859375 C 109.925781 80.378906 109.976562 80.636719 110.132812 80.792969 C 110.289062 80.949219 110.496094 81.257812 110.183594 81.257812 L 105.933594 81.257812 L 106.347656 79.496094 C 105.363281 80.949219 105.414062 81.257812 102.925781 81.257812 C 100.230469 81.257812 98.46875 79.859375 99.660156 76.179688 C 100.851562 72.496094 102.355469 72.238281 104.273438 72.238281 L 106.765625 72.238281 C 107.75 72.238281 108.007812 72.03125 108.214844 71.304688 C 108.421875 70.578125 107.902344 70.214844 107.335938 70.214844 L 102.824219 70.214844 L 102.824219 67.574219 L 109.71875 67.574219 C 111.898438 67.574219 112.46875 68.972656 112.050781 70.785156 Z M 105.261719 74.625 C 104.328125 74.625 103.550781 74.933594 103.136719 76.4375 C 102.71875 77.941406 103.5 78.355469 104.535156 78.355469 L 106.558594 78.355469 L 107.4375 74.621094 Z M 132.167969 70.785156 C 131.753906 72.601562 130.25 79.339844 130.144531 79.859375 C 130.042969 80.378906 130.09375 80.636719 130.25 80.792969 C 130.40625 80.949219 130.613281 81.257812 130.300781 81.257812 L 126.050781 81.257812 L 126.464844 79.496094 C 125.480469 80.949219 125.53125 81.257812 123.042969 81.257812 C 120.347656 81.257812 118.585938 79.859375 119.777344 76.179688 C 120.96875 72.496094 122.472656 72.238281 124.390625 72.238281 L 126.878906 72.238281 C 127.863281 72.238281 128.125 72.03125 128.332031 71.304688 C 128.539062 70.578125 128.019531 70.214844 127.449219 70.214844 L 122.9375 70.214844 L 122.9375 67.574219 L 129.835938 67.574219 C 132.011719 67.574219 132.582031 68.972656 132.167969 70.785156 Z M 125.375 74.625 C 124.445312 74.625 123.664062 74.933594 123.25 76.4375 C 122.835938 77.941406 123.613281 78.355469 124.652344 78.355469 L 126.671875 78.355469 L 127.554688 74.621094 Z M 117.238281 65.34375 L 118.429688 65.34375 L 117.757812 67.9375 L 121.074219 67.9375 C 120.816406 69.285156 120.398438 70.527344 119.414062 70.527344 L 117.238281 70.527344 C 117.238281 70.527344 115.578125 77.113281 115.472656 77.476562 C 115.371094 77.835938 115.421875 78.25 115.890625 78.25 L 117.804688 78.25 C 118.066406 78.25 118.429688 77.890625 118.585938 77.628906 C 118.738281 77.371094 119.101562 77.058594 119 77.628906 C 118.894531 78.199219 118.53125 79.804688 118.375 80.324219 C 118.222656 80.84375 118.015625 81.257812 117.027344 81.257812 L 112.984375 81.257812 C 112.207031 81.257812 111.429688 80.585938 111.742188 79.238281 C 112.050781 77.890625 113.554688 70.578125 113.554688 70.578125 L 112.363281 70.578125 L 112.933594 67.933594 C 115.007812 67.78125 115.734375 67.519531 117.238281 65.34375 Z M 132.859375 68 C 132.859375 67.050781 133.625 66.351562 134.535156 66.351562 C 135.433594 66.351562 136.199219 67.050781 136.199219 68 C 136.199219 68.953125 135.433594 69.652344 134.535156 69.652344 C 133.625 69.652344 132.859375 68.953125 132.859375 68 Z M 134.535156 69.375 C 135.28125 69.375 135.867188 68.792969 135.867188 68 C 135.867188 67.21875 135.28125 66.628906 134.535156 66.628906 C 133.78125 66.628906 133.191406 67.21875 133.191406 68 C 133.191406 68.792969 133.78125 69.375 134.535156 69.375 Z M 134.183594 68.953125 L 133.898438 68.953125 L 133.898438 67.050781 L 134.621094 67.050781 C 135.070312 67.050781 135.292969 67.21875 135.292969 67.59375 C 135.292969 67.933594 135.078125 68.082031 134.800781 68.117188 L 135.339844 68.953125 L 135.015625 68.953125 L 134.515625 68.128906 L 134.183594 68.128906 Z M 134.527344 67.886719 C 134.773438 67.886719 134.992188 67.867188 134.992188 67.574219 C 134.992188 67.339844 134.777344 67.296875 134.578125 67.296875 L 134.183594 67.296875 L 134.183594 67.886719 Z M 134.527344 67.886719 " fill-opacity="1" fill-rule="evenodd"/></svg>