<svg xmlns="http://www.w3.org/2000/svg" xmlns:xlink="http://www.w3.org/1999/xlink" width="200" zoomAndPan="magnify" viewBox="0 0 150 149.999998" height="200" preserveAspectRatio="xMidYMid meet" version="1.0"><defs><clipPath id="4d5a367446"><path d="M 1 49.625 L 52 49.625 L 52 99.875 L 1 99.875 Z M 1 49.625 " clip-rule="nonzero"/></clipPath><clipPath id="f18126341c"><path d="M 1 49.625 L 46 49.625 L 46 89 L 1 89 Z M 1 49.625 " clip-rule="nonzero"/></clipPath><clipPath id="d22d653b74"><path d="M 8 61 L 52 61 L 52 99.875 L 8 99.875 Z M 8 61 " clip-rule="nonzero"/></clipPath></defs><g clip-path="url(#4d5a367446)"><path fill="#ffffff" d="M 51.6875 74.597656 C 51.6875 88.390625 40.460938 99.570312 26.617188 99.570312 C 12.773438 99.570312 1.546875 88.390625 1.546875 74.597656 C 1.546875 60.808594 12.773438 49.625 26.617188 49.625 C 40.460938 49.625 51.6875 60.808594 51.6875 74.597656 " fill-opacity="1" fill-rule="nonzero"/></g><path fill="#231f20" d="M 59.265625 61.402344 L 72.921875 61.402344 L 72.921875 64.191406 L 67.902344 64.191406 L 67.902344 78.199219 L 64.285156 78.199219 L 64.285156 64.191406 L 59.265625 64.191406 Z M 80.023438 64.191406 L 84.492188 64.191406 C 86.070312 64.214844 87.003906 64.839844 87.003906 66.316406 C 87.003906 67.796875 86.070312 68.585938 84.492188 68.609375 L 80.023438 68.609375 Z M 80.023438 71.53125 L 83.847656 71.53125 C 83.847656 71.53125 86.214844 76.703125 86.519531 78.199219 L 90.96875 78.199219 L 87.550781 71.292969 C 89.960938 70.671875 90.585938 67.808594 90.585938 65.632812 C 90.585938 62.222656 86.765625 61.292969 83.566406 61.398438 L 76.40625 61.398438 L 76.40625 78.199219 L 80.023438 78.199219 Z M 95.457031 61.402344 L 107.550781 61.402344 L 107.550781 64.191406 L 99.074219 64.191406 L 99.074219 68.140625 L 106.871094 68.140625 L 106.871094 70.929688 L 99.074219 70.929688 L 99.074219 75.40625 L 107.804688 75.40625 L 107.804688 78.199219 L 95.457031 78.199219 Z M 122.347656 78.199219 L 116.15625 67.027344 L 116.105469 67.074219 L 116.105469 78.199219 L 112.722656 78.199219 L 112.722656 61.402344 L 117.207031 61.402344 L 123.363281 72.378906 L 123.410156 72.332031 L 123.410156 61.402344 L 126.792969 61.402344 L 126.792969 78.199219 Z M 135.667969 64.320312 L 137.539062 64.320312 C 141.832031 64.277344 142.464844 67.125 142.464844 69.796875 C 142.464844 72.476562 141.832031 75.457031 137.539062 75.40625 L 135.667969 75.40625 Z M 132.050781 78.199219 L 137.789062 78.199219 C 143.046875 78.246094 146.316406 75.640625 146.316406 69.796875 C 146.316406 63.960938 143.046875 61.355469 137.789062 61.402344 L 132.050781 61.402344 Z M 70.566406 92.003906 L 68.816406 92.003906 L 68.816406 84.660156 L 66.976562 92.003906 L 65.160156 92.003906 L 63.316406 84.660156 L 63.289062 92.003906 L 61.539062 92.003906 L 61.539062 82.679688 L 64.363281 82.679688 L 66.046875 89.03125 L 67.734375 82.679688 L 70.566406 82.679688 Z M 84.828125 92.003906 L 82.941406 92.003906 L 82.941406 82.679688 L 84.828125 82.679688 Z M 122.023438 85.988281 C 121.90625 86.238281 121.707031 86.410156 121.421875 86.507812 C 121.269531 86.5625 121.089844 86.589844 120.882812 86.597656 C 120.667969 86.617188 120.347656 86.621094 119.941406 86.621094 L 118.320312 86.621094 L 118.320312 84.257812 L 119.800781 84.257812 C 120.476562 84.257812 120.914062 84.265625 121.105469 84.28125 C 121.304688 84.296875 121.484375 84.359375 121.652344 84.464844 C 121.832031 84.570312 121.953125 84.695312 122.023438 84.855469 C 122.097656 85.019531 122.136719 85.207031 122.136719 85.414062 C 122.136719 85.628906 122.097656 85.820312 122.023438 85.988281 M 122.191406 88.125 L 122.773438 87.953125 C 123.226562 87.773438 123.582031 87.4375 123.824219 87.03125 C 124.082031 86.613281 124.144531 85.890625 124.144531 85.371094 C 124.144531 84.878906 123.960938 84.34375 123.722656 83.917969 C 123.441406 83.429688 123.050781 83.097656 122.558594 82.914062 C 122.34375 82.839844 122.125 82.789062 121.902344 82.757812 C 121.542969 82.707031 121.046875 82.679688 120.410156 82.679688 L 116.4375 82.679688 L 116.4375 92.003906 L 118.320312 92.003906 L 118.320312 88.328125 L 120.121094 88.308594 L 122.117188 92.003906 L 124.378906 92.003906 Z M 140.75 89.945312 C 140.308594 90.34375 139.753906 90.542969 139.089844 90.542969 C 138.5625 90.542969 138.105469 90.417969 137.722656 90.164062 C 137.410156 89.960938 137.160156 89.695312 136.972656 89.375 C 136.832031 89.128906 136.722656 88.875 136.652344 88.601562 C 136.554688 88.25 136.503906 87.828125 136.503906 87.34375 C 136.503906 86.472656 136.671875 85.765625 137 85.21875 C 137.4375 84.5 138.136719 84.140625 139.089844 84.140625 C 140.101562 84.140625 140.820312 84.535156 141.25 85.335938 C 141.527344 85.855469 141.671875 86.515625 141.671875 87.316406 C 141.671875 88.511719 141.363281 89.390625 140.75 89.945312 M 142.496094 83.917969 C 141.691406 82.984375 140.550781 82.523438 139.082031 82.523438 C 137.636719 82.523438 136.519531 82.960938 135.734375 83.828125 C 134.949219 84.695312 134.558594 85.882812 134.558594 87.394531 C 134.558594 88.679688 134.875 89.738281 135.515625 90.582031 C 136.300781 91.632812 137.5 92.160156 139.105469 92.160156 C 140.644531 92.160156 141.804688 91.664062 142.597656 90.675781 C 143.277344 89.824219 143.621094 88.714844 143.621094 87.355469 C 143.621094 85.929688 143.246094 84.785156 142.496094 83.917969 M 103.136719 85.738281 C 102.984375 85.183594 102.683594 84.140625 101.082031 84.140625 C 100.148438 84.140625 98.777344 84.761719 98.777344 87.378906 C 98.777344 89.046875 99.4375 90.539062 101.082031 90.539062 C 102.15625 90.539062 102.90625 89.933594 103.136719 88.800781 L 105.078125 88.800781 C 104.695312 90.8125 103.371094 92.207031 101.042969 92.207031 C 98.570312 92.207031 96.800781 90.554688 96.800781 87.355469 C 96.800781 84.113281 98.671875 82.472656 101.066406 82.472656 C 103.847656 82.472656 104.980469 84.371094 105.078125 85.738281 Z M 147.054688 79.261719 L 146.046875 79.261719 L 146.046875 81.929688 L 145.644531 81.929688 L 145.644531 79.261719 L 144.644531 79.261719 L 144.644531 78.898438 L 147.054688 78.898438 Z M 150.363281 81.929688 L 149.984375 81.929688 L 149.984375 79.394531 L 149.097656 81.929688 L 148.734375 81.929688 L 147.867188 79.351562 L 147.855469 81.929688 L 147.46875 81.929688 L 147.46875 78.902344 L 148.074219 78.902344 L 148.792969 81.046875 L 148.871094 81.296875 L 148.925781 81.496094 L 149.101562 81.007812 L 149.832031 78.902344 L 150.363281 78.902344 Z M 150.363281 81.929688 " fill-opacity="1" fill-rule="nonzero"/><g clip-path="url(#f18126341c)"><path fill="#d71920" d="M 6.113281 79.433594 L 6.148438 79.347656 L 6.246094 79.078125 L 6.34375 78.839844 L 6.386719 78.726562 C 6.886719 77.507812 7.476562 76.332031 8.15625 75.199219 C 8.25 75 8.347656 74.804688 8.445312 74.609375 L 5.441406 74.617188 L 6.167969 73.011719 C 8.652344 72.339844 12.785156 70.960938 16.730469 67.152344 L 16.847656 67.144531 L 18.925781 67.144531 L 16.238281 72.878906 L 20.554688 72.863281 L 19.761719 74.570312 L 15.453125 74.585938 C 15.453125 74.585938 13.433594 78.609375 12.746094 81.488281 C 12.214844 84.699219 12.738281 87.097656 15.628906 87.996094 C 17.414062 88.546875 19.640625 88.421875 22.039062 87.746094 C 27.621094 86.011719 33.589844 82.1875 37.957031 77.128906 C 45.148438 68.808594 45.289062 60.296875 38.277344 58.121094 C 33.777344 56.730469 27.433594 58.277344 21.5625 61.765625 C 28.882812 57.0625 36.933594 54.851562 42.484375 56.574219 C 43.527344 56.898438 44.429688 57.34375 45.195312 57.894531 C 40.609375 52.855469 33.984375 49.691406 26.617188 49.691406 C 12.773438 49.691406 1.546875 60.875 1.546875 74.664062 C 1.542969 77.113281 1.894531 79.511719 2.605469 81.855469 C 3.3125 84.203125 4.347656 86.394531 5.707031 88.4375 C 4.710938 85.996094 4.851562 82.867188 6.113281 79.433594 " fill-opacity="1" fill-rule="nonzero"/></g><g clip-path="url(#d22d653b74)"><path fill="#d71920" d="M 47.875 61.417969 C 49.550781 65.953125 47.453125 72.726562 41.664062 79.429688 C 32.96875 89.496094 19.238281 95.585938 10.996094 93.03125 C 9.972656 92.710938 9.082031 92.277344 8.324219 91.738281 C 12.898438 96.597656 19.402344 99.636719 26.617188 99.636719 C 40.464844 99.636719 51.691406 88.457031 51.691406 74.664062 C 51.691406 69.792969 50.285156 65.257812 47.875 61.417969 " fill-opacity="1" fill-rule="nonzero"/></g></svg>