<svg xmlns="http://www.w3.org/2000/svg" xmlns:xlink="http://www.w3.org/1999/xlink" width="200" zoomAndPan="magnify" viewBox="0 0 150 149.999998" height="200" preserveAspectRatio="xMidYMid meet" version="1.0"><defs><clipPath id="ac9b165489"><path d="M 0 63.605469 L 150 63.605469 L 150 86.105469 L 0 86.105469 Z M 0 63.605469 " clip-rule="nonzero"/></clipPath></defs><g clip-path="url(#ac9b165489)"><path fill="#717073" d="M 64.492188 84.410156 L 57.945312 66.414062 C 57.859375 66.175781 57.75 65.824219 57.75 65.542969 C 57.75 64.757812 58.410156 64.019531 59.378906 64.019531 C 60.214844 64.019531 60.765625 64.5625 61.007812 65.324219 L 66.429688 80.820312 L 71.894531 65.28125 C 72.136719 64.542969 72.640625 64.019531 73.480469 64.019531 L 73.65625 64.019531 C 74.539062 64.019531 75.066406 64.5625 75.332031 65.28125 L 80.75 80.796875 L 86.257812 65.214844 C 86.480469 64.5625 86.917969 63.976562 87.800781 63.976562 C 88.726562 63.976562 89.386719 64.671875 89.386719 65.457031 C 89.386719 65.738281 89.253906 66.066406 89.1875 66.328125 L 82.601562 84.34375 C 82.269531 85.28125 81.609375 85.78125 80.839844 85.78125 L 80.707031 85.78125 C 79.867188 85.78125 79.253906 85.28125 78.945312 84.34375 L 73.566406 69.066406 L 68.148438 84.34375 C 67.863281 85.28125 67.222656 85.78125 66.40625 85.78125 L 66.320312 85.78125 C 65.480469 85.84375 64.820312 85.34375 64.492188 84.410156 M 112.167969 65.566406 C 112.167969 64.695312 112.875 63.953125 113.753906 63.953125 C 114.679688 63.953125 115.386719 64.652344 115.386719 65.566406 L 115.386719 69.21875 C 116.972656 65.671875 120.472656 63.996094 122.808594 63.996094 C 123.777344 63.996094 124.394531 64.695312 124.394531 65.609375 C 124.394531 66.480469 123.800781 67.085938 122.964844 67.21875 C 118.800781 67.71875 115.363281 70.808594 115.363281 76.945312 L 115.363281 84.167969 C 115.363281 85.039062 114.703125 85.78125 113.777344 85.78125 C 112.851562 85.78125 112.144531 85.082031 112.144531 84.167969 Z M 134.707031 85.976562 C 128.890625 85.976562 124.152344 81.535156 124.152344 75.007812 L 124.152344 74.921875 C 124.152344 68.851562 128.449219 63.953125 134.289062 63.953125 C 140.546875 63.953125 144.113281 69.046875 144.113281 74.636719 C 144.113281 75.488281 143.410156 76.117188 142.640625 76.117188 L 127.347656 76.117188 C 127.789062 80.6875 131.027344 83.253906 134.796875 83.253906 C 137.417969 83.253906 139.332031 82.234375 140.898438 80.796875 C 141.140625 80.601562 141.425781 80.425781 141.800781 80.425781 C 142.574219 80.425781 143.191406 81.035156 143.191406 81.777344 C 143.191406 82.144531 143.035156 82.515625 142.703125 82.796875 C 140.679688 84.691406 138.296875 85.976562 134.707031 85.976562 M 140.964844 73.769531 C 140.632812 69.9375 138.429688 66.585938 134.222656 66.585938 C 130.542969 66.585938 127.765625 69.632812 127.347656 73.769531 Z M 89.363281 79.382812 L 89.363281 79.296875 C 89.363281 74.8125 93.109375 72.441406 98.550781 72.441406 C 101.304688 72.441406 103.246094 72.8125 105.183594 73.355469 L 105.183594 72.613281 C 105.183594 68.785156 102.804688 66.828125 98.773438 66.828125 C 96.613281 66.828125 95.359375 67.109375 93.769531 67.804688 C 93.574219 67.894531 93.351562 67.9375 93.199219 67.9375 C 92.449219 67.9375 91.789062 67.328125 91.789062 66.585938 C 91.789062 65.933594 92.074219 65.519531 92.667969 65.261719 C 94.785156 64.347656 96.394531 64.042969 99.125 64.042969 C 102.164062 64.042969 104.5 64.824219 106.066406 66.390625 C 107.519531 67.828125 108.269531 69.894531 108.269531 72.59375 L 108.269531 84.320312 C 108.269531 85.214844 107.609375 85.886719 106.726562 85.886719 C 105.824219 85.886719 105.207031 85.234375 105.207031 84.410156 L 105.207031 82.386719 C 103.707031 84.320312 101.195312 86.039062 97.429688 86.039062 C 93.417969 85.996094 89.363281 83.734375 89.363281 79.382812 M 105.226562 77.730469 L 105.226562 75.683594 C 103.640625 75.226562 101.527344 74.769531 98.90625 74.769531 C 94.871094 74.769531 92.625 76.488281 92.625 79.164062 L 92.625 79.25 C 92.625 81.929688 95.117188 83.496094 98.046875 83.496094 C 101.988281 83.496094 105.226562 81.101562 105.226562 77.730469 M 6.195312 65.390625 C 5.488281 63.867188 3.746094 63.171875 2.117188 63.890625 C 0.488281 64.605469 -0.109375 66.390625 0.621094 67.914062 L 7.449219 82.582031 C 8.527344 84.886719 9.652344 86.085938 11.789062 86.085938 C 14.058594 86.085938 15.050781 84.777344 16.128906 82.582031 C 16.128906 82.582031 22.078125 69.765625 22.144531 69.632812 C 22.210938 69.503906 22.386719 69.089844 23.003906 69.089844 C 23.511719 69.089844 23.953125 69.503906 23.953125 70.046875 L 23.953125 82.582031 C 23.953125 84.519531 25.03125 86.105469 27.125 86.105469 C 29.21875 86.105469 30.339844 84.519531 30.339844 82.582031 L 30.339844 72.332031 C 30.339844 70.351562 31.773438 69.066406 33.734375 69.066406 C 35.695312 69.066406 36.996094 70.394531 36.996094 72.332031 L 36.996094 82.582031 C 36.996094 84.519531 38.074219 86.105469 40.167969 86.105469 C 42.261719 86.105469 43.382812 84.519531 43.382812 82.582031 L 43.382812 72.332031 C 43.382812 70.351562 44.816406 69.066406 46.777344 69.066406 C 48.738281 69.066406 50.039062 70.394531 50.039062 72.332031 L 50.039062 82.582031 C 50.039062 84.519531 51.117188 86.105469 53.210938 86.105469 C 55.304688 86.105469 56.425781 84.519531 56.425781 82.582031 L 56.425781 70.917969 C 56.425781 66.628906 52.945312 63.628906 48.738281 63.628906 C 44.550781 63.628906 41.90625 66.5 41.90625 66.5 C 40.519531 64.695312 38.582031 63.605469 35.320312 63.605469 C 31.882812 63.605469 28.863281 66.480469 28.863281 66.480469 C 27.476562 64.695312 25.097656 63.605469 23.113281 63.605469 C 20.074219 63.628906 17.648438 64.957031 16.175781 68.285156 L 11.8125 78.445312 Z M 144.355469 66.585938 C 144.355469 65.128906 145.523438 63.933594 147.023438 63.933594 C 148.519531 63.933594 149.6875 65.109375 149.6875 66.542969 L 149.6875 66.566406 C 149.6875 68 148.519531 69.21875 147.023438 69.21875 C 145.523438 69.21875 144.355469 68.023438 144.355469 66.585938 M 149.183594 66.566406 C 149.183594 65.367188 148.257812 64.410156 147.023438 64.410156 C 145.8125 64.410156 144.863281 65.390625 144.863281 66.566406 L 144.863281 66.585938 C 144.863281 67.761719 145.789062 68.742188 147.023438 68.742188 C 148.234375 68.742188 149.183594 67.742188 149.183594 66.566406 " fill-opacity="1" fill-rule="nonzero"/></g><path fill="#717073" d="M 146.007812 65.542969 C 146.007812 65.390625 146.140625 65.261719 146.296875 65.261719 L 147.175781 65.261719 C 147.507812 65.261719 147.773438 65.347656 147.925781 65.519531 C 148.082031 65.652344 148.148438 65.871094 148.148438 66.109375 C 148.148438 66.5 147.949219 66.761719 147.640625 66.890625 L 148.035156 67.371094 C 148.082031 67.4375 148.125 67.5 148.125 67.589844 C 148.125 67.742188 147.992188 67.847656 147.859375 67.847656 C 147.726562 67.847656 147.640625 67.785156 147.574219 67.695312 L 147.023438 67 L 146.558594 67 L 146.558594 67.542969 C 146.558594 67.695312 146.429688 67.828125 146.273438 67.828125 C 146.121094 67.828125 145.988281 67.695312 145.988281 67.542969 Z M 147.15625 66.5 C 147.441406 66.5 147.574219 66.347656 147.574219 66.128906 C 147.574219 65.890625 147.417969 65.761719 147.132812 65.761719 L 146.558594 65.761719 L 146.558594 66.5 Z M 147.15625 66.5 " fill-opacity="1" fill-rule="nonzero"/></svg>