<svg xmlns="http://www.w3.org/2000/svg" xmlns:xlink="http://www.w3.org/1999/xlink" width="200" zoomAndPan="magnify" viewBox="0 0 150 149.999998" height="200" preserveAspectRatio="xMidYMid meet" version="1.0"><defs><clipPath id="ca9fa11c4a"><path d="M 21.523438 65 L 105 65 L 105 88 L 21.523438 88 Z M 21.523438 65 " clip-rule="nonzero"/></clipPath><clipPath id="fc30f03616"><path d="M 129 58.746094 L 134.773438 58.746094 L 134.773438 65 L 129 65 Z M 129 58.746094 " clip-rule="nonzero"/></clipPath><clipPath id="6c316c2b8e"><path d="M 21.523438 118 L 30 118 L 30 126 L 21.523438 126 Z M 21.523438 118 " clip-rule="nonzero"/></clipPath><clipPath id="da4d91b554"><path d="M 91 120 L 98 120 L 98 127.746094 L 91 127.746094 Z M 91 120 " clip-rule="nonzero"/></clipPath><clipPath id="d406d446cc"><path d="M 133 124 L 134.773438 124 L 134.773438 126 L 133 126 Z M 133 124 " clip-rule="nonzero"/></clipPath></defs><path fill="#a89044" d="M 79.734375 100.863281 L 79.734375 100.015625 L 79.792969 100.015625 C 80.417969 100.015625 80.851562 99.597656 81.09375 98.761719 L 81.949219 98.894531 C 81.851562 99.46875 81.59375 99.960938 81.175781 100.367188 C 80.777344 100.714844 80.316406 100.878906 79.789062 100.863281 L 79.730469 100.863281 Z M 79.734375 97.945312 L 79.734375 97.09375 L 81.101562 97.09375 C 81.097656 96.667969 80.984375 96.277344 80.769531 95.910156 C 80.535156 95.53125 80.191406 95.339844 79.746094 95.339844 L 79.730469 95.339844 L 79.730469 94.488281 L 79.753906 94.488281 C 80.421875 94.488281 80.949219 94.757812 81.339844 95.304688 C 81.820312 96.019531 82.035156 96.804688 81.976562 97.664062 L 81.972656 97.941406 Z M 83.25 98.90625 L 84.070312 98.746094 C 84.089844 99.113281 84.222656 99.433594 84.46875 99.703125 C 84.714844 99.902344 84.996094 100.007812 85.316406 100.015625 C 85.632812 100.023438 85.917969 99.933594 86.171875 99.742188 C 86.378906 99.558594 86.476562 99.328125 86.46875 99.050781 C 86.480469 98.820312 86.394531 98.632812 86.214844 98.488281 C 85.949219 98.332031 85.667969 98.21875 85.371094 98.144531 C 84.917969 98.023438 84.488281 97.847656 84.074219 97.628906 C 83.855469 97.484375 83.683594 97.296875 83.566406 97.058594 C 83.441406 96.804688 83.382812 96.535156 83.386719 96.25 C 83.367188 95.753906 83.53125 95.332031 83.875 94.980469 C 84.257812 94.625 84.710938 94.460938 85.234375 94.492188 C 85.566406 94.488281 85.886719 94.554688 86.191406 94.695312 C 86.453125 94.816406 86.664062 94.996094 86.828125 95.234375 C 87 95.535156 87.097656 95.859375 87.128906 96.207031 L 86.316406 96.34375 C 86.320312 96.050781 86.21875 95.804688 86.003906 95.605469 C 85.792969 95.402344 85.542969 95.316406 85.253906 95.34375 C 84.957031 95.324219 84.691406 95.398438 84.449219 95.566406 C 84.265625 95.710938 84.179688 95.898438 84.183594 96.132812 C 84.175781 96.355469 84.261719 96.53125 84.4375 96.667969 C 84.722656 96.820312 85.023438 96.941406 85.335938 97.03125 C 85.800781 97.164062 86.246094 97.34375 86.671875 97.566406 C 86.878906 97.703125 87.039062 97.886719 87.144531 98.109375 C 87.265625 98.367188 87.320312 98.636719 87.316406 98.921875 C 87.335938 99.46875 87.15625 99.941406 86.773438 100.332031 C 86.351562 100.722656 85.859375 100.902344 85.289062 100.871094 C 84.113281 100.871094 83.429688 100.21875 83.242188 98.910156 Z M 79.734375 94.488281 L 79.734375 95.339844 C 79.34375 95.347656 79.035156 95.507812 78.796875 95.816406 C 78.507812 96.191406 78.363281 96.617188 78.367188 97.089844 L 79.734375 97.089844 L 79.734375 97.941406 L 78.3125 97.941406 C 78.308594 98.507812 78.460938 99.027344 78.78125 99.492188 C 79.015625 99.816406 79.335938 99.992188 79.734375 100.015625 L 79.734375 100.863281 C 79.058594 100.867188 78.515625 100.597656 78.105469 100.0625 C 77.617188 99.359375 77.40625 98.582031 77.460938 97.730469 C 77.402344 96.855469 77.617188 96.050781 78.109375 95.324219 C 78.511719 94.769531 79.050781 94.492188 79.734375 94.488281 Z M 71.128906 103.203125 L 71.128906 102.34375 C 71.410156 102.34375 71.664062 102.253906 71.890625 102.082031 C 72.128906 101.867188 72.277344 101.601562 72.332031 101.285156 C 72.394531 100.835938 72.421875 100.382812 72.40625 99.929688 C 72.246094 100.175781 72.042969 100.375 71.796875 100.527344 C 71.589844 100.648438 71.367188 100.714844 71.128906 100.726562 L 71.128906 99.871094 C 71.539062 99.863281 71.855469 99.683594 72.078125 99.332031 C 72.390625 98.800781 72.519531 98.230469 72.472656 97.617188 C 72.515625 97.003906 72.382812 96.433594 72.066406 95.910156 C 71.847656 95.558594 71.535156 95.375 71.128906 95.347656 L 71.128906 94.492188 C 71.386719 94.503906 71.625 94.574219 71.84375 94.710938 C 72.105469 94.878906 72.316406 95.097656 72.476562 95.367188 L 72.476562 94.628906 L 73.242188 94.628906 L 73.242188 99.898438 C 73.277344 100.578125 73.203125 101.246094 73.019531 101.902344 C 72.875 102.296875 72.628906 102.613281 72.28125 102.847656 C 71.929688 103.082031 71.546875 103.195312 71.128906 103.195312 Z M 75.070312 93.5 L 75.070312 92.308594 L 75.898438 92.308594 L 75.898438 93.5 Z M 75.070312 100.730469 L 75.070312 94.628906 L 75.898438 94.628906 L 75.898438 100.726562 Z M 71.128906 94.496094 L 71.128906 95.351562 L 71.082031 95.351562 C 70.675781 95.371094 70.375 95.558594 70.171875 95.914062 C 69.871094 96.425781 69.742188 96.980469 69.78125 97.574219 C 69.734375 98.199219 69.863281 98.78125 70.167969 99.324219 C 70.386719 99.683594 70.703125 99.867188 71.121094 99.875 L 71.128906 99.875 L 71.128906 100.730469 C 71.101562 100.730469 71.074219 100.730469 71.046875 100.730469 C 70.429688 100.734375 69.945312 100.480469 69.589844 99.972656 C 69.101562 99.269531 68.882812 98.492188 68.925781 97.636719 C 68.914062 97.042969 69.011719 96.472656 69.21875 95.917969 C 69.371094 95.484375 69.628906 95.121094 69.988281 94.839844 C 70.304688 94.605469 70.660156 94.488281 71.054688 94.488281 C 71.078125 94.488281 71.101562 94.488281 71.125 94.488281 Z M 71.128906 102.347656 L 71.128906 103.203125 L 71.046875 103.203125 C 70.484375 103.242188 69.996094 103.066406 69.582031 102.679688 C 69.210938 102.269531 69.046875 101.789062 69.089844 101.234375 L 69.898438 101.382812 C 69.914062 101.671875 70.027344 101.917969 70.238281 102.113281 C 70.46875 102.289062 70.730469 102.367188 71.023438 102.351562 C 71.058594 102.351562 71.09375 102.351562 71.128906 102.351562 Z M 65.410156 100.867188 L 65.410156 100.015625 L 65.429688 100.015625 C 65.871094 100.003906 66.207031 99.8125 66.4375 99.433594 C 66.71875 98.882812 66.859375 98.296875 66.859375 97.679688 C 66.859375 97.0625 66.71875 96.476562 66.4375 95.925781 C 66.195312 95.554688 65.851562 95.363281 65.410156 95.347656 L 65.410156 94.488281 C 66.089844 94.484375 66.632812 94.753906 67.046875 95.292969 C 67.542969 95.988281 67.765625 96.761719 67.707031 97.613281 C 67.773438 98.503906 67.558594 99.320312 67.058594 100.058594 C 66.644531 100.605469 66.09375 100.875 65.410156 100.863281 Z M 65.410156 94.496094 L 65.410156 95.351562 L 65.386719 95.351562 C 64.945312 95.363281 64.609375 95.554688 64.378906 95.933594 C 64.097656 96.484375 63.960938 97.070312 63.960938 97.6875 C 63.964844 98.304688 64.101562 98.890625 64.382812 99.441406 C 64.625 99.816406 64.964844 100.007812 65.410156 100.019531 L 65.410156 100.871094 C 64.730469 100.878906 64.183594 100.609375 63.769531 100.0625 C 63.332031 99.332031 63.113281 98.539062 63.113281 97.683594 C 63.109375 96.828125 63.328125 96.035156 63.761719 95.300781 C 64.175781 94.75 64.722656 94.480469 65.410156 94.488281 Z M 56.914062 100.863281 L 56.914062 100.015625 L 56.9375 100.015625 C 57.375 100.003906 57.710938 99.808594 57.941406 99.429688 C 58.222656 98.878906 58.363281 98.296875 58.363281 97.675781 C 58.363281 97.058594 58.222656 96.472656 57.941406 95.921875 C 57.699219 95.550781 57.355469 95.359375 56.914062 95.347656 L 56.914062 94.488281 C 57.59375 94.484375 58.140625 94.753906 58.554688 95.296875 C 59.050781 95.988281 59.273438 96.761719 59.214844 97.617188 C 59.28125 98.507812 59.066406 99.320312 58.566406 100.0625 C 58.152344 100.609375 57.601562 100.878906 56.914062 100.863281 Z M 60.730469 100.726562 L 60.730469 92.308594 L 61.558594 92.308594 L 61.558594 100.726562 Z M 56.914062 94.488281 L 56.914062 95.347656 L 56.894531 95.347656 C 56.453125 95.355469 56.117188 95.550781 55.882812 95.925781 C 55.605469 96.480469 55.46875 97.0625 55.46875 97.683594 C 55.46875 98.300781 55.609375 98.886719 55.890625 99.4375 C 56.128906 99.808594 56.472656 100.003906 56.914062 100.015625 L 56.914062 100.863281 C 56.234375 100.871094 55.6875 100.605469 55.273438 100.058594 C 54.835938 99.328125 54.617188 98.535156 54.617188 97.679688 C 54.613281 96.824219 54.832031 96.03125 55.269531 95.296875 C 55.683594 94.75 56.230469 94.480469 56.914062 94.488281 Z M 34.144531 100.863281 L 34.144531 100.015625 L 34.207031 100.015625 C 34.828125 100.015625 35.261719 99.597656 35.507812 98.761719 L 36.363281 98.894531 C 36.265625 99.46875 36.007812 99.960938 35.589844 100.367188 C 35.191406 100.714844 34.726562 100.878906 34.199219 100.863281 Z M 34.144531 97.945312 L 34.144531 97.09375 L 35.511719 97.09375 C 35.507812 96.667969 35.398438 96.277344 35.183594 95.910156 C 34.945312 95.53125 34.605469 95.34375 34.164062 95.339844 L 34.148438 95.339844 L 34.148438 94.488281 L 34.167969 94.488281 C 34.835938 94.488281 35.367188 94.757812 35.757812 95.304688 C 36.238281 96.019531 36.449219 96.804688 36.394531 97.664062 L 36.390625 97.941406 Z M 41.191406 98.492188 L 42.007812 98.628906 C 41.960938 99.261719 41.726562 99.816406 41.300781 100.292969 C 40.933594 100.683594 40.480469 100.875 39.941406 100.867188 C 39.277344 100.875 38.746094 100.605469 38.359375 100.058594 C 37.882812 99.335938 37.675781 98.539062 37.734375 97.671875 C 37.671875 96.804688 37.882812 96.011719 38.363281 95.289062 C 38.765625 94.746094 39.304688 94.480469 39.976562 94.488281 C 40.46875 94.476562 40.894531 94.636719 41.257812 94.972656 C 41.648438 95.375 41.871094 95.859375 41.921875 96.417969 L 41.117188 96.574219 C 41.070312 96.222656 40.933594 95.914062 40.707031 95.648438 C 40.515625 95.4375 40.28125 95.335938 40.003906 95.339844 C 39.5625 95.339844 39.222656 95.523438 38.984375 95.894531 C 38.667969 96.441406 38.535156 97.027344 38.582031 97.65625 C 38.535156 98.296875 38.664062 98.898438 38.96875 99.460938 C 39.195312 99.832031 39.527344 100.019531 39.960938 100.019531 C 40.285156 100.023438 40.554688 99.898438 40.765625 99.648438 C 41.03125 99.308594 41.171875 98.925781 41.191406 98.492188 Z M 43.273438 100.726562 L 43.273438 92.308594 L 44.101562 92.308594 L 44.101562 95.332031 C 44.277344 95.070312 44.5 94.859375 44.765625 94.703125 C 45.019531 94.558594 45.292969 94.488281 45.582031 94.492188 C 46.070312 94.46875 46.484375 94.636719 46.816406 95 C 47.191406 95.566406 47.339844 96.1875 47.269531 96.863281 L 47.269531 100.726562 L 46.441406 100.726562 L 46.441406 96.863281 C 46.476562 96.453125 46.382812 96.074219 46.164062 95.726562 C 45.96875 95.484375 45.714844 95.367188 45.40625 95.382812 C 45.027344 95.378906 44.71875 95.527344 44.484375 95.824219 C 44.175781 96.300781 44.046875 96.824219 44.101562 97.390625 L 44.101562 100.726562 Z M 49.097656 100.726562 L 49.097656 94.628906 L 49.847656 94.628906 L 49.847656 95.496094 C 50.003906 95.1875 50.226562 94.933594 50.511719 94.742188 C 50.789062 94.570312 51.089844 94.484375 51.414062 94.492188 C 51.667969 94.488281 51.910156 94.542969 52.140625 94.648438 C 52.351562 94.746094 52.53125 94.882812 52.679688 95.0625 C 52.832031 95.261719 52.933594 95.484375 52.988281 95.726562 C 53.070312 96.140625 53.105469 96.558594 53.089844 96.980469 L 53.089844 100.726562 L 52.253906 100.726562 L 52.253906 97.015625 C 52.269531 96.683594 52.230469 96.355469 52.140625 96.035156 C 52.078125 95.839844 51.960938 95.679688 51.792969 95.5625 C 51.625 95.441406 51.441406 95.382812 51.234375 95.386719 C 50.839844 95.375 50.523438 95.527344 50.285156 95.839844 C 49.996094 96.320312 49.878906 96.839844 49.929688 97.398438 L 49.929688 100.726562 Z M 28.710938 100.726562 L 28.710938 93.304688 L 26.484375 93.304688 L 26.484375 92.308594 L 31.851562 92.308594 L 31.851562 93.304688 L 29.609375 93.304688 L 29.609375 100.726562 Z M 34.144531 94.492188 L 34.144531 95.34375 C 33.757812 95.351562 33.445312 95.507812 33.210938 95.816406 C 32.921875 96.195312 32.777344 96.617188 32.777344 97.09375 L 34.144531 97.09375 L 34.144531 97.945312 L 32.726562 97.945312 C 32.71875 98.511719 32.875 99.027344 33.195312 99.496094 C 33.429688 99.820312 33.746094 99.992188 34.144531 100.015625 L 34.144531 100.867188 C 33.472656 100.867188 32.929688 100.601562 32.515625 100.0625 C 32.027344 99.363281 31.8125 98.585938 31.867188 97.730469 C 31.808594 96.851562 32.027344 96.050781 32.519531 95.324219 C 32.921875 94.769531 33.464844 94.488281 34.144531 94.488281 Z M 34.144531 94.492188 " fill-opacity="1" fill-rule="nonzero"/><g clip-path="url(#ca9fa11c4a)"><path fill="#e23827" d="M 62.277344 80.292969 L 68.328125 79.910156 C 68.3125 80.726562 68.511719 81.484375 68.921875 82.1875 C 69.226562 82.621094 69.621094 82.949219 70.097656 83.171875 C 70.574219 83.398438 71.074219 83.492188 71.601562 83.453125 C 72.394531 83.496094 73.105469 83.28125 73.742188 82.804688 C 74.25 82.433594 74.535156 81.929688 74.605469 81.304688 C 74.65625 80.726562 74.464844 80.242188 74.039062 79.851562 C 73.609375 79.425781 72.566406 79.023438 70.90625 78.644531 C 68.191406 78.007812 66.289062 77.164062 65.199219 76.113281 C 64.652344 75.597656 64.253906 74.984375 64 74.273438 C 63.75 73.5625 63.671875 72.835938 63.765625 72.085938 C 63.875 70.960938 64.269531 69.949219 64.949219 69.050781 C 65.726562 68.027344 66.707031 67.277344 67.894531 66.800781 C 69.542969 66.1875 71.242188 65.917969 72.996094 65.984375 C 75.613281 65.984375 77.5625 66.480469 78.847656 67.472656 C 80.132812 68.460938 80.808594 70.039062 80.878906 72.199219 L 74.890625 72.554688 C 74.890625 71.761719 74.617188 71.078125 74.070312 70.507812 C 73.472656 70.027344 72.792969 69.816406 72.03125 69.871094 C 71.40625 69.828125 70.839844 69.988281 70.328125 70.34375 C 69.933594 70.632812 69.714844 71.019531 69.667969 71.507812 C 69.640625 71.871094 69.769531 72.167969 70.046875 72.402344 C 70.671875 72.820312 71.355469 73.078125 72.101562 73.167969 C 74.105469 73.539062 76.027344 74.152344 77.875 75.011719 C 78.375 75.246094 78.824219 75.554688 79.226562 75.929688 C 79.628906 76.308594 79.964844 76.742188 80.230469 77.226562 C 80.496094 77.710938 80.679688 78.226562 80.78125 78.773438 C 80.882812 79.316406 80.898438 79.863281 80.828125 80.414062 C 80.707031 81.78125 80.234375 83.011719 79.410156 84.109375 C 78.558594 85.273438 77.46875 86.128906 76.140625 86.679688 C 74.535156 87.3125 72.867188 87.605469 71.140625 87.554688 C 67.664062 87.554688 65.316406 86.871094 64.097656 85.503906 C 63.472656 84.785156 63.003906 83.976562 62.6875 83.074219 C 62.375 82.175781 62.238281 81.246094 62.277344 80.292969 Z M 84.894531 66.335938 L 91.214844 66.335938 L 90.570312 73.636719 L 97.480469 73.636719 L 98.125 66.335938 L 104.472656 66.335938 L 102.636719 87.195312 L 96.289062 87.195312 L 97.03125 78.757812 L 90.121094 78.757812 L 89.378906 87.195312 L 83.058594 87.195312 Z M 41.328125 66.335938 L 43.792969 66.335938 L 41.328125 69.652344 Z M 50.628906 83.75 L 50.628906 79.242188 L 52.886719 79.242188 L 51.285156 71.742188 L 50.632812 73.425781 L 50.632812 66.335938 L 55.273438 66.335938 L 61.132812 87.195312 L 54.515625 87.195312 L 53.8125 83.753906 Z M 50.628906 66.335938 L 48.382812 66.335938 L 41.328125 81.789062 L 41.328125 87.199219 L 45.316406 87.199219 L 46.613281 83.753906 L 50.632812 83.753906 L 50.632812 79.242188 L 48.375 79.242188 L 50.632812 73.425781 Z M 21.539062 66.335938 L 28.558594 66.335938 L 32.066406 73.378906 L 36.820312 66.335938 L 41.328125 66.335938 L 41.328125 69.652344 L 34.773438 78.457031 L 34.003906 87.195312 L 27.671875 87.195312 L 28.441406 78.457031 Z M 41.328125 81.789062 L 38.859375 87.199219 L 41.328125 87.199219 Z M 41.328125 81.789062 " fill-opacity="1" fill-rule="nonzero"/></g><path fill="#e23827" d="M 55.273438 66.316406 L 61.128906 87.175781 L 54.515625 87.175781 L 53.8125 83.734375 L 50.628906 83.734375 L 50.628906 79.21875 L 52.886719 79.21875 L 51.28125 71.722656 L 50.628906 73.40625 L 50.628906 66.316406 Z M 48.378906 79.21875 L 50.632812 73.40625 L 50.632812 66.316406 L 48.382812 66.316406 L 41.328125 81.773438 L 41.328125 87.179688 L 45.320312 87.179688 L 46.609375 83.738281 L 50.628906 83.738281 L 50.628906 79.21875 Z M 38.855469 87.175781 L 41.328125 87.175781 L 41.328125 81.769531 Z M 38.855469 87.175781 " fill-opacity="1" fill-rule="nonzero"/><path fill="#005ba1" d="M 86.441406 62.074219 C 100.167969 62.429688 117.390625 65.273438 118.308594 75.066406 C 119.980469 92.925781 76.300781 108.285156 51.296875 113.644531 C 74.289062 110.429688 99.589844 103.699219 119.617188 91.140625 C 128.460938 85.597656 135.925781 76.964844 131.289062 70.246094 C 124.207031 59.96875 97.019531 61.449219 86.441406 62.074219 Z M 86.441406 62.074219 " fill-opacity="1" fill-rule="evenodd"/><g clip-path="url(#fc30f03616)"><path fill="#ffffff" d="M 129 61.433594 C 129.003906 61.085938 129.074219 60.746094 129.214844 60.425781 C 129.351562 60.101562 129.542969 59.820312 129.792969 59.574219 C 130.042969 59.328125 130.328125 59.140625 130.652344 59.007812 C 130.976562 58.878906 131.3125 58.8125 131.660156 58.816406 C 132.007812 58.820312 132.34375 58.890625 132.664062 59.027344 C 132.984375 59.164062 133.269531 59.355469 133.511719 59.605469 C 133.757812 59.855469 133.945312 60.144531 134.078125 60.46875 C 134.210938 60.792969 134.273438 61.132812 134.273438 61.480469 C 134.273438 61.832031 134.203125 62.171875 134.070312 62.492188 C 133.933594 62.816406 133.742188 63.101562 133.496094 63.351562 C 133.25 63.597656 132.964844 63.789062 132.644531 63.921875 C 132.320312 64.054688 131.984375 64.125 131.636719 64.125 C 131.285156 64.121094 130.945312 64.050781 130.621094 63.914062 C 130.300781 63.773438 130.011719 63.578125 129.765625 63.328125 C 129.519531 63.074219 129.328125 62.785156 129.195312 62.457031 C 129.0625 62.128906 129 61.789062 129 61.433594 Z M 133.84375 61.433594 C 133.84375 60.929688 133.695312 60.472656 133.390625 60.070312 C 133.085938 59.667969 132.691406 59.398438 132.207031 59.261719 C 131.972656 59.199219 131.734375 59.175781 131.488281 59.191406 C 131.246094 59.207031 131.011719 59.265625 130.789062 59.359375 C 130.5625 59.453125 130.359375 59.582031 130.175781 59.746094 C 129.996094 59.910156 129.84375 60.097656 129.726562 60.3125 C 129.476562 60.753906 129.382812 61.226562 129.449219 61.730469 C 129.511719 62.234375 129.722656 62.664062 130.078125 63.027344 C 130.390625 63.347656 130.765625 63.554688 131.203125 63.644531 C 131.644531 63.730469 132.070312 63.6875 132.480469 63.515625 C 132.898438 63.335938 133.226562 63.058594 133.476562 62.683594 C 133.722656 62.304688 133.847656 61.886719 133.847656 61.433594 Z M 132.460938 63.058594 L 131.632812 61.632812 L 131.164062 61.632812 L 131.164062 63.058594 L 130.699219 63.058594 L 130.699219 59.746094 L 131.535156 59.746094 C 132.316406 59.746094 132.707031 60.050781 132.707031 60.664062 C 132.714844 60.867188 132.660156 61.054688 132.542969 61.21875 C 132.425781 61.386719 132.273438 61.5 132.078125 61.566406 L 132.964844 63.058594 Z M 131.164062 60.152344 L 131.164062 61.25 C 131.207031 61.257812 131.304688 61.257812 131.46875 61.257812 C 131.683594 61.28125 131.886719 61.242188 132.078125 61.140625 C 132.203125 61.019531 132.253906 60.871094 132.234375 60.695312 C 132.234375 60.328125 132 60.148438 131.53125 60.148438 L 131.347656 60.148438 Z M 131.164062 60.152344 " fill-opacity="1" fill-rule="nonzero"/></g><g clip-path="url(#6c316c2b8e)"><path fill="#ffffff" d="M 25.6875 125.734375 L 24.375 125.734375 L 24.132812 120.007812 L 23.066406 125.734375 L 21.816406 125.734375 L 23.21875 118.882812 L 25.1875 118.882812 L 25.394531 123.683594 L 27.6875 118.882812 L 29.679688 118.882812 L 28.273438 125.734375 L 27.015625 125.734375 L 28.339844 120.050781 Z M 25.6875 125.734375 " fill-opacity="1" fill-rule="nonzero"/></g><path fill="#ffffff" d="M 29.726562 123.671875 C 29.6875 122.835938 29.941406 122.101562 30.492188 121.472656 C 31.035156 120.894531 31.703125 120.621094 32.496094 120.652344 C 33.140625 120.617188 33.703125 120.820312 34.175781 121.261719 C 34.609375 121.714844 34.8125 122.257812 34.78125 122.890625 C 34.796875 123.683594 34.542969 124.375 34.023438 124.972656 C 33.488281 125.59375 32.8125 125.886719 32 125.851562 C 31.570312 125.859375 31.164062 125.765625 30.78125 125.570312 C 30.429688 125.394531 30.167969 125.128906 29.988281 124.777344 C 29.8125 124.429688 29.726562 124.0625 29.726562 123.671875 Z M 33.476562 122.71875 C 33.492188 122.425781 33.398438 122.171875 33.203125 121.953125 C 33.011719 121.75 32.777344 121.65625 32.5 121.667969 C 32.214844 121.664062 31.964844 121.753906 31.746094 121.933594 C 31.5 122.144531 31.328125 122.40625 31.230469 122.714844 C 31.117188 123.019531 31.054688 123.332031 31.050781 123.65625 C 31.035156 123.976562 31.128906 124.257812 31.332031 124.5 C 31.523438 124.714844 31.761719 124.820312 32.050781 124.8125 C 32.429688 124.8125 32.734375 124.65625 32.953125 124.34375 C 33.320312 123.863281 33.496094 123.320312 33.476562 122.71875 Z M 33.476562 122.71875 " fill-opacity="1" fill-rule="nonzero"/><path fill="#ffffff" d="M 36.117188 120.773438 L 37.34375 120.773438 L 37.148438 121.734375 C 37.285156 121.4375 37.488281 121.191406 37.753906 121 C 38.019531 120.808594 38.3125 120.691406 38.636719 120.65625 C 38.851562 120.660156 39.054688 120.707031 39.246094 120.800781 L 38.742188 121.898438 C 38.621094 121.851562 38.492188 121.832031 38.363281 121.832031 C 38.105469 121.839844 37.875 121.929688 37.671875 122.09375 C 37.429688 122.277344 37.246094 122.511719 37.125 122.792969 C 36.949219 123.242188 36.820312 123.703125 36.734375 124.175781 L 36.414062 125.734375 L 35.101562 125.734375 Z M 36.117188 120.773438 " fill-opacity="1" fill-rule="nonzero"/><path fill="#ffffff" d="M 43.46875 123.667969 L 40.171875 123.667969 C 40.167969 123.722656 40.167969 123.761719 40.167969 123.789062 C 40.152344 124.09375 40.246094 124.359375 40.445312 124.589844 C 40.621094 124.792969 40.847656 124.894531 41.117188 124.890625 C 41.34375 124.890625 41.546875 124.824219 41.734375 124.699219 C 41.917969 124.574219 42.054688 124.40625 42.140625 124.199219 L 43.320312 124.402344 C 43.117188 124.855469 42.8125 125.214844 42.398438 125.488281 C 42.003906 125.734375 41.574219 125.855469 41.109375 125.851562 C 40.488281 125.875 39.957031 125.664062 39.515625 125.21875 C 39.078125 124.746094 38.871094 124.1875 38.902344 123.542969 C 38.890625 122.878906 39.078125 122.273438 39.457031 121.730469 C 39.699219 121.375 40.015625 121.105469 40.398438 120.914062 C 40.78125 120.722656 41.1875 120.636719 41.613281 120.65625 C 42.171875 120.628906 42.644531 120.816406 43.035156 121.21875 C 43.421875 121.671875 43.597656 122.199219 43.5625 122.796875 C 43.566406 123.089844 43.535156 123.382812 43.46875 123.667969 Z M 42.359375 122.851562 C 42.363281 122.789062 42.367188 122.746094 42.367188 122.714844 C 42.390625 122.410156 42.308594 122.132812 42.125 121.886719 C 41.949219 121.691406 41.734375 121.601562 41.472656 121.613281 C 41.1875 121.613281 40.941406 121.71875 40.742188 121.925781 C 40.5 122.1875 40.351562 122.496094 40.304688 122.851562 Z M 42.359375 122.851562 " fill-opacity="1" fill-rule="nonzero"/><path fill="#ffffff" d="M 46.699219 121.765625 L 46.902344 120.769531 L 47.542969 120.769531 L 47.703125 119.976562 L 49.214844 119.050781 L 48.859375 120.769531 L 49.660156 120.769531 L 49.460938 121.765625 L 48.652344 121.765625 L 48.226562 123.84375 C 48.175781 124.058594 48.140625 124.273438 48.109375 124.492188 C 48.105469 124.585938 48.136719 124.667969 48.207031 124.734375 C 48.3125 124.804688 48.429688 124.832031 48.554688 124.820312 C 48.613281 124.820312 48.757812 124.808594 48.992188 124.785156 L 48.785156 125.78125 C 48.554688 125.828125 48.324219 125.851562 48.089844 125.851562 C 47.71875 125.882812 47.378906 125.792969 47.074219 125.578125 C 46.847656 125.375 46.742188 125.125 46.757812 124.820312 C 46.789062 124.464844 46.847656 124.113281 46.929688 123.761719 L 47.335938 121.769531 Z M 46.699219 121.765625 " fill-opacity="1" fill-rule="nonzero"/><path fill="#ffffff" d="M 50.734375 125.734375 L 49.417969 125.734375 L 50.828125 118.882812 L 52.140625 118.882812 L 51.636719 121.320312 C 51.890625 121.113281 52.167969 120.941406 52.464844 120.808594 C 52.730469 120.703125 53.007812 120.652344 53.292969 120.652344 C 53.652344 120.632812 53.964844 120.75 54.226562 121 C 54.46875 121.25 54.585938 121.554688 54.570312 121.90625 C 54.554688 122.21875 54.511719 122.527344 54.441406 122.832031 L 53.847656 125.730469 L 52.53125 125.730469 L 53.140625 122.773438 C 53.1875 122.570312 53.21875 122.367188 53.234375 122.15625 C 53.242188 122.003906 53.191406 121.871094 53.085938 121.761719 C 52.96875 121.652344 52.832031 121.601562 52.671875 121.609375 C 52.433594 121.613281 52.222656 121.691406 52.039062 121.84375 C 51.777344 122.046875 51.578125 122.300781 51.441406 122.601562 C 51.304688 122.980469 51.203125 123.367188 51.136719 123.765625 Z M 50.734375 125.734375 " fill-opacity="1" fill-rule="nonzero"/><path fill="#ffffff" d="M 56.894531 122.175781 L 55.613281 122.066406 C 55.75 121.628906 56.003906 121.285156 56.378906 121.027344 C 56.824219 120.753906 57.308594 120.628906 57.828125 120.652344 C 58.339844 120.613281 58.800781 120.742188 59.21875 121.039062 C 59.519531 121.28125 59.667969 121.59375 59.667969 121.980469 C 59.664062 122.140625 59.652344 122.300781 59.628906 122.457031 C 59.601562 122.625 59.511719 123.066406 59.355469 123.785156 C 59.253906 124.191406 59.1875 124.605469 59.160156 125.027344 C 59.164062 125.265625 59.203125 125.503906 59.273438 125.730469 L 57.996094 125.730469 C 57.941406 125.550781 57.910156 125.363281 57.898438 125.171875 C 57.714844 125.386719 57.492188 125.554688 57.234375 125.675781 C 56.996094 125.789062 56.746094 125.847656 56.480469 125.847656 C 56.085938 125.859375 55.753906 125.726562 55.480469 125.445312 C 55.203125 125.15625 55.070312 124.808594 55.085938 124.40625 C 55.066406 123.964844 55.210938 123.585938 55.519531 123.269531 C 55.976562 122.921875 56.492188 122.75 57.066406 122.757812 C 57.492188 122.738281 57.910156 122.671875 58.320312 122.566406 C 58.367188 122.417969 58.394531 122.269531 58.402344 122.117188 C 58.40625 121.96875 58.347656 121.847656 58.234375 121.757812 C 58.082031 121.644531 57.914062 121.597656 57.730469 121.613281 C 57.527344 121.601562 57.34375 121.648438 57.171875 121.757812 C 57.03125 121.863281 56.9375 122.003906 56.894531 122.175781 Z M 58.144531 123.417969 C 58.042969 123.445312 57.9375 123.464844 57.828125 123.480469 C 57.371094 123.5 56.941406 123.617188 56.539062 123.835938 C 56.386719 123.949219 56.316406 124.101562 56.324219 124.289062 C 56.320312 124.445312 56.375 124.578125 56.488281 124.683594 C 56.609375 124.796875 56.753906 124.851562 56.921875 124.84375 C 57.125 124.84375 57.308594 124.796875 57.484375 124.699219 C 57.652344 124.609375 57.785156 124.484375 57.878906 124.320312 C 57.992188 124.089844 58.066406 123.847656 58.109375 123.597656 Z M 58.144531 123.417969 " fill-opacity="1" fill-rule="nonzero"/><path fill="#ffffff" d="M 61.199219 120.773438 L 62.445312 120.773438 L 62.320312 121.417969 C 62.578125 121.175781 62.871094 120.980469 63.191406 120.832031 C 63.464844 120.714844 63.75 120.65625 64.046875 120.65625 C 64.410156 120.636719 64.726562 120.753906 64.992188 121.007812 C 65.238281 121.265625 65.355469 121.578125 65.339844 121.9375 C 65.316406 122.269531 65.265625 122.601562 65.1875 122.925781 L 64.613281 125.734375 L 63.296875 125.734375 L 63.875 122.917969 C 63.933594 122.667969 63.976562 122.417969 64.003906 122.164062 C 64.011719 122.007812 63.960938 121.875 63.855469 121.761719 C 63.738281 121.652344 63.597656 121.605469 63.441406 121.613281 C 63.199219 121.628906 62.988281 121.710938 62.800781 121.859375 C 62.558594 122.03125 62.375 122.25 62.246094 122.515625 C 62.089844 122.898438 61.980469 123.292969 61.914062 123.699219 L 61.496094 125.734375 L 60.183594 125.734375 Z M 61.199219 120.773438 " fill-opacity="1" fill-rule="nonzero"/><path fill="#ffffff" d="M 73.402344 125.734375 L 72.164062 125.734375 L 71.925781 122.574219 L 70.441406 125.734375 L 69.222656 125.734375 L 68.613281 120.769531 L 69.78125 120.769531 L 70.121094 124.097656 L 71.636719 120.769531 L 72.832031 120.769531 L 73 124.097656 L 74.507812 120.769531 L 75.824219 120.769531 Z M 73.402344 125.734375 " fill-opacity="1" fill-rule="nonzero"/><path fill="#ffffff" d="M 76.855469 125.734375 L 75.539062 125.734375 L 76.945312 118.882812 L 78.261719 118.882812 L 77.757812 121.320312 C 78.011719 121.113281 78.285156 120.941406 78.585938 120.808594 C 78.851562 120.703125 79.125 120.652344 79.410156 120.652344 C 79.773438 120.632812 80.085938 120.75 80.347656 121 C 80.589844 121.25 80.707031 121.554688 80.691406 121.90625 C 80.675781 122.21875 80.632812 122.527344 80.5625 122.832031 L 79.964844 125.730469 L 78.652344 125.730469 L 79.261719 122.773438 C 79.308594 122.570312 79.339844 122.367188 79.355469 122.15625 C 79.363281 122.003906 79.3125 121.871094 79.207031 121.761719 C 79.089844 121.652344 78.953125 121.601562 78.792969 121.609375 C 78.554688 121.613281 78.34375 121.691406 78.160156 121.84375 C 77.898438 122.046875 77.699219 122.300781 77.5625 122.601562 C 77.425781 122.980469 77.324219 123.367188 77.257812 123.765625 Z M 76.855469 125.734375 " fill-opacity="1" fill-rule="nonzero"/><path fill="#ffffff" d="M 83.015625 122.175781 L 81.734375 122.066406 C 81.867188 121.628906 82.125 121.285156 82.5 121.027344 C 82.945312 120.753906 83.429688 120.628906 83.949219 120.652344 C 84.457031 120.613281 84.921875 120.742188 85.335938 121.039062 C 85.640625 121.28125 85.789062 121.59375 85.785156 121.980469 C 85.785156 122.140625 85.773438 122.300781 85.746094 122.457031 C 85.722656 122.625 85.632812 123.066406 85.476562 123.785156 C 85.375 124.191406 85.308594 124.605469 85.28125 125.027344 C 85.285156 125.265625 85.324219 125.503906 85.394531 125.730469 L 84.117188 125.730469 C 84.066406 125.550781 84.035156 125.363281 84.023438 125.171875 C 83.835938 125.386719 83.613281 125.554688 83.359375 125.675781 C 83.117188 125.789062 82.867188 125.847656 82.601562 125.847656 C 82.210938 125.859375 81.878906 125.726562 81.601562 125.445312 C 81.324219 125.15625 81.195312 124.808594 81.210938 124.40625 C 81.1875 123.964844 81.332031 123.585938 81.640625 123.269531 C 82.097656 122.921875 82.613281 122.75 83.1875 122.757812 C 83.613281 122.738281 84.03125 122.671875 84.445312 122.566406 C 84.492188 122.417969 84.519531 122.269531 84.527344 122.117188 C 84.527344 121.96875 84.472656 121.847656 84.355469 121.757812 C 84.207031 121.644531 84.039062 121.597656 83.851562 121.613281 C 83.652344 121.601562 83.464844 121.648438 83.296875 121.757812 C 83.152344 121.863281 83.058594 122.003906 83.015625 122.175781 Z M 84.265625 123.417969 C 84.164062 123.445312 84.058594 123.464844 83.949219 123.480469 C 83.492188 123.5 83.0625 123.617188 82.660156 123.835938 C 82.507812 123.949219 82.4375 124.101562 82.445312 124.289062 C 82.441406 124.445312 82.496094 124.578125 82.609375 124.683594 C 82.730469 124.796875 82.875 124.851562 83.042969 124.84375 C 83.242188 124.84375 83.429688 124.796875 83.605469 124.699219 C 83.773438 124.609375 83.902344 124.484375 84 124.320312 C 84.109375 124.089844 84.1875 123.847656 84.230469 123.597656 Z M 84.265625 123.417969 " fill-opacity="1" fill-rule="nonzero"/><path fill="#ffffff" d="M 86.617188 121.765625 L 86.816406 120.769531 L 87.457031 120.769531 L 87.617188 119.976562 L 89.128906 119.050781 L 88.773438 120.769531 L 89.578125 120.769531 L 89.375 121.765625 L 88.566406 121.765625 L 88.140625 123.847656 C 88.09375 124.058594 88.054688 124.273438 88.027344 124.492188 C 88.023438 124.585938 88.054688 124.667969 88.125 124.734375 C 88.230469 124.804688 88.34375 124.832031 88.472656 124.820312 C 88.53125 124.820312 88.675781 124.808594 88.90625 124.789062 L 88.699219 125.785156 C 88.472656 125.832031 88.238281 125.855469 88.003906 125.851562 C 87.632812 125.886719 87.296875 125.792969 86.992188 125.578125 C 86.765625 125.378906 86.660156 125.125 86.675781 124.820312 C 86.707031 124.464844 86.761719 124.113281 86.84375 123.765625 L 87.253906 121.769531 Z M 86.617188 121.765625 " fill-opacity="1" fill-rule="nonzero"/><g clip-path="url(#da4d91b554)"><path fill="#ffffff" d="M 92.238281 120.769531 L 93.546875 120.769531 L 93.878906 123.242188 C 93.957031 123.878906 94.003906 124.324219 94.015625 124.578125 C 94.207031 124.023438 94.441406 123.488281 94.722656 122.972656 L 95.886719 120.773438 L 97.277344 120.773438 L 94.273438 126.21875 C 94.101562 126.550781 93.90625 126.867188 93.6875 127.167969 C 93.546875 127.347656 93.378906 127.488281 93.175781 127.59375 C 92.945312 127.703125 92.703125 127.757812 92.449219 127.75 C 92.128906 127.742188 91.816406 127.691406 91.511719 127.597656 L 91.625 126.597656 C 91.777344 126.644531 91.929688 126.667969 92.089844 126.667969 C 92.492188 126.667969 92.824219 126.359375 93.082031 125.734375 Z M 92.238281 120.769531 " fill-opacity="1" fill-rule="nonzero"/></g><path fill="#ffffff" d="M 97.148438 123.671875 C 97.105469 122.835938 97.359375 122.101562 97.910156 121.472656 C 98.453125 120.894531 99.121094 120.621094 99.914062 120.652344 C 100.5625 120.617188 101.121094 120.820312 101.597656 121.261719 C 102.03125 121.714844 102.230469 122.257812 102.199219 122.890625 C 102.214844 123.683594 101.960938 124.375 101.445312 124.972656 C 100.910156 125.59375 100.234375 125.886719 99.417969 125.851562 C 98.988281 125.859375 98.582031 125.765625 98.199219 125.570312 C 97.851562 125.394531 97.585938 125.128906 97.40625 124.777344 C 97.230469 124.429688 97.144531 124.0625 97.148438 123.671875 Z M 100.894531 122.714844 C 100.910156 122.421875 100.820312 122.167969 100.625 121.949219 C 100.429688 121.75 100.195312 121.652344 99.917969 121.664062 C 99.636719 121.660156 99.382812 121.75 99.164062 121.933594 C 98.921875 122.144531 98.75 122.402344 98.652344 122.710938 C 98.535156 123.015625 98.476562 123.328125 98.46875 123.652344 C 98.453125 123.972656 98.546875 124.253906 98.753906 124.5 C 98.945312 124.714844 99.183594 124.820312 99.46875 124.8125 C 99.851562 124.8125 100.152344 124.652344 100.375 124.339844 C 100.738281 123.859375 100.914062 123.320312 100.894531 122.71875 Z M 100.894531 122.714844 " fill-opacity="1" fill-rule="nonzero"/><path fill="#ffffff" d="M 103.601562 120.769531 L 104.914062 120.769531 L 104.3125 123.710938 C 104.261719 123.925781 104.226562 124.148438 104.203125 124.367188 C 104.203125 124.515625 104.253906 124.636719 104.359375 124.738281 C 104.472656 124.847656 104.605469 124.898438 104.757812 124.890625 C 104.878906 124.890625 104.992188 124.871094 105.101562 124.824219 C 105.226562 124.773438 105.34375 124.703125 105.449219 124.617188 C 105.570312 124.527344 105.675781 124.421875 105.769531 124.304688 C 105.878906 124.160156 105.96875 124.003906 106.035156 123.835938 C 106.117188 123.609375 106.179688 123.375 106.222656 123.136719 L 106.707031 120.773438 L 108.023438 120.773438 L 107.003906 125.734375 L 105.777344 125.734375 L 105.914062 125.058594 C 105.441406 125.570312 104.855469 125.835938 104.160156 125.851562 C 103.984375 125.863281 103.816406 125.839844 103.652344 125.78125 C 103.488281 125.71875 103.34375 125.628906 103.222656 125.503906 C 103.097656 125.378906 103.003906 125.234375 102.945312 125.070312 C 102.882812 124.90625 102.859375 124.734375 102.871094 124.5625 C 102.898438 124.214844 102.949219 123.875 103.027344 123.539062 Z M 103.601562 120.769531 " fill-opacity="1" fill-rule="nonzero"/><path fill="#ffffff" d="M 111.074219 121.765625 L 111.273438 120.769531 L 111.917969 120.769531 L 112.078125 119.976562 L 113.585938 119.050781 L 113.234375 120.769531 L 114.035156 120.769531 L 113.835938 121.765625 L 113.027344 121.765625 L 112.601562 123.84375 C 112.550781 124.058594 112.511719 124.273438 112.484375 124.492188 C 112.480469 124.585938 112.511719 124.667969 112.582031 124.734375 C 112.6875 124.804688 112.804688 124.832031 112.929688 124.820312 C 112.988281 124.820312 113.132812 124.808594 113.363281 124.785156 L 113.160156 125.78125 C 112.929688 125.828125 112.695312 125.851562 112.460938 125.851562 C 112.09375 125.882812 111.753906 125.792969 111.449219 125.578125 C 111.222656 125.375 111.117188 125.125 111.132812 124.820312 C 111.164062 124.464844 111.21875 124.113281 111.304688 123.761719 L 111.710938 121.769531 Z M 111.074219 121.765625 " fill-opacity="1" fill-rule="nonzero"/><path fill="#ffffff" d="M 115.105469 125.734375 L 113.792969 125.734375 L 115.199219 118.882812 L 116.511719 118.882812 L 116.011719 121.320312 C 116.265625 121.113281 116.542969 120.941406 116.839844 120.808594 C 117.105469 120.703125 117.382812 120.652344 117.667969 120.652344 C 118.027344 120.632812 118.339844 120.75 118.601562 121 C 118.84375 121.25 118.960938 121.554688 118.945312 121.90625 C 118.929688 122.21875 118.886719 122.527344 118.816406 122.832031 L 118.21875 125.730469 L 116.90625 125.730469 L 117.515625 122.773438 C 117.5625 122.570312 117.59375 122.367188 117.613281 122.15625 C 117.617188 122.003906 117.566406 121.871094 117.460938 121.761719 C 117.34375 121.652344 117.207031 121.601562 117.046875 121.609375 C 116.808594 121.613281 116.601562 121.691406 116.414062 121.84375 C 116.152344 122.046875 115.953125 122.300781 115.816406 122.601562 C 115.679688 122.980469 115.582031 123.367188 115.515625 123.765625 Z M 115.105469 125.734375 " fill-opacity="1" fill-rule="nonzero"/><path fill="#ffffff" d="M 120.429688 120.769531 L 121.746094 120.769531 L 120.730469 125.734375 L 119.414062 125.734375 Z M 120.816406 118.882812 L 122.132812 118.882812 L 121.882812 120.097656 L 120.570312 120.097656 Z M 120.816406 118.882812 " fill-opacity="1" fill-rule="nonzero"/><path fill="#ffffff" d="M 122.964844 120.773438 L 124.210938 120.773438 L 124.082031 121.417969 C 124.34375 121.175781 124.632812 120.980469 124.957031 120.832031 C 125.226562 120.714844 125.511719 120.65625 125.808594 120.65625 C 126.175781 120.636719 126.492188 120.753906 126.757812 121.007812 C 127.003906 121.265625 127.117188 121.578125 127.101562 121.9375 C 127.078125 122.269531 127.027344 122.601562 126.949219 122.925781 L 126.378906 125.734375 L 125.0625 125.734375 L 125.640625 122.917969 C 125.699219 122.667969 125.742188 122.417969 125.769531 122.164062 C 125.777344 122.007812 125.726562 121.875 125.621094 121.761719 C 125.5 121.652344 125.363281 121.605469 125.207031 121.613281 C 124.964844 121.628906 124.75 121.710938 124.5625 121.863281 C 124.324219 122.03125 124.136719 122.25 124.007812 122.515625 C 123.855469 122.898438 123.746094 123.292969 123.679688 123.699219 L 123.261719 125.734375 L 121.945312 125.734375 Z M 122.964844 120.773438 " fill-opacity="1" fill-rule="nonzero"/><path fill="#ffffff" d="M 127.542969 125.734375 L 128.949219 118.882812 L 130.261719 118.882812 L 129.53125 122.449219 L 131.246094 120.769531 L 132.953125 120.769531 L 130.996094 122.574219 L 132.039062 125.734375 L 130.722656 125.734375 L 130.054688 123.441406 L 129.164062 124.242188 L 128.855469 125.734375 Z M 127.542969 125.734375 " fill-opacity="1" fill-rule="nonzero"/><g clip-path="url(#d406d446cc)"><path fill="#ffffff" d="M 133.453125 124.4375 L 134.757812 124.4375 L 134.492188 125.730469 L 133.1875 125.730469 Z M 133.453125 124.4375 " fill-opacity="1" fill-rule="nonzero"/></g><path fill="#e23827" d="M 50.039062 79.238281 L 52.0625 79.238281 L 52.0625 83.71875 L 50.039062 83.71875 Z M 50.039062 79.238281 " fill-opacity="1" fill-rule="nonzero"/></svg>