<svg xmlns="http://www.w3.org/2000/svg" xmlns:xlink="http://www.w3.org/1999/xlink" width="200" zoomAndPan="magnify" viewBox="0 0 150 149.999998" height="200" preserveAspectRatio="xMidYMid meet" version="1.0"><defs><clipPath id="e31cc602ee"><path d="M 16.609375 61 L 133.609375 61 L 133.609375 88 L 16.609375 88 Z M 16.609375 61 " clip-rule="nonzero"/></clipPath></defs><g clip-path="url(#e31cc602ee)"><path fill="#2d8cff" d="M 111.695312 69.71875 C 112.140625 70.480469 112.289062 71.347656 112.335938 72.324219 L 112.398438 73.621094 L 112.398438 82.710938 L 112.464844 84.007812 C 112.59375 86.132812 114.171875 87.703125 116.328125 87.839844 L 117.632812 87.902344 L 117.632812 73.621094 L 117.695312 72.324219 C 117.75 71.359375 117.894531 70.476562 118.347656 69.707031 C 118.460938 69.511719 118.589844 69.324219 118.726562 69.144531 C 118.867188 68.964844 119.019531 68.796875 119.179688 68.636719 C 119.339844 68.476562 119.511719 68.328125 119.695312 68.191406 C 119.875 68.050781 120.066406 67.925781 120.265625 67.816406 C 120.460938 67.703125 120.667969 67.601562 120.878906 67.515625 C 121.089844 67.429688 121.304688 67.355469 121.527344 67.300781 C 121.746094 67.242188 121.96875 67.195312 122.195312 67.167969 C 122.421875 67.136719 122.648438 67.125 122.878906 67.125 C 123.105469 67.125 123.335938 67.140625 123.5625 67.171875 C 123.785156 67.199219 124.011719 67.246094 124.230469 67.304688 C 124.453125 67.363281 124.667969 67.4375 124.878906 67.523438 C 125.089844 67.609375 125.292969 67.710938 125.492188 67.824219 C 125.6875 67.9375 125.878906 68.0625 126.058594 68.203125 C 126.238281 68.339844 126.410156 68.488281 126.570312 68.648438 C 126.734375 68.808594 126.882812 68.980469 127.023438 69.160156 C 127.160156 69.339844 127.285156 69.527344 127.402344 69.726562 C 127.847656 70.488281 127.984375 71.371094 128.039062 72.324219 L 128.101562 73.617188 L 128.101562 82.710938 L 128.167969 84.007812 C 128.300781 86.144531 129.867188 87.714844 132.03125 87.839844 L 133.335938 87.902344 L 133.335938 72.324219 C 133.335938 71.640625 133.269531 70.964844 133.136719 70.296875 C 133 69.628906 132.800781 68.980469 132.539062 68.347656 C 132.277344 67.71875 131.953125 67.121094 131.574219 66.554688 C 131.191406 65.984375 130.757812 65.460938 130.269531 64.980469 C 129.785156 64.496094 129.257812 64.066406 128.683594 63.6875 C 128.113281 63.308594 127.511719 62.988281 126.875 62.726562 C 126.242188 62.464844 125.585938 62.269531 124.914062 62.132812 C 124.238281 62 123.558594 61.933594 122.871094 61.933594 C 121.367188 61.933594 119.933594 62.238281 118.5625 62.851562 C 117.191406 63.464844 116.011719 64.332031 115.019531 65.453125 C 114.027344 64.332031 112.84375 63.46875 111.476562 62.851562 C 110.105469 62.238281 108.671875 61.933594 107.167969 61.933594 C 104.992188 61.933594 102.976562 62.585938 101.304688 63.71875 C 100.285156 62.589844 98.007812 61.933594 96.695312 61.933594 L 96.695312 87.902344 L 98.007812 87.839844 C 100.195312 87.695312 101.777344 86.167969 101.863281 84.007812 L 101.933594 82.710938 L 101.933594 73.621094 L 102 72.324219 C 102.054688 71.34375 102.191406 70.480469 102.636719 69.714844 C 103.105469 68.914062 103.746094 68.28125 104.554688 67.820312 C 105.363281 67.359375 106.234375 67.125 107.167969 67.125 C 108.101562 67.125 108.972656 67.359375 109.78125 67.820312 C 110.589844 68.285156 111.230469 68.917969 111.695312 69.71875 Z M 22.113281 87.839844 L 23.425781 87.902344 L 43.050781 87.902344 L 42.984375 86.605469 C 42.808594 84.472656 41.285156 82.914062 39.125 82.773438 L 37.816406 82.710938 L 26.042969 82.710938 L 41.742188 67.125 L 41.675781 65.832031 C 41.574219 63.675781 39.984375 62.117188 37.816406 61.996094 L 36.507812 61.9375 L 16.882812 61.933594 L 16.945312 63.230469 C 17.117188 65.347656 18.664062 66.9375 20.804688 67.0625 L 22.113281 67.125 L 33.890625 67.125 L 18.191406 82.710938 L 18.253906 84.007812 C 18.382812 86.148438 19.941406 87.699219 22.113281 87.839844 Z M 91.558594 65.734375 C 92.167969 66.335938 92.710938 66.992188 93.1875 67.703125 C 93.664062 68.410156 94.066406 69.160156 94.398438 69.945312 C 94.726562 70.734375 94.972656 71.546875 95.140625 72.382812 C 95.308594 73.21875 95.394531 74.0625 95.394531 74.917969 C 95.394531 75.769531 95.308594 76.613281 95.140625 77.449219 C 94.972656 78.285156 94.726562 79.097656 94.398438 79.886719 C 94.066406 80.671875 93.664062 81.421875 93.1875 82.128906 C 92.710938 82.839844 92.167969 83.496094 91.558594 84.097656 C 90.953125 84.699219 90.289062 85.238281 89.578125 85.710938 C 88.863281 86.1875 88.105469 86.585938 87.3125 86.914062 C 86.519531 87.238281 85.699219 87.484375 84.859375 87.652344 C 84.015625 87.816406 83.164062 87.898438 82.304688 87.898438 C 81.445312 87.898438 80.59375 87.816406 79.753906 87.652344 C 78.910156 87.484375 78.089844 87.238281 77.296875 86.914062 C 76.503906 86.585938 75.75 86.1875 75.035156 85.710938 C 74.320312 85.238281 73.660156 84.699219 73.050781 84.097656 C 67.941406 79.027344 67.941406 70.804688 73.050781 65.734375 C 74.277344 64.515625 75.691406 63.578125 77.292969 62.921875 C 78.894531 62.261719 80.5625 61.933594 82.296875 61.929688 C 84.035156 61.929688 85.703125 62.257812 87.308594 62.917969 C 88.914062 63.578125 90.332031 64.515625 91.558594 65.734375 Z M 87.855469 69.410156 C 88.222656 69.773438 88.546875 70.167969 88.832031 70.59375 C 89.121094 71.019531 89.359375 71.464844 89.558594 71.9375 C 89.753906 72.410156 89.90625 72.898438 90.003906 73.402344 C 90.105469 73.902344 90.15625 74.410156 90.15625 74.921875 C 90.15625 75.433594 90.105469 75.9375 90.003906 76.441406 C 89.90625 76.941406 89.753906 77.429688 89.558594 77.902344 C 89.359375 78.375 89.121094 78.824219 88.832031 79.25 C 88.546875 79.675781 88.222656 80.070312 87.855469 80.429688 C 87.492188 80.792969 87.097656 81.113281 86.667969 81.398438 C 86.238281 81.683594 85.785156 81.921875 85.308594 82.117188 C 84.832031 82.316406 84.34375 82.460938 83.835938 82.5625 C 83.332031 82.660156 82.820312 82.710938 82.304688 82.710938 C 81.789062 82.710938 81.277344 82.660156 80.773438 82.5625 C 80.269531 82.460938 79.777344 82.316406 79.300781 82.117188 C 78.824219 81.921875 78.371094 81.683594 77.941406 81.398438 C 77.515625 81.113281 77.117188 80.792969 76.753906 80.429688 C 76.390625 80.070312 76.0625 79.675781 75.777344 79.25 C 75.492188 78.824219 75.25 78.375 75.050781 77.902344 C 74.855469 77.429688 74.707031 76.941406 74.605469 76.441406 C 74.503906 75.9375 74.453125 75.433594 74.453125 74.921875 C 74.453125 74.410156 74.503906 73.902344 74.605469 73.402344 C 74.707031 72.898438 74.855469 72.410156 75.050781 71.9375 C 75.25 71.464844 75.492188 71.019531 75.777344 70.59375 C 76.0625 70.167969 76.390625 69.773438 76.753906 69.410156 C 77.117188 69.050781 77.515625 68.726562 77.941406 68.441406 C 78.371094 68.160156 78.824219 67.917969 79.300781 67.722656 C 79.777344 67.527344 80.269531 67.378906 80.773438 67.28125 C 81.277344 67.179688 81.789062 67.128906 82.304688 67.128906 C 82.820312 67.128906 83.332031 67.179688 83.835938 67.28125 C 84.34375 67.378906 84.832031 67.527344 85.308594 67.722656 C 85.785156 67.917969 86.238281 68.160156 86.667969 68.441406 C 87.097656 68.726562 87.492188 69.050781 87.855469 69.410156 Z M 54.835938 61.929688 C 56.570312 61.933594 58.238281 62.261719 59.839844 62.921875 C 61.441406 63.578125 62.855469 64.519531 64.082031 65.734375 C 69.191406 70.804688 69.191406 79.027344 64.082031 84.097656 C 63.472656 84.699219 62.8125 85.238281 62.097656 85.710938 C 61.382812 86.1875 60.628906 86.585938 59.835938 86.914062 C 59.042969 87.238281 58.222656 87.484375 57.378906 87.652344 C 56.539062 87.816406 55.6875 87.898438 54.828125 87.898438 C 53.96875 87.898438 53.117188 87.816406 52.273438 87.652344 C 51.429688 87.484375 50.613281 87.238281 49.820312 86.914062 C 49.023438 86.585938 48.269531 86.1875 47.554688 85.710938 C 46.839844 85.238281 46.179688 84.699219 45.574219 84.097656 C 40.464844 79.027344 40.464844 70.804688 45.574219 65.734375 C 46.796875 64.515625 48.210938 63.578125 49.816406 62.921875 C 51.417969 62.261719 53.085938 61.933594 54.820312 61.929688 Z M 60.378906 69.410156 C 60.742188 69.769531 61.070312 70.164062 61.355469 70.589844 C 61.640625 71.015625 61.882812 71.464844 62.082031 71.9375 C 62.277344 72.410156 62.425781 72.898438 62.527344 73.398438 C 62.628906 73.902344 62.679688 74.40625 62.679688 74.917969 C 62.679688 75.429688 62.628906 75.9375 62.527344 76.4375 C 62.425781 76.941406 62.277344 77.429688 62.082031 77.902344 C 61.882812 78.375 61.640625 78.824219 61.355469 79.25 C 61.070312 79.671875 60.742188 80.066406 60.378906 80.429688 C 60.015625 80.789062 59.617188 81.113281 59.1875 81.398438 C 58.761719 81.683594 58.308594 81.921875 57.832031 82.117188 C 57.355469 82.3125 56.863281 82.460938 56.359375 82.5625 C 55.851562 82.660156 55.34375 82.710938 54.828125 82.710938 C 54.3125 82.710938 53.800781 82.660156 53.296875 82.5625 C 52.789062 82.460938 52.300781 82.3125 51.824219 82.117188 C 51.347656 81.921875 50.894531 81.683594 50.464844 81.398438 C 50.035156 81.113281 49.640625 80.789062 49.273438 80.429688 C 48.910156 80.066406 48.585938 79.671875 48.300781 79.25 C 48.011719 78.824219 47.769531 78.375 47.574219 77.902344 C 47.375 77.429688 47.226562 76.941406 47.128906 76.441406 C 47.027344 75.9375 46.976562 75.429688 46.976562 74.917969 C 46.976562 74.40625 47.027344 73.902344 47.128906 73.398438 C 47.226562 72.898438 47.375 72.410156 47.574219 71.9375 C 47.769531 71.464844 48.011719 71.015625 48.300781 70.589844 C 48.585938 70.164062 48.910156 69.773438 49.273438 69.410156 C 49.640625 69.046875 50.035156 68.726562 50.464844 68.441406 C 50.894531 68.15625 51.347656 67.917969 51.824219 67.722656 C 52.300781 67.527344 52.789062 67.378906 53.296875 67.277344 C 53.800781 67.179688 54.3125 67.128906 54.828125 67.128906 C 55.34375 67.128906 55.851562 67.179688 56.359375 67.277344 C 56.863281 67.378906 57.355469 67.527344 57.832031 67.722656 C 58.308594 67.917969 58.761719 68.15625 59.1875 68.441406 C 59.617188 68.726562 60.015625 69.046875 60.378906 69.410156 Z M 60.378906 69.410156 " fill-opacity="1" fill-rule="evenodd"/></g></svg>